%TF.GenerationSoftware,Altium Limited,Altium Designer,23.11.1 (41)*%
G04 Layer_Color=2752767*
%FSLAX45Y45*%
%MOMM*%
%TF.SameCoordinates,178855CC-FEA8-4967-A87F-AED42C0F3613*%
%TF.FilePolarity,Positive*%
%TF.FileFunction,Drawing*%
%TF.Part,Single*%
G01*
G75*
%TA.AperFunction,NonConductor*%
%ADD50C,0.12700*%
%ADD103C,0.16933*%
D50*
X3399200Y199200D02*
X3424600D01*
X3450000Y224600D01*
X3475400Y199200D01*
X3500800D01*
Y224600D01*
X3475400Y250000D01*
X3500800Y275400D01*
Y300800D01*
X3475400D01*
X3450000Y275400D01*
X3424600Y300800D01*
X3399200D01*
Y275400D01*
X3424600Y250000D01*
X3399200Y224600D01*
Y199200D01*
X4999200Y4199200D02*
X5024600D01*
X5050000Y4224600D01*
X5075400Y4199200D01*
X5100800D01*
Y4224600D01*
X5075400Y4250000D01*
X5100800Y4275400D01*
Y4300800D01*
X5075400D01*
X5050000Y4275400D01*
X5024600Y4300800D01*
X4999200D01*
Y4275400D01*
X5024600Y4250000D01*
X4999200Y4224600D01*
Y4199200D01*
X3899961Y3518961D02*
Y3493561D01*
X3950761D01*
Y3518961D01*
X3976161D01*
Y3569761D01*
X3950761D01*
Y3595161D01*
X3899961D01*
Y3569761D01*
X3874561D01*
Y3518961D01*
X3899961D01*
X4253515Y3872515D02*
Y3847115D01*
X4304315D01*
Y3872515D01*
X4329715D01*
Y3923315D01*
X4304315D01*
Y3948715D01*
X4253515D01*
Y3923315D01*
X4228115D01*
Y3872515D01*
X4253515D01*
X2984538Y3916338D02*
Y3890938D01*
X3035338D01*
Y3916338D01*
X3060738D01*
Y3967138D01*
X3035338D01*
Y3992538D01*
X2984538D01*
Y3967138D01*
X2959138D01*
Y3916338D01*
X2984538D01*
Y3416338D02*
Y3390938D01*
X3035338D01*
Y3416338D01*
X3060738D01*
Y3467138D01*
X3035338D01*
Y3492538D01*
X2984538D01*
Y3467138D01*
X2959138D01*
Y3416338D01*
X2984538D01*
X5880138Y1968538D02*
X5829338Y2070138D01*
X5930938D01*
X5880138Y1968538D01*
Y2476538D02*
X5829338Y2578138D01*
X5930938D01*
X5880138Y2476538D01*
X241338Y889038D02*
Y990638D01*
X342938D01*
Y889038D01*
X241338D01*
Y1139038D02*
Y1240638D01*
X342938D01*
Y1139038D01*
X241338D01*
Y1639038D02*
Y1740638D01*
X342938D01*
Y1639038D01*
X241338D01*
Y1389038D02*
Y1490638D01*
X342938D01*
Y1389038D01*
X241338D01*
X203238Y3581438D02*
Y3683038D01*
X304838D01*
Y3581438D01*
X203238D01*
X457238D02*
Y3683038D01*
X558838D01*
Y3581438D01*
X457238D01*
X1460538Y2921038D02*
X1485938Y2946438D01*
X1511338D01*
X1485938Y2971838D01*
X1511338Y2997238D01*
X1485938D01*
X1460538Y3022638D01*
X1435138Y2997238D01*
X1409738D01*
X1435138Y2971838D01*
X1409738Y2946438D01*
X1435138D01*
X1460538Y2921038D01*
Y2794038D02*
X1485938Y2819438D01*
X1511338D01*
X1485938Y2844838D01*
X1511338Y2870238D01*
X1485938D01*
X1460538Y2895638D01*
X1435138Y2870238D01*
X1409738D01*
X1435138Y2844838D01*
X1409738Y2819438D01*
X1435138D01*
X1460538Y2794038D01*
Y2667038D02*
X1485938Y2692438D01*
X1511338D01*
X1485938Y2717838D01*
X1511338Y2743238D01*
X1485938D01*
X1460538Y2768638D01*
X1435138Y2743238D01*
X1409738D01*
X1435138Y2717838D01*
X1409738Y2692438D01*
X1435138D01*
X1460538Y2667038D01*
Y2146339D02*
X1485938Y2171739D01*
X1511338D01*
X1485938Y2197139D01*
X1511338Y2222539D01*
X1485938D01*
X1460538Y2247939D01*
X1435138Y2222539D01*
X1409738D01*
X1435138Y2197139D01*
X1409738Y2171739D01*
X1435138D01*
X1460538Y2146339D01*
Y2273338D02*
X1485938Y2298738D01*
X1511338D01*
X1485938Y2324138D01*
X1511338Y2349538D01*
X1485938D01*
X1460538Y2374938D01*
X1435138Y2349538D01*
X1409738D01*
X1435138Y2324138D01*
X1409738Y2298738D01*
X1435138D01*
X1460538Y2273338D01*
Y2400338D02*
X1485938Y2425738D01*
X1511338D01*
X1485938Y2451138D01*
X1511338Y2476538D01*
X1485938D01*
X1460538Y2501938D01*
X1435138Y2476538D01*
X1409738D01*
X1435138Y2451138D01*
X1409738Y2425738D01*
X1435138D01*
X1460538Y2400338D01*
X2057438Y3759238D02*
X2006638Y3860838D01*
X2108238D01*
X2057438Y3759238D01*
X1549438D02*
X1498638Y3860838D01*
X1600238D01*
X1549438Y3759238D01*
X199200Y4199200D02*
X224600D01*
X250000Y4224600D01*
X275400Y4199200D01*
X300800D01*
Y4224600D01*
X275400Y4250000D01*
X300800Y4275400D01*
Y4300800D01*
X275400D01*
X250000Y4275400D01*
X224600Y4300800D01*
X199200D01*
Y4275400D01*
X224600Y4250000D01*
X199200Y4224600D01*
Y4199200D01*
X203238Y2311438D02*
Y2413038D01*
X304838D01*
Y2311438D01*
X203238D01*
X457238D02*
Y2413038D01*
X558838D01*
Y2311438D01*
X457238D01*
X203238Y2946438D02*
Y3048038D01*
X304838D01*
Y2946438D01*
X203238D01*
X457238D02*
Y3048038D01*
X558838D01*
Y2946438D01*
X457238D01*
X199200Y199200D02*
X224600D01*
X250000Y224600D01*
X275400Y199200D01*
X300800D01*
Y224600D01*
X275400Y250000D01*
X300800Y275400D01*
Y300800D01*
X275400D01*
X250000Y275400D01*
X224600Y300800D01*
X199200D01*
Y275400D01*
X224600Y250000D01*
X199200Y224600D01*
Y199200D01*
X6199200D02*
X6224600D01*
X6250000Y224600D01*
X6275400Y199200D01*
X6300800D01*
Y224600D01*
X6275400Y250000D01*
X6300800Y275400D01*
Y300800D01*
X6275400D01*
X6250000Y275400D01*
X6224600Y300800D01*
X6199200D01*
Y275400D01*
X6224600Y250000D01*
X6199200Y224600D01*
Y199200D01*
Y4199200D02*
X6224600D01*
X6250000Y4224600D01*
X6275400Y4199200D01*
X6300800D01*
Y4224600D01*
X6275400Y4250000D01*
X6300800Y4275400D01*
Y4300800D01*
X6275400D01*
X6250000Y4275400D01*
X6224600Y4300800D01*
X6199200D01*
Y4275400D01*
X6224600Y4250000D01*
X6199200Y4224600D01*
Y4199200D01*
D103*
X3223538Y1831538D02*
G03*
X3223538Y1831538I-50800J0D01*
G01*
X3121938Y1729938D02*
G03*
X3121938Y1729938I-50800J0D01*
G01*
X3223538Y1628338D02*
G03*
X3223538Y1628338I-50800J0D01*
G01*
X3325138Y1729938D02*
G03*
X3325138Y1729938I-50800J0D01*
G01*
X3223538D02*
G03*
X3223538Y1729938I-50800J0D01*
G01*
X4826038Y1790738D02*
G03*
X4826038Y1790738I-50800J0D01*
G01*
X4787938Y1536738D02*
G03*
X4787938Y1536738I-50800J0D01*
G01*
X4902238Y1282738D02*
G03*
X4902238Y1282738I-50800J0D01*
G01*
Y1155738D02*
G03*
X4902238Y1155738I-50800J0D01*
G01*
X4787938Y1282738D02*
G03*
X4787938Y1282738I-50800J0D01*
G01*
X5016538Y1155738D02*
G03*
X5016538Y1155738I-50800J0D01*
G01*
X4902238Y1536738D02*
G03*
X4902238Y1536738I-50800J0D01*
G01*
X5016538Y1409738D02*
G03*
X5016538Y1409738I-50800J0D01*
G01*
X4787938Y1155738D02*
G03*
X4787938Y1155738I-50800J0D01*
G01*
X4902238Y1409738D02*
G03*
X4902238Y1409738I-50800J0D01*
G01*
X5016538Y1536738D02*
G03*
X5016538Y1536738I-50800J0D01*
G01*
Y1282738D02*
G03*
X5016538Y1282738I-50800J0D01*
G01*
X4787938Y1409738D02*
G03*
X4787938Y1409738I-50800J0D01*
G01*
X5054638Y2171738D02*
G03*
X5054638Y2171738I-50800J0D01*
G01*
X4940338D02*
G03*
X4940338Y2171738I-50800J0D01*
G01*
X4826038D02*
G03*
X4826038Y2171738I-50800J0D01*
G01*
Y2044738D02*
G03*
X4826038Y2044738I-50800J0D01*
G01*
X4940338D02*
G03*
X4940338Y2044738I-50800J0D01*
G01*
X5054638D02*
G03*
X5054638Y2044738I-50800J0D01*
G01*
Y1790738D02*
G03*
X5054638Y1790738I-50800J0D01*
G01*
X4940338D02*
G03*
X4940338Y1790738I-50800J0D01*
G01*
X4826038Y1917738D02*
G03*
X4826038Y1917738I-50800J0D01*
G01*
X4940338D02*
G03*
X4940338Y1917738I-50800J0D01*
G01*
X5054638D02*
G03*
X5054638Y1917738I-50800J0D01*
G01*
X4622838Y2921038D02*
G03*
X4622838Y2921038I-50800J0D01*
G01*
X4508538D02*
G03*
X4508538Y2921038I-50800J0D01*
G01*
X4394238D02*
G03*
X4394238Y2921038I-50800J0D01*
G01*
Y2794038D02*
G03*
X4394238Y2794038I-50800J0D01*
G01*
X4508538D02*
G03*
X4508538Y2794038I-50800J0D01*
G01*
X4622838D02*
G03*
X4622838Y2794038I-50800J0D01*
G01*
Y2540038D02*
G03*
X4622838Y2540038I-50800J0D01*
G01*
X4508538D02*
G03*
X4508538Y2540038I-50800J0D01*
G01*
X4394238D02*
G03*
X4394238Y2540038I-50800J0D01*
G01*
Y2667038D02*
G03*
X4394238Y2667038I-50800J0D01*
G01*
X4508538D02*
G03*
X4508538Y2667038I-50800J0D01*
G01*
X4622838D02*
G03*
X4622838Y2667038I-50800J0D01*
G01*
X4660938Y533438D02*
G03*
X4660938Y533438I-50800J0D01*
G01*
X4546638D02*
G03*
X4546638Y533438I-50800J0D01*
G01*
X4432338D02*
G03*
X4432338Y533438I-50800J0D01*
G01*
Y406438D02*
G03*
X4432338Y406438I-50800J0D01*
G01*
X4546638D02*
G03*
X4546638Y406438I-50800J0D01*
G01*
X4660938D02*
G03*
X4660938Y406438I-50800J0D01*
G01*
Y660438D02*
G03*
X4660938Y660438I-50800J0D01*
G01*
X4546638D02*
G03*
X4546638Y660438I-50800J0D01*
G01*
X4432338D02*
G03*
X4432338Y660438I-50800J0D01*
G01*
Y787438D02*
G03*
X4432338Y787438I-50800J0D01*
G01*
X4546638D02*
G03*
X4546638Y787438I-50800J0D01*
G01*
X4660938D02*
G03*
X4660938Y787438I-50800J0D01*
G01*
X4737138Y165138D02*
G03*
X4737138Y165138I-50800J0D01*
G01*
Y266738D02*
G03*
X4737138Y266738I-50800J0D01*
G01*
X4013238Y787438D02*
G03*
X4013238Y787438I-50800J0D01*
G01*
X3886238D02*
G03*
X3886238Y787438I-50800J0D01*
G01*
X4127538D02*
G03*
X4127538Y787438I-50800J0D01*
G01*
X4241838D02*
G03*
X4241838Y787438I-50800J0D01*
G01*
X4368838Y1663738D02*
G03*
X4368838Y1663738I-50800J0D01*
G01*
Y1549438D02*
G03*
X4368838Y1549438I-50800J0D01*
G01*
X4457738Y1346238D02*
G03*
X4457738Y1346238I-50800J0D01*
G01*
Y1473238D02*
G03*
X4457738Y1473238I-50800J0D01*
G01*
Y1955838D02*
G03*
X4457738Y1955838I-50800J0D01*
G01*
X304838Y1981238D02*
G03*
X304838Y1981238I-50800J0D01*
G01*
X2946438Y508038D02*
G03*
X2946438Y508038I-50800J0D01*
G01*
X1016038Y2705138D02*
G03*
X1016038Y2705138I-50800J0D01*
G01*
X1168438Y2349538D02*
G03*
X1168438Y2349538I-50800J0D01*
G01*
X1346238Y2717838D02*
G03*
X1346238Y2717838I-50800J0D01*
G01*
X723938Y2743238D02*
G03*
X723938Y2743238I-50800J0D01*
G01*
X914438Y2768638D02*
G03*
X914438Y2768638I-50800J0D01*
G01*
X838238Y2616238D02*
G03*
X838238Y2616238I-50800J0D01*
G01*
X2425738Y1435138D02*
G03*
X2425738Y1435138I-50800J0D01*
G01*
X3733838Y1993938D02*
G03*
X3733838Y1993938I-50800J0D01*
G01*
X3848138Y482638D02*
G03*
X3848138Y482638I-50800J0D01*
G01*
X3835438Y685838D02*
G03*
X3835438Y685838I-50800J0D01*
G01*
Y2806738D02*
G03*
X3835438Y2806738I-50800J0D01*
G01*
Y2590838D02*
G03*
X3835438Y2590838I-50800J0D01*
G01*
X4013238Y381038D02*
G03*
X4013238Y381038I-50800J0D01*
G01*
X4127538D02*
G03*
X4127538Y381038I-50800J0D01*
G01*
X4241838D02*
G03*
X4241838Y381038I-50800J0D01*
G01*
Y584238D02*
G03*
X4241838Y584238I-50800J0D01*
G01*
X3060738Y622338D02*
G03*
X3060738Y622338I-50800J0D01*
G01*
X3213138Y762038D02*
G03*
X3213138Y762038I-50800J0D01*
G01*
X3314738Y1219238D02*
G03*
X3314738Y1219238I-50800J0D01*
G01*
X2425738Y977938D02*
G03*
X2425738Y977938I-50800J0D01*
G01*
Y622338D02*
G03*
X2425738Y622338I-50800J0D01*
G01*
X3187738Y2362238D02*
G03*
X3187738Y2362238I-50800J0D01*
G01*
X2425738Y2057438D02*
G03*
X2425738Y2057438I-50800J0D01*
G01*
Y2362238D02*
G03*
X2425738Y2362238I-50800J0D01*
G01*
Y1778038D02*
G03*
X2425738Y1778038I-50800J0D01*
G01*
X3898938Y381038D02*
G03*
X3898938Y381038I-50800J0D01*
G01*
X3886238Y584238D02*
G03*
X3886238Y584238I-50800J0D01*
G01*
X3949738Y685838D02*
G03*
X3949738Y685838I-50800J0D01*
G01*
X4127538Y584238D02*
G03*
X4127538Y584238I-50800J0D01*
G01*
X4013238D02*
G03*
X4013238Y584238I-50800J0D01*
G01*
X4178338Y685838D02*
G03*
X4178338Y685838I-50800J0D01*
G01*
X4064038D02*
G03*
X4064038Y685838I-50800J0D01*
G01*
X4076738Y482638D02*
G03*
X4076738Y482638I-50800J0D01*
G01*
X4191038D02*
G03*
X4191038Y482638I-50800J0D01*
G01*
X3962438D02*
G03*
X3962438Y482638I-50800J0D01*
G01*
X3911638Y2489238D02*
G03*
X3911638Y2489238I-50800J0D01*
G01*
X3975138Y2590838D02*
G03*
X3975138Y2590838I-50800J0D01*
G01*
X4203738D02*
G03*
X4203738Y2590838I-50800J0D01*
G01*
X4089438D02*
G03*
X4089438Y2590838I-50800J0D01*
G01*
X2705138Y2362238D02*
G03*
X2705138Y2362238I-50800J0D01*
G01*
X4648238Y1663738D02*
G03*
X4648238Y1663738I-50800J0D01*
G01*
X4521238D02*
G03*
X4521238Y1663738I-50800J0D01*
G01*
X4572038Y1473238D02*
G03*
X4572038Y1473238I-50800J0D01*
G01*
Y1346238D02*
G03*
X4572038Y1346238I-50800J0D01*
G01*
Y1981238D02*
G03*
X4572038Y1981238I-50800J0D01*
G01*
Y2108238D02*
G03*
X4572038Y2108238I-50800J0D01*
G01*
X4038638Y228638D02*
G03*
X4038638Y228638I-50800J0D01*
G01*
X5334038Y215938D02*
G03*
X5334038Y215938I-50800J0D01*
G01*
X5575338Y457238D02*
G03*
X5575338Y457238I-50800J0D01*
G01*
X5816638Y698538D02*
G03*
X5816638Y698538I-50800J0D01*
G01*
X6045238Y927138D02*
G03*
X6045238Y927138I-50800J0D01*
G01*
X6273838Y1168438D02*
G03*
X6273838Y1168438I-50800J0D01*
G01*
X6451638Y1371638D02*
G03*
X6451638Y1371638I-50800J0D01*
G01*
X6464338Y1879638D02*
G03*
X6464338Y1879638I-50800J0D01*
G01*
Y2286038D02*
G03*
X6464338Y2286038I-50800J0D01*
G01*
X6451638Y3048038D02*
G03*
X6451638Y3048038I-50800J0D01*
G01*
X5676938Y3060738D02*
G03*
X5676938Y3060738I-50800J0D01*
G01*
X5156238D02*
G03*
X5156238Y3060738I-50800J0D01*
G01*
X4584738Y3276638D02*
G03*
X4584738Y3276638I-50800J0D01*
G01*
X4927638D02*
G03*
X4927638Y3276638I-50800J0D01*
G01*
X3352838Y2692438D02*
G03*
X3352838Y2692438I-50800J0D01*
G01*
X4102138Y3975138D02*
G03*
X4102138Y3975138I-50800J0D01*
G01*
X4318038Y3276638D02*
G03*
X4318038Y3276638I-50800J0D01*
G01*
X3810038Y4267238D02*
G03*
X3810038Y4267238I-50800J0D01*
G01*
X4368838Y2019338D02*
G03*
X4368838Y2019338I-50800J0D01*
G01*
X4457738Y2082838D02*
G03*
X4457738Y2082838I-50800J0D01*
G01*
X4368838Y1879638D02*
G03*
X4368838Y1879638I-50800J0D01*
G01*
X4457738Y1231938D02*
G03*
X4457738Y1231938I-50800J0D01*
G01*
X4368838Y1409738D02*
G03*
X4368838Y1409738I-50800J0D01*
G01*
X3835400Y228600D02*
G03*
X3835400Y228600I-50800J0D01*
G01*
X3670338Y482638D02*
G03*
X3670338Y482638I-50800J0D01*
G01*
Y749338D02*
G03*
X3670338Y749338I-50800J0D01*
G01*
X3543338Y889038D02*
G03*
X3543338Y889038I-50800J0D01*
G01*
X3340138D02*
G03*
X3340138Y889038I-50800J0D01*
G01*
X2959138Y2362238D02*
G03*
X2959138Y2362238I-50800J0D01*
G01*
X3352838Y3022638D02*
G03*
X3352838Y3022638I-50800J0D01*
G01*
X2692438Y3429038D02*
G03*
X2692438Y3429038I-50800J0D01*
G01*
X2197138D02*
G03*
X2197138Y3429038I-50800J0D01*
G01*
X4089438Y2806738D02*
G03*
X4089438Y2806738I-50800J0D01*
G01*
X4203738D02*
G03*
X4203738Y2806738I-50800J0D01*
G01*
X4038638Y2705138D02*
G03*
X4038638Y2705138I-50800J0D01*
G01*
X4152938Y2908338D02*
G03*
X4152938Y2908338I-50800J0D01*
G01*
X4038638D02*
G03*
X4038638Y2908338I-50800J0D01*
G01*
X4152938Y2705138D02*
G03*
X4152938Y2705138I-50800J0D01*
G01*
X3911638Y2908338D02*
G03*
X3911638Y2908338I-50800J0D01*
G01*
X3975138Y2806738D02*
G03*
X3975138Y2806738I-50800J0D01*
G01*
X3911638Y2705138D02*
G03*
X3911638Y2705138I-50800J0D01*
G01*
%TF.MD5,75251236ae7325aa2ecd860621d936b6*%
M02*
