%TF.GenerationSoftware,Altium Limited,Altium Designer,23.11.1 (41)*%
G04 Layer_Color=32768*
%FSLAX45Y45*%
%MOMM*%
%TF.SameCoordinates,373CF29D-5C1F-4E46-B166-7562B9940524*%
%TF.FilePolarity,Positive*%
%TF.FileFunction,Other,Top_Courtyard*%
%TF.Part,Single*%
G01*
G75*
%TA.AperFunction,NonConductor*%
%ADD51C,0.12700*%
%ADD52C,0.15240*%
%ADD53C,0.20000*%
%ADD84C,0.10000*%
%ADD85C,0.05000*%
G36*
X4200858Y890038D02*
X4922618D01*
Y329238D01*
X4200858D01*
Y890038D01*
D02*
G37*
G36*
X5197218Y1065838D02*
X4475458D01*
Y1626638D01*
X5197218D01*
Y1065838D01*
D02*
G37*
G36*
X5199618Y1700838D02*
X4477858D01*
Y2261638D01*
X5199618D01*
Y1700838D01*
D02*
G37*
G36*
X4162758Y3023638D02*
X4884518D01*
Y2462838D01*
X4162758D01*
Y3023638D01*
D02*
G37*
D51*
X741038Y3632238D02*
G03*
X741038Y3632238I-360000J0D01*
G01*
Y2362238D02*
G03*
X741038Y2362238I-360000J0D01*
G01*
Y2997238D02*
G03*
X741038Y2997238I-360000J0D01*
G01*
D52*
X4477858Y1700838D02*
Y2261638D01*
X5199618D01*
Y1700838D02*
Y2261638D01*
X4477858Y1700838D02*
X5199618D01*
X4884518Y2462838D02*
Y3023638D01*
X4162758Y2462838D02*
X4884518D01*
X4162758D02*
Y3023638D01*
X4884518D01*
X4475458Y1065838D02*
Y1626638D01*
X5197218D01*
Y1065838D02*
Y1626638D01*
X4475458Y1065838D02*
X5197218D01*
X4922618Y329238D02*
Y890038D01*
X4200858Y329238D02*
X4922618D01*
X4200858D02*
Y890038D01*
X4922618D01*
D53*
X3616138Y2357138D02*
X3826138D01*
X3616138Y2037138D02*
Y2357138D01*
Y2037138D02*
X3826138D01*
Y2357138D01*
X2814338Y822138D02*
Y1032138D01*
X2494338D02*
X2814338D01*
X2494338Y822138D02*
Y1032138D01*
Y822138D02*
X2814338D01*
X4573638Y3048538D02*
Y3428538D01*
X4773638D01*
Y3048538D02*
Y3428538D01*
X4573638Y3048538D02*
X4773638D01*
X4229638Y328638D02*
X4609638D01*
Y128638D02*
Y328638D01*
X4229638Y128638D02*
X4609638D01*
X4229638D02*
Y328638D01*
X3213638Y2020938D02*
X3593638D01*
X3213638D02*
Y2220938D01*
X3593638D01*
Y2020938D02*
Y2220938D01*
X2862638Y2028638D02*
X3182638D01*
X2862638D02*
Y2238638D01*
X3182638D01*
Y2028638D02*
Y2238638D01*
X2464338Y1944738D02*
X2844338D01*
X2464338D02*
Y2144738D01*
X2844338D01*
Y1944738D02*
Y2144738D01*
X3593638Y2262238D02*
Y2462238D01*
X3213638D02*
X3593638D01*
X3213638Y2262238D02*
Y2462238D01*
Y2262238D02*
X3593638D01*
X2464338Y1703438D02*
X2844338D01*
X2464338D02*
Y1903438D01*
X2844338D01*
Y1703438D02*
Y1903438D01*
D84*
X1117638Y2312238D02*
Y2412238D01*
X1067638Y2362238D02*
X1167638D01*
X1117638Y2921938D02*
Y3021938D01*
X1067638Y2971938D02*
X1167638D01*
X2654300Y1423200D02*
Y1523200D01*
X2604300Y1473200D02*
X2704300D01*
X2604338Y1219238D02*
X2704338D01*
X2654338Y1169238D02*
Y1269238D01*
X2134438Y1117638D02*
X2234438D01*
X2184438Y1067638D02*
Y1167638D01*
X1893138Y1117638D02*
X1993138D01*
X1943138Y1067638D02*
Y1167638D01*
D85*
X4627138Y3721138D02*
G03*
X4627138Y3721138I-525000J0D01*
G01*
X3534938Y3691738D02*
G03*
X3534938Y3691738I-525000J0D01*
G01*
X5325138Y2863338D02*
X6495138D01*
Y1740338D02*
Y2863338D01*
X5325138Y1740338D02*
X6495138D01*
X5325138D02*
Y2863338D01*
X32138Y1959838D02*
X657138D01*
X32138Y669838D02*
Y1959838D01*
Y669838D02*
X657138D01*
Y1959838D01*
X1329538Y2596838D02*
Y3092838D01*
Y2596838D02*
X1710038D01*
X1329538Y3092838D02*
X1701838Y3092838D01*
X1710038Y2596838D02*
Y3092838D01*
X972638Y2632238D02*
X1262638D01*
X972638Y2092238D02*
X1262638D01*
Y2632238D01*
X972638Y2092238D02*
Y2632238D01*
Y3241938D02*
X1262638D01*
X972638Y2701938D02*
X1262638D01*
Y3241938D01*
X972638Y2701938D02*
Y3241938D01*
X1710038Y2076139D02*
Y2572139D01*
X1329538D02*
X1701838Y2572138D01*
X1329538Y2076139D02*
X1710038D01*
X1329538D02*
Y2572139D01*
X1270438Y4365038D02*
X2393438D01*
X1270438Y3195038D02*
Y4365038D01*
Y3195038D02*
X2393438D01*
Y4365038D01*
X2384300Y1618200D02*
X2924300D01*
X2384300Y1328200D02*
X2924300D01*
X2384300D02*
Y1618200D01*
X2924300Y1328200D02*
Y1618200D01*
X776138Y2797238D02*
X951138D01*
Y3197238D01*
X776138D02*
X951138D01*
X776138Y2797238D02*
Y3197238D01*
X776100Y3394100D02*
X951100D01*
Y3794100D01*
X776100D02*
X951100D01*
X776100Y3394100D02*
Y3794100D01*
X776138Y2149538D02*
X951138D01*
Y2549538D01*
X776138D02*
X951138D01*
X776138Y2149538D02*
Y2549538D01*
X2911738Y1468938D02*
X3433738D01*
X2911738Y1990938D02*
X3433738D01*
Y1468938D02*
Y1990938D01*
X2911738Y1468938D02*
Y1990938D01*
X2924338Y1074238D02*
Y1364238D01*
X2384338Y1074238D02*
Y1364238D01*
Y1074238D02*
X2924338D01*
X2384338Y1364238D02*
X2924338D01*
X2329438Y847638D02*
Y1387638D01*
X2039438Y847638D02*
Y1387638D01*
X2329438D01*
X2039438Y847638D02*
X2329438D01*
X2088138D02*
Y1387638D01*
X1798138Y847638D02*
Y1387638D01*
X2088138D01*
X1798138Y847638D02*
X2088138D01*
%TF.MD5,758e6a8cbd6abc10ad15c4fed5ec3354*%
M02*
