%TF.GenerationSoftware,Altium Limited,Altium Designer,23.11.1 (41)*%
G04 Layer_Physical_Order=2*
G04 Layer_Color=16711680*
%FSLAX45Y45*%
%MOMM*%
%TF.SameCoordinates,178855CC-FEA8-4967-A87F-AED42C0F3613*%
%TF.FilePolarity,Positive*%
%TF.FileFunction,Copper,L2,Bot,Signal*%
%TF.Part,Single*%
G01*
G75*
%TA.AperFunction,Conductor*%
%ADD25C,0.30000*%
%ADD26C,0.50000*%
%TA.AperFunction,ComponentPad*%
%ADD36P,1.97990X4X90.0*%
%ADD37C,1.40000*%
%ADD38R,1.40000X1.40000*%
%ADD39C,1.95000*%
%ADD40R,1.95000X1.95000*%
%ADD41R,1.50800X1.50800*%
%ADD42C,1.50800*%
%ADD43R,1.50800X1.50800*%
%ADD44R,1.05000X1.05000*%
%ADD45C,1.05000*%
%ADD46R,1.95000X1.95000*%
%TA.AperFunction,ViaPad*%
%ADD47C,4.00000*%
%TA.AperFunction,ComponentPad*%
%ADD48C,0.45000*%
%TA.AperFunction,ViaPad*%
%ADD49C,0.60000*%
G36*
X6379674Y4491934D02*
X6398164Y4484275D01*
X6414804Y4473156D01*
X6428956Y4459004D01*
X6440075Y4442364D01*
X6447734Y4423874D01*
X6451638Y4404245D01*
Y4394238D01*
Y114338D01*
Y106833D01*
X6448710Y92111D01*
X6442966Y78244D01*
X6434626Y65763D01*
X6424013Y55149D01*
X6411532Y46810D01*
X6397665Y41066D01*
X6382943Y38138D01*
X129731D01*
X110102Y42042D01*
X91612Y49701D01*
X74972Y60820D01*
X60820Y74972D01*
X49701Y91612D01*
X42042Y110102D01*
X38138Y129731D01*
X38138Y139738D01*
Y4394238D01*
Y4404245D01*
X42042Y4423874D01*
X49701Y4442364D01*
X60820Y4459004D01*
X74972Y4473156D01*
X91612Y4484275D01*
X110102Y4491934D01*
X129731Y4495838D01*
X6360045D01*
X6379674Y4491934D01*
D02*
G37*
%LPC*%
G36*
X5067236Y4425000D02*
X5032764D01*
X4998954Y4418275D01*
X4967106Y4405083D01*
X4938444Y4385931D01*
X4914069Y4361556D01*
X4894917Y4332894D01*
X4881725Y4301046D01*
X4875000Y4267236D01*
Y4232764D01*
X4881725Y4198954D01*
X4894917Y4167106D01*
X4914069Y4138444D01*
X4938444Y4114068D01*
X4967106Y4094917D01*
X4998954Y4081725D01*
X5032764Y4075000D01*
X5067236D01*
X5101046Y4081725D01*
X5132894Y4094917D01*
X5161556Y4114068D01*
X5185931Y4138444D01*
X5205083Y4167106D01*
X5218275Y4198954D01*
X5225000Y4232764D01*
Y4267236D01*
X5218275Y4301046D01*
X5205083Y4332894D01*
X5185931Y4361556D01*
X5161556Y4385931D01*
X5132894Y4405083D01*
X5101046Y4418275D01*
X5067236Y4425000D01*
D02*
G37*
G36*
X3099938Y4031738D02*
X2919938D01*
Y3851738D01*
X3099938D01*
Y4031738D01*
D02*
G37*
G36*
X2174938Y3927538D02*
X1939938D01*
Y3692538D01*
X2174938D01*
Y3927538D01*
D02*
G37*
G36*
X603438Y3727638D02*
X412638D01*
Y3536838D01*
X603438D01*
Y3727638D01*
D02*
G37*
G36*
X266598D02*
X241479D01*
X217215Y3721137D01*
X195461Y3708577D01*
X177699Y3690815D01*
X165140Y3669061D01*
X158638Y3644798D01*
Y3619679D01*
X165140Y3595415D01*
X177699Y3573661D01*
X195461Y3555899D01*
X217215Y3543340D01*
X241479Y3536838D01*
X266598D01*
X290861Y3543340D01*
X312615Y3555899D01*
X330377Y3573661D01*
X342937Y3595415D01*
X349438Y3619679D01*
Y3644798D01*
X342937Y3669061D01*
X330377Y3690815D01*
X312615Y3708577D01*
X290861Y3721137D01*
X266598Y3727638D01*
D02*
G37*
G36*
X3925361Y3671640D02*
X3798082Y3544361D01*
X3925361Y3417082D01*
X4052640Y3544361D01*
X3925361Y3671640D01*
D02*
G37*
G36*
X603438Y3092638D02*
X412638D01*
Y2901838D01*
X603438D01*
Y3092638D01*
D02*
G37*
G36*
X266598D02*
X241479D01*
X217215Y3086137D01*
X195461Y3073577D01*
X177699Y3055815D01*
X165140Y3034061D01*
X158638Y3009798D01*
Y2984679D01*
X165140Y2960415D01*
X177699Y2938661D01*
X195461Y2920899D01*
X217215Y2908340D01*
X241479Y2901838D01*
X266598D01*
X290861Y2908340D01*
X312615Y2920899D01*
X330377Y2938661D01*
X342937Y2960415D01*
X349438Y2984679D01*
Y3009798D01*
X342937Y3034061D01*
X330377Y3055815D01*
X312615Y3073577D01*
X290861Y3086137D01*
X266598Y3092638D01*
D02*
G37*
G36*
X873584Y2818638D02*
X853692D01*
X835315Y2811026D01*
X821250Y2796961D01*
X813779Y2778924D01*
X708163D01*
X701461Y2785626D01*
X683084Y2793238D01*
X663192D01*
X644815Y2785626D01*
X630750Y2771561D01*
X623138Y2753184D01*
Y2733292D01*
X630750Y2714915D01*
X644815Y2700850D01*
X663192Y2693238D01*
X683084D01*
X701461Y2700850D01*
X708163Y2707552D01*
X830120D01*
X843777Y2710269D01*
X855354Y2718004D01*
X855988Y2718638D01*
X873584D01*
X887522Y2724411D01*
X895404Y2721759D01*
X902135Y2717881D01*
X915238Y2707101D01*
Y2695192D01*
X922850Y2676815D01*
X936915Y2662750D01*
X955292Y2655138D01*
X971944D01*
X972578Y2654504D01*
X984156Y2646769D01*
X997812Y2644052D01*
X1257338D01*
X1270994Y2646769D01*
X1282572Y2654504D01*
X1295905Y2667838D01*
X1305384D01*
X1323761Y2675450D01*
X1337826Y2689515D01*
X1345438Y2707892D01*
Y2727784D01*
X1337826Y2746161D01*
X1323761Y2760226D01*
X1305384Y2767838D01*
X1285492D01*
X1267115Y2760226D01*
X1253050Y2746161D01*
X1245438Y2727784D01*
Y2718305D01*
X1242557Y2715424D01*
X1015097D01*
X1007626Y2733461D01*
X993561Y2747526D01*
X975184Y2755138D01*
X955292D01*
X941354Y2749365D01*
X933472Y2752018D01*
X926742Y2755896D01*
X913638Y2766675D01*
Y2778584D01*
X906026Y2796961D01*
X891961Y2811026D01*
X873584Y2818638D01*
D02*
G37*
G36*
X1470083Y2917338D02*
X1450993D01*
X1432554Y2912397D01*
X1416022Y2902852D01*
X1402524Y2889354D01*
X1392979Y2872822D01*
X1388038Y2854383D01*
Y2835293D01*
X1392979Y2816854D01*
X1402523Y2800322D01*
X1412996Y2781338D01*
X1402524Y2762354D01*
X1392979Y2745822D01*
X1388038Y2727383D01*
Y2708293D01*
X1392979Y2689854D01*
X1402524Y2673322D01*
X1416022Y2659824D01*
X1432554Y2650279D01*
X1450993Y2645338D01*
X1470083D01*
X1488522Y2650279D01*
X1505054Y2659824D01*
X1518552Y2673322D01*
X1528097Y2689854D01*
X1533038Y2708293D01*
Y2727383D01*
X1528097Y2745822D01*
X1518553Y2762354D01*
X1508080Y2781338D01*
X1518552Y2800322D01*
X1528097Y2816854D01*
X1533038Y2835293D01*
Y2854383D01*
X1528097Y2872822D01*
X1518552Y2889354D01*
X1505054Y2902852D01*
X1488522Y2912397D01*
X1470083Y2917338D01*
D02*
G37*
G36*
X5997638Y2644838D02*
X5762638D01*
Y2409838D01*
X5997638D01*
Y2644838D01*
D02*
G37*
G36*
X797384Y2666238D02*
X777492D01*
X759115Y2658626D01*
X745050Y2644561D01*
X737438Y2626184D01*
Y2606292D01*
X745050Y2587915D01*
X759115Y2573850D01*
X777492Y2566238D01*
X786971D01*
X1028904Y2324304D01*
X1040482Y2316569D01*
X1054138Y2313852D01*
X1082613D01*
X1089315Y2307150D01*
X1107692Y2299538D01*
X1127584D01*
X1145961Y2307150D01*
X1160026Y2321215D01*
X1167638Y2339592D01*
Y2359484D01*
X1160026Y2377861D01*
X1145961Y2391926D01*
X1127584Y2399538D01*
X1107692D01*
X1089315Y2391926D01*
X1082613Y2385224D01*
X1068920D01*
X837438Y2616705D01*
Y2626184D01*
X829826Y2644561D01*
X815761Y2658626D01*
X797384Y2666238D01*
D02*
G37*
G36*
X603438Y2457638D02*
X412638D01*
Y2266838D01*
X603438D01*
Y2457638D01*
D02*
G37*
G36*
X266598D02*
X241479D01*
X217215Y2451137D01*
X195461Y2438577D01*
X177699Y2420815D01*
X165140Y2399061D01*
X158638Y2374798D01*
Y2349679D01*
X165140Y2325415D01*
X177699Y2303661D01*
X195461Y2285899D01*
X217215Y2273340D01*
X241479Y2266838D01*
X266598D01*
X290861Y2273340D01*
X312615Y2285899D01*
X330377Y2303661D01*
X342937Y2325415D01*
X349438Y2349679D01*
Y2374798D01*
X342937Y2399061D01*
X330377Y2420815D01*
X312615Y2438577D01*
X290861Y2451137D01*
X266598Y2457638D01*
D02*
G37*
G36*
X1470083Y2396638D02*
X1450993D01*
X1432554Y2391698D01*
X1416022Y2382153D01*
X1402524Y2368654D01*
X1392979Y2352122D01*
X1388038Y2333683D01*
Y2314594D01*
X1392979Y2296154D01*
X1402523Y2279623D01*
X1412996Y2260638D01*
X1402524Y2241655D01*
X1392979Y2225123D01*
X1388038Y2206683D01*
Y2187594D01*
X1392979Y2169155D01*
X1402524Y2152623D01*
X1416022Y2139124D01*
X1432554Y2129579D01*
X1450993Y2124639D01*
X1470083D01*
X1488522Y2129579D01*
X1505054Y2139124D01*
X1518552Y2152623D01*
X1528097Y2169155D01*
X1533038Y2187594D01*
Y2206683D01*
X1528097Y2225123D01*
X1518553Y2241654D01*
X1508080Y2260639D01*
X1518552Y2279622D01*
X1528097Y2296154D01*
X1533038Y2314594D01*
Y2333683D01*
X1528097Y2352122D01*
X1518552Y2368654D01*
X1505054Y2382153D01*
X1488522Y2391698D01*
X1470083Y2396638D01*
D02*
G37*
G36*
X5895607Y2136838D02*
X5864669D01*
X5834785Y2128831D01*
X5807991Y2113362D01*
X5786115Y2091485D01*
X5770646Y2064691D01*
X5762638Y2034807D01*
Y2003869D01*
X5770646Y1973985D01*
X5786115Y1947191D01*
X5807991Y1925315D01*
X5834785Y1909846D01*
X5864669Y1901838D01*
X5895607D01*
X5925491Y1909846D01*
X5952285Y1925315D01*
X5974162Y1947191D01*
X5989631Y1973985D01*
X5997638Y2003869D01*
Y2034807D01*
X5989631Y2064691D01*
X5974162Y2091485D01*
X5952285Y2113362D01*
X5925491Y2128831D01*
X5895607Y2136838D01*
D02*
G37*
G36*
X5194338Y2278526D02*
X5194337Y2278526D01*
X4737138D01*
X4725433Y2276197D01*
X4715509Y2269567D01*
X4708879Y2259643D01*
X4706550Y2247938D01*
Y1689138D01*
X4707130Y1686226D01*
X4693237Y1662293D01*
X4686968Y1656226D01*
X4686338D01*
X4674633Y1653897D01*
X4664709Y1647267D01*
X4658079Y1637343D01*
X4655750Y1625638D01*
Y1092238D01*
X4658079Y1080533D01*
X4664709Y1070609D01*
X4674633Y1063979D01*
X4686338Y1061650D01*
X5156238D01*
X5167943Y1063979D01*
X5177867Y1070609D01*
X5254066Y1146808D01*
X5254067Y1146809D01*
X5260697Y1156733D01*
X5263026Y1168438D01*
X5263026Y1168439D01*
Y1549437D01*
X5263026Y1549438D01*
X5260697Y1561143D01*
X5254067Y1571067D01*
X5196583Y1628550D01*
X5205440Y1653966D01*
X5208682Y1658877D01*
X5218744Y1660879D01*
X5228667Y1667509D01*
X5228667Y1667510D01*
X5292167Y1731009D01*
X5298797Y1740933D01*
X5301126Y1752638D01*
X5301126Y1752639D01*
Y2171738D01*
X5298797Y2183443D01*
X5292167Y2193367D01*
X5215967Y2269567D01*
X5206043Y2276197D01*
X5194338Y2278526D01*
D02*
G37*
G36*
X304698Y1535238D02*
X279579D01*
X255315Y1528737D01*
X233561Y1516177D01*
X215799Y1498415D01*
X203240Y1476661D01*
X196738Y1452398D01*
Y1427279D01*
X203240Y1403015D01*
X215799Y1381261D01*
X233561Y1363499D01*
X255315Y1350940D01*
X279579Y1344438D01*
X304698D01*
X328961Y1350940D01*
X350715Y1363499D01*
X368477Y1381261D01*
X381037Y1403015D01*
X387538Y1427279D01*
Y1452398D01*
X381037Y1476661D01*
X368477Y1498415D01*
X350715Y1516177D01*
X328961Y1528737D01*
X304698Y1535238D01*
D02*
G37*
G36*
Y1285238D02*
X279579D01*
X255315Y1278737D01*
X233561Y1266177D01*
X215799Y1248415D01*
X203240Y1226661D01*
X196738Y1202398D01*
Y1177279D01*
X203240Y1153015D01*
X215799Y1131261D01*
X233561Y1113499D01*
X255315Y1100940D01*
X279579Y1094438D01*
X304698D01*
X328961Y1100940D01*
X350715Y1113499D01*
X368477Y1131261D01*
X381037Y1153015D01*
X387538Y1177279D01*
Y1202398D01*
X381037Y1226661D01*
X368477Y1248415D01*
X350715Y1266177D01*
X328961Y1278737D01*
X304698Y1285238D01*
D02*
G37*
G36*
X263984Y2031238D02*
X244092D01*
X225715Y2023626D01*
X211650Y2009561D01*
X204038Y1991184D01*
Y1971292D01*
X211650Y1952915D01*
X225715Y1938850D01*
X244092Y1931238D01*
X263984D01*
X273927Y1935357D01*
X463633D01*
X652657Y1746333D01*
Y1365243D01*
X322652Y1035238D01*
X196738D01*
Y844438D01*
X387538D01*
Y970352D01*
X730981Y1313795D01*
X740927Y1328680D01*
X744420Y1346238D01*
Y1765338D01*
X740927Y1782896D01*
X730981Y1797781D01*
X515081Y2013681D01*
X500196Y2023627D01*
X482638Y2027120D01*
X273927D01*
X263984Y2031238D01*
D02*
G37*
G36*
X4635538Y3002426D02*
X4241838D01*
X3860838Y3002426D01*
X3849132Y3000097D01*
X3839209Y2993467D01*
X3839208Y2993466D01*
X3712209Y2866467D01*
X3705579Y2856543D01*
X3703250Y2844838D01*
X3703250Y2844837D01*
Y330238D01*
X3705579Y318532D01*
X3712209Y308609D01*
X3722133Y301978D01*
X3733838Y299650D01*
X4241838Y299651D01*
X4673638D01*
X4685343Y301979D01*
X4695267Y308609D01*
X4701897Y318533D01*
X4704226Y330238D01*
Y838238D01*
X4701897Y849943D01*
X4695267Y859867D01*
X4685343Y866497D01*
X4673638Y868826D01*
X4272426D01*
Y2458650D01*
X4635538D01*
X4647243Y2460979D01*
X4657167Y2467609D01*
X4663797Y2477533D01*
X4666126Y2489238D01*
Y2971838D01*
X4663797Y2983543D01*
X4657167Y2993467D01*
X4647243Y3000097D01*
X4635538Y3002426D01*
D02*
G37*
G36*
X3467236Y425000D02*
X3432764D01*
X3398954Y418275D01*
X3367106Y405083D01*
X3338444Y385931D01*
X3314069Y361556D01*
X3294917Y332894D01*
X3281725Y301046D01*
X3275000Y267236D01*
Y232764D01*
X3281725Y198954D01*
X3294917Y167106D01*
X3314069Y138444D01*
X3338444Y114069D01*
X3367106Y94917D01*
X3398954Y81725D01*
X3432764Y75000D01*
X3467236D01*
X3501046Y81725D01*
X3532894Y94917D01*
X3561556Y114069D01*
X3585931Y138444D01*
X3605083Y167106D01*
X3618275Y198954D01*
X3625000Y232764D01*
Y267236D01*
X3618275Y301046D01*
X3605083Y332894D01*
X3585931Y361556D01*
X3561556Y385931D01*
X3532894Y405083D01*
X3501046Y418275D01*
X3467236Y425000D01*
D02*
G37*
%LPD*%
G36*
X5270538Y2171738D02*
Y1752638D01*
X5207038Y1689138D01*
X4737138D01*
Y2247938D01*
X5194338D01*
X5270538Y2171738D01*
D02*
G37*
G36*
X5156238Y1625638D02*
X5232438Y1549438D01*
Y1168438D01*
X5156238Y1092238D01*
X4686338D01*
Y1625638D01*
X5156238Y1625638D01*
D02*
G37*
G36*
X4635538Y2489238D02*
X4241838D01*
Y838238D01*
X4673638D01*
Y330238D01*
X4241838D01*
X3733838Y330238D01*
Y2844838D01*
X3860838Y2971838D01*
X4241838Y2971838D01*
X4635538D01*
Y2489238D01*
D02*
G37*
G36*
G01X250000Y50000D02*
G02X50000Y250000I0J200000D01*
G02X250000Y450000I200000J0D01*
G02X450000Y250000I0J-200000D01*
G02X250000Y50000I-200000J0D01*
D02*
G37*
D25*
X787438Y2616238D02*
X1054138Y2349538D01*
X1117638D01*
X1257338Y2679738D02*
X1295438Y2717838D01*
X965238Y2705138D02*
X972412D01*
X997812Y2679738D02*
X1257338D01*
X972412Y2705138D02*
X997812Y2679738D01*
X673138Y2743238D02*
X830120D01*
X855520Y2768638D01*
X863638D01*
D26*
X482638Y1981238D02*
X698538Y1765338D01*
X292138Y939838D02*
X698538Y1346238D01*
Y1765338D01*
X254038Y1981238D02*
X482638D01*
D36*
X3925361Y3544361D02*
D03*
D37*
X4278915Y3897915D02*
D03*
X3009938Y3441738D02*
D03*
D38*
Y3941738D02*
D03*
D39*
X5880138Y2019338D02*
D03*
X1549438Y3810038D02*
D03*
D40*
X5880138Y2527338D02*
D03*
D41*
X292138Y939838D02*
D03*
D42*
Y1189838D02*
D03*
Y1689838D02*
D03*
Y1439838D02*
D03*
X254038Y3632238D02*
D03*
Y2362238D02*
D03*
Y2997238D02*
D03*
D43*
X508038Y3632238D02*
D03*
Y2362238D02*
D03*
X508038Y2997238D02*
D03*
D44*
X1460538Y2971838D02*
D03*
Y2451138D02*
D03*
D45*
Y2844838D02*
D03*
Y2717838D02*
D03*
Y2197139D02*
D03*
Y2324138D02*
D03*
D46*
X2057438Y3810038D02*
D03*
D47*
X250000Y4250000D02*
D03*
X6250000Y250000D02*
D03*
Y4250000D02*
D03*
D48*
X3172738Y1831538D02*
D03*
X3071138Y1729938D02*
D03*
X3172738Y1628338D02*
D03*
X3274338Y1729938D02*
D03*
X3172738D02*
D03*
D49*
X4775238Y1790738D02*
D03*
X4737138Y1536738D02*
D03*
X4851438Y1282738D02*
D03*
Y1155738D02*
D03*
X4737138Y1282738D02*
D03*
X4965738Y1155738D02*
D03*
X4851438Y1536738D02*
D03*
X4965738Y1409738D02*
D03*
X4737138Y1155738D02*
D03*
X4851438Y1409738D02*
D03*
X4965738Y1536738D02*
D03*
Y1282738D02*
D03*
X4737138Y1409738D02*
D03*
X5003838Y2171738D02*
D03*
X4889538D02*
D03*
X4775238D02*
D03*
Y2044738D02*
D03*
X4889538D02*
D03*
X5003838D02*
D03*
Y1790738D02*
D03*
X4889538D02*
D03*
X4775238Y1917738D02*
D03*
X4889538D02*
D03*
X5003838D02*
D03*
X4572038Y2921038D02*
D03*
X4457738D02*
D03*
X4343438D02*
D03*
Y2794038D02*
D03*
X4457738D02*
D03*
X4572038D02*
D03*
Y2540038D02*
D03*
X4457738D02*
D03*
X4343438D02*
D03*
Y2667038D02*
D03*
X4457738D02*
D03*
X4572038D02*
D03*
X4610138Y533438D02*
D03*
X4495838D02*
D03*
X4381538D02*
D03*
Y406438D02*
D03*
X4495838D02*
D03*
X4610138D02*
D03*
Y660438D02*
D03*
X4495838D02*
D03*
X4381538D02*
D03*
Y787438D02*
D03*
X4495838D02*
D03*
X4610138D02*
D03*
X4686338Y165138D02*
D03*
Y266738D02*
D03*
X3962438Y787438D02*
D03*
X3835438D02*
D03*
X4076738D02*
D03*
X4191038D02*
D03*
X4318038Y1663738D02*
D03*
Y1549438D02*
D03*
X4406938Y1346238D02*
D03*
Y1473238D02*
D03*
Y1955838D02*
D03*
X254038Y1981238D02*
D03*
X2895638Y508038D02*
D03*
X965238Y2705138D02*
D03*
X1117638Y2349538D02*
D03*
X1295438Y2717838D02*
D03*
X673138Y2743238D02*
D03*
X863638Y2768638D02*
D03*
X787438Y2616238D02*
D03*
X2374938Y1435138D02*
D03*
X3683038Y1993938D02*
D03*
X3797338Y482638D02*
D03*
X3784638Y685838D02*
D03*
Y2806738D02*
D03*
Y2590838D02*
D03*
X3962438Y381038D02*
D03*
X4076738D02*
D03*
X4191038D02*
D03*
Y584238D02*
D03*
X3009938Y622338D02*
D03*
X3162338Y762038D02*
D03*
X3263938Y1219238D02*
D03*
X2374938Y977938D02*
D03*
Y622338D02*
D03*
X3136938Y2362238D02*
D03*
X2374938Y2057438D02*
D03*
Y2362238D02*
D03*
Y1778038D02*
D03*
X3848138Y381038D02*
D03*
X3835438Y584238D02*
D03*
X3898938Y685838D02*
D03*
X4076738Y584238D02*
D03*
X3962438D02*
D03*
X4127538Y685838D02*
D03*
X4013238D02*
D03*
X4025938Y482638D02*
D03*
X4140238D02*
D03*
X3911638D02*
D03*
X3860838Y2489238D02*
D03*
X3924338Y2590838D02*
D03*
X4152938D02*
D03*
X4038638D02*
D03*
X2654338Y2362238D02*
D03*
X4597438Y1663738D02*
D03*
X4470438D02*
D03*
X4521238Y1473238D02*
D03*
Y1346238D02*
D03*
Y1981238D02*
D03*
Y2108238D02*
D03*
X3987838Y228638D02*
D03*
X5283238Y215938D02*
D03*
X5524538Y457238D02*
D03*
X5765838Y698538D02*
D03*
X5994438Y927138D02*
D03*
X6223038Y1168438D02*
D03*
X6400838Y1371638D02*
D03*
X6413538Y1879638D02*
D03*
Y2286038D02*
D03*
X6400838Y3048038D02*
D03*
X5626138Y3060738D02*
D03*
X5105438D02*
D03*
X4533938Y3276638D02*
D03*
X4876838D02*
D03*
X3302038Y2692438D02*
D03*
X4051338Y3975138D02*
D03*
X4267238Y3276638D02*
D03*
X3759238Y4267238D02*
D03*
X4318038Y2019338D02*
D03*
X4406938Y2082838D02*
D03*
X4318038Y1879638D02*
D03*
X4406938Y1231938D02*
D03*
X4318038Y1409738D02*
D03*
X3784600Y228600D02*
D03*
X3619538Y482638D02*
D03*
Y749338D02*
D03*
X3492538Y889038D02*
D03*
X3289338D02*
D03*
X2908338Y2362238D02*
D03*
X3302038Y3022638D02*
D03*
X2641638Y3429038D02*
D03*
X2146338D02*
D03*
X4038638Y2806738D02*
D03*
X4152938D02*
D03*
X3987838Y2705138D02*
D03*
X4102138Y2908338D02*
D03*
X3987838D02*
D03*
X4102138Y2705138D02*
D03*
X3860838Y2908338D02*
D03*
X3924338Y2806738D02*
D03*
X3860838Y2705138D02*
D03*
%TF.MD5,bc4e329603f196ca8a1db63e843c0db4*%
M02*
