%TF.GenerationSoftware,Altium Limited,Altium Designer,23.11.1 (41)*%
G04 Layer_Color=16711935*
%FSLAX45Y45*%
%MOMM*%
%TF.SameCoordinates,178855CC-FEA8-4967-A87F-AED42C0F3613*%
%TF.FilePolarity,Positive*%
%TF.FileFunction,Other,Top_Assembly*%
%TF.Part,Single*%
G01*
G75*
%TA.AperFunction,NonConductor*%
%ADD51C,0.20000*%
G36*
X3756363Y2197046D02*
X3757287D01*
X3758212Y2196954D01*
X3759414Y2196861D01*
X3760616Y2196677D01*
X3763297Y2196214D01*
X3766255Y2195567D01*
X3769214Y2194643D01*
X3772080Y2193348D01*
X3772173Y2193256D01*
X3772450Y2193163D01*
X3772820Y2192978D01*
X3773282Y2192609D01*
X3773929Y2192239D01*
X3774669Y2191776D01*
X3776333Y2190574D01*
X3778182Y2189003D01*
X3780031Y2187154D01*
X3781880Y2185027D01*
X3783452Y2182531D01*
X3783545Y2182438D01*
X3783637Y2182161D01*
X3783822Y2181791D01*
X3784099Y2181329D01*
X3784377Y2180589D01*
X3784654Y2179850D01*
X3785024Y2178925D01*
X3785394Y2177908D01*
X3785764Y2176799D01*
X3786133Y2175597D01*
X3786688Y2173008D01*
X3787150Y2170049D01*
X3787335Y2166998D01*
Y2166074D01*
X3787243Y2165426D01*
X3787150Y2164594D01*
X3787058Y2163577D01*
X3786966Y2162560D01*
X3786688Y2161358D01*
X3786133Y2158862D01*
X3785301Y2156088D01*
X3784747Y2154702D01*
X3784099Y2153407D01*
X3783267Y2152113D01*
X3782435Y2150818D01*
X3782343Y2150726D01*
X3782250Y2150541D01*
X3781973Y2150171D01*
X3781511Y2149709D01*
X3781048Y2149247D01*
X3780401Y2148599D01*
X3779661Y2147952D01*
X3778922Y2147213D01*
X3777997Y2146473D01*
X3776888Y2145733D01*
X3775778Y2144901D01*
X3774576Y2144162D01*
X3773190Y2143514D01*
X3771803Y2142775D01*
X3770323Y2142220D01*
X3768659Y2141665D01*
X3766718Y2149986D01*
X3766810D01*
X3766995Y2150079D01*
X3767365Y2150264D01*
X3767827Y2150449D01*
X3768382Y2150633D01*
X3769121Y2150911D01*
X3770601Y2151651D01*
X3772265Y2152575D01*
X3773929Y2153685D01*
X3775501Y2155071D01*
X3776888Y2156551D01*
X3777073Y2156736D01*
X3777443Y2157290D01*
X3777905Y2158215D01*
X3778552Y2159417D01*
X3779107Y2160989D01*
X3779661Y2162745D01*
X3780031Y2164872D01*
X3780124Y2167183D01*
Y2167923D01*
X3780031Y2168385D01*
Y2169032D01*
X3779939Y2169772D01*
X3779661Y2171529D01*
X3779292Y2173470D01*
X3778644Y2175504D01*
X3777720Y2177631D01*
X3776518Y2179572D01*
Y2179665D01*
X3776333Y2179757D01*
X3775871Y2180404D01*
X3775131Y2181236D01*
X3774022Y2182253D01*
X3772635Y2183455D01*
X3771063Y2184565D01*
X3769121Y2185582D01*
X3766995Y2186506D01*
X3766903D01*
X3766718Y2186599D01*
X3766440Y2186691D01*
X3765978Y2186784D01*
X3765423Y2186969D01*
X3764776Y2187154D01*
X3763204Y2187431D01*
X3761355Y2187801D01*
X3759321Y2188171D01*
X3757102Y2188356D01*
X3754698Y2188448D01*
X3754606D01*
X3754329D01*
X3753866D01*
X3753312D01*
X3752664Y2188356D01*
X3751832D01*
X3750908Y2188263D01*
X3749891Y2188171D01*
X3747672Y2187893D01*
X3745268Y2187431D01*
X3742864Y2186876D01*
X3740460Y2186137D01*
X3740368D01*
X3740183Y2186044D01*
X3739905Y2185859D01*
X3739443Y2185674D01*
X3738334Y2185120D01*
X3737039Y2184287D01*
X3735560Y2183270D01*
X3733988Y2181976D01*
X3732601Y2180497D01*
X3731307Y2178740D01*
Y2178648D01*
X3731215Y2178463D01*
X3731030Y2178185D01*
X3730845Y2177816D01*
X3730660Y2177353D01*
X3730382Y2176799D01*
X3729828Y2175504D01*
X3729273Y2173840D01*
X3728811Y2171991D01*
X3728441Y2169957D01*
X3728348Y2167830D01*
Y2167183D01*
X3728441Y2166628D01*
Y2165981D01*
X3728533Y2165334D01*
X3728903Y2163670D01*
X3729365Y2161728D01*
X3730105Y2159787D01*
X3731122Y2157753D01*
X3731677Y2156736D01*
X3732416Y2155811D01*
X3732509Y2155719D01*
X3732601Y2155626D01*
X3732879Y2155349D01*
X3733156Y2154979D01*
X3733618Y2154609D01*
X3734173Y2154147D01*
X3734728Y2153592D01*
X3735468Y2153130D01*
X3736300Y2152575D01*
X3737224Y2151928D01*
X3738149Y2151373D01*
X3739258Y2150818D01*
X3740460Y2150356D01*
X3741755Y2149894D01*
X3743141Y2149432D01*
X3744621Y2149062D01*
X3742494Y2140556D01*
X3742402D01*
X3742032Y2140648D01*
X3741477Y2140833D01*
X3740738Y2141111D01*
X3739905Y2141388D01*
X3738888Y2141758D01*
X3737779Y2142220D01*
X3736577Y2142775D01*
X3733988Y2144069D01*
X3731399Y2145733D01*
X3730105Y2146750D01*
X3728811Y2147767D01*
X3727701Y2148877D01*
X3726592Y2150171D01*
X3726499Y2150264D01*
X3726314Y2150449D01*
X3726129Y2150911D01*
X3725760Y2151373D01*
X3725297Y2152113D01*
X3724835Y2152852D01*
X3724373Y2153869D01*
X3723911Y2154886D01*
X3723356Y2156088D01*
X3722893Y2157383D01*
X3722431Y2158770D01*
X3721969Y2160249D01*
X3721599Y2161821D01*
X3721414Y2163485D01*
X3721229Y2165242D01*
X3721137Y2167091D01*
Y2168108D01*
X3721229Y2168847D01*
Y2169679D01*
X3721322Y2170696D01*
X3721507Y2171806D01*
X3721692Y2173100D01*
X3722154Y2175782D01*
X3722893Y2178555D01*
X3723911Y2181329D01*
X3724558Y2182623D01*
X3725297Y2183918D01*
X3725390Y2184010D01*
X3725482Y2184195D01*
X3725760Y2184565D01*
X3726129Y2184935D01*
X3726499Y2185489D01*
X3727054Y2186137D01*
X3727701Y2186876D01*
X3728441Y2187616D01*
X3729273Y2188356D01*
X3730105Y2189188D01*
X3732232Y2190852D01*
X3734728Y2192424D01*
X3737502Y2193810D01*
X3737594D01*
X3737871Y2193995D01*
X3738334Y2194088D01*
X3738888Y2194365D01*
X3739628Y2194550D01*
X3740553Y2194827D01*
X3741570Y2195197D01*
X3742679Y2195475D01*
X3743881Y2195752D01*
X3745268Y2196122D01*
X3748134Y2196584D01*
X3751370Y2196954D01*
X3754698Y2197139D01*
X3754791D01*
X3755161D01*
X3755715D01*
X3756363Y2197046D01*
D02*
G37*
G36*
X3753866Y2133622D02*
X3755161D01*
X3756640Y2133529D01*
X3758397Y2133344D01*
X3760338Y2133159D01*
X3762465Y2132882D01*
X3764591Y2132512D01*
X3766903Y2132050D01*
X3769121Y2131495D01*
X3771340Y2130848D01*
X3773467Y2130016D01*
X3775501Y2129091D01*
X3777443Y2128074D01*
X3779107Y2126872D01*
X3779199Y2126780D01*
X3779384Y2126595D01*
X3779754Y2126225D01*
X3780309Y2125763D01*
X3780863Y2125208D01*
X3781418Y2124468D01*
X3782158Y2123544D01*
X3782805Y2122619D01*
X3783452Y2121510D01*
X3784192Y2120308D01*
X3784747Y2118921D01*
X3785394Y2117534D01*
X3785856Y2115962D01*
X3786226Y2114298D01*
X3786411Y2112542D01*
X3786503Y2110693D01*
Y2109953D01*
X3786411Y2109398D01*
Y2108751D01*
X3786318Y2108011D01*
X3785948Y2106255D01*
X3785486Y2104313D01*
X3784747Y2102279D01*
X3783637Y2100245D01*
X3782990Y2099228D01*
X3782250Y2098303D01*
X3782158Y2098211D01*
X3782065Y2098118D01*
X3781788Y2097841D01*
X3781511Y2097564D01*
X3781048Y2097101D01*
X3780494Y2096732D01*
X3779199Y2095715D01*
X3777535Y2094698D01*
X3775501Y2093773D01*
X3773190Y2092941D01*
X3770601Y2092386D01*
X3769954Y2100245D01*
X3770046D01*
X3770139Y2100337D01*
X3770693Y2100430D01*
X3771525Y2100707D01*
X3772542Y2101077D01*
X3773652Y2101447D01*
X3774761Y2102002D01*
X3775778Y2102649D01*
X3776610Y2103296D01*
X3776795Y2103481D01*
X3777165Y2103851D01*
X3777720Y2104498D01*
X3778367Y2105423D01*
X3778922Y2106624D01*
X3779477Y2107919D01*
X3779846Y2109491D01*
X3780031Y2111155D01*
Y2111802D01*
X3779939Y2112542D01*
X3779754Y2113374D01*
X3779477Y2114483D01*
X3779107Y2115593D01*
X3778644Y2116702D01*
X3777905Y2117812D01*
X3777812Y2117997D01*
X3777443Y2118459D01*
X3776795Y2119106D01*
X3775871Y2119938D01*
X3774761Y2120863D01*
X3773467Y2121880D01*
X3771803Y2122804D01*
X3769954Y2123729D01*
X3769861D01*
X3769676Y2123821D01*
X3769399Y2123914D01*
X3769029Y2124099D01*
X3768474Y2124191D01*
X3767827Y2124376D01*
X3767087Y2124561D01*
X3766163Y2124746D01*
X3765146Y2125023D01*
X3764036Y2125208D01*
X3762834Y2125393D01*
X3761540Y2125485D01*
X3760061Y2125670D01*
X3758582Y2125763D01*
X3756917Y2125855D01*
X3755253D01*
X3755346Y2125763D01*
X3755900Y2125393D01*
X3756640Y2124746D01*
X3757564Y2123914D01*
X3758674Y2122989D01*
X3759691Y2121787D01*
X3760708Y2120493D01*
X3761633Y2119014D01*
Y2118921D01*
X3761725Y2118829D01*
X3762002Y2118274D01*
X3762280Y2117442D01*
X3762742Y2116332D01*
X3763112Y2115038D01*
X3763389Y2113559D01*
X3763667Y2111987D01*
X3763759Y2110323D01*
Y2109583D01*
X3763667Y2109028D01*
X3763574Y2108289D01*
X3763482Y2107549D01*
X3763297Y2106624D01*
X3763019Y2105700D01*
X3762372Y2103573D01*
X3761910Y2102464D01*
X3761263Y2101354D01*
X3760616Y2100245D01*
X3759876Y2099043D01*
X3758951Y2097934D01*
X3757934Y2096917D01*
X3757842Y2096824D01*
X3757657Y2096639D01*
X3757380Y2096362D01*
X3756917Y2096084D01*
X3756270Y2095622D01*
X3755623Y2095160D01*
X3754791Y2094698D01*
X3753866Y2094143D01*
X3752849Y2093588D01*
X3751740Y2093126D01*
X3750445Y2092664D01*
X3749151Y2092201D01*
X3747764Y2091924D01*
X3746192Y2091647D01*
X3744621Y2091462D01*
X3742956Y2091369D01*
X3742864D01*
X3742679D01*
X3742402D01*
X3741939D01*
X3741385Y2091462D01*
X3740830D01*
X3739351Y2091739D01*
X3737594Y2092016D01*
X3735745Y2092479D01*
X3733711Y2093126D01*
X3731769Y2094050D01*
X3731677D01*
X3731584Y2094143D01*
X3731307Y2094328D01*
X3730937Y2094513D01*
X3730013Y2095067D01*
X3728811Y2095900D01*
X3727516Y2096917D01*
X3726222Y2098118D01*
X3724928Y2099598D01*
X3723818Y2101170D01*
Y2101262D01*
X3723726Y2101354D01*
X3723541Y2101632D01*
X3723448Y2102002D01*
X3722986Y2102926D01*
X3722524Y2104128D01*
X3721969Y2105700D01*
X3721599Y2107457D01*
X3721229Y2109398D01*
X3721137Y2111525D01*
Y2111987D01*
X3721229Y2112449D01*
Y2113189D01*
X3721322Y2114021D01*
X3721507Y2114945D01*
X3721784Y2116055D01*
X3722061Y2117164D01*
X3722431Y2118459D01*
X3722893Y2119753D01*
X3723448Y2121048D01*
X3724188Y2122434D01*
X3725020Y2123729D01*
X3725945Y2125023D01*
X3727054Y2126318D01*
X3728348Y2127519D01*
X3728441Y2127612D01*
X3728718Y2127797D01*
X3729088Y2128074D01*
X3729735Y2128444D01*
X3730567Y2128999D01*
X3731492Y2129461D01*
X3732694Y2130016D01*
X3733988Y2130571D01*
X3735560Y2131218D01*
X3737317Y2131772D01*
X3739258Y2132235D01*
X3741385Y2132697D01*
X3743789Y2133159D01*
X3746377Y2133437D01*
X3749151Y2133622D01*
X3752110Y2133714D01*
X3752202D01*
X3752295D01*
X3752572D01*
X3752942D01*
X3753866Y2133622D01*
D02*
G37*
G36*
X2626047Y927046D02*
X2626879D01*
X2627896Y926954D01*
X2629006Y926769D01*
X2630300Y926584D01*
X2632982Y926122D01*
X2635755Y925382D01*
X2638529Y924365D01*
X2639823Y923718D01*
X2641118Y922978D01*
X2641210Y922886D01*
X2641395Y922793D01*
X2641765Y922516D01*
X2642135Y922146D01*
X2642689Y921776D01*
X2643337Y921222D01*
X2644076Y920574D01*
X2644816Y919835D01*
X2645556Y919003D01*
X2646388Y918171D01*
X2648052Y916044D01*
X2649624Y913548D01*
X2651010Y910774D01*
Y910682D01*
X2651195Y910404D01*
X2651288Y909942D01*
X2651565Y909387D01*
X2651750Y908648D01*
X2652027Y907723D01*
X2652397Y906706D01*
X2652675Y905597D01*
X2652952Y904395D01*
X2653322Y903008D01*
X2653784Y900142D01*
X2654154Y896906D01*
X2654339Y893577D01*
Y893485D01*
Y893115D01*
Y892560D01*
X2654246Y891913D01*
Y890989D01*
X2654154Y890064D01*
X2654061Y888862D01*
X2653877Y887660D01*
X2653414Y884979D01*
X2652767Y882020D01*
X2651843Y879062D01*
X2650548Y876196D01*
X2650456Y876103D01*
X2650363Y875826D01*
X2650178Y875456D01*
X2649809Y874994D01*
X2649439Y874346D01*
X2648976Y873607D01*
X2647774Y871943D01*
X2646203Y870094D01*
X2644354Y868244D01*
X2642227Y866395D01*
X2639731Y864824D01*
X2639638Y864731D01*
X2639361Y864639D01*
X2638991Y864454D01*
X2638529Y864176D01*
X2637789Y863899D01*
X2637050Y863622D01*
X2636125Y863252D01*
X2635108Y862882D01*
X2633999Y862512D01*
X2632797Y862142D01*
X2630208Y861588D01*
X2627249Y861125D01*
X2624198Y860940D01*
X2623274D01*
X2622626Y861033D01*
X2621794Y861125D01*
X2620777Y861218D01*
X2619760Y861310D01*
X2618558Y861588D01*
X2616062Y862142D01*
X2613288Y862974D01*
X2611902Y863529D01*
X2610607Y864176D01*
X2609313Y865008D01*
X2608018Y865841D01*
X2607926Y865933D01*
X2607741Y866025D01*
X2607371Y866303D01*
X2606909Y866765D01*
X2606447Y867227D01*
X2605799Y867875D01*
X2605152Y868614D01*
X2604413Y869354D01*
X2603673Y870278D01*
X2602933Y871388D01*
X2602101Y872497D01*
X2601362Y873699D01*
X2600714Y875086D01*
X2599975Y876473D01*
X2599420Y877952D01*
X2598865Y879616D01*
X2607186Y881558D01*
Y881466D01*
X2607279Y881281D01*
X2607464Y880911D01*
X2607649Y880449D01*
X2607833Y879894D01*
X2608111Y879154D01*
X2608851Y877675D01*
X2609775Y876011D01*
X2610885Y874346D01*
X2612271Y872775D01*
X2613751Y871388D01*
X2613936Y871203D01*
X2614490Y870833D01*
X2615415Y870371D01*
X2616617Y869724D01*
X2618189Y869169D01*
X2619945Y868614D01*
X2622072Y868244D01*
X2624383Y868152D01*
X2625123D01*
X2625585Y868244D01*
X2626232D01*
X2626972Y868337D01*
X2628729Y868614D01*
X2630670Y868984D01*
X2632704Y869631D01*
X2634831Y870556D01*
X2636772Y871758D01*
X2636865D01*
X2636957Y871943D01*
X2637604Y872405D01*
X2638436Y873145D01*
X2639453Y874254D01*
X2640655Y875641D01*
X2641765Y877213D01*
X2642782Y879154D01*
X2643706Y881281D01*
Y881373D01*
X2643799Y881558D01*
X2643891Y881835D01*
X2643984Y882298D01*
X2644169Y882852D01*
X2644354Y883500D01*
X2644631Y885071D01*
X2645001Y886921D01*
X2645371Y888955D01*
X2645556Y891173D01*
X2645648Y893577D01*
Y893670D01*
Y893947D01*
Y894409D01*
Y894964D01*
X2645556Y895611D01*
Y896443D01*
X2645463Y897368D01*
X2645371Y898385D01*
X2645093Y900604D01*
X2644631Y903008D01*
X2644076Y905412D01*
X2643337Y907816D01*
Y907908D01*
X2643244Y908093D01*
X2643059Y908370D01*
X2642874Y908833D01*
X2642320Y909942D01*
X2641487Y911236D01*
X2640470Y912716D01*
X2639176Y914287D01*
X2637697Y915674D01*
X2635940Y916969D01*
X2635848D01*
X2635663Y917061D01*
X2635385Y917246D01*
X2635016Y917431D01*
X2634553Y917616D01*
X2633999Y917893D01*
X2632704Y918448D01*
X2631040Y919003D01*
X2629191Y919465D01*
X2627157Y919835D01*
X2625030Y919927D01*
X2624383D01*
X2623828Y919835D01*
X2623181D01*
X2622534Y919742D01*
X2620870Y919373D01*
X2618928Y918910D01*
X2616987Y918171D01*
X2614953Y917154D01*
X2613936Y916599D01*
X2613011Y915859D01*
X2612919Y915767D01*
X2612826Y915674D01*
X2612549Y915397D01*
X2612179Y915120D01*
X2611809Y914657D01*
X2611347Y914103D01*
X2610792Y913548D01*
X2610330Y912808D01*
X2609775Y911976D01*
X2609128Y911052D01*
X2608573Y910127D01*
X2608018Y909017D01*
X2607556Y907816D01*
X2607094Y906521D01*
X2606632Y905134D01*
X2606262Y903655D01*
X2597756Y905782D01*
Y905874D01*
X2597848Y906244D01*
X2598033Y906799D01*
X2598311Y907538D01*
X2598588Y908370D01*
X2598958Y909387D01*
X2599420Y910497D01*
X2599975Y911699D01*
X2601269Y914287D01*
X2602933Y916876D01*
X2603950Y918171D01*
X2604967Y919465D01*
X2606077Y920574D01*
X2607371Y921684D01*
X2607464Y921776D01*
X2607649Y921961D01*
X2608111Y922146D01*
X2608573Y922516D01*
X2609313Y922978D01*
X2610052Y923441D01*
X2611069Y923903D01*
X2612086Y924365D01*
X2613288Y924920D01*
X2614583Y925382D01*
X2615970Y925844D01*
X2617449Y926307D01*
X2619021Y926677D01*
X2620685Y926861D01*
X2622442Y927046D01*
X2624291Y927139D01*
X2625308D01*
X2626047Y927046D01*
D02*
G37*
G36*
X2568817Y876011D02*
X2568910Y876103D01*
X2569372Y876473D01*
X2569927Y877028D01*
X2570851Y877675D01*
X2571868Y878507D01*
X2573162Y879432D01*
X2574642Y880449D01*
X2576306Y881466D01*
X2576398D01*
X2576491Y881558D01*
X2577046Y881928D01*
X2577970Y882390D01*
X2579080Y882945D01*
X2580374Y883592D01*
X2581761Y884239D01*
X2583148Y884886D01*
X2584535Y885441D01*
Y877860D01*
X2584442D01*
X2584257Y877675D01*
X2583887Y877582D01*
X2583425Y877305D01*
X2582870Y877028D01*
X2582223Y876658D01*
X2580651Y875733D01*
X2578802Y874716D01*
X2576953Y873422D01*
X2575012Y871943D01*
X2573070Y870371D01*
X2572978Y870278D01*
X2572885Y870186D01*
X2572608Y869909D01*
X2572238Y869631D01*
X2571406Y868707D01*
X2570296Y867597D01*
X2569187Y866303D01*
X2567985Y864824D01*
X2566968Y863344D01*
X2566043Y861772D01*
X2560958D01*
Y926029D01*
X2568817D01*
Y876011D01*
D02*
G37*
G36*
X2519076D02*
X2519168Y876103D01*
X2519630Y876473D01*
X2520185Y877028D01*
X2521110Y877675D01*
X2522127Y878507D01*
X2523421Y879432D01*
X2524900Y880449D01*
X2526565Y881466D01*
X2526657D01*
X2526750Y881558D01*
X2527304Y881928D01*
X2528229Y882390D01*
X2529338Y882945D01*
X2530633Y883592D01*
X2532020Y884239D01*
X2533406Y884886D01*
X2534793Y885441D01*
Y877860D01*
X2534701D01*
X2534516Y877675D01*
X2534146Y877582D01*
X2533684Y877305D01*
X2533129Y877028D01*
X2532482Y876658D01*
X2530910Y875733D01*
X2529061Y874716D01*
X2527212Y873422D01*
X2525270Y871943D01*
X2523329Y870371D01*
X2523236Y870278D01*
X2523144Y870186D01*
X2522866Y869909D01*
X2522497Y869631D01*
X2521665Y868707D01*
X2520555Y867597D01*
X2519446Y866303D01*
X2518244Y864824D01*
X2517227Y863344D01*
X2516302Y861772D01*
X2511217D01*
Y926029D01*
X2519076D01*
Y876011D01*
D02*
G37*
G36*
X4655702Y3344306D02*
X4656350Y3344214D01*
X4657182Y3344122D01*
X4658106Y3343937D01*
X4659123Y3343659D01*
X4661250Y3343012D01*
X4662452Y3342550D01*
X4663561Y3341903D01*
X4664763Y3341255D01*
X4665873Y3340516D01*
X4666982Y3339591D01*
X4668092Y3338574D01*
X4668184Y3338482D01*
X4668369Y3338297D01*
X4668646Y3338019D01*
X4668924Y3337557D01*
X4669386Y3336910D01*
X4669848Y3336263D01*
X4670310Y3335431D01*
X4670865Y3334506D01*
X4671420Y3333489D01*
X4671882Y3332287D01*
X4672344Y3330993D01*
X4672807Y3329698D01*
X4673084Y3328219D01*
X4673361Y3326647D01*
X4673546Y3325076D01*
X4673639Y3323319D01*
Y3322394D01*
X4673546Y3321747D01*
X4673454Y3320915D01*
X4673361Y3319991D01*
X4673177Y3318974D01*
X4672899Y3317864D01*
X4672252Y3315368D01*
X4671790Y3314073D01*
X4671327Y3312871D01*
X4670680Y3311577D01*
X4669941Y3310283D01*
X4669109Y3309081D01*
X4668092Y3307971D01*
X4667999Y3307879D01*
X4667814Y3307694D01*
X4667537Y3307417D01*
X4667074Y3307047D01*
X4666520Y3306677D01*
X4665873Y3306122D01*
X4665133Y3305660D01*
X4664208Y3305105D01*
X4663284Y3304550D01*
X4662174Y3304088D01*
X4659863Y3303164D01*
X4658476Y3302794D01*
X4657089Y3302516D01*
X4655610Y3302331D01*
X4654131Y3302239D01*
X4654038D01*
X4653853D01*
X4653483D01*
X4653114Y3302331D01*
X4652559D01*
X4651912Y3302424D01*
X4650432Y3302609D01*
X4648768Y3302979D01*
X4647104Y3303533D01*
X4645347Y3304366D01*
X4643683Y3305383D01*
X4643591D01*
X4643498Y3305567D01*
X4643036Y3305937D01*
X4642296Y3306677D01*
X4641372Y3307694D01*
X4640447Y3308988D01*
X4639430Y3310560D01*
X4638598Y3312317D01*
X4637951Y3314443D01*
Y3314351D01*
X4637858Y3314258D01*
X4637766Y3313981D01*
X4637581Y3313611D01*
X4637211Y3312779D01*
X4636656Y3311670D01*
X4635917Y3310468D01*
X4634992Y3309266D01*
X4633975Y3308156D01*
X4632866Y3307139D01*
X4632681Y3307047D01*
X4632311Y3306769D01*
X4631571Y3306400D01*
X4630647Y3306030D01*
X4629445Y3305567D01*
X4628058Y3305198D01*
X4626486Y3304920D01*
X4624822Y3304828D01*
X4624730D01*
X4624545D01*
X4624175D01*
X4623620Y3304920D01*
X4623065Y3305013D01*
X4622326Y3305105D01*
X4620754Y3305475D01*
X4618905Y3306030D01*
X4616963Y3306954D01*
X4615946Y3307509D01*
X4614929Y3308156D01*
X4614005Y3308988D01*
X4613080Y3309820D01*
X4612988Y3309913D01*
X4612895Y3310098D01*
X4612618Y3310375D01*
X4612341Y3310745D01*
X4611971Y3311207D01*
X4611601Y3311854D01*
X4611139Y3312594D01*
X4610676Y3313334D01*
X4610214Y3314258D01*
X4609752Y3315275D01*
X4609382Y3316385D01*
X4609012Y3317587D01*
X4608457Y3320175D01*
X4608365Y3321655D01*
X4608272Y3323134D01*
Y3323966D01*
X4608365Y3324521D01*
X4608457Y3325261D01*
X4608550Y3326093D01*
X4608642Y3327017D01*
X4608920Y3327942D01*
X4609474Y3330161D01*
X4610307Y3332380D01*
X4610861Y3333489D01*
X4611508Y3334599D01*
X4612341Y3335616D01*
X4613173Y3336633D01*
X4613265Y3336725D01*
X4613358Y3336818D01*
X4613635Y3337095D01*
X4614005Y3337465D01*
X4614559Y3337835D01*
X4615114Y3338297D01*
X4616501Y3339221D01*
X4618258Y3340146D01*
X4620292Y3340978D01*
X4622603Y3341625D01*
X4623805Y3341718D01*
X4625099Y3341810D01*
X4625192D01*
X4625284D01*
X4625839D01*
X4626671Y3341718D01*
X4627688Y3341533D01*
X4628983Y3341255D01*
X4630277Y3340793D01*
X4631571Y3340238D01*
X4632866Y3339406D01*
X4633051Y3339314D01*
X4633421Y3338944D01*
X4633975Y3338389D01*
X4634715Y3337650D01*
X4635547Y3336633D01*
X4636379Y3335431D01*
X4637211Y3334044D01*
X4637951Y3332380D01*
Y3332472D01*
X4638043Y3332657D01*
X4638136Y3332934D01*
X4638321Y3333304D01*
X4638783Y3334414D01*
X4639430Y3335708D01*
X4640355Y3337095D01*
X4641372Y3338574D01*
X4642666Y3339961D01*
X4644145Y3341255D01*
X4644238D01*
X4644330Y3341348D01*
X4644885Y3341718D01*
X4645810Y3342272D01*
X4647012Y3342827D01*
X4648491Y3343382D01*
X4650247Y3343937D01*
X4652189Y3344306D01*
X4654316Y3344399D01*
X4654408D01*
X4654685D01*
X4655148D01*
X4655702Y3344306D01*
D02*
G37*
G36*
X4652744Y3295027D02*
X4653299Y3294843D01*
X4654038Y3294565D01*
X4654870Y3294288D01*
X4655887Y3293918D01*
X4656997Y3293456D01*
X4658199Y3292901D01*
X4660787Y3291607D01*
X4663376Y3289942D01*
X4664671Y3288925D01*
X4665965Y3287908D01*
X4667074Y3286799D01*
X4668184Y3285504D01*
X4668276Y3285412D01*
X4668461Y3285227D01*
X4668646Y3284765D01*
X4669016Y3284303D01*
X4669478Y3283563D01*
X4669941Y3282823D01*
X4670403Y3281806D01*
X4670865Y3280789D01*
X4671420Y3279587D01*
X4671882Y3278293D01*
X4672344Y3276906D01*
X4672807Y3275427D01*
X4673177Y3273855D01*
X4673361Y3272191D01*
X4673546Y3270434D01*
X4673639Y3268585D01*
Y3267568D01*
X4673546Y3266828D01*
Y3265996D01*
X4673454Y3264979D01*
X4673269Y3263870D01*
X4673084Y3262575D01*
X4672622Y3259894D01*
X4671882Y3257120D01*
X4670865Y3254347D01*
X4670218Y3253052D01*
X4669478Y3251758D01*
X4669386Y3251666D01*
X4669293Y3251481D01*
X4669016Y3251111D01*
X4668646Y3250741D01*
X4668276Y3250186D01*
X4667722Y3249539D01*
X4667074Y3248799D01*
X4666335Y3248060D01*
X4665503Y3247320D01*
X4664671Y3246488D01*
X4662544Y3244824D01*
X4660048Y3243252D01*
X4657274Y3241865D01*
X4657182D01*
X4656904Y3241680D01*
X4656442Y3241588D01*
X4655887Y3241311D01*
X4655148Y3241126D01*
X4654223Y3240848D01*
X4653206Y3240478D01*
X4652097Y3240201D01*
X4650895Y3239924D01*
X4649508Y3239554D01*
X4646642Y3239092D01*
X4643406Y3238722D01*
X4640077Y3238537D01*
X4639985D01*
X4639615D01*
X4639060D01*
X4638413Y3238629D01*
X4637489D01*
X4636564Y3238722D01*
X4635362Y3238814D01*
X4634160Y3238999D01*
X4631479Y3239461D01*
X4628520Y3240109D01*
X4625562Y3241033D01*
X4622696Y3242328D01*
X4622603Y3242420D01*
X4622326Y3242512D01*
X4621956Y3242697D01*
X4621494Y3243067D01*
X4620846Y3243437D01*
X4620107Y3243899D01*
X4618443Y3245101D01*
X4616594Y3246673D01*
X4614744Y3248522D01*
X4612895Y3250649D01*
X4611324Y3253145D01*
X4611231Y3253237D01*
X4611139Y3253515D01*
X4610954Y3253885D01*
X4610676Y3254347D01*
X4610399Y3255086D01*
X4610122Y3255826D01*
X4609752Y3256751D01*
X4609382Y3257768D01*
X4609012Y3258877D01*
X4608642Y3260079D01*
X4608088Y3262668D01*
X4607625Y3265626D01*
X4607440Y3268677D01*
Y3269602D01*
X4607533Y3270249D01*
X4607625Y3271081D01*
X4607718Y3272098D01*
X4607810Y3273115D01*
X4608088Y3274317D01*
X4608642Y3276814D01*
X4609474Y3279587D01*
X4610029Y3280974D01*
X4610676Y3282269D01*
X4611508Y3283563D01*
X4612341Y3284857D01*
X4612433Y3284950D01*
X4612525Y3285135D01*
X4612803Y3285504D01*
X4613265Y3285967D01*
X4613727Y3286429D01*
X4614375Y3287076D01*
X4615114Y3287723D01*
X4615854Y3288463D01*
X4616778Y3289203D01*
X4617888Y3289942D01*
X4618997Y3290774D01*
X4620199Y3291514D01*
X4621586Y3292161D01*
X4622973Y3292901D01*
X4624452Y3293456D01*
X4626116Y3294010D01*
X4628058Y3285689D01*
X4627966D01*
X4627781Y3285597D01*
X4627411Y3285412D01*
X4626949Y3285227D01*
X4626394Y3285042D01*
X4625654Y3284765D01*
X4624175Y3284025D01*
X4622511Y3283101D01*
X4620846Y3281991D01*
X4619275Y3280604D01*
X4617888Y3279125D01*
X4617703Y3278940D01*
X4617333Y3278385D01*
X4616871Y3277461D01*
X4616224Y3276259D01*
X4615669Y3274687D01*
X4615114Y3272930D01*
X4614744Y3270804D01*
X4614652Y3268493D01*
Y3267753D01*
X4614744Y3267291D01*
Y3266643D01*
X4614837Y3265904D01*
X4615114Y3264147D01*
X4615484Y3262206D01*
X4616131Y3260172D01*
X4617056Y3258045D01*
X4618258Y3256103D01*
Y3256011D01*
X4618443Y3255919D01*
X4618905Y3255271D01*
X4619645Y3254439D01*
X4620754Y3253422D01*
X4622141Y3252220D01*
X4623713Y3251111D01*
X4625654Y3250094D01*
X4627781Y3249169D01*
X4627873D01*
X4628058Y3249077D01*
X4628335Y3248984D01*
X4628798Y3248892D01*
X4629352Y3248707D01*
X4630000Y3248522D01*
X4631571Y3248245D01*
X4633421Y3247875D01*
X4635455Y3247505D01*
X4637673Y3247320D01*
X4640077Y3247228D01*
X4640170D01*
X4640447D01*
X4640909D01*
X4641464D01*
X4642111Y3247320D01*
X4642943D01*
X4643868Y3247413D01*
X4644885Y3247505D01*
X4647104Y3247782D01*
X4649508Y3248245D01*
X4651912Y3248799D01*
X4654316Y3249539D01*
X4654408D01*
X4654593Y3249632D01*
X4654870Y3249816D01*
X4655333Y3250001D01*
X4656442Y3250556D01*
X4657736Y3251388D01*
X4659216Y3252405D01*
X4660787Y3253700D01*
X4662174Y3255179D01*
X4663469Y3256936D01*
Y3257028D01*
X4663561Y3257213D01*
X4663746Y3257490D01*
X4663931Y3257860D01*
X4664116Y3258322D01*
X4664393Y3258877D01*
X4664948Y3260172D01*
X4665503Y3261836D01*
X4665965Y3263685D01*
X4666335Y3265719D01*
X4666427Y3267845D01*
Y3268493D01*
X4666335Y3269047D01*
Y3269695D01*
X4666242Y3270342D01*
X4665873Y3272006D01*
X4665410Y3273947D01*
X4664671Y3275889D01*
X4663654Y3277923D01*
X4663099Y3278940D01*
X4662359Y3279865D01*
X4662267Y3279957D01*
X4662174Y3280050D01*
X4661897Y3280327D01*
X4661620Y3280697D01*
X4661157Y3281067D01*
X4660603Y3281529D01*
X4660048Y3282084D01*
X4659308Y3282546D01*
X4658476Y3283101D01*
X4657552Y3283748D01*
X4656627Y3284303D01*
X4655517Y3284857D01*
X4654316Y3285320D01*
X4653021Y3285782D01*
X4651634Y3286244D01*
X4650155Y3286614D01*
X4652282Y3295120D01*
X4652374D01*
X4652744Y3295027D01*
D02*
G37*
G36*
X4451349Y294743D02*
X4452181Y294650D01*
X4453198Y294558D01*
X4454215Y294466D01*
X4455417Y294188D01*
X4457914Y293633D01*
X4460687Y292801D01*
X4462074Y292247D01*
X4463369Y291599D01*
X4464663Y290767D01*
X4465957Y289935D01*
X4466050Y289843D01*
X4466235Y289750D01*
X4466604Y289473D01*
X4467067Y289011D01*
X4467529Y288548D01*
X4468176Y287901D01*
X4468823Y287161D01*
X4469563Y286422D01*
X4470303Y285497D01*
X4471042Y284388D01*
X4471874Y283278D01*
X4472614Y282076D01*
X4473261Y280690D01*
X4474001Y279303D01*
X4474556Y277823D01*
X4475110Y276159D01*
X4466789Y274218D01*
Y274310D01*
X4466697Y274495D01*
X4466512Y274865D01*
X4466327Y275327D01*
X4466142Y275882D01*
X4465865Y276621D01*
X4465125Y278101D01*
X4464201Y279765D01*
X4463091Y281429D01*
X4461704Y283001D01*
X4460225Y284388D01*
X4460040Y284573D01*
X4459485Y284943D01*
X4458561Y285405D01*
X4457359Y286052D01*
X4455787Y286607D01*
X4454030Y287161D01*
X4451904Y287531D01*
X4449593Y287624D01*
X4448853D01*
X4448391Y287531D01*
X4447743D01*
X4447004Y287439D01*
X4445247Y287161D01*
X4443306Y286792D01*
X4441272Y286144D01*
X4439145Y285220D01*
X4437203Y284018D01*
X4437111D01*
X4437019Y283833D01*
X4436371Y283371D01*
X4435539Y282631D01*
X4434522Y281522D01*
X4433320Y280135D01*
X4432211Y278563D01*
X4431194Y276621D01*
X4430269Y274495D01*
Y274403D01*
X4430177Y274218D01*
X4430084Y273940D01*
X4429992Y273478D01*
X4429807Y272923D01*
X4429622Y272276D01*
X4429345Y270704D01*
X4428975Y268855D01*
X4428605Y266821D01*
X4428420Y264602D01*
X4428328Y262198D01*
Y262106D01*
Y261829D01*
Y261366D01*
Y260812D01*
X4428420Y260164D01*
Y259332D01*
X4428513Y258408D01*
X4428605Y257391D01*
X4428882Y255172D01*
X4429345Y252768D01*
X4429899Y250364D01*
X4430639Y247960D01*
Y247868D01*
X4430732Y247683D01*
X4430916Y247405D01*
X4431101Y246943D01*
X4431656Y245834D01*
X4432488Y244539D01*
X4433505Y243060D01*
X4434800Y241488D01*
X4436279Y240101D01*
X4438036Y238807D01*
X4438128D01*
X4438313Y238715D01*
X4438590Y238530D01*
X4438960Y238345D01*
X4439422Y238160D01*
X4439977Y237882D01*
X4441272Y237328D01*
X4442936Y236773D01*
X4444785Y236311D01*
X4446819Y235941D01*
X4448945Y235848D01*
X4449593D01*
X4450147Y235941D01*
X4450795D01*
X4451442Y236033D01*
X4453106Y236403D01*
X4455047Y236865D01*
X4456989Y237605D01*
X4459023Y238622D01*
X4460040Y239177D01*
X4460965Y239916D01*
X4461057Y240009D01*
X4461150Y240101D01*
X4461427Y240379D01*
X4461797Y240656D01*
X4462167Y241118D01*
X4462629Y241673D01*
X4463184Y242228D01*
X4463646Y242968D01*
X4464201Y243800D01*
X4464848Y244724D01*
X4465403Y245649D01*
X4465957Y246758D01*
X4466420Y247960D01*
X4466882Y249255D01*
X4467344Y250641D01*
X4467714Y252121D01*
X4476220Y249994D01*
Y249902D01*
X4476127Y249532D01*
X4475943Y248977D01*
X4475665Y248238D01*
X4475388Y247405D01*
X4475018Y246388D01*
X4474556Y245279D01*
X4474001Y244077D01*
X4472707Y241488D01*
X4471042Y238899D01*
X4470025Y237605D01*
X4469008Y236311D01*
X4467899Y235201D01*
X4466604Y234092D01*
X4466512Y233999D01*
X4466327Y233814D01*
X4465865Y233629D01*
X4465403Y233260D01*
X4464663Y232797D01*
X4463923Y232335D01*
X4462906Y231873D01*
X4461889Y231411D01*
X4460687Y230856D01*
X4459393Y230393D01*
X4458006Y229931D01*
X4456527Y229469D01*
X4454955Y229099D01*
X4453291Y228914D01*
X4451534Y228729D01*
X4449685Y228637D01*
X4448668D01*
X4447928Y228729D01*
X4447096D01*
X4446079Y228822D01*
X4444970Y229007D01*
X4443675Y229192D01*
X4440994Y229654D01*
X4438220Y230393D01*
X4435447Y231411D01*
X4434152Y232058D01*
X4432858Y232797D01*
X4432766Y232890D01*
X4432581Y232982D01*
X4432211Y233260D01*
X4431841Y233629D01*
X4431286Y233999D01*
X4430639Y234554D01*
X4429899Y235201D01*
X4429160Y235941D01*
X4428420Y236773D01*
X4427588Y237605D01*
X4425924Y239732D01*
X4424352Y242228D01*
X4422965Y245002D01*
Y245094D01*
X4422780Y245371D01*
X4422688Y245834D01*
X4422411Y246388D01*
X4422226Y247128D01*
X4421948Y248053D01*
X4421578Y249070D01*
X4421301Y250179D01*
X4421024Y251381D01*
X4420654Y252768D01*
X4420192Y255634D01*
X4419822Y258870D01*
X4419637Y262198D01*
Y262291D01*
Y262661D01*
Y263215D01*
X4419729Y263863D01*
Y264787D01*
X4419822Y265712D01*
X4419914Y266914D01*
X4420099Y268116D01*
X4420561Y270797D01*
X4421209Y273755D01*
X4422133Y276714D01*
X4423428Y279580D01*
X4423520Y279673D01*
X4423612Y279950D01*
X4423797Y280320D01*
X4424167Y280782D01*
X4424537Y281429D01*
X4424999Y282169D01*
X4426201Y283833D01*
X4427773Y285682D01*
X4429622Y287531D01*
X4431749Y289380D01*
X4434245Y290952D01*
X4434337Y291045D01*
X4434615Y291137D01*
X4434985Y291322D01*
X4435447Y291599D01*
X4436186Y291877D01*
X4436926Y292154D01*
X4437851Y292524D01*
X4438868Y292894D01*
X4439977Y293264D01*
X4441179Y293633D01*
X4443768Y294188D01*
X4446726Y294650D01*
X4449777Y294835D01*
X4450702D01*
X4451349Y294743D01*
D02*
G37*
G36*
X4504604Y293911D02*
X4505066D01*
X4505713Y293818D01*
X4507285Y293541D01*
X4509042Y293171D01*
X4510983Y292524D01*
X4512925Y291692D01*
X4514867Y290582D01*
X4514959D01*
X4515051Y290397D01*
X4515329Y290213D01*
X4515699Y289935D01*
X4516623Y289196D01*
X4517825Y288178D01*
X4519027Y286792D01*
X4520414Y285127D01*
X4521616Y283186D01*
X4522725Y280967D01*
Y280874D01*
X4522818Y280690D01*
X4523003Y280320D01*
X4523188Y279857D01*
X4523372Y279210D01*
X4523650Y278378D01*
X4523835Y277454D01*
X4524112Y276437D01*
X4524389Y275235D01*
X4524667Y273848D01*
X4524852Y272369D01*
X4525037Y270797D01*
X4525222Y269040D01*
X4525406Y267191D01*
X4525499Y265157D01*
Y263030D01*
Y262938D01*
Y262476D01*
Y261829D01*
Y260996D01*
X4525406Y259979D01*
Y258777D01*
X4525314Y257391D01*
X4525129Y256004D01*
X4524852Y252860D01*
X4524389Y249532D01*
X4523742Y246388D01*
X4523280Y244817D01*
X4522818Y243430D01*
Y243337D01*
X4522725Y243152D01*
X4522540Y242783D01*
X4522355Y242228D01*
X4522078Y241673D01*
X4521708Y240933D01*
X4520784Y239362D01*
X4519674Y237605D01*
X4518380Y235756D01*
X4516716Y233999D01*
X4514867Y232428D01*
X4514774D01*
X4514589Y232243D01*
X4514312Y232058D01*
X4513942Y231873D01*
X4513387Y231595D01*
X4512832Y231226D01*
X4512093Y230856D01*
X4511353Y230578D01*
X4509597Y229839D01*
X4507470Y229192D01*
X4505159Y228822D01*
X4502570Y228637D01*
X4501830D01*
X4501368Y228729D01*
X4500721D01*
X4499981Y228822D01*
X4498224Y229192D01*
X4496283Y229654D01*
X4494249Y230393D01*
X4492215Y231411D01*
X4491198Y232058D01*
X4490273Y232797D01*
X4490181Y232890D01*
X4490088Y232982D01*
X4489811Y233260D01*
X4489534Y233537D01*
X4489164Y233999D01*
X4488701Y234554D01*
X4487777Y235848D01*
X4486852Y237513D01*
X4485928Y239547D01*
X4485188Y241858D01*
X4484633Y244539D01*
X4492215Y245186D01*
Y245094D01*
X4492307Y244909D01*
Y244724D01*
X4492400Y244354D01*
X4492677Y243337D01*
X4493047Y242228D01*
X4493509Y240933D01*
X4494156Y239639D01*
X4494896Y238437D01*
X4495821Y237420D01*
X4495913Y237328D01*
X4496283Y237050D01*
X4496930Y236681D01*
X4497670Y236311D01*
X4498687Y235848D01*
X4499889Y235479D01*
X4501275Y235201D01*
X4502755Y235109D01*
X4503402D01*
X4504049Y235201D01*
X4504881Y235294D01*
X4505898Y235479D01*
X4506915Y235756D01*
X4508025Y236126D01*
X4509042Y236681D01*
X4509134Y236773D01*
X4509504Y236958D01*
X4510059Y237328D01*
X4510614Y237882D01*
X4511353Y238530D01*
X4512093Y239269D01*
X4512832Y240101D01*
X4513572Y241118D01*
X4513665Y241211D01*
X4513849Y241673D01*
X4514219Y242320D01*
X4514589Y243152D01*
X4515051Y244262D01*
X4515514Y245556D01*
X4515976Y247036D01*
X4516438Y248700D01*
Y248792D01*
X4516531Y248885D01*
Y249162D01*
X4516623Y249532D01*
X4516808Y250456D01*
X4517085Y251658D01*
X4517270Y253138D01*
X4517455Y254709D01*
X4517548Y256466D01*
X4517640Y258315D01*
Y258408D01*
Y258685D01*
Y259147D01*
Y259887D01*
X4517548Y259702D01*
X4517178Y259240D01*
X4516623Y258593D01*
X4515976Y257668D01*
X4515051Y256743D01*
X4513942Y255726D01*
X4512648Y254709D01*
X4511168Y253785D01*
X4510983Y253692D01*
X4510429Y253415D01*
X4509597Y253045D01*
X4508580Y252675D01*
X4507193Y252213D01*
X4505713Y251843D01*
X4504049Y251566D01*
X4502292Y251473D01*
X4501553D01*
X4500998Y251566D01*
X4500258Y251658D01*
X4499519Y251751D01*
X4498594Y251936D01*
X4497670Y252213D01*
X4495543Y252860D01*
X4494434Y253323D01*
X4493324Y253877D01*
X4492122Y254525D01*
X4491013Y255357D01*
X4489903Y256189D01*
X4488886Y257206D01*
X4488794Y257298D01*
X4488609Y257483D01*
X4488424Y257760D01*
X4488054Y258223D01*
X4487592Y258870D01*
X4487130Y259517D01*
X4486667Y260349D01*
X4486205Y261274D01*
X4485650Y262291D01*
X4485188Y263400D01*
X4484726Y264695D01*
X4484264Y265989D01*
X4483894Y267468D01*
X4483709Y269040D01*
X4483524Y270612D01*
X4483431Y272369D01*
Y272461D01*
Y272831D01*
Y273293D01*
X4483524Y273940D01*
X4483616Y274772D01*
X4483709Y275789D01*
X4483894Y276806D01*
X4484171Y278008D01*
X4484818Y280412D01*
X4485281Y281707D01*
X4485835Y283093D01*
X4486483Y284388D01*
X4487315Y285590D01*
X4488147Y286884D01*
X4489164Y287994D01*
X4489256Y288086D01*
X4489441Y288271D01*
X4489718Y288548D01*
X4490181Y288918D01*
X4490735Y289380D01*
X4491475Y289935D01*
X4492215Y290397D01*
X4493139Y291045D01*
X4494064Y291599D01*
X4495173Y292062D01*
X4497670Y293079D01*
X4498964Y293448D01*
X4500443Y293726D01*
X4501923Y293911D01*
X4503494Y294003D01*
X4504142D01*
X4504604Y293911D01*
D02*
G37*
G36*
X3320891Y2120846D02*
X3321630Y2120754D01*
X3322462Y2120661D01*
X3323387Y2120477D01*
X3324404Y2120292D01*
X3326623Y2119737D01*
X3328934Y2118812D01*
X3330136Y2118258D01*
X3331246Y2117610D01*
X3332355Y2116778D01*
X3333465Y2115946D01*
X3333557Y2115854D01*
X3333742Y2115669D01*
X3334019Y2115392D01*
X3334297Y2115022D01*
X3334759Y2114559D01*
X3335221Y2113912D01*
X3335776Y2113265D01*
X3336331Y2112433D01*
X3336886Y2111508D01*
X3337440Y2110584D01*
X3338457Y2108365D01*
X3339289Y2105776D01*
X3339567Y2104389D01*
X3339752Y2102910D01*
X3331893Y2101893D01*
Y2101985D01*
X3331801Y2102170D01*
X3331708Y2102540D01*
X3331616Y2103002D01*
X3331523Y2103557D01*
X3331338Y2104204D01*
X3330876Y2105591D01*
X3330229Y2107255D01*
X3329397Y2108827D01*
X3328472Y2110306D01*
X3327363Y2111601D01*
X3327178Y2111693D01*
X3326808Y2112063D01*
X3326068Y2112525D01*
X3325144Y2112988D01*
X3324034Y2113542D01*
X3322647Y2114005D01*
X3321076Y2114374D01*
X3319411Y2114467D01*
X3318857D01*
X3318487Y2114374D01*
X3317470Y2114282D01*
X3316175Y2114005D01*
X3314696Y2113542D01*
X3313124Y2112895D01*
X3311553Y2111971D01*
X3310073Y2110676D01*
X3309888Y2110491D01*
X3309426Y2109937D01*
X3308871Y2109104D01*
X3308132Y2107995D01*
X3307392Y2106608D01*
X3306837Y2105036D01*
X3306375Y2103187D01*
X3306190Y2101153D01*
Y2101061D01*
Y2100876D01*
Y2100599D01*
X3306283Y2100229D01*
X3306375Y2099212D01*
X3306653Y2098010D01*
X3307022Y2096530D01*
X3307670Y2095051D01*
X3308594Y2093572D01*
X3309796Y2092185D01*
X3309981Y2092000D01*
X3310443Y2091630D01*
X3311183Y2091076D01*
X3312200Y2090428D01*
X3313494Y2089781D01*
X3315066Y2089226D01*
X3316823Y2088857D01*
X3318764Y2088672D01*
X3319596D01*
X3320244Y2088764D01*
X3321076Y2088857D01*
X3322000Y2089042D01*
X3323110Y2089226D01*
X3324312Y2089504D01*
X3323387Y2082570D01*
X3322925D01*
X3322555Y2082662D01*
X3321353D01*
X3320336Y2082477D01*
X3319134Y2082292D01*
X3317747Y2082015D01*
X3316175Y2081553D01*
X3314696Y2080905D01*
X3313124Y2080073D01*
X3313032D01*
X3312940Y2079981D01*
X3312477Y2079611D01*
X3311830Y2078964D01*
X3311090Y2078132D01*
X3310351Y2076930D01*
X3309704Y2075543D01*
X3309241Y2073971D01*
X3309056Y2073047D01*
Y2072030D01*
Y2071937D01*
Y2071845D01*
Y2071290D01*
X3309241Y2070550D01*
X3309426Y2069533D01*
X3309796Y2068424D01*
X3310258Y2067222D01*
X3310998Y2066020D01*
X3312015Y2064911D01*
X3312107Y2064818D01*
X3312570Y2064448D01*
X3313217Y2063986D01*
X3314049Y2063431D01*
X3315158Y2062969D01*
X3316453Y2062507D01*
X3317932Y2062137D01*
X3319596Y2062044D01*
X3320336D01*
X3321168Y2062229D01*
X3322278Y2062414D01*
X3323480Y2062784D01*
X3324681Y2063246D01*
X3325976Y2063986D01*
X3327178Y2064911D01*
X3327270Y2065003D01*
X3327640Y2065465D01*
X3328195Y2066112D01*
X3328842Y2067037D01*
X3329489Y2068239D01*
X3330136Y2069718D01*
X3330691Y2071475D01*
X3331061Y2073509D01*
X3338920Y2072122D01*
Y2072030D01*
X3338827Y2071752D01*
X3338735Y2071382D01*
X3338642Y2070828D01*
X3338457Y2070181D01*
X3338180Y2069441D01*
X3337625Y2067684D01*
X3336701Y2065650D01*
X3335591Y2063616D01*
X3334204Y2061675D01*
X3332448Y2059918D01*
X3332355Y2059825D01*
X3332170Y2059733D01*
X3331893Y2059548D01*
X3331523Y2059271D01*
X3331061Y2058901D01*
X3330414Y2058531D01*
X3329767Y2058161D01*
X3328934Y2057699D01*
X3327085Y2056959D01*
X3324959Y2056220D01*
X3322462Y2055757D01*
X3321168Y2055572D01*
X3318857D01*
X3317840Y2055665D01*
X3316638Y2055850D01*
X3315158Y2056127D01*
X3313494Y2056589D01*
X3311830Y2057144D01*
X3310166Y2057884D01*
X3310073D01*
X3309981Y2057976D01*
X3309426Y2058254D01*
X3308594Y2058808D01*
X3307670Y2059456D01*
X3306560Y2060380D01*
X3305451Y2061397D01*
X3304341Y2062599D01*
X3303417Y2063986D01*
X3303324Y2064171D01*
X3303047Y2064633D01*
X3302677Y2065465D01*
X3302215Y2066482D01*
X3301752Y2067684D01*
X3301383Y2069071D01*
X3301105Y2070643D01*
X3301013Y2072215D01*
Y2072399D01*
Y2072954D01*
X3301105Y2073694D01*
X3301290Y2074711D01*
X3301567Y2075913D01*
X3302030Y2077207D01*
X3302584Y2078502D01*
X3303324Y2079796D01*
X3303417Y2079981D01*
X3303694Y2080351D01*
X3304249Y2080998D01*
X3304988Y2081738D01*
X3305913Y2082570D01*
X3307022Y2083494D01*
X3308317Y2084326D01*
X3309888Y2085158D01*
X3309796D01*
X3309611Y2085251D01*
X3309334Y2085343D01*
X3308964Y2085436D01*
X3307947Y2085806D01*
X3306653Y2086360D01*
X3305173Y2087100D01*
X3303694Y2088025D01*
X3302307Y2089226D01*
X3301013Y2090613D01*
X3300920Y2090798D01*
X3300550Y2091353D01*
X3299996Y2092278D01*
X3299441Y2093479D01*
X3298886Y2094959D01*
X3298331Y2096715D01*
X3297962Y2098749D01*
X3297869Y2100968D01*
Y2101061D01*
Y2101338D01*
Y2101800D01*
X3297962Y2102355D01*
X3298054Y2103095D01*
X3298239Y2103927D01*
X3298424Y2104852D01*
X3298609Y2105869D01*
X3299348Y2108087D01*
X3299903Y2109289D01*
X3300458Y2110399D01*
X3301198Y2111601D01*
X3302030Y2112803D01*
X3302954Y2114005D01*
X3304064Y2115114D01*
X3304156Y2115207D01*
X3304341Y2115392D01*
X3304711Y2115669D01*
X3305173Y2116039D01*
X3305728Y2116501D01*
X3306468Y2116963D01*
X3307300Y2117518D01*
X3308317Y2117980D01*
X3309334Y2118535D01*
X3310536Y2119090D01*
X3311738Y2119552D01*
X3313124Y2120014D01*
X3314604Y2120384D01*
X3316175Y2120661D01*
X3317747Y2120846D01*
X3319504Y2120939D01*
X3320336D01*
X3320891Y2120846D01*
D02*
G37*
G36*
X3375347D02*
X3376179D01*
X3377196Y2120754D01*
X3378306Y2120569D01*
X3379600Y2120384D01*
X3382282Y2119922D01*
X3385055Y2119182D01*
X3387829Y2118165D01*
X3389123Y2117518D01*
X3390418Y2116778D01*
X3390510Y2116686D01*
X3390695Y2116593D01*
X3391065Y2116316D01*
X3391435Y2115946D01*
X3391989Y2115576D01*
X3392637Y2115022D01*
X3393376Y2114374D01*
X3394116Y2113635D01*
X3394856Y2112803D01*
X3395688Y2111971D01*
X3397352Y2109844D01*
X3398924Y2107348D01*
X3400310Y2104574D01*
Y2104482D01*
X3400495Y2104204D01*
X3400588Y2103742D01*
X3400865Y2103187D01*
X3401050Y2102448D01*
X3401327Y2101523D01*
X3401697Y2100506D01*
X3401975Y2099397D01*
X3402252Y2098195D01*
X3402622Y2096808D01*
X3403084Y2093942D01*
X3403454Y2090706D01*
X3403639Y2087377D01*
Y2087285D01*
Y2086915D01*
Y2086360D01*
X3403546Y2085713D01*
Y2084789D01*
X3403454Y2083864D01*
X3403361Y2082662D01*
X3403177Y2081460D01*
X3402714Y2078779D01*
X3402067Y2075820D01*
X3401143Y2072862D01*
X3399848Y2069996D01*
X3399756Y2069903D01*
X3399663Y2069626D01*
X3399478Y2069256D01*
X3399109Y2068794D01*
X3398739Y2068146D01*
X3398276Y2067407D01*
X3397074Y2065743D01*
X3395503Y2063894D01*
X3393654Y2062044D01*
X3391527Y2060195D01*
X3389031Y2058624D01*
X3388938Y2058531D01*
X3388661Y2058439D01*
X3388291Y2058254D01*
X3387829Y2057976D01*
X3387089Y2057699D01*
X3386350Y2057422D01*
X3385425Y2057052D01*
X3384408Y2056682D01*
X3383299Y2056312D01*
X3382097Y2055942D01*
X3379508Y2055388D01*
X3376549Y2054925D01*
X3373498Y2054740D01*
X3372574D01*
X3371926Y2054833D01*
X3371094Y2054925D01*
X3370077Y2055018D01*
X3369060Y2055110D01*
X3367858Y2055388D01*
X3365362Y2055942D01*
X3362588Y2056774D01*
X3361202Y2057329D01*
X3359907Y2057976D01*
X3358613Y2058808D01*
X3357318Y2059641D01*
X3357226Y2059733D01*
X3357041Y2059825D01*
X3356671Y2060103D01*
X3356209Y2060565D01*
X3355747Y2061027D01*
X3355099Y2061675D01*
X3354452Y2062414D01*
X3353713Y2063154D01*
X3352973Y2064078D01*
X3352233Y2065188D01*
X3351401Y2066297D01*
X3350662Y2067499D01*
X3350014Y2068886D01*
X3349275Y2070273D01*
X3348720Y2071752D01*
X3348165Y2073416D01*
X3356486Y2075358D01*
Y2075266D01*
X3356579Y2075081D01*
X3356764Y2074711D01*
X3356949Y2074249D01*
X3357133Y2073694D01*
X3357411Y2072954D01*
X3358151Y2071475D01*
X3359075Y2069811D01*
X3360185Y2068146D01*
X3361571Y2066575D01*
X3363051Y2065188D01*
X3363236Y2065003D01*
X3363790Y2064633D01*
X3364715Y2064171D01*
X3365917Y2063524D01*
X3367489Y2062969D01*
X3369245Y2062414D01*
X3371372Y2062044D01*
X3373683Y2061952D01*
X3374423D01*
X3374885Y2062044D01*
X3375532D01*
X3376272Y2062137D01*
X3378029Y2062414D01*
X3379970Y2062784D01*
X3382004Y2063431D01*
X3384131Y2064356D01*
X3386072Y2065558D01*
X3386165D01*
X3386257Y2065743D01*
X3386904Y2066205D01*
X3387736Y2066945D01*
X3388753Y2068054D01*
X3389955Y2069441D01*
X3391065Y2071013D01*
X3392082Y2072954D01*
X3393006Y2075081D01*
Y2075173D01*
X3393099Y2075358D01*
X3393191Y2075635D01*
X3393284Y2076098D01*
X3393469Y2076652D01*
X3393654Y2077300D01*
X3393931Y2078871D01*
X3394301Y2080721D01*
X3394671Y2082755D01*
X3394856Y2084973D01*
X3394948Y2087377D01*
Y2087470D01*
Y2087747D01*
Y2088209D01*
Y2088764D01*
X3394856Y2089411D01*
Y2090243D01*
X3394763Y2091168D01*
X3394671Y2092185D01*
X3394393Y2094404D01*
X3393931Y2096808D01*
X3393376Y2099212D01*
X3392637Y2101616D01*
Y2101708D01*
X3392544Y2101893D01*
X3392359Y2102170D01*
X3392174Y2102633D01*
X3391620Y2103742D01*
X3390787Y2105036D01*
X3389770Y2106516D01*
X3388476Y2108087D01*
X3386997Y2109474D01*
X3385240Y2110769D01*
X3385148D01*
X3384963Y2110861D01*
X3384685Y2111046D01*
X3384316Y2111231D01*
X3383853Y2111416D01*
X3383299Y2111693D01*
X3382004Y2112248D01*
X3380340Y2112803D01*
X3378491Y2113265D01*
X3376457Y2113635D01*
X3374330Y2113727D01*
X3373683D01*
X3373128Y2113635D01*
X3372481D01*
X3371834Y2113542D01*
X3370170Y2113173D01*
X3368228Y2112710D01*
X3366287Y2111971D01*
X3364253Y2110954D01*
X3363236Y2110399D01*
X3362311Y2109659D01*
X3362219Y2109567D01*
X3362126Y2109474D01*
X3361849Y2109197D01*
X3361479Y2108920D01*
X3361109Y2108457D01*
X3360647Y2107903D01*
X3360092Y2107348D01*
X3359630Y2106608D01*
X3359075Y2105776D01*
X3358428Y2104852D01*
X3357873Y2103927D01*
X3357318Y2102817D01*
X3356856Y2101616D01*
X3356394Y2100321D01*
X3355932Y2098934D01*
X3355562Y2097455D01*
X3347056Y2099582D01*
Y2099674D01*
X3347148Y2100044D01*
X3347333Y2100599D01*
X3347611Y2101338D01*
X3347888Y2102170D01*
X3348258Y2103187D01*
X3348720Y2104297D01*
X3349275Y2105499D01*
X3350569Y2108087D01*
X3352233Y2110676D01*
X3353250Y2111971D01*
X3354267Y2113265D01*
X3355377Y2114374D01*
X3356671Y2115484D01*
X3356764Y2115576D01*
X3356949Y2115761D01*
X3357411Y2115946D01*
X3357873Y2116316D01*
X3358613Y2116778D01*
X3359352Y2117241D01*
X3360369Y2117703D01*
X3361386Y2118165D01*
X3362588Y2118720D01*
X3363883Y2119182D01*
X3365270Y2119644D01*
X3366749Y2120107D01*
X3368321Y2120477D01*
X3369985Y2120661D01*
X3371742Y2120846D01*
X3373591Y2120939D01*
X3374608D01*
X3375347Y2120846D01*
D02*
G37*
G36*
X2994347Y2133546D02*
X2995179D01*
X2996196Y2133454D01*
X2997306Y2133269D01*
X2998600Y2133084D01*
X3001282Y2132622D01*
X3004055Y2131882D01*
X3006829Y2130865D01*
X3008123Y2130218D01*
X3009418Y2129478D01*
X3009510Y2129386D01*
X3009695Y2129293D01*
X3010065Y2129016D01*
X3010435Y2128646D01*
X3010989Y2128276D01*
X3011637Y2127722D01*
X3012376Y2127074D01*
X3013116Y2126335D01*
X3013856Y2125503D01*
X3014688Y2124671D01*
X3016352Y2122544D01*
X3017924Y2120048D01*
X3019310Y2117274D01*
Y2117182D01*
X3019495Y2116904D01*
X3019588Y2116442D01*
X3019865Y2115887D01*
X3020050Y2115148D01*
X3020327Y2114223D01*
X3020697Y2113206D01*
X3020975Y2112097D01*
X3021252Y2110895D01*
X3021622Y2109508D01*
X3022084Y2106642D01*
X3022454Y2103406D01*
X3022639Y2100077D01*
Y2099985D01*
Y2099615D01*
Y2099060D01*
X3022546Y2098413D01*
Y2097489D01*
X3022454Y2096564D01*
X3022361Y2095362D01*
X3022177Y2094160D01*
X3021714Y2091479D01*
X3021067Y2088520D01*
X3020143Y2085562D01*
X3018848Y2082696D01*
X3018756Y2082603D01*
X3018663Y2082326D01*
X3018478Y2081956D01*
X3018109Y2081494D01*
X3017739Y2080846D01*
X3017276Y2080107D01*
X3016074Y2078443D01*
X3014503Y2076594D01*
X3012654Y2074744D01*
X3010527Y2072895D01*
X3008031Y2071324D01*
X3007938Y2071231D01*
X3007661Y2071139D01*
X3007291Y2070954D01*
X3006829Y2070676D01*
X3006089Y2070399D01*
X3005350Y2070122D01*
X3004425Y2069752D01*
X3003408Y2069382D01*
X3002299Y2069012D01*
X3001097Y2068642D01*
X2998508Y2068088D01*
X2995549Y2067625D01*
X2992498Y2067440D01*
X2991574D01*
X2990926Y2067533D01*
X2990094Y2067625D01*
X2989077Y2067718D01*
X2988060Y2067810D01*
X2986858Y2068088D01*
X2984362Y2068642D01*
X2981588Y2069474D01*
X2980202Y2070029D01*
X2978907Y2070676D01*
X2977613Y2071508D01*
X2976318Y2072341D01*
X2976226Y2072433D01*
X2976041Y2072525D01*
X2975671Y2072803D01*
X2975209Y2073265D01*
X2974747Y2073727D01*
X2974099Y2074375D01*
X2973452Y2075114D01*
X2972713Y2075854D01*
X2971973Y2076778D01*
X2971233Y2077888D01*
X2970401Y2078997D01*
X2969662Y2080199D01*
X2969014Y2081586D01*
X2968275Y2082973D01*
X2967720Y2084452D01*
X2967165Y2086116D01*
X2975486Y2088058D01*
Y2087966D01*
X2975579Y2087781D01*
X2975764Y2087411D01*
X2975949Y2086949D01*
X2976133Y2086394D01*
X2976411Y2085654D01*
X2977151Y2084175D01*
X2978075Y2082511D01*
X2979185Y2080846D01*
X2980571Y2079275D01*
X2982051Y2077888D01*
X2982236Y2077703D01*
X2982790Y2077333D01*
X2983715Y2076871D01*
X2984917Y2076224D01*
X2986489Y2075669D01*
X2988245Y2075114D01*
X2990372Y2074744D01*
X2992683Y2074652D01*
X2993423D01*
X2993885Y2074744D01*
X2994532D01*
X2995272Y2074837D01*
X2997029Y2075114D01*
X2998970Y2075484D01*
X3001004Y2076131D01*
X3003131Y2077056D01*
X3005072Y2078258D01*
X3005165D01*
X3005257Y2078443D01*
X3005904Y2078905D01*
X3006736Y2079645D01*
X3007753Y2080754D01*
X3008955Y2082141D01*
X3010065Y2083713D01*
X3011082Y2085654D01*
X3012006Y2087781D01*
Y2087873D01*
X3012099Y2088058D01*
X3012191Y2088335D01*
X3012284Y2088798D01*
X3012469Y2089352D01*
X3012654Y2090000D01*
X3012931Y2091571D01*
X3013301Y2093421D01*
X3013671Y2095455D01*
X3013856Y2097673D01*
X3013948Y2100077D01*
Y2100170D01*
Y2100447D01*
Y2100909D01*
Y2101464D01*
X3013856Y2102111D01*
Y2102943D01*
X3013763Y2103868D01*
X3013671Y2104885D01*
X3013393Y2107104D01*
X3012931Y2109508D01*
X3012376Y2111912D01*
X3011637Y2114316D01*
Y2114408D01*
X3011544Y2114593D01*
X3011359Y2114870D01*
X3011174Y2115333D01*
X3010620Y2116442D01*
X3009787Y2117736D01*
X3008770Y2119216D01*
X3007476Y2120787D01*
X3005997Y2122174D01*
X3004240Y2123469D01*
X3004148D01*
X3003963Y2123561D01*
X3003685Y2123746D01*
X3003316Y2123931D01*
X3002853Y2124116D01*
X3002299Y2124393D01*
X3001004Y2124948D01*
X2999340Y2125503D01*
X2997491Y2125965D01*
X2995457Y2126335D01*
X2993330Y2126427D01*
X2992683D01*
X2992128Y2126335D01*
X2991481D01*
X2990834Y2126242D01*
X2989170Y2125873D01*
X2987228Y2125410D01*
X2985287Y2124671D01*
X2983253Y2123654D01*
X2982236Y2123099D01*
X2981311Y2122359D01*
X2981219Y2122267D01*
X2981126Y2122174D01*
X2980849Y2121897D01*
X2980479Y2121620D01*
X2980109Y2121157D01*
X2979647Y2120603D01*
X2979092Y2120048D01*
X2978630Y2119308D01*
X2978075Y2118476D01*
X2977428Y2117552D01*
X2976873Y2116627D01*
X2976318Y2115517D01*
X2975856Y2114316D01*
X2975394Y2113021D01*
X2974932Y2111634D01*
X2974562Y2110155D01*
X2966056Y2112282D01*
Y2112374D01*
X2966148Y2112744D01*
X2966333Y2113299D01*
X2966611Y2114038D01*
X2966888Y2114870D01*
X2967258Y2115887D01*
X2967720Y2116997D01*
X2968275Y2118199D01*
X2969569Y2120787D01*
X2971233Y2123376D01*
X2972250Y2124671D01*
X2973267Y2125965D01*
X2974377Y2127074D01*
X2975671Y2128184D01*
X2975764Y2128276D01*
X2975949Y2128461D01*
X2976411Y2128646D01*
X2976873Y2129016D01*
X2977613Y2129478D01*
X2978352Y2129941D01*
X2979369Y2130403D01*
X2980386Y2130865D01*
X2981588Y2131420D01*
X2982883Y2131882D01*
X2984270Y2132344D01*
X2985749Y2132807D01*
X2987321Y2133177D01*
X2988985Y2133361D01*
X2990742Y2133546D01*
X2992591Y2133639D01*
X2993608D01*
X2994347Y2133546D01*
D02*
G37*
G36*
X2933696Y2117182D02*
X2961525D01*
Y2109970D01*
X2932217Y2068550D01*
X2925837D01*
Y2109970D01*
X2917147D01*
Y2117182D01*
X2925837D01*
Y2132529D01*
X2933696D01*
Y2117182D01*
D02*
G37*
G36*
X2626047Y2044646D02*
X2626879D01*
X2627896Y2044554D01*
X2629006Y2044369D01*
X2630300Y2044184D01*
X2632982Y2043722D01*
X2635755Y2042982D01*
X2638529Y2041965D01*
X2639823Y2041318D01*
X2641118Y2040578D01*
X2641210Y2040486D01*
X2641395Y2040393D01*
X2641765Y2040116D01*
X2642135Y2039746D01*
X2642689Y2039376D01*
X2643337Y2038822D01*
X2644076Y2038174D01*
X2644816Y2037435D01*
X2645556Y2036603D01*
X2646388Y2035771D01*
X2648052Y2033644D01*
X2649624Y2031148D01*
X2651010Y2028374D01*
Y2028282D01*
X2651195Y2028004D01*
X2651288Y2027542D01*
X2651565Y2026987D01*
X2651750Y2026248D01*
X2652027Y2025323D01*
X2652397Y2024306D01*
X2652675Y2023197D01*
X2652952Y2021995D01*
X2653322Y2020608D01*
X2653784Y2017742D01*
X2654154Y2014506D01*
X2654339Y2011177D01*
Y2011085D01*
Y2010715D01*
Y2010160D01*
X2654246Y2009513D01*
Y2008589D01*
X2654154Y2007664D01*
X2654061Y2006462D01*
X2653877Y2005260D01*
X2653414Y2002579D01*
X2652767Y1999620D01*
X2651843Y1996662D01*
X2650548Y1993796D01*
X2650456Y1993703D01*
X2650363Y1993426D01*
X2650178Y1993056D01*
X2649809Y1992594D01*
X2649439Y1991946D01*
X2648976Y1991207D01*
X2647774Y1989543D01*
X2646203Y1987694D01*
X2644354Y1985844D01*
X2642227Y1983995D01*
X2639731Y1982424D01*
X2639638Y1982331D01*
X2639361Y1982239D01*
X2638991Y1982054D01*
X2638529Y1981776D01*
X2637789Y1981499D01*
X2637050Y1981222D01*
X2636125Y1980852D01*
X2635108Y1980482D01*
X2633999Y1980112D01*
X2632797Y1979742D01*
X2630208Y1979188D01*
X2627249Y1978725D01*
X2624198Y1978540D01*
X2623274D01*
X2622626Y1978633D01*
X2621794Y1978725D01*
X2620777Y1978818D01*
X2619760Y1978910D01*
X2618558Y1979188D01*
X2616062Y1979742D01*
X2613288Y1980574D01*
X2611902Y1981129D01*
X2610607Y1981776D01*
X2609313Y1982608D01*
X2608018Y1983441D01*
X2607926Y1983533D01*
X2607741Y1983625D01*
X2607371Y1983903D01*
X2606909Y1984365D01*
X2606447Y1984827D01*
X2605799Y1985475D01*
X2605152Y1986214D01*
X2604413Y1986954D01*
X2603673Y1987878D01*
X2602933Y1988988D01*
X2602101Y1990097D01*
X2601362Y1991299D01*
X2600714Y1992686D01*
X2599975Y1994073D01*
X2599420Y1995552D01*
X2598865Y1997216D01*
X2607186Y1999158D01*
Y1999066D01*
X2607279Y1998881D01*
X2607464Y1998511D01*
X2607649Y1998049D01*
X2607833Y1997494D01*
X2608111Y1996754D01*
X2608851Y1995275D01*
X2609775Y1993611D01*
X2610885Y1991946D01*
X2612271Y1990375D01*
X2613751Y1988988D01*
X2613936Y1988803D01*
X2614490Y1988433D01*
X2615415Y1987971D01*
X2616617Y1987324D01*
X2618189Y1986769D01*
X2619945Y1986214D01*
X2622072Y1985844D01*
X2624383Y1985752D01*
X2625123D01*
X2625585Y1985844D01*
X2626232D01*
X2626972Y1985937D01*
X2628729Y1986214D01*
X2630670Y1986584D01*
X2632704Y1987231D01*
X2634831Y1988156D01*
X2636772Y1989358D01*
X2636865D01*
X2636957Y1989543D01*
X2637604Y1990005D01*
X2638436Y1990745D01*
X2639453Y1991854D01*
X2640655Y1993241D01*
X2641765Y1994813D01*
X2642782Y1996754D01*
X2643706Y1998881D01*
Y1998973D01*
X2643799Y1999158D01*
X2643891Y1999435D01*
X2643984Y1999898D01*
X2644169Y2000452D01*
X2644354Y2001100D01*
X2644631Y2002671D01*
X2645001Y2004521D01*
X2645371Y2006555D01*
X2645556Y2008773D01*
X2645648Y2011177D01*
Y2011270D01*
Y2011547D01*
Y2012009D01*
Y2012564D01*
X2645556Y2013211D01*
Y2014043D01*
X2645463Y2014968D01*
X2645371Y2015985D01*
X2645093Y2018204D01*
X2644631Y2020608D01*
X2644076Y2023012D01*
X2643337Y2025416D01*
Y2025508D01*
X2643244Y2025693D01*
X2643059Y2025970D01*
X2642874Y2026433D01*
X2642320Y2027542D01*
X2641487Y2028836D01*
X2640470Y2030316D01*
X2639176Y2031887D01*
X2637697Y2033274D01*
X2635940Y2034569D01*
X2635848D01*
X2635663Y2034661D01*
X2635385Y2034846D01*
X2635016Y2035031D01*
X2634553Y2035216D01*
X2633999Y2035493D01*
X2632704Y2036048D01*
X2631040Y2036603D01*
X2629191Y2037065D01*
X2627157Y2037435D01*
X2625030Y2037527D01*
X2624383D01*
X2623828Y2037435D01*
X2623181D01*
X2622534Y2037342D01*
X2620870Y2036973D01*
X2618928Y2036510D01*
X2616987Y2035771D01*
X2614953Y2034754D01*
X2613936Y2034199D01*
X2613011Y2033459D01*
X2612919Y2033367D01*
X2612826Y2033274D01*
X2612549Y2032997D01*
X2612179Y2032720D01*
X2611809Y2032257D01*
X2611347Y2031703D01*
X2610792Y2031148D01*
X2610330Y2030408D01*
X2609775Y2029576D01*
X2609128Y2028652D01*
X2608573Y2027727D01*
X2608018Y2026617D01*
X2607556Y2025416D01*
X2607094Y2024121D01*
X2606632Y2022734D01*
X2606262Y2021255D01*
X2597756Y2023382D01*
Y2023474D01*
X2597848Y2023844D01*
X2598033Y2024399D01*
X2598311Y2025138D01*
X2598588Y2025970D01*
X2598958Y2026987D01*
X2599420Y2028097D01*
X2599975Y2029299D01*
X2601269Y2031887D01*
X2602933Y2034476D01*
X2603950Y2035771D01*
X2604967Y2037065D01*
X2606077Y2038174D01*
X2607371Y2039284D01*
X2607464Y2039376D01*
X2607649Y2039561D01*
X2608111Y2039746D01*
X2608573Y2040116D01*
X2609313Y2040578D01*
X2610052Y2041041D01*
X2611069Y2041503D01*
X2612086Y2041965D01*
X2613288Y2042520D01*
X2614583Y2042982D01*
X2615970Y2043444D01*
X2617449Y2043907D01*
X2619021Y2044277D01*
X2620685Y2044461D01*
X2622442Y2044646D01*
X2624291Y2044739D01*
X2625308D01*
X2626047Y2044646D01*
D02*
G37*
G36*
X2591654Y2043537D02*
Y2043167D01*
Y2042612D01*
X2591561Y2041873D01*
X2591469Y2041041D01*
X2591284Y2040116D01*
X2591099Y2039192D01*
X2590729Y2038174D01*
Y2038082D01*
X2590637Y2037990D01*
X2590452Y2037435D01*
X2590082Y2036603D01*
X2589527Y2035493D01*
X2588788Y2034199D01*
X2587863Y2032720D01*
X2586846Y2031240D01*
X2585552Y2029669D01*
Y2029576D01*
X2585367Y2029484D01*
X2584904Y2028929D01*
X2584072Y2028097D01*
X2582870Y2026895D01*
X2581484Y2025508D01*
X2579727Y2023844D01*
X2577600Y2021995D01*
X2575289Y2020053D01*
X2575197Y2019961D01*
X2574827Y2019683D01*
X2574272Y2019221D01*
X2573625Y2018666D01*
X2572793Y2017927D01*
X2571776Y2017095D01*
X2570759Y2016170D01*
X2569557Y2015153D01*
X2567245Y2012934D01*
X2564934Y2010715D01*
X2563824Y2009606D01*
X2562807Y2008496D01*
X2561883Y2007479D01*
X2561143Y2006462D01*
Y2006370D01*
X2560958Y2006277D01*
X2560773Y2006000D01*
X2560588Y2005630D01*
X2559941Y2004613D01*
X2559202Y2003411D01*
X2558554Y2001932D01*
X2557907Y2000360D01*
X2557537Y1998603D01*
X2557353Y1996939D01*
Y1996847D01*
Y1996754D01*
X2557445Y1996199D01*
X2557537Y1995275D01*
X2557815Y1994258D01*
X2558185Y1992964D01*
X2558832Y1991669D01*
X2559664Y1990375D01*
X2560773Y1989080D01*
X2560958Y1988895D01*
X2561421Y1988526D01*
X2562068Y1988063D01*
X2563085Y1987416D01*
X2564379Y1986861D01*
X2565858Y1986307D01*
X2567615Y1985937D01*
X2569557Y1985844D01*
X2570111D01*
X2570481Y1985937D01*
X2571591Y1986029D01*
X2572885Y1986307D01*
X2574272Y1986676D01*
X2575844Y1987324D01*
X2577323Y1988156D01*
X2578710Y1989265D01*
X2578895Y1989450D01*
X2579265Y1989912D01*
X2579819Y1990652D01*
X2580374Y1991762D01*
X2581021Y1993056D01*
X2581576Y1994720D01*
X2581946Y1996569D01*
X2582131Y1998696D01*
X2590174Y1997864D01*
Y1997771D01*
X2590082Y1997494D01*
Y1997032D01*
X2589989Y1996384D01*
X2589805Y1995645D01*
X2589620Y1994813D01*
X2589342Y1993796D01*
X2589065Y1992779D01*
X2588325Y1990560D01*
X2587216Y1988341D01*
X2586569Y1987231D01*
X2585737Y1986122D01*
X2584904Y1985105D01*
X2583980Y1984180D01*
X2583887Y1984088D01*
X2583702Y1983995D01*
X2583425Y1983718D01*
X2582963Y1983441D01*
X2582408Y1983071D01*
X2581761Y1982701D01*
X2581021Y1982239D01*
X2580097Y1981776D01*
X2579080Y1981314D01*
X2577970Y1980852D01*
X2576768Y1980482D01*
X2575474Y1980112D01*
X2574087Y1979835D01*
X2572608Y1979557D01*
X2571036Y1979465D01*
X2569372Y1979372D01*
X2568447D01*
X2567800Y1979465D01*
X2567060Y1979557D01*
X2566136Y1979650D01*
X2565119Y1979835D01*
X2564102Y1980020D01*
X2561698Y1980667D01*
X2559294Y1981591D01*
X2558092Y1982146D01*
X2556890Y1982793D01*
X2555781Y1983625D01*
X2554764Y1984550D01*
X2554671Y1984642D01*
X2554486Y1984735D01*
X2554301Y1985105D01*
X2553932Y1985475D01*
X2553469Y1985937D01*
X2553007Y1986584D01*
X2552545Y1987231D01*
X2551990Y1988063D01*
X2551066Y1989820D01*
X2550141Y1992039D01*
X2549771Y1993148D01*
X2549586Y1994443D01*
X2549401Y1995737D01*
X2549309Y1997124D01*
Y1997309D01*
Y1997771D01*
X2549401Y1998511D01*
X2549494Y1999528D01*
X2549679Y2000637D01*
X2550048Y2001932D01*
X2550418Y2003319D01*
X2550973Y2004705D01*
X2551066Y2004890D01*
X2551250Y2005353D01*
X2551620Y2006092D01*
X2552175Y2007109D01*
X2552915Y2008219D01*
X2553839Y2009606D01*
X2554949Y2010992D01*
X2556243Y2012564D01*
X2556428Y2012749D01*
X2556890Y2013304D01*
X2557353Y2013766D01*
X2557815Y2014228D01*
X2558370Y2014783D01*
X2559109Y2015523D01*
X2559849Y2016262D01*
X2560773Y2017095D01*
X2561698Y2018019D01*
X2562807Y2019036D01*
X2564009Y2020053D01*
X2565304Y2021255D01*
X2566783Y2022457D01*
X2568262Y2023751D01*
X2568355Y2023844D01*
X2568540Y2024029D01*
X2568910Y2024306D01*
X2569372Y2024676D01*
X2569927Y2025231D01*
X2570574Y2025785D01*
X2572053Y2026987D01*
X2573625Y2028374D01*
X2575104Y2029761D01*
X2576398Y2030963D01*
X2576953Y2031425D01*
X2577415Y2031887D01*
X2577508Y2031980D01*
X2577785Y2032257D01*
X2578155Y2032627D01*
X2578617Y2033182D01*
X2579080Y2033829D01*
X2579634Y2034476D01*
X2580744Y2036048D01*
X2549216D01*
Y2043629D01*
X2591654D01*
Y2043537D01*
D02*
G37*
G36*
X3320798Y2362146D02*
X3321538Y2362054D01*
X3322370Y2361961D01*
X3323387Y2361869D01*
X3324404Y2361592D01*
X3326715Y2361037D01*
X3329027Y2360205D01*
X3330229Y2359650D01*
X3331431Y2359003D01*
X3332540Y2358263D01*
X3333650Y2357431D01*
X3333742Y2357339D01*
X3333927Y2357246D01*
X3334112Y2356876D01*
X3334482Y2356507D01*
X3334944Y2356044D01*
X3335406Y2355490D01*
X3335961Y2354750D01*
X3336423Y2353918D01*
X3336978Y2353086D01*
X3337533Y2352069D01*
X3338550Y2349850D01*
X3339382Y2347261D01*
X3339659Y2345874D01*
X3339844Y2344395D01*
X3331616Y2343748D01*
Y2343840D01*
Y2344025D01*
X3331523Y2344302D01*
X3331431Y2344765D01*
X3331153Y2345782D01*
X3330784Y2347169D01*
X3330229Y2348555D01*
X3329489Y2350127D01*
X3328565Y2351514D01*
X3327455Y2352808D01*
X3327270Y2352901D01*
X3326900Y2353271D01*
X3326161Y2353733D01*
X3325144Y2354288D01*
X3324034Y2354842D01*
X3322647Y2355305D01*
X3321076Y2355674D01*
X3319319Y2355767D01*
X3318764D01*
X3318394Y2355674D01*
X3317285Y2355582D01*
X3315991Y2355212D01*
X3314419Y2354750D01*
X3312847Y2354010D01*
X3311183Y2352901D01*
X3310443Y2352254D01*
X3309704Y2351514D01*
X3309611Y2351422D01*
X3309519Y2351329D01*
X3309334Y2351052D01*
X3309056Y2350774D01*
X3308409Y2349757D01*
X3307670Y2348463D01*
X3307022Y2346891D01*
X3306375Y2344950D01*
X3305913Y2342638D01*
X3305728Y2341436D01*
Y2340142D01*
Y2340049D01*
Y2339865D01*
Y2339495D01*
X3305820Y2339032D01*
Y2338478D01*
X3305913Y2337830D01*
X3306190Y2336351D01*
X3306653Y2334595D01*
X3307300Y2332838D01*
X3308224Y2331174D01*
X3309519Y2329602D01*
Y2329509D01*
X3309704Y2329417D01*
X3310166Y2328955D01*
X3310998Y2328308D01*
X3312107Y2327568D01*
X3313587Y2326921D01*
X3315251Y2326273D01*
X3317193Y2325811D01*
X3318302Y2325626D01*
X3320059D01*
X3320798Y2325719D01*
X3321723Y2325811D01*
X3322832Y2326089D01*
X3323942Y2326366D01*
X3325144Y2326828D01*
X3326346Y2327383D01*
X3326438Y2327475D01*
X3326808Y2327660D01*
X3327363Y2328123D01*
X3328102Y2328585D01*
X3328842Y2329232D01*
X3329582Y2330064D01*
X3330414Y2330896D01*
X3331061Y2331913D01*
X3338457Y2330896D01*
X3332263Y2297982D01*
X3300458D01*
Y2305471D01*
X3326068D01*
X3329489Y2322760D01*
X3329397Y2322668D01*
X3329212Y2322575D01*
X3328934Y2322390D01*
X3328472Y2322113D01*
X3327917Y2321836D01*
X3327270Y2321466D01*
X3325791Y2320726D01*
X3323942Y2319986D01*
X3321908Y2319339D01*
X3319689Y2318877D01*
X3318579Y2318692D01*
X3316545D01*
X3315991Y2318785D01*
X3315251Y2318877D01*
X3314419Y2318969D01*
X3313494Y2319154D01*
X3312477Y2319432D01*
X3310258Y2320079D01*
X3309056Y2320541D01*
X3307854Y2321188D01*
X3306653Y2321836D01*
X3305451Y2322575D01*
X3304341Y2323500D01*
X3303232Y2324517D01*
X3303139Y2324609D01*
X3302954Y2324794D01*
X3302677Y2325072D01*
X3302307Y2325534D01*
X3301845Y2326181D01*
X3301383Y2326828D01*
X3300828Y2327660D01*
X3300273Y2328585D01*
X3299811Y2329602D01*
X3299256Y2330711D01*
X3298794Y2332006D01*
X3298331Y2333300D01*
X3297962Y2334687D01*
X3297684Y2336259D01*
X3297499Y2337830D01*
X3297407Y2339495D01*
Y2339587D01*
Y2339865D01*
Y2340327D01*
X3297499Y2340974D01*
X3297592Y2341714D01*
X3297684Y2342546D01*
X3297869Y2343563D01*
X3298054Y2344580D01*
X3298609Y2346984D01*
X3299533Y2349480D01*
X3300088Y2350774D01*
X3300828Y2351976D01*
X3301567Y2353271D01*
X3302492Y2354473D01*
X3302584Y2354565D01*
X3302769Y2354842D01*
X3303139Y2355212D01*
X3303601Y2355674D01*
X3304249Y2356229D01*
X3304988Y2356969D01*
X3305913Y2357616D01*
X3306930Y2358356D01*
X3308039Y2359095D01*
X3309334Y2359743D01*
X3310721Y2360390D01*
X3312200Y2361037D01*
X3313772Y2361499D01*
X3315528Y2361869D01*
X3317377Y2362146D01*
X3319319Y2362239D01*
X3320151D01*
X3320798Y2362146D01*
D02*
G37*
G36*
X3375347D02*
X3376179D01*
X3377196Y2362054D01*
X3378306Y2361869D01*
X3379600Y2361684D01*
X3382282Y2361222D01*
X3385055Y2360482D01*
X3387829Y2359465D01*
X3389123Y2358818D01*
X3390418Y2358078D01*
X3390510Y2357986D01*
X3390695Y2357893D01*
X3391065Y2357616D01*
X3391435Y2357246D01*
X3391989Y2356876D01*
X3392637Y2356322D01*
X3393376Y2355674D01*
X3394116Y2354935D01*
X3394856Y2354103D01*
X3395688Y2353271D01*
X3397352Y2351144D01*
X3398924Y2348648D01*
X3400310Y2345874D01*
Y2345782D01*
X3400495Y2345504D01*
X3400588Y2345042D01*
X3400865Y2344487D01*
X3401050Y2343748D01*
X3401327Y2342823D01*
X3401697Y2341806D01*
X3401975Y2340697D01*
X3402252Y2339495D01*
X3402622Y2338108D01*
X3403084Y2335242D01*
X3403454Y2332006D01*
X3403639Y2328677D01*
Y2328585D01*
Y2328215D01*
Y2327660D01*
X3403546Y2327013D01*
Y2326089D01*
X3403454Y2325164D01*
X3403361Y2323962D01*
X3403177Y2322760D01*
X3402714Y2320079D01*
X3402067Y2317120D01*
X3401143Y2314162D01*
X3399848Y2311296D01*
X3399756Y2311203D01*
X3399663Y2310926D01*
X3399478Y2310556D01*
X3399109Y2310094D01*
X3398739Y2309446D01*
X3398276Y2308707D01*
X3397074Y2307043D01*
X3395503Y2305194D01*
X3393654Y2303344D01*
X3391527Y2301495D01*
X3389031Y2299924D01*
X3388938Y2299831D01*
X3388661Y2299739D01*
X3388291Y2299554D01*
X3387829Y2299276D01*
X3387089Y2298999D01*
X3386350Y2298722D01*
X3385425Y2298352D01*
X3384408Y2297982D01*
X3383299Y2297612D01*
X3382097Y2297242D01*
X3379508Y2296688D01*
X3376549Y2296225D01*
X3373498Y2296040D01*
X3372574D01*
X3371926Y2296133D01*
X3371094Y2296225D01*
X3370077Y2296318D01*
X3369060Y2296410D01*
X3367858Y2296688D01*
X3365362Y2297242D01*
X3362588Y2298074D01*
X3361202Y2298629D01*
X3359907Y2299276D01*
X3358613Y2300108D01*
X3357318Y2300941D01*
X3357226Y2301033D01*
X3357041Y2301125D01*
X3356671Y2301403D01*
X3356209Y2301865D01*
X3355747Y2302327D01*
X3355099Y2302975D01*
X3354452Y2303714D01*
X3353713Y2304454D01*
X3352973Y2305378D01*
X3352233Y2306488D01*
X3351401Y2307597D01*
X3350662Y2308799D01*
X3350014Y2310186D01*
X3349275Y2311573D01*
X3348720Y2313052D01*
X3348165Y2314716D01*
X3356486Y2316658D01*
Y2316566D01*
X3356579Y2316381D01*
X3356764Y2316011D01*
X3356949Y2315549D01*
X3357133Y2314994D01*
X3357411Y2314254D01*
X3358151Y2312775D01*
X3359075Y2311111D01*
X3360185Y2309446D01*
X3361571Y2307875D01*
X3363051Y2306488D01*
X3363236Y2306303D01*
X3363790Y2305933D01*
X3364715Y2305471D01*
X3365917Y2304824D01*
X3367489Y2304269D01*
X3369245Y2303714D01*
X3371372Y2303344D01*
X3373683Y2303252D01*
X3374423D01*
X3374885Y2303344D01*
X3375532D01*
X3376272Y2303437D01*
X3378029Y2303714D01*
X3379970Y2304084D01*
X3382004Y2304731D01*
X3384131Y2305656D01*
X3386072Y2306858D01*
X3386165D01*
X3386257Y2307043D01*
X3386904Y2307505D01*
X3387736Y2308245D01*
X3388753Y2309354D01*
X3389955Y2310741D01*
X3391065Y2312313D01*
X3392082Y2314254D01*
X3393006Y2316381D01*
Y2316473D01*
X3393099Y2316658D01*
X3393191Y2316935D01*
X3393284Y2317398D01*
X3393469Y2317952D01*
X3393654Y2318600D01*
X3393931Y2320171D01*
X3394301Y2322021D01*
X3394671Y2324055D01*
X3394856Y2326273D01*
X3394948Y2328677D01*
Y2328770D01*
Y2329047D01*
Y2329509D01*
Y2330064D01*
X3394856Y2330711D01*
Y2331543D01*
X3394763Y2332468D01*
X3394671Y2333485D01*
X3394393Y2335704D01*
X3393931Y2338108D01*
X3393376Y2340512D01*
X3392637Y2342916D01*
Y2343008D01*
X3392544Y2343193D01*
X3392359Y2343470D01*
X3392174Y2343933D01*
X3391620Y2345042D01*
X3390787Y2346336D01*
X3389770Y2347816D01*
X3388476Y2349387D01*
X3386997Y2350774D01*
X3385240Y2352069D01*
X3385148D01*
X3384963Y2352161D01*
X3384685Y2352346D01*
X3384316Y2352531D01*
X3383853Y2352716D01*
X3383299Y2352993D01*
X3382004Y2353548D01*
X3380340Y2354103D01*
X3378491Y2354565D01*
X3376457Y2354935D01*
X3374330Y2355027D01*
X3373683D01*
X3373128Y2354935D01*
X3372481D01*
X3371834Y2354842D01*
X3370170Y2354473D01*
X3368228Y2354010D01*
X3366287Y2353271D01*
X3364253Y2352254D01*
X3363236Y2351699D01*
X3362311Y2350959D01*
X3362219Y2350867D01*
X3362126Y2350774D01*
X3361849Y2350497D01*
X3361479Y2350220D01*
X3361109Y2349757D01*
X3360647Y2349203D01*
X3360092Y2348648D01*
X3359630Y2347908D01*
X3359075Y2347076D01*
X3358428Y2346152D01*
X3357873Y2345227D01*
X3357318Y2344117D01*
X3356856Y2342916D01*
X3356394Y2341621D01*
X3355932Y2340234D01*
X3355562Y2338755D01*
X3347056Y2340882D01*
Y2340974D01*
X3347148Y2341344D01*
X3347333Y2341899D01*
X3347611Y2342638D01*
X3347888Y2343470D01*
X3348258Y2344487D01*
X3348720Y2345597D01*
X3349275Y2346799D01*
X3350569Y2349387D01*
X3352233Y2351976D01*
X3353250Y2353271D01*
X3354267Y2354565D01*
X3355377Y2355674D01*
X3356671Y2356784D01*
X3356764Y2356876D01*
X3356949Y2357061D01*
X3357411Y2357246D01*
X3357873Y2357616D01*
X3358613Y2358078D01*
X3359352Y2358541D01*
X3360369Y2359003D01*
X3361386Y2359465D01*
X3362588Y2360020D01*
X3363883Y2360482D01*
X3365270Y2360944D01*
X3366749Y2361407D01*
X3368321Y2361777D01*
X3369985Y2361961D01*
X3371742Y2362146D01*
X3373591Y2362239D01*
X3374608D01*
X3375347Y2362146D01*
D02*
G37*
G36*
X2626047Y1803346D02*
X2626879D01*
X2627896Y1803254D01*
X2629006Y1803069D01*
X2630300Y1802884D01*
X2632982Y1802422D01*
X2635755Y1801682D01*
X2638529Y1800665D01*
X2639823Y1800018D01*
X2641118Y1799278D01*
X2641210Y1799186D01*
X2641395Y1799093D01*
X2641765Y1798816D01*
X2642135Y1798446D01*
X2642689Y1798076D01*
X2643337Y1797522D01*
X2644076Y1796874D01*
X2644816Y1796135D01*
X2645556Y1795303D01*
X2646388Y1794471D01*
X2648052Y1792344D01*
X2649624Y1789848D01*
X2651010Y1787074D01*
Y1786982D01*
X2651195Y1786704D01*
X2651288Y1786242D01*
X2651565Y1785687D01*
X2651750Y1784948D01*
X2652027Y1784023D01*
X2652397Y1783006D01*
X2652675Y1781897D01*
X2652952Y1780695D01*
X2653322Y1779308D01*
X2653784Y1776442D01*
X2654154Y1773206D01*
X2654339Y1769877D01*
Y1769785D01*
Y1769415D01*
Y1768860D01*
X2654246Y1768213D01*
Y1767289D01*
X2654154Y1766364D01*
X2654061Y1765162D01*
X2653877Y1763960D01*
X2653414Y1761279D01*
X2652767Y1758320D01*
X2651843Y1755362D01*
X2650548Y1752496D01*
X2650456Y1752403D01*
X2650363Y1752126D01*
X2650178Y1751756D01*
X2649809Y1751294D01*
X2649439Y1750646D01*
X2648976Y1749907D01*
X2647774Y1748243D01*
X2646203Y1746394D01*
X2644354Y1744544D01*
X2642227Y1742695D01*
X2639731Y1741124D01*
X2639638Y1741031D01*
X2639361Y1740939D01*
X2638991Y1740754D01*
X2638529Y1740476D01*
X2637789Y1740199D01*
X2637050Y1739922D01*
X2636125Y1739552D01*
X2635108Y1739182D01*
X2633999Y1738812D01*
X2632797Y1738442D01*
X2630208Y1737888D01*
X2627249Y1737425D01*
X2624198Y1737240D01*
X2623274D01*
X2622626Y1737333D01*
X2621794Y1737425D01*
X2620777Y1737518D01*
X2619760Y1737610D01*
X2618558Y1737888D01*
X2616062Y1738442D01*
X2613288Y1739274D01*
X2611902Y1739829D01*
X2610607Y1740476D01*
X2609313Y1741308D01*
X2608018Y1742141D01*
X2607926Y1742233D01*
X2607741Y1742325D01*
X2607371Y1742603D01*
X2606909Y1743065D01*
X2606447Y1743527D01*
X2605799Y1744175D01*
X2605152Y1744914D01*
X2604413Y1745654D01*
X2603673Y1746578D01*
X2602933Y1747688D01*
X2602101Y1748797D01*
X2601362Y1749999D01*
X2600714Y1751386D01*
X2599975Y1752773D01*
X2599420Y1754252D01*
X2598865Y1755916D01*
X2607186Y1757858D01*
Y1757766D01*
X2607279Y1757581D01*
X2607464Y1757211D01*
X2607649Y1756749D01*
X2607833Y1756194D01*
X2608111Y1755454D01*
X2608851Y1753975D01*
X2609775Y1752311D01*
X2610885Y1750646D01*
X2612271Y1749075D01*
X2613751Y1747688D01*
X2613936Y1747503D01*
X2614490Y1747133D01*
X2615415Y1746671D01*
X2616617Y1746024D01*
X2618189Y1745469D01*
X2619945Y1744914D01*
X2622072Y1744544D01*
X2624383Y1744452D01*
X2625123D01*
X2625585Y1744544D01*
X2626232D01*
X2626972Y1744637D01*
X2628729Y1744914D01*
X2630670Y1745284D01*
X2632704Y1745931D01*
X2634831Y1746856D01*
X2636772Y1748058D01*
X2636865D01*
X2636957Y1748243D01*
X2637604Y1748705D01*
X2638436Y1749445D01*
X2639453Y1750554D01*
X2640655Y1751941D01*
X2641765Y1753513D01*
X2642782Y1755454D01*
X2643706Y1757581D01*
Y1757673D01*
X2643799Y1757858D01*
X2643891Y1758135D01*
X2643984Y1758598D01*
X2644169Y1759152D01*
X2644354Y1759800D01*
X2644631Y1761371D01*
X2645001Y1763221D01*
X2645371Y1765255D01*
X2645556Y1767473D01*
X2645648Y1769877D01*
Y1769970D01*
Y1770247D01*
Y1770709D01*
Y1771264D01*
X2645556Y1771911D01*
Y1772743D01*
X2645463Y1773668D01*
X2645371Y1774685D01*
X2645093Y1776904D01*
X2644631Y1779308D01*
X2644076Y1781712D01*
X2643337Y1784116D01*
Y1784208D01*
X2643244Y1784393D01*
X2643059Y1784670D01*
X2642874Y1785133D01*
X2642320Y1786242D01*
X2641487Y1787536D01*
X2640470Y1789016D01*
X2639176Y1790587D01*
X2637697Y1791974D01*
X2635940Y1793269D01*
X2635848D01*
X2635663Y1793361D01*
X2635385Y1793546D01*
X2635016Y1793731D01*
X2634553Y1793916D01*
X2633999Y1794193D01*
X2632704Y1794748D01*
X2631040Y1795303D01*
X2629191Y1795765D01*
X2627157Y1796135D01*
X2625030Y1796227D01*
X2624383D01*
X2623828Y1796135D01*
X2623181D01*
X2622534Y1796042D01*
X2620870Y1795673D01*
X2618928Y1795210D01*
X2616987Y1794471D01*
X2614953Y1793454D01*
X2613936Y1792899D01*
X2613011Y1792159D01*
X2612919Y1792067D01*
X2612826Y1791974D01*
X2612549Y1791697D01*
X2612179Y1791420D01*
X2611809Y1790957D01*
X2611347Y1790403D01*
X2610792Y1789848D01*
X2610330Y1789108D01*
X2609775Y1788276D01*
X2609128Y1787352D01*
X2608573Y1786427D01*
X2608018Y1785317D01*
X2607556Y1784116D01*
X2607094Y1782821D01*
X2606632Y1781434D01*
X2606262Y1779955D01*
X2597756Y1782082D01*
Y1782174D01*
X2597848Y1782544D01*
X2598033Y1783099D01*
X2598311Y1783838D01*
X2598588Y1784670D01*
X2598958Y1785687D01*
X2599420Y1786797D01*
X2599975Y1787999D01*
X2601269Y1790587D01*
X2602933Y1793176D01*
X2603950Y1794471D01*
X2604967Y1795765D01*
X2606077Y1796874D01*
X2607371Y1797984D01*
X2607464Y1798076D01*
X2607649Y1798261D01*
X2608111Y1798446D01*
X2608573Y1798816D01*
X2609313Y1799278D01*
X2610052Y1799741D01*
X2611069Y1800203D01*
X2612086Y1800665D01*
X2613288Y1801220D01*
X2614583Y1801682D01*
X2615970Y1802144D01*
X2617449Y1802607D01*
X2619021Y1802977D01*
X2620685Y1803161D01*
X2622442Y1803346D01*
X2624291Y1803439D01*
X2625308D01*
X2626047Y1803346D01*
D02*
G37*
G36*
X2568817Y1752311D02*
X2568910Y1752403D01*
X2569372Y1752773D01*
X2569927Y1753328D01*
X2570851Y1753975D01*
X2571868Y1754807D01*
X2573162Y1755732D01*
X2574642Y1756749D01*
X2576306Y1757766D01*
X2576398D01*
X2576491Y1757858D01*
X2577046Y1758228D01*
X2577970Y1758690D01*
X2579080Y1759245D01*
X2580374Y1759892D01*
X2581761Y1760539D01*
X2583148Y1761186D01*
X2584535Y1761741D01*
Y1754160D01*
X2584442D01*
X2584257Y1753975D01*
X2583887Y1753882D01*
X2583425Y1753605D01*
X2582870Y1753328D01*
X2582223Y1752958D01*
X2580651Y1752033D01*
X2578802Y1751016D01*
X2576953Y1749722D01*
X2575012Y1748243D01*
X2573070Y1746671D01*
X2572978Y1746578D01*
X2572885Y1746486D01*
X2572608Y1746209D01*
X2572238Y1745931D01*
X2571406Y1745007D01*
X2570296Y1743897D01*
X2569187Y1742603D01*
X2567985Y1741124D01*
X2566968Y1739644D01*
X2566043Y1738072D01*
X2560958D01*
Y1802329D01*
X2568817D01*
Y1752311D01*
D02*
G37*
%LPC*%
G36*
X3742956Y2124653D02*
X3742772D01*
X3742309D01*
X3741477Y2124561D01*
X3740460Y2124468D01*
X3739258Y2124284D01*
X3737964Y2123914D01*
X3736577Y2123544D01*
X3735190Y2122989D01*
X3735005Y2122897D01*
X3734543Y2122619D01*
X3733896Y2122250D01*
X3733064Y2121695D01*
X3732232Y2121048D01*
X3731215Y2120215D01*
X3730382Y2119291D01*
X3729550Y2118181D01*
X3729458Y2117997D01*
X3729273Y2117627D01*
X3728903Y2116980D01*
X3728626Y2116147D01*
X3728256Y2115223D01*
X3727886Y2114113D01*
X3727701Y2112911D01*
X3727609Y2111617D01*
Y2111155D01*
X3727701Y2110785D01*
X3727794Y2109860D01*
X3728071Y2108658D01*
X3728626Y2107364D01*
X3729273Y2105885D01*
X3730290Y2104405D01*
X3730845Y2103666D01*
X3731584Y2103019D01*
X3731677D01*
X3731769Y2102834D01*
X3732324Y2102464D01*
X3733249Y2101909D01*
X3734450Y2101170D01*
X3736022Y2100522D01*
X3737871Y2099968D01*
X3739998Y2099598D01*
X3742494Y2099413D01*
X3742587D01*
X3742772D01*
X3743141D01*
X3743604Y2099505D01*
X3744158D01*
X3744806Y2099598D01*
X3746285Y2099875D01*
X3747949Y2100245D01*
X3749706Y2100892D01*
X3751370Y2101817D01*
X3752942Y2103019D01*
X3753127Y2103204D01*
X3753589Y2103666D01*
X3754144Y2104405D01*
X3754883Y2105423D01*
X3755623Y2106717D01*
X3756178Y2108196D01*
X3756640Y2109953D01*
X3756825Y2111894D01*
Y2112449D01*
X3756732Y2112819D01*
X3756640Y2113744D01*
X3756363Y2115038D01*
X3755900Y2116425D01*
X3755161Y2117997D01*
X3754236Y2119476D01*
X3752942Y2120955D01*
X3752757Y2121140D01*
X3752295Y2121510D01*
X3751462Y2122157D01*
X3750260Y2122804D01*
X3748874Y2123451D01*
X3747117Y2124099D01*
X3745175Y2124468D01*
X3742956Y2124653D01*
D02*
G37*
G36*
X4625007Y3333767D02*
X4624915D01*
X4624822D01*
X4624267D01*
X4623435Y3333582D01*
X4622418Y3333397D01*
X4621309Y3333027D01*
X4620107Y3332472D01*
X4618905Y3331732D01*
X4617703Y3330715D01*
X4617611Y3330623D01*
X4617241Y3330161D01*
X4616778Y3329514D01*
X4616224Y3328681D01*
X4615669Y3327572D01*
X4615207Y3326370D01*
X4614837Y3324891D01*
X4614744Y3323319D01*
Y3322579D01*
X4614929Y3321747D01*
X4615114Y3320638D01*
X4615484Y3319436D01*
X4615946Y3318141D01*
X4616686Y3316940D01*
X4617703Y3315738D01*
X4617795Y3315645D01*
X4618165Y3315275D01*
X4618812Y3314813D01*
X4619645Y3314351D01*
X4620662Y3313796D01*
X4621864Y3313334D01*
X4623158Y3312964D01*
X4624637Y3312871D01*
X4624730D01*
X4624822D01*
X4625377Y3312964D01*
X4626209Y3313056D01*
X4627226Y3313241D01*
X4628428Y3313611D01*
X4629630Y3314073D01*
X4630924Y3314813D01*
X4632034Y3315738D01*
X4632126Y3315830D01*
X4632496Y3316292D01*
X4632958Y3316940D01*
X4633421Y3317772D01*
X4633975Y3318881D01*
X4634438Y3320175D01*
X4634807Y3321655D01*
X4634900Y3323319D01*
Y3323504D01*
X4634807Y3324059D01*
X4634715Y3324891D01*
X4634530Y3326000D01*
X4634160Y3327202D01*
X4633698Y3328404D01*
X4632958Y3329698D01*
X4632034Y3330808D01*
X4631941Y3330900D01*
X4631479Y3331270D01*
X4630924Y3331732D01*
X4630092Y3332287D01*
X4629075Y3332842D01*
X4627873Y3333304D01*
X4626486Y3333674D01*
X4625007Y3333767D01*
D02*
G37*
G36*
X4654408Y3336355D02*
X4654316D01*
X4654131D01*
X4653853D01*
X4653483Y3336263D01*
X4652466Y3336170D01*
X4651080Y3335893D01*
X4649693Y3335431D01*
X4648121Y3334784D01*
X4646549Y3333859D01*
X4645070Y3332565D01*
X4644885Y3332380D01*
X4644515Y3331917D01*
X4643868Y3331085D01*
X4643128Y3329976D01*
X4642481Y3328589D01*
X4641834Y3326925D01*
X4641464Y3325076D01*
X4641279Y3323042D01*
Y3322487D01*
X4641372Y3322117D01*
X4641464Y3321100D01*
X4641742Y3319806D01*
X4642204Y3318326D01*
X4642851Y3316847D01*
X4643776Y3315275D01*
X4644978Y3313888D01*
X4645162Y3313704D01*
X4645625Y3313334D01*
X4646457Y3312779D01*
X4647474Y3312132D01*
X4648861Y3311392D01*
X4650432Y3310837D01*
X4652189Y3310468D01*
X4654131Y3310283D01*
X4654316D01*
X4654685D01*
X4655333Y3310375D01*
X4656165Y3310468D01*
X4657182Y3310653D01*
X4658291Y3310930D01*
X4659401Y3311300D01*
X4660603Y3311762D01*
X4660695Y3311854D01*
X4661157Y3312039D01*
X4661712Y3312409D01*
X4662359Y3312964D01*
X4663191Y3313611D01*
X4664023Y3314443D01*
X4664763Y3315368D01*
X4665503Y3316477D01*
X4665595Y3316662D01*
X4665780Y3317032D01*
X4666057Y3317679D01*
X4666335Y3318511D01*
X4666612Y3319528D01*
X4666890Y3320730D01*
X4667074Y3322025D01*
X4667167Y3323319D01*
Y3323874D01*
X4667074Y3324244D01*
X4666982Y3325353D01*
X4666705Y3326647D01*
X4666242Y3328127D01*
X4665688Y3329698D01*
X4664763Y3331178D01*
X4663561Y3332657D01*
X4663376Y3332842D01*
X4662914Y3333212D01*
X4662082Y3333859D01*
X4661065Y3334506D01*
X4659770Y3335153D01*
X4658199Y3335801D01*
X4656350Y3336170D01*
X4654408Y3336355D01*
D02*
G37*
G36*
X4505436Y287531D02*
X4503957D01*
X4503587Y287439D01*
X4502570Y287346D01*
X4501368Y286977D01*
X4499889Y286514D01*
X4498317Y285682D01*
X4496745Y284665D01*
X4496005Y283926D01*
X4495266Y283186D01*
Y283093D01*
X4495081Y283001D01*
X4494896Y282724D01*
X4494711Y282446D01*
X4494064Y281522D01*
X4493417Y280227D01*
X4492677Y278656D01*
X4492030Y276714D01*
X4491660Y274495D01*
X4491475Y272091D01*
Y271999D01*
Y271814D01*
Y271536D01*
X4491568Y271074D01*
Y270519D01*
X4491660Y269965D01*
X4491937Y268578D01*
X4492400Y267006D01*
X4492954Y265342D01*
X4493879Y263678D01*
X4495081Y262198D01*
X4495266Y262013D01*
X4495728Y261644D01*
X4496560Y260996D01*
X4497577Y260349D01*
X4498964Y259610D01*
X4500536Y258962D01*
X4502292Y258593D01*
X4504234Y258408D01*
X4504789D01*
X4505159Y258500D01*
X4506176Y258593D01*
X4507378Y258870D01*
X4508857Y259332D01*
X4510336Y259979D01*
X4511815Y260904D01*
X4513202Y262198D01*
X4513387Y262383D01*
X4513757Y262938D01*
X4514312Y263770D01*
X4515051Y264972D01*
X4515699Y266451D01*
X4516253Y268208D01*
X4516623Y270334D01*
X4516808Y272738D01*
Y272831D01*
Y273016D01*
Y273386D01*
X4516716Y273848D01*
Y274495D01*
X4516623Y275142D01*
X4516346Y276621D01*
X4515976Y278378D01*
X4515329Y280227D01*
X4514404Y281984D01*
X4513202Y283556D01*
Y283648D01*
X4513017Y283741D01*
X4512555Y284203D01*
X4511815Y284850D01*
X4510798Y285590D01*
X4509504Y286237D01*
X4508025Y286884D01*
X4506361Y287346D01*
X4505436Y287531D01*
D02*
G37*
G36*
X2953852Y2109970D02*
X2933696D01*
Y2081309D01*
X2953852Y2109970D01*
D02*
G37*
%LPD*%
D51*
X3616138Y2357138D02*
X3826138D01*
X3616138Y2037138D02*
Y2357138D01*
Y2037138D02*
X3826138D01*
Y2357138D01*
X2814338Y822138D02*
Y1032138D01*
X2494338D02*
X2814338D01*
X2494338Y822138D02*
Y1032138D01*
Y822138D02*
X2814338D01*
X4573638Y3048538D02*
Y3428538D01*
X4773638D01*
Y3048538D02*
Y3428538D01*
X4573638Y3048538D02*
X4773638D01*
X4229638Y328638D02*
X4609638D01*
Y128638D02*
Y328638D01*
X4229638Y128638D02*
X4609638D01*
X4229638D02*
Y328638D01*
X3213638Y2020938D02*
X3593638D01*
X3213638D02*
Y2220938D01*
X3593638D01*
Y2020938D02*
Y2220938D01*
X2862638Y2028638D02*
X3182638D01*
X2862638D02*
Y2238638D01*
X3182638D01*
Y2028638D02*
Y2238638D01*
X2464338Y1944738D02*
X2844338D01*
X2464338D02*
Y2144738D01*
X2844338D01*
Y1944738D02*
Y2144738D01*
X3593638Y2262238D02*
Y2462238D01*
X3213638D02*
X3593638D01*
X3213638Y2262238D02*
Y2462238D01*
Y2262238D02*
X3593638D01*
X2464338Y1703438D02*
X2844338D01*
X2464338D02*
Y1903438D01*
X2844338D01*
Y1703438D02*
Y1903438D01*
%TF.MD5,c1fc96bb202b5d862f5f33e3d9fcce75*%
M02*
