%TF.GenerationSoftware,Altium Limited,Altium Designer,23.11.1 (41)*%
G04 Layer_Color=16711935*
%FSLAX45Y45*%
%MOMM*%
%TF.SameCoordinates,178855CC-FEA8-4967-A87F-AED42C0F3613*%
%TF.FilePolarity,Negative*%
%TF.FileFunction,Soldermask,Bot*%
%TF.Part,Single*%
G01*
G75*
%TA.AperFunction,NonConductor*%
%ADD56C,2.00000*%
%TA.AperFunction,ComponentPad*%
%ADD64P,2.26727X4X90.0*%
%ADD65C,1.60320*%
%ADD66R,1.60320X1.60320*%
%ADD67C,2.15320*%
%ADD68R,2.15320X2.15320*%
%ADD69R,1.71120X1.71120*%
%ADD70C,1.71120*%
%ADD71R,1.71120X1.71120*%
%ADD72R,1.15000X1.15000*%
%ADD73C,1.15000*%
%ADD74R,2.15320X2.15320*%
%TA.AperFunction,ViaPad*%
%ADD75C,0.80320*%
G36*
X5270538Y2908338D02*
Y469938D01*
X5130838Y330238D01*
X3733838D01*
Y2844838D01*
X3860838Y2971838D01*
X5207038D01*
X5270538Y2908338D01*
D02*
G37*
D56*
X350000Y4250000D02*
G03*
X350000Y4250000I-100000J0D01*
G01*
Y250000D02*
G03*
X350000Y250000I-100000J0D01*
G01*
X6350000D02*
G03*
X6350000Y250000I-100000J0D01*
G01*
Y4250000D02*
G03*
X6350000Y4250000I-100000J0D01*
G01*
D64*
X3925361Y3544361D02*
D03*
D65*
X4278915Y3897915D02*
D03*
X3009938Y3441738D02*
D03*
D66*
Y3941738D02*
D03*
D67*
X5880138Y2019338D02*
D03*
X1549438Y3810038D02*
D03*
D68*
X5880138Y2527338D02*
D03*
D69*
X292138Y939838D02*
D03*
D70*
Y1189838D02*
D03*
Y1689838D02*
D03*
Y1439838D02*
D03*
X254038Y3632238D02*
D03*
Y2362238D02*
D03*
Y2997238D02*
D03*
D71*
X508038Y3632238D02*
D03*
Y2362238D02*
D03*
X508038Y2997238D02*
D03*
D72*
X1460538Y2971838D02*
D03*
Y2451138D02*
D03*
D73*
Y2844838D02*
D03*
Y2717838D02*
D03*
Y2197139D02*
D03*
Y2324138D02*
D03*
D74*
X2057438Y3810038D02*
D03*
D75*
X4775238Y1790738D02*
D03*
X4737138Y1536738D02*
D03*
X4851438Y1282738D02*
D03*
Y1155738D02*
D03*
X4737138Y1282738D02*
D03*
X4965738Y1155738D02*
D03*
X4851438Y1536738D02*
D03*
X4965738Y1409738D02*
D03*
X4737138Y1155738D02*
D03*
X4851438Y1409738D02*
D03*
X4965738Y1536738D02*
D03*
Y1282738D02*
D03*
X4737138Y1409738D02*
D03*
X5003838Y2171738D02*
D03*
X4889538D02*
D03*
X4775238D02*
D03*
Y2044738D02*
D03*
X4889538D02*
D03*
X5003838D02*
D03*
Y1790738D02*
D03*
X4889538D02*
D03*
X4775238Y1917738D02*
D03*
X4889538D02*
D03*
X5003838D02*
D03*
X4572038Y2921038D02*
D03*
X4457738D02*
D03*
X4343438D02*
D03*
Y2794038D02*
D03*
X4457738D02*
D03*
X4572038D02*
D03*
Y2540038D02*
D03*
X4457738D02*
D03*
X4343438D02*
D03*
Y2667038D02*
D03*
X4457738D02*
D03*
X4572038D02*
D03*
X4610138Y533438D02*
D03*
X4495838D02*
D03*
X4381538D02*
D03*
Y406438D02*
D03*
X4495838D02*
D03*
X4610138D02*
D03*
Y660438D02*
D03*
X4495838D02*
D03*
X4381538D02*
D03*
Y787438D02*
D03*
X4495838D02*
D03*
X4610138D02*
D03*
X4686338Y165138D02*
D03*
Y266738D02*
D03*
X3962438Y787438D02*
D03*
X3835438D02*
D03*
X4076738D02*
D03*
X4191038D02*
D03*
X4318038Y1663738D02*
D03*
Y1549438D02*
D03*
X4406938Y1346238D02*
D03*
Y1473238D02*
D03*
Y1955838D02*
D03*
X254038Y1981238D02*
D03*
X2895638Y508038D02*
D03*
X965238Y2705138D02*
D03*
X1117638Y2349538D02*
D03*
X1295438Y2717838D02*
D03*
X673138Y2743238D02*
D03*
X863638Y2768638D02*
D03*
X787438Y2616238D02*
D03*
X2374938Y1435138D02*
D03*
X3683038Y1993938D02*
D03*
X3797338Y482638D02*
D03*
X3784638Y685838D02*
D03*
Y2806738D02*
D03*
Y2590838D02*
D03*
X3962438Y381038D02*
D03*
X4076738D02*
D03*
X4191038D02*
D03*
Y584238D02*
D03*
X3009938Y622338D02*
D03*
X3162338Y762038D02*
D03*
X3263938Y1219238D02*
D03*
X2374938Y977938D02*
D03*
Y622338D02*
D03*
X3136938Y2362238D02*
D03*
X2374938Y2057438D02*
D03*
Y2362238D02*
D03*
Y1778038D02*
D03*
X3848138Y381038D02*
D03*
X3835438Y584238D02*
D03*
X3898938Y685838D02*
D03*
X4076738Y584238D02*
D03*
X3962438D02*
D03*
X4127538Y685838D02*
D03*
X4013238D02*
D03*
X4025938Y482638D02*
D03*
X4140238D02*
D03*
X3911638D02*
D03*
X3860838Y2489238D02*
D03*
X3924338Y2590838D02*
D03*
X4152938D02*
D03*
X4038638D02*
D03*
X2654338Y2362238D02*
D03*
X4597438Y1663738D02*
D03*
X4470438D02*
D03*
X4521238Y1473238D02*
D03*
Y1346238D02*
D03*
Y1981238D02*
D03*
Y2108238D02*
D03*
X3987838Y228638D02*
D03*
X5283238Y215938D02*
D03*
X5524538Y457238D02*
D03*
X5765838Y698538D02*
D03*
X5994438Y927138D02*
D03*
X6223038Y1168438D02*
D03*
X6400838Y1371638D02*
D03*
X6413538Y1879638D02*
D03*
Y2286038D02*
D03*
X6400838Y3048038D02*
D03*
X5626138Y3060738D02*
D03*
X5105438D02*
D03*
X4533938Y3276638D02*
D03*
X4876838D02*
D03*
X3302038Y2692438D02*
D03*
X4051338Y3975138D02*
D03*
X4267238Y3276638D02*
D03*
X3759238Y4267238D02*
D03*
X4318038Y2019338D02*
D03*
X4406938Y2082838D02*
D03*
X4318038Y1879638D02*
D03*
X4406938Y1231938D02*
D03*
X4318038Y1409738D02*
D03*
X3784600Y228600D02*
D03*
X3619538Y482638D02*
D03*
Y749338D02*
D03*
X3492538Y889038D02*
D03*
X3289338D02*
D03*
X2908338Y2362238D02*
D03*
X3302038Y3022638D02*
D03*
X2641638Y3429038D02*
D03*
X2146338D02*
D03*
X4038638Y2806738D02*
D03*
X4152938D02*
D03*
X3987838Y2705138D02*
D03*
X4102138Y2908338D02*
D03*
X3987838D02*
D03*
X4102138Y2705138D02*
D03*
X3860838Y2908338D02*
D03*
X3924338Y2806738D02*
D03*
X3860838Y2705138D02*
D03*
%TF.MD5,0a5a235ee3d303238bbc1b560dc316e2*%
M02*
