%TF.GenerationSoftware,Altium Limited,Altium Designer,23.11.1 (41)*%
G04 Layer_Physical_Order=2*
G04 Layer_Color=16711680*
%FSLAX45Y45*%
%MOMM*%
%TF.SameCoordinates,A6B11647-BF3E-408F-97BC-6FD3C0C44D07*%
%TF.FilePolarity,Positive*%
%TF.FileFunction,Copper,L2,Bot,Signal*%
%TF.Part,Single*%
G01*
G75*
%TA.AperFunction,ComponentPad*%
%ADD33C,6.00000*%
%ADD34R,6.00000X6.00000*%
%ADD35C,1.55000*%
%ADD36R,1.55000X1.55000*%
%TA.AperFunction,ViaPad*%
%ADD37C,4.00000*%
%TA.AperFunction,ComponentPad*%
%ADD38C,1.40000*%
%ADD39P,1.97990X4X90.0*%
%ADD40R,1.40000X1.40000*%
%TA.AperFunction,ViaPad*%
%ADD41C,0.60000*%
%ADD42C,0.50000*%
G36*
X13703300Y9512300D02*
X13715182Y9510423D01*
X13737759Y9502106D01*
X13758281Y9489545D01*
X13775957Y9473221D01*
X13790108Y9453762D01*
X13800192Y9431917D01*
X13805820Y9408523D01*
X13806775Y9384482D01*
X13804898Y9372599D01*
X13804898Y9372599D01*
X13804900Y9372598D01*
X13804900Y5156200D01*
X13806776Y5148069D01*
X13807285Y5131389D01*
X13804529Y5114929D01*
X13798615Y5099324D01*
X13789771Y5085172D01*
X13778334Y5073018D01*
X13764748Y5063328D01*
X13753273Y5058162D01*
X13741399Y5054601D01*
X13741399Y5054600D01*
X13741399Y5054600D01*
X8953500Y5054600D01*
X8941617Y5056476D01*
X8919040Y5064793D01*
X8898519Y5077355D01*
X8880843Y5093678D01*
X8866691Y5113137D01*
X8856607Y5134982D01*
X8850980Y5158375D01*
X8850023Y5182417D01*
X8851900Y5194300D01*
X8851900Y5194300D01*
Y9372600D01*
X8850024Y9384483D01*
X8850980Y9408524D01*
X8856608Y9431917D01*
X8866691Y9453762D01*
X8880843Y9473221D01*
X8898519Y9489545D01*
X8919040Y9502106D01*
X8941617Y9510423D01*
X8953500Y9512300D01*
X8953500Y9512300D01*
X13703300Y9512300D01*
D02*
G37*
%LPC*%
G36*
X10542100Y9039500D02*
X10362100D01*
Y8859500D01*
X10542100D01*
Y9039500D01*
D02*
G37*
G36*
X9781500Y9282300D02*
X9141500D01*
Y8642300D01*
X9781500D01*
Y9282300D01*
D02*
G37*
G36*
X11355846Y8549425D02*
X11228568Y8422146D01*
X11355846Y8294868D01*
X11483125Y8422146D01*
X11355846Y8549425D01*
D02*
G37*
G36*
X9207636Y7590500D02*
X9181964D01*
X9157166Y7583856D01*
X9134934Y7571020D01*
X9116781Y7552867D01*
X9103945Y7530634D01*
X9097300Y7505836D01*
Y7480164D01*
X9103945Y7455367D01*
X9116781Y7433134D01*
X9134934Y7414981D01*
X9157166Y7402145D01*
X9181964Y7395500D01*
X9207636D01*
X9232434Y7402145D01*
X9254666Y7414981D01*
X9272819Y7433134D01*
X9285655Y7455367D01*
X9292300Y7480164D01*
Y7505836D01*
X9285655Y7530634D01*
X9272819Y7552867D01*
X9254666Y7571020D01*
X9232434Y7583856D01*
X9207636Y7590500D01*
D02*
G37*
G36*
X13553400Y7893600D02*
X12913400D01*
Y7253600D01*
X13553400D01*
Y7893600D01*
D02*
G37*
G36*
X9207636Y7082500D02*
X9181964D01*
X9157166Y7075855D01*
X9134934Y7063019D01*
X9116781Y7044866D01*
X9103945Y7022634D01*
X9097300Y6997836D01*
Y6972164D01*
X9103945Y6947366D01*
X9116781Y6925134D01*
X9134934Y6906981D01*
X9157166Y6894145D01*
X9181964Y6887500D01*
X9207636D01*
X9232434Y6894145D01*
X9254666Y6906981D01*
X9272819Y6925134D01*
X9285655Y6947366D01*
X9292300Y6972164D01*
Y6997836D01*
X9285655Y7022634D01*
X9272819Y7044866D01*
X9254666Y7063019D01*
X9232434Y7075855D01*
X9207636Y7082500D01*
D02*
G37*
G36*
Y6828500D02*
X9181964D01*
X9157166Y6821855D01*
X9134934Y6809019D01*
X9116781Y6790866D01*
X9103945Y6768634D01*
X9097300Y6743836D01*
Y6718164D01*
X9103945Y6693366D01*
X9116781Y6671134D01*
X9134934Y6652981D01*
X9157166Y6640145D01*
X9181964Y6633500D01*
X9207636D01*
X9232434Y6640145D01*
X9254666Y6652981D01*
X9272819Y6671134D01*
X9285655Y6693366D01*
X9292300Y6718164D01*
Y6743836D01*
X9285655Y6768634D01*
X9272819Y6790866D01*
X9254666Y6809019D01*
X9232434Y6821855D01*
X9207636Y6828500D01*
D02*
G37*
G36*
X13258585Y7173600D02*
X13208215D01*
X13158466Y7165720D01*
X13110564Y7150156D01*
X13065685Y7127289D01*
X13024934Y7097682D01*
X12989317Y7062066D01*
X12959711Y7021316D01*
X12936844Y6976437D01*
X12921278Y6928534D01*
X12913400Y6878785D01*
Y6828415D01*
X12921278Y6778666D01*
X12936844Y6730763D01*
X12959711Y6685884D01*
X12989317Y6645134D01*
X13024934Y6609518D01*
X13065685Y6579911D01*
X13110564Y6557044D01*
X13158466Y6541479D01*
X13208215Y6533600D01*
X13258585D01*
X13308334Y6541479D01*
X13356236Y6557044D01*
X13401115Y6579911D01*
X13441866Y6609518D01*
X13477483Y6645134D01*
X13507089Y6685884D01*
X13529956Y6730763D01*
X13545522Y6778666D01*
X13553400Y6828415D01*
Y6878785D01*
X13545522Y6928534D01*
X13529956Y6976437D01*
X13507089Y7021316D01*
X13477483Y7062066D01*
X13441866Y7097682D01*
X13401115Y7127289D01*
X13356236Y7150156D01*
X13308334Y7165720D01*
X13258585Y7173600D01*
D02*
G37*
G36*
X9292300Y6320500D02*
X9097300D01*
Y6125500D01*
X9292300D01*
Y6320500D01*
D02*
G37*
G36*
X11747500Y8006188D02*
X11391900Y8006187D01*
X11380194Y8003859D01*
X11370271Y7997229D01*
X11370270Y7997228D01*
X11281371Y7908329D01*
X11274741Y7898405D01*
X11272412Y7886700D01*
X11272412Y7886699D01*
Y5359400D01*
X11274741Y5347694D01*
X11281371Y5337771D01*
X11291295Y5331140D01*
X11303000Y5328812D01*
X11747500Y5328812D01*
X11759205Y5331141D01*
X11769129Y5337771D01*
X11775759Y5347695D01*
X11778088Y5359400D01*
Y7975600D01*
X11775759Y7987305D01*
X11769129Y7997229D01*
X11759205Y8003859D01*
X11747500Y8006188D01*
D02*
G37*
%LPD*%
G36*
Y5359400D02*
X11303000Y5359400D01*
Y7886700D01*
X11391900Y7975600D01*
X11747500Y7975600D01*
Y5359400D01*
D02*
G37*
D33*
X9461500Y8242300D02*
D03*
X13233400Y6853600D02*
D03*
D34*
X9461500Y8962300D02*
D03*
X13233400Y7573600D02*
D03*
D35*
X9194800Y6985000D02*
D03*
Y6477000D02*
D03*
Y6731000D02*
D03*
Y7239001D02*
D03*
Y7493000D02*
D03*
D36*
Y6223000D02*
D03*
D37*
X9100000Y5300000D02*
D03*
X13600000D02*
D03*
Y9300000D02*
D03*
D38*
X11709400Y8775700D02*
D03*
X10452100Y8449500D02*
D03*
D39*
X11355846Y8422146D02*
D03*
D40*
X10452100Y8949500D02*
D03*
D41*
X11252200Y7023100D02*
D03*
X8978900Y5778500D02*
D03*
X9448800Y5600700D02*
D03*
X10782300Y6184900D02*
D03*
X9906000Y7061200D02*
D03*
X10668000Y7353300D02*
D03*
X9906000Y6388100D02*
D03*
Y7353300D02*
D03*
Y6781800D02*
D03*
X11201400Y6591300D02*
D03*
X11341100Y5397500D02*
D03*
X11353800Y5588000D02*
D03*
X11417300Y5689600D02*
D03*
X11353800Y5791200D02*
D03*
X11595100Y5588000D02*
D03*
X11480800Y5791200D02*
D03*
X11595100D02*
D03*
X11480800Y5588000D02*
D03*
X11645900Y5689600D02*
D03*
X11531600D02*
D03*
Y5473700D02*
D03*
X11645900D02*
D03*
X11417300D02*
D03*
X11391900Y7493000D02*
D03*
X11455400Y7594600D02*
D03*
X11684000D02*
D03*
X11569700D02*
D03*
X10172700Y7353300D02*
D03*
X12179300Y6654800D02*
D03*
X12052300D02*
D03*
Y6477000D02*
D03*
Y6350000D02*
D03*
Y6985000D02*
D03*
Y7112000D02*
D03*
X11518900Y5219700D02*
D03*
X12623800Y5397500D02*
D03*
X12852400Y5613400D02*
D03*
X12966701Y5994400D02*
D03*
X13296899Y6134100D02*
D03*
X13538200Y6388100D02*
D03*
X13703300Y6680200D02*
D03*
Y7073900D02*
D03*
Y7493000D02*
D03*
Y7988300D02*
D03*
X13157201D02*
D03*
X12636500D02*
D03*
X12065000Y8280400D02*
D03*
X12407900D02*
D03*
X10833100Y7696200D02*
D03*
X11480800Y8902700D02*
D03*
X11709400Y8407400D02*
D03*
X11252200Y9156700D02*
D03*
X10998200Y9385300D02*
D03*
X11836400Y6985000D02*
D03*
X11925300Y7073900D02*
D03*
Y6908800D02*
D03*
X11938000Y6235700D02*
D03*
X11849100Y6477000D02*
D03*
X11938000Y6705600D02*
D03*
X11112500Y5232400D02*
D03*
Y5486400D02*
D03*
Y5753100D02*
D03*
X10744200Y5778500D02*
D03*
X10528300Y5600700D02*
D03*
X10198100D02*
D03*
X10934700Y5943600D02*
D03*
X9817100Y5600700D02*
D03*
X10452100Y7353300D02*
D03*
X10833100Y8026400D02*
D03*
X10668000Y8242300D02*
D03*
X10160000Y8496300D02*
D03*
X9855200D02*
D03*
X11836400Y8089900D02*
D03*
X12217400Y5168900D02*
D03*
Y5270500D02*
D03*
X11569700Y7810500D02*
D03*
X11684000D02*
D03*
X11518900Y7708900D02*
D03*
X11633200Y7912100D02*
D03*
X11518900D02*
D03*
X11633200Y7708900D02*
D03*
X11391900Y7912100D02*
D03*
X11455400Y7810500D02*
D03*
X11391900Y7708900D02*
D03*
D42*
X10588800Y6733700D02*
D03*
X10703800D02*
D03*
X10818800D02*
D03*
X10703800Y6848700D02*
D03*
Y6618700D02*
D03*
%TF.MD5,54343cbd5f45946836376f198c068fa0*%
M02*
