%TF.GenerationSoftware,Altium Limited,Altium Designer,23.11.1 (41)*%
G04 Layer_Color=128*
%FSLAX45Y45*%
%MOMM*%
%TF.SameCoordinates,373CF29D-5C1F-4E46-B166-7562B9940524*%
%TF.FilePolarity,Positive*%
%TF.FileFunction,Drillmap*%
%TF.Part,Single*%
G01*
G75*
%TA.AperFunction,NonConductor*%
%ADD51C,0.12700*%
D51*
X458038Y3632238D02*
X558038D01*
X508038Y3582238D02*
Y3682238D01*
X204038Y3632238D02*
X304038D01*
X254038Y3582238D02*
Y3682238D01*
X3295000Y250000D02*
X3605000D01*
X3450000Y95000D02*
Y405000D01*
X4895000Y4250000D02*
X5205000D01*
X5050000Y4095000D02*
Y4405000D01*
X3872861Y3544361D02*
X3977861D01*
X3925361Y3491861D02*
Y3596861D01*
X4226415Y3897915D02*
X4331415D01*
X4278915Y3845415D02*
Y3950415D01*
X2957438Y3941738D02*
X3062438D01*
X3009938Y3889238D02*
Y3994238D01*
X2957438Y3441738D02*
X3062438D01*
X3009938Y3389238D02*
Y3494238D01*
X5815138Y2019338D02*
X5945138D01*
X5880138Y1954338D02*
Y2084338D01*
X5815138Y2527338D02*
X5945138D01*
X5880138Y2462338D02*
Y2592338D01*
X242138Y939838D02*
X342138D01*
X292138Y889838D02*
Y989838D01*
X242138Y1189838D02*
X342138D01*
X292138Y1139838D02*
Y1239838D01*
X242138Y1689838D02*
X342138D01*
X292138Y1639838D02*
Y1739838D01*
X242138Y1439838D02*
X342138D01*
X292138Y1389838D02*
Y1489838D01*
X1420538Y2971838D02*
X1500538D01*
X1460538Y2931838D02*
Y3011838D01*
X1420538Y2844838D02*
X1500538D01*
X1460538Y2804838D02*
Y2884838D01*
X1420538Y2717838D02*
X1500538D01*
X1460538Y2677838D02*
Y2757838D01*
X1420538Y2197139D02*
X1500538D01*
X1460538Y2157139D02*
Y2237139D01*
X1420538Y2324138D02*
X1500538D01*
X1460538Y2284138D02*
Y2364138D01*
X1420538Y2451138D02*
X1500538D01*
X1460538Y2411138D02*
Y2491138D01*
X1992438Y3810038D02*
X2122438D01*
X2057438Y3745038D02*
Y3875038D01*
X1484438Y3810038D02*
X1614438D01*
X1549438Y3745038D02*
Y3875038D01*
X95000Y4250000D02*
X405000D01*
X250000Y4095000D02*
Y4405000D01*
X204038Y2362238D02*
X304038D01*
X254038Y2312238D02*
Y2412238D01*
X458038Y2362238D02*
X558038D01*
X508038Y2312238D02*
Y2412238D01*
X204038Y2997238D02*
X304038D01*
X254038Y2947238D02*
Y3047238D01*
X458038Y2997238D02*
X558038D01*
X508038Y2947238D02*
Y3047238D01*
X3157738Y1831538D02*
X3187738D01*
X3172738Y1816538D02*
Y1846538D01*
X3056138Y1729938D02*
X3086138D01*
X3071138Y1714938D02*
Y1744938D01*
X3157738Y1628338D02*
X3187738D01*
X3172738Y1613338D02*
Y1643338D01*
X3259338Y1729938D02*
X3289338D01*
X3274338Y1714938D02*
Y1744938D01*
X3157738Y1729938D02*
X3187738D01*
X3172738Y1714938D02*
Y1744938D01*
X95000Y250000D02*
X405000D01*
X250000Y95000D02*
Y405000D01*
X6095000Y250000D02*
X6405000D01*
X6250000Y95000D02*
Y405000D01*
X6095000Y4250000D02*
X6405000D01*
X6250000Y4095000D02*
Y4405000D01*
X4341100Y673100D02*
X4371100D01*
X4356100Y658100D02*
Y688100D01*
X4569700Y673100D02*
X4599700D01*
X4584700Y658100D02*
Y688100D01*
X4455400Y673100D02*
X4485400D01*
X4470400Y658100D02*
Y688100D01*
X4341100Y431800D02*
X4371100D01*
X4356100Y416800D02*
Y446800D01*
X4569700Y431800D02*
X4599700D01*
X4584700Y416800D02*
Y446800D01*
X4455400Y431800D02*
X4485400D01*
X4470400Y416800D02*
Y446800D01*
X4455400Y787400D02*
X4485400D01*
X4470400Y772400D02*
Y802400D01*
X4569700Y533400D02*
X4599700D01*
X4584700Y518400D02*
Y548400D01*
X4569700Y787400D02*
X4599700D01*
X4584700Y772400D02*
Y802400D01*
X4455400Y533400D02*
X4485400D01*
X4470400Y518400D02*
Y548400D01*
X4341100Y787400D02*
X4371100D01*
X4356100Y772400D02*
Y802400D01*
X4341100Y533400D02*
X4371100D01*
X4356100Y518400D02*
Y548400D01*
X4785600Y1524000D02*
X4815600D01*
X4800600Y1509000D02*
Y1539000D01*
X5014200Y1524000D02*
X5044200D01*
X5029200Y1509000D02*
Y1539000D01*
X4899900Y1524000D02*
X4929900D01*
X4914900Y1509000D02*
Y1539000D01*
X5014200Y1168400D02*
X5044200D01*
X5029200Y1153400D02*
Y1183400D01*
X4785600Y1168400D02*
X4815600D01*
X4800600Y1153400D02*
Y1183400D01*
X4899900Y1168400D02*
X4929900D01*
X4914900Y1153400D02*
Y1183400D01*
X4899900Y1282700D02*
X4929900D01*
X4914900Y1267700D02*
Y1297700D01*
X4785600Y1409700D02*
X4815600D01*
X4800600Y1394700D02*
Y1424700D01*
X4785600Y1282700D02*
X4815600D01*
X4800600Y1267700D02*
Y1297700D01*
X5014200Y1282700D02*
X5044200D01*
X5029200Y1267700D02*
Y1297700D01*
X5014200Y1409700D02*
X5044200D01*
X5029200Y1394700D02*
Y1424700D01*
X4899900Y1409700D02*
X4929900D01*
X4914900Y1394700D02*
Y1424700D01*
X4899900Y1816100D02*
X4929900D01*
X4914900Y1801100D02*
Y1831100D01*
X5014200Y1816100D02*
X5044200D01*
X5029200Y1801100D02*
Y1831100D01*
X4899900Y1930400D02*
X4929900D01*
X4914900Y1915400D02*
Y1945400D01*
X4785600Y2159000D02*
X4815600D01*
X4800600Y2144000D02*
Y2174000D01*
X5014200Y1930400D02*
X5044200D01*
X5029200Y1915400D02*
Y1945400D01*
X4899900Y2159000D02*
X4929900D01*
X4914900Y2144000D02*
Y2174000D01*
X5014200Y2159000D02*
X5044200D01*
X5029200Y2144000D02*
Y2174000D01*
X4785600Y1816100D02*
X4815600D01*
X4800600Y1801100D02*
Y1831100D01*
X5014238Y2044738D02*
X5044238D01*
X5029238Y2029738D02*
Y2059738D01*
X4785638Y2044738D02*
X4815638D01*
X4800638Y2029738D02*
Y2059738D01*
X4899938Y2044738D02*
X4929938D01*
X4914938Y2029738D02*
Y2059738D01*
X4785600Y1930400D02*
X4815600D01*
X4800600Y1915400D02*
Y1945400D01*
X4557000Y2565400D02*
X4587000D01*
X4572000Y2550400D02*
Y2580400D01*
X4328400Y2565400D02*
X4358400D01*
X4343400Y2550400D02*
Y2580400D01*
X4442700Y2565400D02*
X4472700D01*
X4457700Y2550400D02*
Y2580400D01*
X4328400Y2806700D02*
X4358400D01*
X4343400Y2791700D02*
Y2821700D01*
X4557000Y2806700D02*
X4587000D01*
X4572000Y2791700D02*
Y2821700D01*
X4442700Y2806700D02*
X4472700D01*
X4457700Y2791700D02*
Y2821700D01*
X4328400Y2679700D02*
X4358400D01*
X4343400Y2664700D02*
Y2694700D01*
X4557000Y2679700D02*
X4587000D01*
X4572000Y2664700D02*
Y2694700D01*
X4442700Y2679700D02*
X4472700D01*
X4457700Y2664700D02*
Y2694700D01*
X2563100Y863600D02*
X2593100D01*
X2578100Y848600D02*
Y878600D01*
X442200Y800100D02*
X472200D01*
X457200Y785100D02*
Y815100D01*
X861300Y685800D02*
X891300D01*
X876300Y670800D02*
Y700800D01*
X607300Y685800D02*
X637300D01*
X622300Y670800D02*
Y700800D01*
X1089900Y685800D02*
X1119900D01*
X1104900Y670800D02*
Y700800D01*
X1102600Y292100D02*
X1132600D01*
X1117600Y277100D02*
Y307100D01*
X848600Y292100D02*
X878600D01*
X863600Y277100D02*
Y307100D01*
X569200Y292100D02*
X599200D01*
X584200Y277100D02*
Y307100D01*
X1331200Y292100D02*
X1361200D01*
X1346200Y277100D02*
Y307100D01*
X1877300Y685800D02*
X1907300D01*
X1892300Y670800D02*
Y700800D01*
X1623300Y685800D02*
X1653300D01*
X1638300Y670800D02*
Y700800D01*
X1343900Y685800D02*
X1373900D01*
X1358900Y670800D02*
Y700800D01*
X2105900Y685800D02*
X2135900D01*
X2120900Y670800D02*
Y700800D01*
X2131300Y292100D02*
X2161300D01*
X2146300Y277100D02*
Y307100D01*
X1877300Y292100D02*
X1907300D01*
X1892300Y277100D02*
Y307100D01*
X1597900Y292100D02*
X1627900D01*
X1612900Y277100D02*
Y307100D01*
X2359900Y292100D02*
X2389900D01*
X2374900Y277100D02*
Y307100D01*
X4557038Y2921038D02*
X4587038D01*
X4572038Y2906038D02*
Y2936038D01*
X4442738Y2921038D02*
X4472738D01*
X4457738Y2906038D02*
Y2936038D01*
X4328438Y2921038D02*
X4358438D01*
X4343438Y2906038D02*
Y2936038D01*
X4671338Y165138D02*
X4701338D01*
X4686338Y150138D02*
Y180138D01*
X4671338Y266738D02*
X4701338D01*
X4686338Y251738D02*
Y281738D01*
X3947438Y787438D02*
X3977438D01*
X3962438Y772438D02*
Y802438D01*
X3820438Y787438D02*
X3850438D01*
X3835438Y772438D02*
Y802438D01*
X4061738Y787438D02*
X4091738D01*
X4076738Y772438D02*
Y802438D01*
X4176038Y787438D02*
X4206038D01*
X4191038Y772438D02*
Y802438D01*
X4303038Y1663738D02*
X4333038D01*
X4318038Y1648738D02*
Y1678738D01*
X4303038Y1549438D02*
X4333038D01*
X4318038Y1534438D02*
Y1564438D01*
X4391938Y1346238D02*
X4421938D01*
X4406938Y1331238D02*
Y1361238D01*
X4391938Y1473238D02*
X4421938D01*
X4406938Y1458238D02*
Y1488238D01*
X4391938Y1955838D02*
X4421938D01*
X4406938Y1940838D02*
Y1970838D01*
X239038Y1981238D02*
X269038D01*
X254038Y1966238D02*
Y1996238D01*
X2626600Y292100D02*
X2656600D01*
X2641600Y277100D02*
Y307100D01*
X950238Y2705138D02*
X980238D01*
X965238Y2690138D02*
Y2720138D01*
X1102638Y2349538D02*
X1132638D01*
X1117638Y2334538D02*
Y2364538D01*
X1280438Y2717838D02*
X1310438D01*
X1295438Y2702838D02*
Y2732838D01*
X658138Y2743238D02*
X688138D01*
X673138Y2728238D02*
Y2758238D01*
X848638Y2768638D02*
X878638D01*
X863638Y2753638D02*
Y2783638D01*
X772438Y2616238D02*
X802438D01*
X787438Y2601238D02*
Y2631238D01*
X2359938Y1435138D02*
X2389938D01*
X2374938Y1420138D02*
Y1450138D01*
X3668038Y1993938D02*
X3698038D01*
X3683038Y1978938D02*
Y2008938D01*
X3782338Y482638D02*
X3812338D01*
X3797338Y467638D02*
Y497638D01*
X3769638Y685838D02*
X3799638D01*
X3784638Y670838D02*
Y700838D01*
X3769638Y2806738D02*
X3799638D01*
X3784638Y2791738D02*
Y2821738D01*
X3769638Y2590838D02*
X3799638D01*
X3784638Y2575838D02*
Y2605838D01*
X3947438Y381038D02*
X3977438D01*
X3962438Y366038D02*
Y396038D01*
X4061738Y381038D02*
X4091738D01*
X4076738Y366038D02*
Y396038D01*
X4176038Y381038D02*
X4206038D01*
X4191038Y366038D02*
Y396038D01*
X4176038Y584238D02*
X4206038D01*
X4191038Y569238D02*
Y599238D01*
X2842500Y457200D02*
X2872500D01*
X2857500Y442200D02*
Y472200D01*
X3033000Y660400D02*
X3063000D01*
X3048000Y645400D02*
Y675400D01*
X3248938Y1219238D02*
X3278938D01*
X3263938Y1204238D02*
Y1234238D01*
X2359938Y977938D02*
X2389938D01*
X2374938Y962938D02*
Y992938D01*
X2347200Y685800D02*
X2377200D01*
X2362200Y670800D02*
Y700800D01*
X3121938Y2362238D02*
X3151938D01*
X3136938Y2347238D02*
Y2377238D01*
X2359938Y2057438D02*
X2389938D01*
X2374938Y2042438D02*
Y2072438D01*
X2359938Y2362238D02*
X2389938D01*
X2374938Y2347238D02*
Y2377238D01*
X2359938Y1778038D02*
X2389938D01*
X2374938Y1763038D02*
Y1793038D01*
X3833138Y381038D02*
X3863138D01*
X3848138Y366038D02*
Y396038D01*
X3820438Y584238D02*
X3850438D01*
X3835438Y569238D02*
Y599238D01*
X3883938Y685838D02*
X3913938D01*
X3898938Y670838D02*
Y700838D01*
X4061738Y584238D02*
X4091738D01*
X4076738Y569238D02*
Y599238D01*
X3947438Y584238D02*
X3977438D01*
X3962438Y569238D02*
Y599238D01*
X4112538Y685838D02*
X4142538D01*
X4127538Y670838D02*
Y700838D01*
X3998238Y685838D02*
X4028238D01*
X4013238Y670838D02*
Y700838D01*
X4010938Y482638D02*
X4040938D01*
X4025938Y467638D02*
Y497638D01*
X4125238Y482638D02*
X4155238D01*
X4140238Y467638D02*
Y497638D01*
X3896638Y482638D02*
X3926638D01*
X3911638Y467638D02*
Y497638D01*
X3845838Y2489238D02*
X3875838D01*
X3860838Y2474238D02*
Y2504238D01*
X3909338Y2590838D02*
X3939338D01*
X3924338Y2575838D02*
Y2605838D01*
X4137938Y2590838D02*
X4167938D01*
X4152938Y2575838D02*
Y2605838D01*
X4023638Y2590838D02*
X4053638D01*
X4038638Y2575838D02*
Y2605838D01*
X2639338Y2362238D02*
X2669338D01*
X2654338Y2347238D02*
Y2377238D01*
X4582438Y1663738D02*
X4612438D01*
X4597438Y1648738D02*
Y1678738D01*
X4455438Y1663738D02*
X4485438D01*
X4470438Y1648738D02*
Y1678738D01*
X3972838Y228638D02*
X4002838D01*
X3987838Y213638D02*
Y243638D01*
X5192000Y152400D02*
X5222000D01*
X5207000Y137400D02*
Y167400D01*
X5522200Y393700D02*
X5552200D01*
X5537200Y378700D02*
Y408700D01*
X5776200Y647700D02*
X5806200D01*
X5791200Y632700D02*
Y662700D01*
X6004800Y876300D02*
X6034800D01*
X6019800Y861300D02*
Y891300D01*
X6220700Y1092200D02*
X6250700D01*
X6235700Y1077200D02*
Y1107200D01*
X6385800Y1308100D02*
X6415800D01*
X6400800Y1293100D02*
Y1323100D01*
X6398500Y2006600D02*
X6428500D01*
X6413500Y1991600D02*
Y2021600D01*
X6398500Y2514600D02*
X6428500D01*
X6413500Y2499600D02*
Y2529600D01*
X6385838Y3048038D02*
X6415838D01*
X6400838Y3033038D02*
Y3063038D01*
X5611138Y3060738D02*
X5641138D01*
X5626138Y3045738D02*
Y3075738D01*
X5090438Y3060738D02*
X5120438D01*
X5105438Y3045738D02*
Y3075738D01*
X4518938Y3276638D02*
X4548938D01*
X4533938Y3261638D02*
Y3291638D01*
X4861838Y3276638D02*
X4891838D01*
X4876838Y3261638D02*
Y3291638D01*
X3287038Y2692438D02*
X3317038D01*
X3302038Y2677438D02*
Y2707438D01*
X4036338Y3975138D02*
X4066338D01*
X4051338Y3960138D02*
Y3990138D01*
X4252238Y3276638D02*
X4282238D01*
X4267238Y3261638D02*
Y3291638D01*
X3744238Y4267238D02*
X3774238D01*
X3759238Y4252238D02*
Y4282238D01*
X4303038Y2019338D02*
X4333038D01*
X4318038Y2004338D02*
Y2034338D01*
X4391938Y2082838D02*
X4421938D01*
X4406938Y2067838D02*
Y2097838D01*
X4303038Y1879638D02*
X4333038D01*
X4318038Y1864638D02*
Y1894638D01*
X4391938Y1231938D02*
X4421938D01*
X4406938Y1216938D02*
Y1246938D01*
X4303038Y1409738D02*
X4333038D01*
X4318038Y1394738D02*
Y1424738D01*
X3769600Y228600D02*
X3799600D01*
X3784600Y213600D02*
Y243600D01*
X3604538Y482638D02*
X3634538D01*
X3619538Y467638D02*
Y497638D01*
X3604538Y749338D02*
X3634538D01*
X3619538Y734338D02*
Y764338D01*
X3477538Y889038D02*
X3507538D01*
X3492538Y874038D02*
Y904038D01*
X3223500Y838200D02*
X3253500D01*
X3238500Y823200D02*
Y853200D01*
X2893338Y2362238D02*
X2923338D01*
X2908338Y2347238D02*
Y2377238D01*
X3287038Y3022638D02*
X3317038D01*
X3302038Y3007638D02*
Y3037638D01*
X2626638Y3429038D02*
X2656638D01*
X2641638Y3414038D02*
Y3444038D01*
X2131338Y3429038D02*
X2161338D01*
X2146338Y3414038D02*
Y3444038D01*
X4023638Y2806738D02*
X4053638D01*
X4038638Y2791738D02*
Y2821738D01*
X4137938Y2806738D02*
X4167938D01*
X4152938Y2791738D02*
Y2821738D01*
X3972838Y2705138D02*
X4002838D01*
X3987838Y2690138D02*
Y2720138D01*
X4087138Y2908338D02*
X4117138D01*
X4102138Y2893338D02*
Y2923338D01*
X3972838Y2908338D02*
X4002838D01*
X3987838Y2893338D02*
Y2923338D01*
X4087138Y2705138D02*
X4117138D01*
X4102138Y2690138D02*
Y2720138D01*
X3845838Y2908338D02*
X3875838D01*
X3860838Y2893338D02*
Y2923338D01*
X3909338Y2806738D02*
X3939338D01*
X3924338Y2791738D02*
Y2821738D01*
X3845838Y2705138D02*
X3875838D01*
X3860838Y2690138D02*
Y2720138D01*
%TF.MD5,3e19631142c05717534418d59b474f27*%
M02*
