%TF.GenerationSoftware,Altium Limited,Altium Designer,23.11.1 (41)*%
G04 Layer_Color=8388736*
%FSLAX45Y45*%
%MOMM*%
%TF.SameCoordinates,373CF29D-5C1F-4E46-B166-7562B9940524*%
%TF.FilePolarity,Negative*%
%TF.FileFunction,Soldermask,Top*%
%TF.Part,Single*%
G01*
G75*
%TA.AperFunction,SMDPad,CuDef*%
%ADD12R,1.40000X0.95000*%
%ADD14R,0.95000X1.40000*%
%ADD20R,1.40000X0.90000*%
%ADD21R,0.90000X1.40000*%
%TA.AperFunction,NonConductor*%
%ADD56C,2.00000*%
%TA.AperFunction,SMDPad,CuDef*%
%ADD57R,2.05320X1.55320*%
%ADD58R,1.55320X2.05320*%
%ADD59R,1.35320X1.35320*%
G04:AMPARAMS|DCode=60|XSize=0.8016mm|YSize=0.3616mm|CornerRadius=0.0833mm|HoleSize=0mm|Usage=FLASHONLY|Rotation=270.000|XOffset=0mm|YOffset=0mm|HoleType=Round|Shape=RoundedRectangle|*
%AMROUNDEDRECTD60*
21,1,0.80160,0.19500,0,0,270.0*
21,1,0.63500,0.36160,0,0,270.0*
1,1,0.16660,-0.09750,-0.31750*
1,1,0.16660,-0.09750,0.31750*
1,1,0.16660,0.09750,0.31750*
1,1,0.16660,0.09750,-0.31750*
%
%ADD60ROUNDEDRECTD60*%
G04:AMPARAMS|DCode=61|XSize=0.8016mm|YSize=0.3616mm|CornerRadius=0.0833mm|HoleSize=0mm|Usage=FLASHONLY|Rotation=0.000|XOffset=0mm|YOffset=0mm|HoleType=Round|Shape=RoundedRectangle|*
%AMROUNDEDRECTD61*
21,1,0.80160,0.19500,0,0,0.0*
21,1,0.63500,0.36160,0,0,0.0*
1,1,0.16660,0.31750,-0.09750*
1,1,0.16660,-0.31750,-0.09750*
1,1,0.16660,-0.31750,0.09750*
1,1,0.16660,0.31750,0.09750*
%
%ADD61ROUNDEDRECTD61*%
%ADD62R,2.90160X2.90160*%
G04:AMPARAMS|DCode=63|XSize=0.9116mm|YSize=0.3616mm|CornerRadius=0.0833mm|HoleSize=0mm|Usage=FLASHONLY|Rotation=270.000|XOffset=0mm|YOffset=0mm|HoleType=Round|Shape=RoundedRectangle|*
%AMROUNDEDRECTD63*
21,1,0.91160,0.19500,0,0,270.0*
21,1,0.74500,0.36160,0,0,270.0*
1,1,0.16660,-0.09750,-0.37250*
1,1,0.16660,-0.09750,0.37250*
1,1,0.16660,0.09750,0.37250*
1,1,0.16660,0.09750,-0.37250*
%
%ADD63ROUNDEDRECTD63*%
%TA.AperFunction,ComponentPad*%
%ADD64R,1.71120X1.71120*%
%ADD65C,1.71120*%
%ADD66P,2.26727X4X90.0*%
%ADD67C,1.60320*%
%ADD68R,1.60320X1.60320*%
%ADD69C,2.15320*%
%ADD70R,2.15320X2.15320*%
%ADD71R,1.71120X1.71120*%
%ADD72R,1.15000X1.15000*%
%ADD73C,1.15000*%
%ADD74R,2.15320X2.15320*%
G36*
X141790Y4506691D02*
X471952Y4506691D01*
Y4280600D01*
X471952D01*
X472887Y4268084D01*
X473109Y4258781D01*
X466132Y4215559D01*
X451375Y4174339D01*
X429333Y4136510D01*
X400749Y4103347D01*
X366586Y4075966D01*
X327994Y4055289D01*
X286274Y4042013D01*
X264552Y4039299D01*
X30037D01*
X30037Y4394937D01*
X30037Y4394937D01*
X30346Y4407509D01*
X34328Y4427535D01*
X42751Y4447875D01*
X54981Y4466180D01*
X70547Y4481746D01*
X88852Y4493976D01*
X109191Y4502399D01*
X130783Y4506692D01*
X141790Y4506691D01*
D02*
G37*
G36*
X4632158Y2517238D02*
X4178038D01*
Y2588238D01*
X4247158D01*
Y2644238D01*
X4178038D01*
Y2715238D01*
X4247158D01*
Y2771238D01*
X4178038D01*
Y2842238D01*
X4247158D01*
Y2898238D01*
X4178038D01*
Y2969238D01*
X4247158D01*
Y2969238D01*
X4632158D01*
Y2517238D01*
D02*
G37*
G36*
X4630338Y2136238D02*
X4493138D01*
Y2207238D01*
X4630338D01*
Y2136238D01*
D02*
G37*
G36*
Y2009238D02*
X4493138D01*
Y2080238D01*
X4630338D01*
Y2009238D01*
D02*
G37*
G36*
Y1882238D02*
X4493138D01*
Y1953238D01*
X4630338D01*
Y1882238D01*
D02*
G37*
G36*
Y1755238D02*
X4493138D01*
Y1826238D01*
X4630338D01*
Y1755238D01*
D02*
G37*
G36*
X4627938Y1501238D02*
X4490738D01*
Y1572238D01*
X4627938D01*
Y1501238D01*
D02*
G37*
G36*
Y1374238D02*
X4490738D01*
Y1445238D01*
X4627938D01*
Y1374238D01*
D02*
G37*
G36*
Y1247238D02*
X4490738D01*
Y1318238D01*
X4627938D01*
Y1247238D01*
D02*
G37*
G36*
Y1120238D02*
X4490738D01*
Y1191238D01*
X4627938D01*
Y1120238D01*
D02*
G37*
G36*
X4670258Y383638D02*
X4285258D01*
Y383638D01*
X4216138D01*
Y454638D01*
X4285258D01*
Y510638D01*
X4216138D01*
Y581638D01*
X4285258D01*
Y637638D01*
X4216138D01*
Y708638D01*
X4285258D01*
Y764638D01*
X4216138D01*
Y835638D01*
X4670258D01*
Y383638D01*
D02*
G37*
G36*
X249920Y468899D02*
X270789Y465332D01*
X310732Y451273D01*
X347739Y430692D01*
X380754Y404176D01*
X408834Y372481D01*
X431178Y336511D01*
X447150Y297294D01*
X456292Y255948D01*
X457319Y234801D01*
X457318Y234801D01*
X457319Y234800D01*
X454566Y221712D01*
X456180Y221533D01*
X457231Y34705D01*
X448276Y25699D01*
X127052Y25699D01*
X118108Y22717D01*
X99310Y21233D01*
X80707Y24316D01*
X63393Y31784D01*
X48385Y43200D01*
X36565Y57891D01*
X28628Y74996D01*
X25039Y93508D01*
X25525Y102923D01*
X25525Y102923D01*
X25520Y459919D01*
X34500Y468899D01*
X249920Y468899D01*
D02*
G37*
G36*
X5181938Y1501238D02*
X5112818D01*
Y1445238D01*
X5181938D01*
Y1374238D01*
X5112818D01*
Y1318238D01*
X5181938D01*
Y1247238D01*
X5112818D01*
Y1191238D01*
X5181938D01*
Y1120238D01*
X4727818D01*
Y1572238D01*
X5181938D01*
Y1501238D01*
D02*
G37*
G36*
X4907338Y764638D02*
X4770138D01*
Y835638D01*
X4907338D01*
Y764638D01*
D02*
G37*
G36*
Y637638D02*
X4770138D01*
Y708638D01*
X4907338D01*
Y637638D01*
D02*
G37*
G36*
Y510638D02*
X4770138D01*
Y581638D01*
X4907338D01*
Y510638D01*
D02*
G37*
G36*
Y383638D02*
X4770138D01*
Y454638D01*
X4907338D01*
Y383638D01*
D02*
G37*
G36*
X6464300Y124200D02*
X6464299Y124200D01*
X6464300Y114469D01*
X6460504Y95381D01*
X6453057Y77400D01*
X6442244Y61217D01*
X6428483Y47455D01*
X6412300Y36643D01*
X6394319Y29196D01*
X6375231Y25399D01*
X6365500Y25400D01*
X6032500D01*
X6032496Y228599D01*
X6032495Y241384D01*
Y241384D01*
X6031364Y263365D01*
X6037462Y306960D01*
X6051700Y348613D01*
X6073564Y386819D01*
X6102263Y420197D01*
X6136761Y447540D01*
X6175809Y467860D01*
X6217998Y480424D01*
X6239900Y482600D01*
X6464300Y482600D01*
Y124200D01*
D02*
G37*
G36*
X5184338Y2136238D02*
X5115218D01*
Y2080238D01*
X5184338D01*
Y2009238D01*
X5115218D01*
Y1953238D01*
X5184338D01*
Y1882238D01*
X5115218D01*
Y1826238D01*
X5184338D01*
Y1755238D01*
X4730218D01*
Y2207238D01*
X5184338D01*
Y2136238D01*
D02*
G37*
G36*
X4732038Y2517238D02*
X4869238D01*
Y2588238D01*
X4732038D01*
Y2517238D01*
D02*
G37*
G36*
Y2644238D02*
X4869238D01*
Y2715238D01*
X4732038D01*
Y2644238D01*
D02*
G37*
G36*
Y2771238D02*
X4869238D01*
Y2842238D01*
X4732038D01*
Y2771238D01*
D02*
G37*
G36*
Y2898238D02*
X4869238D01*
Y2969238D01*
X4732038D01*
Y2898238D01*
D02*
G37*
G36*
X6383368Y4504111D02*
X6404163Y4495499D01*
X6422879Y4482994D01*
X6438794Y4467079D01*
X6451299Y4448363D01*
X6459911Y4427568D01*
X6464201Y4405994D01*
X6464299Y4394272D01*
Y4394238D01*
X6464299D01*
X6464300Y4394237D01*
Y4038600D01*
X6224400Y4038600D01*
X6199526Y4044022D01*
X6152731Y4064088D01*
X6110580Y4092649D01*
X6074597Y4128672D01*
X6046084Y4170855D01*
X6026072Y4217673D01*
X6015283Y4267433D01*
X6014109Y4318335D01*
X6018350Y4343438D01*
X6018097Y4343481D01*
X6017060Y4499490D01*
X6026011Y4508500D01*
X6350038Y4508499D01*
X6361292Y4508501D01*
X6383368Y4504111D01*
D02*
G37*
D12*
X3721138Y2104638D02*
D03*
Y2289638D02*
D03*
D14*
X2561838Y927138D02*
D03*
X2746838D02*
D03*
X2930138Y2133638D02*
D03*
X3115138D02*
D03*
D20*
X4673638Y3103538D02*
D03*
Y3373538D02*
D03*
D21*
X4284638Y228638D02*
D03*
X4554638D02*
D03*
X3538638Y2120938D02*
D03*
X3268638D02*
D03*
X2789338Y2044738D02*
D03*
X2519338D02*
D03*
X3268638Y2362238D02*
D03*
X3538638D02*
D03*
X2789338Y1803438D02*
D03*
X2519338D02*
D03*
D56*
X350000Y4250000D02*
G03*
X350000Y4250000I-100000J0D01*
G01*
Y250000D02*
G03*
X350000Y250000I-100000J0D01*
G01*
X6350000D02*
G03*
X6350000Y250000I-100000J0D01*
G01*
Y4250000D02*
G03*
X6350000Y4250000I-100000J0D01*
G01*
D57*
X1117638Y2514738D02*
D03*
Y2209738D02*
D03*
Y3124438D02*
D03*
Y2819438D02*
D03*
X1943138Y1270138D02*
D03*
X2184438D02*
D03*
Y965138D02*
D03*
X1943138D02*
D03*
D58*
X2501800Y1473200D02*
D03*
X2806800D02*
D03*
X2806838Y1219238D02*
D03*
X2501838D02*
D03*
D59*
X863638Y2879738D02*
D03*
Y3114738D02*
D03*
X863600Y3476600D02*
D03*
Y3711600D02*
D03*
X863638Y2232038D02*
D03*
Y2467038D02*
D03*
D60*
X3147738Y1925438D02*
D03*
X3297738Y1534438D02*
D03*
X3247738D02*
D03*
X3197738D02*
D03*
X3147738D02*
D03*
X3097738D02*
D03*
X3047738D02*
D03*
Y1925438D02*
D03*
X3197738D02*
D03*
X3247738D02*
D03*
X3297738D02*
D03*
D61*
X2977238Y1754938D02*
D03*
X3368238Y1854938D02*
D03*
Y1804938D02*
D03*
Y1754938D02*
D03*
Y1704938D02*
D03*
Y1654938D02*
D03*
Y1604938D02*
D03*
X2977238D02*
D03*
Y1654938D02*
D03*
Y1704938D02*
D03*
Y1804938D02*
D03*
Y1854938D02*
D03*
D62*
X3172738Y1729938D02*
D03*
D63*
X3097738Y1925438D02*
D03*
D64*
X508038Y3632238D02*
D03*
Y2362238D02*
D03*
X508038Y2997238D02*
D03*
D65*
X254038Y3632238D02*
D03*
X292138Y1189838D02*
D03*
Y1689838D02*
D03*
Y1439838D02*
D03*
X254038Y2362238D02*
D03*
Y2997238D02*
D03*
D66*
X3925361Y3544361D02*
D03*
D67*
X4278915Y3897915D02*
D03*
X3009938Y3441738D02*
D03*
D68*
Y3941738D02*
D03*
D69*
X5880138Y2019338D02*
D03*
X1549438Y3810038D02*
D03*
D70*
X5880138Y2527338D02*
D03*
D71*
X292138Y939838D02*
D03*
D72*
X1460538Y2971838D02*
D03*
Y2451138D02*
D03*
D73*
Y2844838D02*
D03*
Y2717838D02*
D03*
Y2197139D02*
D03*
Y2324138D02*
D03*
D74*
X2057438Y3810038D02*
D03*
%TF.MD5,a1745bbc7a0bc111d4313268ade0f426*%
M02*
