%TF.GenerationSoftware,Altium Limited,Altium Designer,23.11.1 (41)*%
G04 Layer_Physical_Order=1*
G04 Layer_Color=255*
%FSLAX45Y45*%
%MOMM*%
%TF.SameCoordinates,A6B11647-BF3E-408F-97BC-6FD3C0C44D07*%
%TF.FilePolarity,Positive*%
%TF.FileFunction,Copper,L1,Top,Signal*%
%TF.Part,Single*%
G01*
G75*
%TA.AperFunction,Conductor*%
%ADD10C,1.70000*%
%TA.AperFunction,SMDPad,SMDef*%
%ADD11R,1.37200X0.71000*%
%TA.AperFunction,SMDPad,CuDef*%
G04:AMPARAMS|DCode=12|XSize=0.6mm|YSize=0.24mm|CornerRadius=0.0504mm|HoleSize=0mm|Usage=FLASHONLY|Rotation=270.000|XOffset=0mm|YOffset=0mm|HoleType=Round|Shape=RoundedRectangle|*
%AMROUNDEDRECTD12*
21,1,0.60000,0.13920,0,0,270.0*
21,1,0.49920,0.24000,0,0,270.0*
1,1,0.10080,-0.06960,-0.24960*
1,1,0.10080,-0.06960,0.24960*
1,1,0.10080,0.06960,0.24960*
1,1,0.10080,0.06960,-0.24960*
%
%ADD12ROUNDEDRECTD12*%
G04:AMPARAMS|DCode=13|XSize=0.24mm|YSize=0.6mm|CornerRadius=0.0504mm|HoleSize=0mm|Usage=FLASHONLY|Rotation=270.000|XOffset=0mm|YOffset=0mm|HoleType=Round|Shape=RoundedRectangle|*
%AMROUNDEDRECTD13*
21,1,0.24000,0.49920,0,0,270.0*
21,1,0.13920,0.60000,0,0,270.0*
1,1,0.10080,-0.24960,-0.06960*
1,1,0.10080,-0.24960,0.06960*
1,1,0.10080,0.24960,0.06960*
1,1,0.10080,0.24960,-0.06960*
%
%ADD13ROUNDEDRECTD13*%
G04:AMPARAMS|DCode=14|XSize=2.8mm|YSize=2.8mm|CornerRadius=0.056mm|HoleSize=0mm|Usage=FLASHONLY|Rotation=270.000|XOffset=0mm|YOffset=0mm|HoleType=Round|Shape=RoundedRectangle|*
%AMROUNDEDRECTD14*
21,1,2.80000,2.68800,0,0,270.0*
21,1,2.68800,2.80000,0,0,270.0*
1,1,0.11200,-1.34400,-1.34400*
1,1,0.11200,-1.34400,1.34400*
1,1,0.11200,1.34400,1.34400*
1,1,0.11200,1.34400,-1.34400*
%
%ADD14ROUNDEDRECTD14*%
%ADD15R,1.35000X1.85000*%
%ADD16R,1.40000X0.90000*%
%ADD17R,0.90000X1.40000*%
%ADD18R,1.85000X1.35000*%
%ADD19R,0.95000X1.40000*%
%ADD20R,1.40000X0.95000*%
%TA.AperFunction,Conductor*%
%ADD21C,0.80000*%
%ADD22C,0.30000*%
%ADD23C,1.00000*%
%ADD24C,1.50000*%
%ADD25C,0.60000*%
%ADD26C,0.25400*%
%ADD27C,0.35000*%
%ADD28C,0.40000*%
%ADD29C,0.24000*%
%ADD30C,0.50000*%
%ADD31C,1.20000*%
%ADD32C,0.70000*%
%TA.AperFunction,ComponentPad*%
%ADD33C,6.00000*%
%ADD34R,6.00000X6.00000*%
%ADD35C,1.55000*%
%ADD36R,1.55000X1.55000*%
%TA.AperFunction,ViaPad*%
%ADD37C,4.00000*%
%TA.AperFunction,ComponentPad*%
%ADD38C,1.40000*%
%ADD39P,1.97990X4X90.0*%
%ADD40R,1.40000X1.40000*%
%TA.AperFunction,ViaPad*%
%ADD41C,0.60000*%
%ADD42C,0.50000*%
G36*
X13703300Y9512299D02*
X13715182Y9510423D01*
X13737759Y9502106D01*
X13758281Y9489545D01*
X13775957Y9473221D01*
X13790108Y9453762D01*
X13800192Y9431917D01*
X13805820Y9408524D01*
X13806775Y9384482D01*
X13804898Y9372599D01*
X13804898D01*
X13804900Y9372598D01*
X13804900Y5156200D01*
X13806776Y5148069D01*
X13807288Y5131388D01*
X13804532Y5114928D01*
X13798618Y5099322D01*
X13789774Y5085170D01*
X13778336Y5073016D01*
X13764748Y5063327D01*
X13752727Y5057914D01*
X13741400Y5054600D01*
Y5054600D01*
X8953500D01*
X8941617Y5056476D01*
X8919040Y5064793D01*
X8898519Y5077355D01*
X8880843Y5093678D01*
X8866691Y5113137D01*
X8856607Y5134982D01*
X8850980Y5158375D01*
X8850023Y5182417D01*
X8851900Y5194300D01*
X8851900Y5194300D01*
Y9372600D01*
X8850024Y9384483D01*
X8850980Y9408524D01*
X8856608Y9431917D01*
X8866691Y9453762D01*
X8880843Y9473221D01*
X8898519Y9489545D01*
X8919040Y9502106D01*
X8941617Y9510423D01*
X8953500Y9512300D01*
X8953500Y9512300D01*
X13703300Y9512299D01*
D02*
G37*
%LPC*%
G36*
X10833100Y9403188D02*
X10833099Y9403188D01*
X9055100D01*
X9043395Y9400859D01*
X9033471Y9394229D01*
X9026841Y9384305D01*
X9024512Y9372600D01*
Y8636000D01*
X9026841Y8624295D01*
X9033471Y8614371D01*
X9043395Y8607741D01*
X9055100Y8605412D01*
X10528330D01*
X10967612Y8166130D01*
Y7581901D01*
X10967612Y7581900D01*
X10967612Y7581899D01*
Y7382594D01*
Y7226300D01*
X10713700D01*
Y7227400D01*
X10578700D01*
Y7226300D01*
X10528700D01*
Y7227400D01*
X10393700D01*
Y7147762D01*
X10385399Y7138500D01*
X10255400D01*
Y7137400D01*
X10248900D01*
Y6700027D01*
X9828000D01*
Y6754900D01*
X9603000D01*
Y6579900D01*
X9828000D01*
Y6634773D01*
X9911639D01*
X9916499Y6623040D01*
X9781859Y6488400D01*
X9603000D01*
Y6313400D01*
X9828000D01*
Y6442259D01*
X9969814Y6584073D01*
X10248900D01*
Y5875341D01*
X9259410D01*
X9050341Y6084410D01*
Y6130696D01*
X9063041Y6131947D01*
X9064941Y6122394D01*
X9071571Y6112471D01*
X9071572Y6112471D01*
X9096971Y6087071D01*
X9106895Y6080441D01*
X9118600Y6078112D01*
X9118601Y6078112D01*
X9474230D01*
X9592271Y5960071D01*
X9602195Y5953441D01*
X9613900Y5951112D01*
X9613901Y5951112D01*
X10109200D01*
X10120905Y5953441D01*
X10130829Y5960071D01*
X10137459Y5969995D01*
X10139788Y5981700D01*
Y6184899D01*
X10139788Y6184900D01*
X10137459Y6196605D01*
X10130829Y6206529D01*
X10092729Y6244629D01*
X10082805Y6251259D01*
X10071100Y6253588D01*
X10071099Y6253588D01*
X9639270D01*
X9546629Y6346229D01*
X9536705Y6352859D01*
X9525000Y6355188D01*
X9524999Y6355188D01*
X9093200D01*
X9081495Y6352859D01*
X9071571Y6346229D01*
X9064941Y6336305D01*
X9063041Y6326753D01*
X9050341Y6328004D01*
Y6539390D01*
X9153317Y6642367D01*
X9157166Y6640145D01*
X9181964Y6633500D01*
X9207636D01*
X9232434Y6640145D01*
X9254666Y6652981D01*
X9272819Y6671134D01*
X9285655Y6693366D01*
X9292300Y6718164D01*
Y6743836D01*
X9285655Y6768634D01*
X9272819Y6790866D01*
X9254666Y6809019D01*
X9232434Y6821855D01*
X9207636Y6828500D01*
X9181964D01*
X9157166Y6821855D01*
X9134934Y6809019D01*
X9116781Y6790866D01*
X9103945Y6768634D01*
X9097300Y6743836D01*
Y6718164D01*
X9103945Y6693366D01*
X9106167Y6689517D01*
X8999541Y6582891D01*
X8986841Y6588152D01*
Y6749230D01*
X9141056Y6903446D01*
X9157166Y6894145D01*
X9181964Y6887500D01*
X9207636D01*
X9232434Y6894145D01*
X9254666Y6906981D01*
X9272819Y6925134D01*
X9285655Y6947366D01*
X9292300Y6972164D01*
Y6997836D01*
X9285655Y7022634D01*
X9272819Y7044866D01*
X9254666Y7063019D01*
X9232434Y7075855D01*
X9207636Y7082500D01*
X9181964D01*
X9157166Y7075855D01*
X9134934Y7063019D01*
X9116781Y7044866D01*
X9103945Y7022634D01*
X9097300Y6997836D01*
Y6972164D01*
X9101141Y6957831D01*
X8929925Y6786615D01*
X8922697Y6775799D01*
X8920159Y6763040D01*
Y6045200D01*
X8922697Y6032441D01*
X8929925Y6021625D01*
X9196625Y5754925D01*
X9207441Y5747697D01*
X9220200Y5745159D01*
X10426700D01*
X10439459Y5747697D01*
X10450275Y5754925D01*
X10562751Y5867400D01*
X10566400D01*
Y5871049D01*
X10702375Y6007025D01*
X10709603Y6017841D01*
X10712141Y6030600D01*
Y6543700D01*
X10721910Y6553200D01*
X10735318D01*
X10743114Y6543700D01*
X10745831Y6530044D01*
X10746114Y6529620D01*
Y6502155D01*
X10746614Y6499642D01*
Y6400800D01*
X10749331Y6387144D01*
X10757066Y6375566D01*
X11277766Y5854866D01*
X11286747Y5848866D01*
X11290734Y5834891D01*
X11281372Y5825529D01*
X11281371Y5825529D01*
X11274740Y5815605D01*
X11272412Y5803900D01*
X11272412Y5803898D01*
X11272412Y5359400D01*
X11274741Y5347695D01*
X11281371Y5337771D01*
X11291295Y5331141D01*
X11303000Y5328812D01*
X11704212D01*
Y5156200D01*
X11706541Y5144495D01*
X11713171Y5134571D01*
X11723095Y5127941D01*
X11734800Y5125612D01*
X11887200D01*
X11898905Y5127941D01*
X11908829Y5134571D01*
X11915459Y5144495D01*
X11917788Y5156200D01*
Y5328812D01*
X12204700D01*
X12216405Y5331141D01*
X12226329Y5337771D01*
X12232959Y5347695D01*
X12235288Y5359400D01*
Y5828671D01*
X12247988Y5833932D01*
X12281200Y5800720D01*
Y5748400D01*
X12281199Y5748400D01*
X12281200D01*
X12279571Y5736629D01*
X12272941Y5726705D01*
X12270612Y5715000D01*
Y5384800D01*
X12272941Y5373095D01*
X12279571Y5363171D01*
X12289495Y5356541D01*
X12301200Y5354212D01*
X12446000D01*
X12457706Y5356541D01*
X12467629Y5363171D01*
X12467629Y5363172D01*
X12866379Y5761921D01*
X12873009Y5771845D01*
X12875339Y5783550D01*
X12875339Y5783551D01*
Y6024880D01*
X12943871Y6093412D01*
X13045499D01*
X13045500Y6093412D01*
X13057205Y6095741D01*
X13067130Y6102371D01*
X13067130Y6102372D01*
X13572530Y6607771D01*
X13579160Y6617694D01*
X13581488Y6629399D01*
X13581488Y6629401D01*
Y7175500D01*
X13579160Y7187205D01*
X13572530Y7197129D01*
X13562605Y7203759D01*
X13550900Y7206088D01*
X13017500D01*
X13017500Y7206088D01*
X13005795Y7203759D01*
X12995871Y7197129D01*
X12995871Y7197128D01*
X12830771Y7032029D01*
X12824141Y7022105D01*
X12821812Y7010400D01*
X12821812Y7010399D01*
Y6728070D01*
X12700330Y6606588D01*
X12258880D01*
X12247175Y6604259D01*
X12237251Y6597629D01*
X12230621Y6587705D01*
X12228293Y6576000D01*
Y6124000D01*
X12228527Y6122823D01*
X12220470Y6113006D01*
X12179000D01*
Y6215000D01*
X12001800D01*
Y6195186D01*
X11482882D01*
X11044134Y6633934D01*
X11032556Y6641669D01*
X11018900Y6644386D01*
X10893800D01*
X10880144Y6641669D01*
X10879427Y6641190D01*
X10868840D01*
X10864158Y6644741D01*
X10858733Y6715271D01*
X10867701Y6724977D01*
X10870629Y6726210D01*
X10879427D01*
X10880144Y6725731D01*
X10893800Y6723014D01*
X10917563D01*
X10957111Y6683466D01*
X10968689Y6675731D01*
X10982345Y6673014D01*
X11105480D01*
X11106054Y6672631D01*
X11119710Y6669914D01*
X11506200D01*
X11519856Y6672631D01*
X11531434Y6680366D01*
X11609882Y6758814D01*
X12004200D01*
Y6739000D01*
X12181400D01*
Y6850000D01*
X12004200D01*
Y6830186D01*
X11602320D01*
X11597059Y6842886D01*
X11980956Y7226783D01*
X12230693D01*
Y7211000D01*
Y6759000D01*
X12233021Y6747295D01*
X12239651Y6737371D01*
X12249575Y6730741D01*
X12261280Y6728412D01*
X12715300D01*
X12727006Y6730741D01*
X12736929Y6737371D01*
X12736929Y6737372D01*
X12759729Y6760171D01*
X12766359Y6770095D01*
X12768688Y6781800D01*
X12768688Y6781801D01*
Y7010430D01*
X13011858Y7253600D01*
X13553400D01*
Y7302957D01*
X13553758Y7303495D01*
X13556088Y7315200D01*
Y7848600D01*
X13553760Y7860304D01*
X13553760Y7860305D01*
X13553758Y7860305D01*
X13553400Y7860843D01*
Y7893600D01*
X12913400D01*
Y7888195D01*
X12904419Y7879215D01*
X12431855Y7879235D01*
X12420300Y7882000D01*
Y7993000D01*
X12294651D01*
X12289791Y8004733D01*
X12340629Y8055571D01*
X12347259Y8065494D01*
X12349588Y8077200D01*
X12349588Y8077201D01*
Y8191500D01*
X12347259Y8203205D01*
X12340629Y8213129D01*
X12330705Y8219759D01*
X12319000Y8222088D01*
X12166601D01*
X12166600Y8222088D01*
X12154895Y8219759D01*
X12144971Y8213129D01*
X11992571Y8060728D01*
X11985940Y8050805D01*
X11983612Y8039099D01*
X11983612Y8039098D01*
X11983612Y8006188D01*
X11625688D01*
Y8610599D01*
X11625688Y8610600D01*
X11623359Y8622305D01*
X11616729Y8632229D01*
X11616728Y8632229D01*
X10854729Y9394229D01*
X10844805Y9400859D01*
X10833100Y9403188D01*
D02*
G37*
G36*
X9207636Y7590500D02*
X9181964D01*
X9157166Y7583856D01*
X9134934Y7571020D01*
X9116781Y7552867D01*
X9103945Y7530634D01*
X9097300Y7505836D01*
Y7480164D01*
X9103945Y7455367D01*
X9116781Y7433134D01*
X9134934Y7414981D01*
X9157166Y7402145D01*
X9181964Y7395500D01*
X9207636D01*
X9232434Y7402145D01*
X9254666Y7414981D01*
X9272819Y7433134D01*
X9272971Y7433397D01*
X9292836D01*
X9654600Y7071633D01*
X9649739Y7059900D01*
X9603000D01*
Y6884900D01*
X9828000D01*
Y7059900D01*
X9745060D01*
Y7067326D01*
X9742343Y7080983D01*
X9734608Y7092560D01*
X9332851Y7494316D01*
X9321274Y7502052D01*
X9307617Y7504769D01*
X9292300D01*
Y7505836D01*
X9285655Y7530634D01*
X9272819Y7552867D01*
X9254666Y7571020D01*
X9232434Y7583856D01*
X9207636Y7590500D01*
D02*
G37*
%LPD*%
G36*
X11595100Y8610600D02*
Y7975600D01*
X12014200D01*
X12014199Y8039099D01*
X12166600Y8191500D01*
X12319000D01*
Y8077200D01*
X12166600Y7924800D01*
Y7493000D01*
X11518900D01*
X11352835Y7326935D01*
Y7223341D01*
X11204359D01*
X11201400Y7226300D01*
X11150600Y7175500D01*
Y7048500D01*
X11023600D01*
X10871200Y6896100D01*
X10820400D01*
Y6947807D01*
X10998200Y7125607D01*
Y7382594D01*
Y7581900D01*
Y8178800D01*
X10541000Y8636000D01*
X9055100D01*
Y9372600D01*
X10833100D01*
X11595100Y8610600D01*
D02*
G37*
G36*
X11781712Y7450679D02*
X11275518Y6944486D01*
X10980804D01*
X10975543Y6957186D01*
X11036270Y7017912D01*
X11150600D01*
X11162305Y7020241D01*
X11172229Y7026871D01*
X11178859Y7036795D01*
X11181188Y7048500D01*
Y7162830D01*
X11211111Y7192754D01*
X11352835D01*
X11364540Y7195082D01*
X11374464Y7201713D01*
X11381094Y7211636D01*
X11383422Y7223341D01*
Y7314265D01*
X11531570Y7462412D01*
X11776851D01*
X11781712Y7450679D01*
D02*
G37*
G36*
X13525500Y7848600D02*
Y7315200D01*
X13030200Y7315200D01*
X12738100Y7023100D01*
Y6781800D01*
X12715300Y6759000D01*
X12261280D01*
Y7839674D01*
X12270261Y7848655D01*
X13525500Y7848600D01*
D02*
G37*
G36*
X9626600Y6223000D02*
X10071100D01*
X10109200Y6184900D01*
Y5981700D01*
X9613900D01*
X9486900Y6108700D01*
X9118600D01*
X9093200Y6134100D01*
Y6324600D01*
X9525000D01*
X9626600Y6223000D01*
D02*
G37*
G36*
X13550900Y6629399D02*
X13045500Y6124000D01*
X12931200D01*
X12844749Y6037550D01*
Y5783550D01*
X12446000Y5384800D01*
X12301200D01*
Y5715000D01*
X12441000D01*
X12539950Y5813950D01*
Y6124000D01*
X12258880D01*
Y6576000D01*
X12713000D01*
X12852400Y6715400D01*
Y7010400D01*
X13017500Y7175500D01*
X13550900D01*
Y6629399D01*
D02*
G37*
G36*
X12204700Y5841850D02*
Y5359400D01*
X11887200D01*
Y5156200D01*
X11734800D01*
Y5359400D01*
X11303000D01*
X11303000Y5803900D01*
X11342984Y5843884D01*
X12204700Y5841850D01*
D02*
G37*
D10*
X12539634Y6007100D02*
G03*
X12644400Y6111866I0J104766D01*
G01*
X11353800Y6007100D02*
X12539634D01*
X12644400Y6111866D02*
Y6159500D01*
X13216356Y6836556D02*
X13233400Y6853600D01*
X11937088Y7332688D02*
X12412688D01*
X11430000Y6825600D02*
X11937088Y7332688D01*
D11*
X12090400Y6540500D02*
D03*
Y6413500D02*
D03*
Y6286500D02*
D03*
Y6159500D02*
D03*
X12644400D02*
D03*
Y6286500D02*
D03*
Y6413500D02*
D03*
Y6540500D02*
D03*
X12646800Y7175500D02*
D03*
Y7048500D02*
D03*
Y6921500D02*
D03*
Y6794500D02*
D03*
X12092800D02*
D03*
Y6921500D02*
D03*
Y7048500D02*
D03*
Y7175500D02*
D03*
X12331700Y7556500D02*
D03*
Y7683500D02*
D03*
Y7810500D02*
D03*
Y7937500D02*
D03*
X11777700D02*
D03*
Y7810500D02*
D03*
Y7683500D02*
D03*
Y7556500D02*
D03*
X11815800Y5422900D02*
D03*
Y5549900D02*
D03*
Y5676899D02*
D03*
Y5803900D02*
D03*
X12369800D02*
D03*
Y5676899D02*
D03*
Y5549900D02*
D03*
Y5422900D02*
D03*
D12*
X10828800Y6923700D02*
D03*
X10778800D02*
D03*
X10728800D02*
D03*
X10678800D02*
D03*
X10628800D02*
D03*
X10578800D02*
D03*
Y6543700D02*
D03*
X10628800D02*
D03*
X10678800D02*
D03*
X10728800D02*
D03*
X10778800D02*
D03*
X10828800D02*
D03*
D13*
X10513800Y6858700D02*
D03*
Y6808700D02*
D03*
Y6758700D02*
D03*
Y6708700D02*
D03*
Y6658700D02*
D03*
Y6608700D02*
D03*
X10893800D02*
D03*
Y6658700D02*
D03*
Y6708700D02*
D03*
Y6758700D02*
D03*
Y6808700D02*
D03*
Y6858700D02*
D03*
D14*
X10703800Y6733700D02*
D03*
D15*
X10032900Y6096000D02*
D03*
X10337900D02*
D03*
X10337900Y6388100D02*
D03*
X10032900D02*
D03*
D16*
X12204700Y8107300D02*
D03*
Y8377300D02*
D03*
D17*
X11815700Y5232400D02*
D03*
X12085700D02*
D03*
X11069700Y7124700D02*
D03*
X10799700D02*
D03*
X10320400Y7048500D02*
D03*
X10050400D02*
D03*
X10799700Y7366000D02*
D03*
X11069700D02*
D03*
X10320400Y6807200D02*
D03*
X10050400D02*
D03*
D18*
X9715500Y6400900D02*
D03*
Y6095900D02*
D03*
Y6667400D02*
D03*
Y6972400D02*
D03*
D19*
X10646200Y7137400D02*
D03*
X10461200D02*
D03*
D20*
X11252200Y7293400D02*
D03*
Y7108400D02*
D03*
D21*
Y7023100D02*
Y7108400D01*
D22*
X12217400Y7861300D02*
X12273100Y7917000D01*
X12311200D01*
X12331700Y7937500D01*
X12179300Y7454900D02*
X12217400Y7493000D01*
Y7861300D01*
X10628800Y6858700D02*
X10703800Y6848700D01*
X10628800Y6858700D02*
Y6923700D01*
X10628800D02*
X10628800D01*
X10932345Y6758700D02*
X10982345Y6708700D01*
X11116610D02*
X11119710Y6705600D01*
X10982345Y6708700D02*
X11116610D01*
X11119710Y6705600D02*
X11506200D01*
X11018900Y6608700D02*
X11468100Y6159500D01*
X10893800Y6608700D02*
X11018900D01*
X10893800Y6758700D02*
X10932345D01*
X11468100Y6159500D02*
X12123194D01*
X11303000Y5880100D02*
X12252287D01*
X10782300Y6400800D02*
X11303000Y5880100D01*
X12252287D02*
X12316200Y5816187D01*
X9194800Y7493000D02*
X9218717Y7469083D01*
X9307617D01*
X11836400Y7454900D02*
X12179300D01*
X12336700Y5791200D02*
X12369800D01*
X12316200Y5811700D02*
X12336700Y5791200D01*
X12316200Y5811700D02*
Y5816187D01*
X10718800Y6618700D02*
X10728800Y6608700D01*
X10782300Y6400800D02*
Y6501655D01*
X10703800Y6618700D02*
X10718800D01*
X11506200Y6705600D02*
X11595100Y6794500D01*
X10972800Y6908800D02*
X11290300D01*
X10893800Y6808700D02*
X10958600D01*
X10960100Y6807200D01*
X10778800Y6543700D02*
X10781800Y6540700D01*
Y6502155D02*
X10782300Y6501655D01*
X10781800Y6502155D02*
Y6540700D01*
X10922700Y6858700D02*
X10972800Y6908800D01*
X11595100Y6794500D02*
X12092800D01*
X11290300Y6908800D02*
X11836400Y7454900D01*
X9709374Y6978526D02*
X9715500Y6972400D01*
X9709374Y6978526D02*
Y7067326D01*
X9307617Y7469083D02*
X9709374Y7067326D01*
X10307700Y7048500D02*
X10383103D01*
X10507903Y6923700D01*
X10578800D01*
X10413016Y6808184D02*
X10414000Y6807200D01*
X10477500D01*
X10337900Y6388100D02*
X10344026Y6394226D01*
X10432826D01*
X10513800Y6475200D01*
Y6608700D01*
D23*
X9906000Y7061200D02*
X10045400D01*
X9906000Y6781800D02*
X9911400Y6787200D01*
X10045400D01*
X10050400Y6792200D02*
Y6807200D01*
X10045400Y6787200D02*
X10050400Y6792200D01*
X10358500Y6807200D02*
X10359483Y6808184D01*
D24*
X10668000Y7353300D02*
X10680700Y7366000D01*
X10799700D01*
X12417600Y6233150D02*
Y6339600D01*
D25*
X9906000Y6388100D02*
X10032900D01*
X10799700Y7124700D02*
X10801500Y7122900D01*
Y7010400D02*
Y7122900D01*
X10646200Y7114900D02*
Y7137400D01*
Y7114900D02*
X10663700Y7097400D01*
X10667295D02*
X10704700Y7059995D01*
X10663700Y7097400D02*
X10667295D01*
X10461200Y7102200D02*
X10548700Y7014700D01*
X10625600D01*
X10461200Y7102200D02*
Y7124700D01*
X10896600Y6464300D02*
X10972800Y6388100D01*
D26*
X11194780Y6597920D02*
X11201400Y6591300D01*
X11109871Y6597920D02*
X11194780D01*
X11049091Y6658700D02*
X11109871Y6597920D01*
X10893800Y6658700D02*
X11049091D01*
X10893800D02*
Y6708700D01*
X8953500Y6045200D02*
Y6763040D01*
X9175460Y6985000D01*
X8953500Y6045200D02*
X9220200Y5778500D01*
X9017000Y6070600D02*
X9245600Y5842000D01*
X10400595D02*
X10628800Y6070205D01*
X9245600Y5842000D02*
X10400595D01*
X9017000Y6070600D02*
Y6553200D01*
X9194800Y6731000D01*
X9220200Y5778500D02*
X10426700D01*
X10678800Y6030600D01*
X9175460Y6985000D02*
X9194800D01*
X10628800Y6070205D02*
Y6543700D01*
X10678800Y6030600D02*
Y6543700D01*
D27*
X10729104Y7027263D02*
X10731500Y7024867D01*
X10725568Y7027263D02*
X10729104D01*
X10731500Y6985000D02*
Y7024867D01*
X10791532Y6978512D02*
X10792800Y6979780D01*
X10791532Y6978512D02*
Y7000432D01*
X10801500Y7010400D01*
X10871200Y6489700D02*
X10896600Y6464300D01*
X10299800Y6071000D02*
Y6096000D01*
X10464300D01*
X10578600Y6210300D02*
Y6543700D01*
X10464300Y6096000D02*
X10578600Y6210300D01*
D28*
X10704700Y7059995D02*
X10714700Y7049995D01*
Y7038131D02*
X10725569Y7027263D01*
X10714700Y7038131D02*
Y7049995D01*
X10637716Y7010400D02*
X10671500Y6976616D01*
Y6976068D02*
Y6976616D01*
X10629900Y7010400D02*
X10637716D01*
X10625600Y7014700D02*
X10629900Y7010400D01*
X10307700Y7023500D02*
Y7048500D01*
X10332700Y6998500D02*
X10349700D01*
X10307700Y7023500D02*
X10332700Y6998500D01*
X10960100Y6807200D02*
X11006853D01*
X10349700Y6998500D02*
X10426700Y6921500D01*
D29*
X10678800Y6923700D02*
Y6968768D01*
X10671500Y6976068D02*
X10678800Y6968768D01*
X10728800Y6923700D02*
Y6982300D01*
X10731500Y6985000D01*
X10784800Y6959756D02*
Y6971781D01*
X10778800Y6953756D02*
X10784800Y6959756D01*
X10778800Y6923700D02*
Y6953756D01*
X10784800Y6971781D02*
X10792800Y6979780D01*
X10868000Y6489700D02*
X10871200D01*
X10832000Y6525700D02*
X10868000Y6489700D01*
X10828800Y6525700D02*
X10832000D01*
X10828800D02*
Y6543700D01*
X10893800Y6858700D02*
X10922700D01*
X10477500Y6807200D02*
X10479000Y6808700D01*
X10513800D01*
X10426700Y6921500D02*
X10433000D01*
X10495800Y6858700D01*
X10375800Y6667400D02*
X10467100Y6758700D01*
X10387498Y6616700D02*
X10479498Y6708700D01*
X9715500Y6400900D02*
X9740500D01*
X9956300Y6616700D01*
X9715500Y6667400D02*
X10375800D01*
X9956300Y6616700D02*
X10387498D01*
X10479498Y6708700D02*
X10513800D01*
X10495800Y6858700D02*
X10513800D01*
X10467100Y6758700D02*
X10513800D01*
D30*
X10704700Y7051667D02*
Y7059995D01*
D31*
X11099800Y6807200D02*
X11411600D01*
X11430000Y6825600D01*
X10972800Y6388100D02*
X11353800Y6007100D01*
D32*
X11006853Y6807200D02*
X11099800D01*
X10359483Y6808184D02*
X10413016D01*
D33*
X9461500Y8242300D02*
D03*
X13233400Y6853600D02*
D03*
D34*
X9461500Y8962300D02*
D03*
X13233400Y7573600D02*
D03*
D35*
X9194800Y6985000D02*
D03*
Y6477000D02*
D03*
Y6731000D02*
D03*
Y7239001D02*
D03*
Y7493000D02*
D03*
D36*
Y6223000D02*
D03*
D37*
X9100000Y5300000D02*
D03*
X13600000D02*
D03*
Y9300000D02*
D03*
D38*
X11709400Y8775700D02*
D03*
X10452100Y8449500D02*
D03*
D39*
X11355846Y8422146D02*
D03*
D40*
X10452100Y8949500D02*
D03*
D41*
X11252200Y7023100D02*
D03*
X8978900Y5778500D02*
D03*
X9448800Y5600700D02*
D03*
X10782300Y6184900D02*
D03*
X9906000Y7061200D02*
D03*
X10668000Y7353300D02*
D03*
X9906000Y6388100D02*
D03*
Y7353300D02*
D03*
Y6781800D02*
D03*
X11201400Y6591300D02*
D03*
X11341100Y5397500D02*
D03*
X11353800Y5588000D02*
D03*
X11417300Y5689600D02*
D03*
X11353800Y5791200D02*
D03*
X11595100Y5588000D02*
D03*
X11480800Y5791200D02*
D03*
X11595100D02*
D03*
X11480800Y5588000D02*
D03*
X11645900Y5689600D02*
D03*
X11531600D02*
D03*
Y5473700D02*
D03*
X11645900D02*
D03*
X11417300D02*
D03*
X11391900Y7493000D02*
D03*
X11455400Y7594600D02*
D03*
X11684000D02*
D03*
X11569700D02*
D03*
X10172700Y7353300D02*
D03*
X12179300Y6654800D02*
D03*
X12052300D02*
D03*
Y6477000D02*
D03*
Y6350000D02*
D03*
Y6985000D02*
D03*
Y7112000D02*
D03*
X11518900Y5219700D02*
D03*
X12623800Y5397500D02*
D03*
X12852400Y5613400D02*
D03*
X12966701Y5994400D02*
D03*
X13296899Y6134100D02*
D03*
X13538200Y6388100D02*
D03*
X13703300Y6680200D02*
D03*
Y7073900D02*
D03*
Y7493000D02*
D03*
Y7988300D02*
D03*
X13157201D02*
D03*
X12636500D02*
D03*
X12065000Y8280400D02*
D03*
X12407900D02*
D03*
X10833100Y7696200D02*
D03*
X11480800Y8902700D02*
D03*
X11709400Y8407400D02*
D03*
X11252200Y9156700D02*
D03*
X10998200Y9385300D02*
D03*
X11836400Y6985000D02*
D03*
X11925300Y7073900D02*
D03*
Y6908800D02*
D03*
X11938000Y6235700D02*
D03*
X11849100Y6477000D02*
D03*
X11938000Y6705600D02*
D03*
X11112500Y5232400D02*
D03*
Y5486400D02*
D03*
Y5753100D02*
D03*
X10744200Y5778500D02*
D03*
X10528300Y5600700D02*
D03*
X10198100D02*
D03*
X10934700Y5943600D02*
D03*
X9817100Y5600700D02*
D03*
X10452100Y7353300D02*
D03*
X10833100Y8026400D02*
D03*
X10668000Y8242300D02*
D03*
X10160000Y8496300D02*
D03*
X9855200D02*
D03*
X11836400Y8089900D02*
D03*
X12217400Y5168900D02*
D03*
Y5270500D02*
D03*
X11569700Y7810500D02*
D03*
X11684000D02*
D03*
X11518900Y7708900D02*
D03*
X11633200Y7912100D02*
D03*
X11518900D02*
D03*
X11633200Y7708900D02*
D03*
X11391900Y7912100D02*
D03*
X11455400Y7810500D02*
D03*
X11391900Y7708900D02*
D03*
D42*
X10588800Y6733700D02*
D03*
X10703800D02*
D03*
X10818800D02*
D03*
X10703800Y6848700D02*
D03*
Y6618700D02*
D03*
%TF.MD5,9bec796ea06d0afe581affda6fa3a8ae*%
M02*
