%TF.GenerationSoftware,Altium Limited,Altium Designer,23.11.1 (41)*%
G04 Layer_Color=2752767*
%FSLAX45Y45*%
%MOMM*%
%TF.SameCoordinates,A6B11647-BF3E-408F-97BC-6FD3C0C44D07*%
%TF.FilePolarity,Positive*%
%TF.FileFunction,Drawing*%
%TF.Part,Single*%
G01*
G75*
%TA.AperFunction,NonConductor*%
%ADD44C,0.12700*%
%ADD72C,0.16933*%
D44*
X9410700Y8191500D02*
X9436100Y8242300D01*
X9410700Y8293100D01*
X9461500Y8267700D01*
X9512300Y8293100D01*
X9486900Y8242300D01*
X9512300Y8191500D01*
X9461500Y8216900D01*
X9410700Y8191500D01*
Y8911500D02*
X9436100Y8962300D01*
X9410700Y9013100D01*
X9461500Y8987700D01*
X9512300Y9013100D01*
X9486900Y8962300D01*
X9512300Y8911500D01*
X9461500Y8936900D01*
X9410700Y8911500D01*
X9194800Y6934200D02*
X9220200Y6959600D01*
X9245600D01*
X9220200Y6985000D01*
X9245600Y7010400D01*
X9220200D01*
X9194800Y7035800D01*
X9169400Y7010400D01*
X9144000D01*
X9169400Y6985000D01*
X9144000Y6959600D01*
X9169400D01*
X9194800Y6934200D01*
Y6172200D02*
X9220200Y6197600D01*
X9245600D01*
X9220200Y6223000D01*
X9245600Y6248400D01*
X9220200D01*
X9194800Y6273800D01*
X9169400Y6248400D01*
X9144000D01*
X9169400Y6223000D01*
X9144000Y6197600D01*
X9169400D01*
X9194800Y6172200D01*
Y6426200D02*
X9220200Y6451600D01*
X9245600D01*
X9220200Y6477000D01*
X9245600Y6502400D01*
X9220200D01*
X9194800Y6527800D01*
X9169400Y6502400D01*
X9144000D01*
X9169400Y6477000D01*
X9144000Y6451600D01*
X9169400D01*
X9194800Y6426200D01*
Y6680200D02*
X9220200Y6705600D01*
X9245600D01*
X9220200Y6731000D01*
X9245600Y6756400D01*
X9220200D01*
X9194800Y6781800D01*
X9169400Y6756400D01*
X9144000D01*
X9169400Y6731000D01*
X9144000Y6705600D01*
X9169400D01*
X9194800Y6680200D01*
Y7188201D02*
X9220200Y7213601D01*
X9245600D01*
X9220200Y7239001D01*
X9245600Y7264401D01*
X9220200D01*
X9194800Y7289801D01*
X9169400Y7264401D01*
X9144000D01*
X9169400Y7239001D01*
X9144000Y7213601D01*
X9169400D01*
X9194800Y7188201D01*
Y7442200D02*
X9220200Y7467600D01*
X9245600D01*
X9220200Y7493000D01*
X9245600Y7518400D01*
X9220200D01*
X9194800Y7543800D01*
X9169400Y7518400D01*
X9144000D01*
X9169400Y7493000D01*
X9144000Y7467600D01*
X9169400D01*
X9194800Y7442200D01*
X9049200Y5249200D02*
X9074600D01*
X9100000Y5274600D01*
X9125400Y5249200D01*
X9150800D01*
Y5274600D01*
X9125400Y5300000D01*
X9150800Y5325400D01*
Y5350800D01*
X9125400D01*
X9100000Y5325400D01*
X9074600Y5350800D01*
X9049200D01*
Y5325400D01*
X9074600Y5300000D01*
X9049200Y5274600D01*
Y5249200D01*
X13549200D02*
X13574600D01*
X13600000Y5274600D01*
X13625400Y5249200D01*
X13650800D01*
Y5274600D01*
X13625400Y5300000D01*
X13650800Y5325400D01*
Y5350800D01*
X13625400D01*
X13600000Y5325400D01*
X13574600Y5350800D01*
X13549200D01*
Y5325400D01*
X13574600Y5300000D01*
X13549200Y5274600D01*
Y5249200D01*
Y9249200D02*
X13574600D01*
X13600000Y9274600D01*
X13625400Y9249200D01*
X13650800D01*
Y9274600D01*
X13625400Y9300000D01*
X13650800Y9325400D01*
Y9350800D01*
X13625400D01*
X13600000Y9325400D01*
X13574600Y9350800D01*
X13549200D01*
Y9325400D01*
X13574600Y9300000D01*
X13549200Y9274600D01*
Y9249200D01*
X11684000Y8750300D02*
Y8724900D01*
X11734800D01*
Y8750300D01*
X11760200D01*
Y8801100D01*
X11734800D01*
Y8826500D01*
X11684000D01*
Y8801100D01*
X11658600D01*
Y8750300D01*
X11684000D01*
X11330446Y8396746D02*
Y8371346D01*
X11381246D01*
Y8396746D01*
X11406646D01*
Y8447546D01*
X11381246D01*
Y8472946D01*
X11330446D01*
Y8447546D01*
X11305046D01*
Y8396746D01*
X11330446D01*
X13182600Y6802800D02*
X13208000Y6853600D01*
X13182600Y6904400D01*
X13233400Y6879000D01*
X13284200Y6904400D01*
X13258800Y6853600D01*
X13284200Y6802800D01*
X13233400Y6828200D01*
X13182600Y6802800D01*
Y7522800D02*
X13208000Y7573600D01*
X13182600Y7624400D01*
X13233400Y7599000D01*
X13284200Y7624400D01*
X13258800Y7573600D01*
X13284200Y7522800D01*
X13233400Y7548200D01*
X13182600Y7522800D01*
X10426700Y8924100D02*
Y8898700D01*
X10477500D01*
Y8924100D01*
X10502900D01*
Y8974900D01*
X10477500D01*
Y9000300D01*
X10426700D01*
Y8974900D01*
X10401300D01*
Y8924100D01*
X10426700D01*
Y8424100D02*
Y8398700D01*
X10477500D01*
Y8424100D01*
X10502900D01*
Y8474900D01*
X10477500D01*
Y8500300D01*
X10426700D01*
Y8474900D01*
X10401300D01*
Y8424100D01*
X10426700D01*
X10588800Y6682900D02*
X10538000Y6784500D01*
X10639600D01*
X10588800Y6682900D01*
X10703800D02*
X10653000Y6784500D01*
X10754600D01*
X10703800Y6682900D01*
X10818800D02*
X10768000Y6784500D01*
X10869600D01*
X10818800Y6682900D01*
X10703800Y6797900D02*
X10653000Y6899500D01*
X10754600D01*
X10703800Y6797900D01*
Y6567900D02*
X10653000Y6669500D01*
X10754600D01*
X10703800Y6567900D01*
D72*
X11303000Y7023100D02*
G03*
X11303000Y7023100I-50800J0D01*
G01*
X9029700Y5778500D02*
G03*
X9029700Y5778500I-50800J0D01*
G01*
X9499600Y5600700D02*
G03*
X9499600Y5600700I-50800J0D01*
G01*
X10833100Y6184900D02*
G03*
X10833100Y6184900I-50800J0D01*
G01*
X9956800Y7061200D02*
G03*
X9956800Y7061200I-50800J0D01*
G01*
X10718800Y7353300D02*
G03*
X10718800Y7353300I-50800J0D01*
G01*
X9956800Y6388100D02*
G03*
X9956800Y6388100I-50800J0D01*
G01*
Y7353300D02*
G03*
X9956800Y7353300I-50800J0D01*
G01*
Y6781800D02*
G03*
X9956800Y6781800I-50800J0D01*
G01*
X11252200Y6591300D02*
G03*
X11252200Y6591300I-50800J0D01*
G01*
X11391900Y5397500D02*
G03*
X11391900Y5397500I-50800J0D01*
G01*
X11404600Y5588000D02*
G03*
X11404600Y5588000I-50800J0D01*
G01*
X11468100Y5689600D02*
G03*
X11468100Y5689600I-50800J0D01*
G01*
X11404600Y5791200D02*
G03*
X11404600Y5791200I-50800J0D01*
G01*
X11645900Y5588000D02*
G03*
X11645900Y5588000I-50800J0D01*
G01*
X11531600Y5791200D02*
G03*
X11531600Y5791200I-50800J0D01*
G01*
X11645900D02*
G03*
X11645900Y5791200I-50800J0D01*
G01*
X11531600Y5588000D02*
G03*
X11531600Y5588000I-50800J0D01*
G01*
X11696700Y5689600D02*
G03*
X11696700Y5689600I-50800J0D01*
G01*
X11582400D02*
G03*
X11582400Y5689600I-50800J0D01*
G01*
Y5473700D02*
G03*
X11582400Y5473700I-50800J0D01*
G01*
X11696700D02*
G03*
X11696700Y5473700I-50800J0D01*
G01*
X11468100D02*
G03*
X11468100Y5473700I-50800J0D01*
G01*
X11442700Y7493000D02*
G03*
X11442700Y7493000I-50800J0D01*
G01*
X11506200Y7594600D02*
G03*
X11506200Y7594600I-50800J0D01*
G01*
X11734800D02*
G03*
X11734800Y7594600I-50800J0D01*
G01*
X11620500D02*
G03*
X11620500Y7594600I-50800J0D01*
G01*
X10223500Y7353300D02*
G03*
X10223500Y7353300I-50800J0D01*
G01*
X12230100Y6654800D02*
G03*
X12230100Y6654800I-50800J0D01*
G01*
X12103100D02*
G03*
X12103100Y6654800I-50800J0D01*
G01*
Y6477000D02*
G03*
X12103100Y6477000I-50800J0D01*
G01*
Y6350000D02*
G03*
X12103100Y6350000I-50800J0D01*
G01*
Y6985000D02*
G03*
X12103100Y6985000I-50800J0D01*
G01*
Y7112000D02*
G03*
X12103100Y7112000I-50800J0D01*
G01*
X11569700Y5219700D02*
G03*
X11569700Y5219700I-50800J0D01*
G01*
X12674600Y5397500D02*
G03*
X12674600Y5397500I-50800J0D01*
G01*
X12903200Y5613400D02*
G03*
X12903200Y5613400I-50800J0D01*
G01*
X13017500Y5994400D02*
G03*
X13017500Y5994400I-50800J0D01*
G01*
X13347701Y6134100D02*
G03*
X13347701Y6134100I-50800J0D01*
G01*
X13589000Y6388100D02*
G03*
X13589000Y6388100I-50800J0D01*
G01*
X13754100Y6680200D02*
G03*
X13754100Y6680200I-50800J0D01*
G01*
Y7073900D02*
G03*
X13754100Y7073900I-50800J0D01*
G01*
Y7493000D02*
G03*
X13754100Y7493000I-50800J0D01*
G01*
Y7988300D02*
G03*
X13754100Y7988300I-50800J0D01*
G01*
X13208000D02*
G03*
X13208000Y7988300I-50800J0D01*
G01*
X12687300D02*
G03*
X12687300Y7988300I-50800J0D01*
G01*
X12115800Y8280400D02*
G03*
X12115800Y8280400I-50800J0D01*
G01*
X12458700D02*
G03*
X12458700Y8280400I-50800J0D01*
G01*
X10883900Y7696200D02*
G03*
X10883900Y7696200I-50800J0D01*
G01*
X11531600Y8902700D02*
G03*
X11531600Y8902700I-50800J0D01*
G01*
X11760200Y8407400D02*
G03*
X11760200Y8407400I-50800J0D01*
G01*
X11303000Y9156700D02*
G03*
X11303000Y9156700I-50800J0D01*
G01*
X11049000Y9385300D02*
G03*
X11049000Y9385300I-50800J0D01*
G01*
X11887200Y6985000D02*
G03*
X11887200Y6985000I-50800J0D01*
G01*
X11976100Y7073900D02*
G03*
X11976100Y7073900I-50800J0D01*
G01*
Y6908800D02*
G03*
X11976100Y6908800I-50800J0D01*
G01*
X11988800Y6235700D02*
G03*
X11988800Y6235700I-50800J0D01*
G01*
X11899900Y6477000D02*
G03*
X11899900Y6477000I-50800J0D01*
G01*
X11988800Y6705600D02*
G03*
X11988800Y6705600I-50800J0D01*
G01*
X11163300Y5232400D02*
G03*
X11163300Y5232400I-50800J0D01*
G01*
Y5486400D02*
G03*
X11163300Y5486400I-50800J0D01*
G01*
Y5753100D02*
G03*
X11163300Y5753100I-50800J0D01*
G01*
X10795000Y5778500D02*
G03*
X10795000Y5778500I-50800J0D01*
G01*
X10579100Y5600700D02*
G03*
X10579100Y5600700I-50800J0D01*
G01*
X10248900D02*
G03*
X10248900Y5600700I-50800J0D01*
G01*
X10985500Y5943600D02*
G03*
X10985500Y5943600I-50800J0D01*
G01*
X9867900Y5600700D02*
G03*
X9867900Y5600700I-50800J0D01*
G01*
X10502900Y7353300D02*
G03*
X10502900Y7353300I-50800J0D01*
G01*
X10883900Y8026400D02*
G03*
X10883900Y8026400I-50800J0D01*
G01*
X10718800Y8242300D02*
G03*
X10718800Y8242300I-50800J0D01*
G01*
X10210800Y8496300D02*
G03*
X10210800Y8496300I-50800J0D01*
G01*
X9906000D02*
G03*
X9906000Y8496300I-50800J0D01*
G01*
X11887200Y8089900D02*
G03*
X11887200Y8089900I-50800J0D01*
G01*
X12268200Y5168900D02*
G03*
X12268200Y5168900I-50800J0D01*
G01*
Y5270500D02*
G03*
X12268200Y5270500I-50800J0D01*
G01*
X11620500Y7810500D02*
G03*
X11620500Y7810500I-50800J0D01*
G01*
X11734800D02*
G03*
X11734800Y7810500I-50800J0D01*
G01*
X11569700Y7708900D02*
G03*
X11569700Y7708900I-50800J0D01*
G01*
X11684000Y7912100D02*
G03*
X11684000Y7912100I-50800J0D01*
G01*
X11569700D02*
G03*
X11569700Y7912100I-50800J0D01*
G01*
X11684000Y7708900D02*
G03*
X11684000Y7708900I-50800J0D01*
G01*
X11442700Y7912100D02*
G03*
X11442700Y7912100I-50800J0D01*
G01*
X11506200Y7810500D02*
G03*
X11506200Y7810500I-50800J0D01*
G01*
X11442700Y7708900D02*
G03*
X11442700Y7708900I-50800J0D01*
G01*
%TF.MD5,380687e28f3cdbf06a7958044a6eeb5e*%
M02*
