%TF.GenerationSoftware,Altium Limited,Altium Designer,23.11.1 (41)*%
G04 Layer_Color=8388736*
%FSLAX45Y45*%
%MOMM*%
%TF.SameCoordinates,7833D85C-88A4-47A2-A0C3-C9B46E89FC96*%
%TF.FilePolarity,Negative*%
%TF.FileFunction,Soldermask,Top*%
%TF.Part,Single*%
G01*
G75*
%TA.AperFunction,SMDPad,CuDef*%
%ADD17R,1.40000X0.90000*%
%ADD18R,0.90000X1.40000*%
%ADD20R,0.95000X1.40000*%
%ADD21R,1.40000X0.95000*%
%TA.AperFunction,NonConductor*%
%ADD49C,2.00000*%
%TA.AperFunction,SMDPad,CuDef*%
%ADD50R,2.90160X2.90160*%
G04:AMPARAMS|DCode=51|XSize=0.8016mm|YSize=0.3616mm|CornerRadius=0.0833mm|HoleSize=0mm|Usage=FLASHONLY|Rotation=270.000|XOffset=0mm|YOffset=0mm|HoleType=Round|Shape=RoundedRectangle|*
%AMROUNDEDRECTD51*
21,1,0.80160,0.19500,0,0,270.0*
21,1,0.63500,0.36160,0,0,270.0*
1,1,0.16660,-0.09750,-0.31750*
1,1,0.16660,-0.09750,0.31750*
1,1,0.16660,0.09750,0.31750*
1,1,0.16660,0.09750,-0.31750*
%
%ADD51ROUNDEDRECTD51*%
G04:AMPARAMS|DCode=52|XSize=0.9116mm|YSize=0.3616mm|CornerRadius=0.0833mm|HoleSize=0mm|Usage=FLASHONLY|Rotation=270.000|XOffset=0mm|YOffset=0mm|HoleType=Round|Shape=RoundedRectangle|*
%AMROUNDEDRECTD52*
21,1,0.91160,0.19500,0,0,270.0*
21,1,0.74500,0.36160,0,0,270.0*
1,1,0.16660,-0.09750,-0.37250*
1,1,0.16660,-0.09750,0.37250*
1,1,0.16660,0.09750,0.37250*
1,1,0.16660,0.09750,-0.37250*
%
%ADD52ROUNDEDRECTD52*%
G04:AMPARAMS|DCode=53|XSize=0.8016mm|YSize=0.3616mm|CornerRadius=0.0833mm|HoleSize=0mm|Usage=FLASHONLY|Rotation=0.000|XOffset=0mm|YOffset=0mm|HoleType=Round|Shape=RoundedRectangle|*
%AMROUNDEDRECTD53*
21,1,0.80160,0.19500,0,0,0.0*
21,1,0.63500,0.36160,0,0,0.0*
1,1,0.16660,0.31750,-0.09750*
1,1,0.16660,-0.31750,-0.09750*
1,1,0.16660,-0.31750,0.09750*
1,1,0.16660,0.31750,0.09750*
%
%ADD53ROUNDEDRECTD53*%
%ADD54R,1.55320X2.05320*%
%ADD55R,2.05320X1.55320*%
%TA.AperFunction,ComponentPad*%
%ADD56R,6.20320X6.20320*%
%ADD57C,6.20320*%
%ADD58C,1.75320*%
%ADD59R,1.75320X1.75320*%
%ADD60C,1.60320*%
%ADD61P,2.26727X4X90.0*%
%ADD62R,1.60320X1.60320*%
G36*
X12438400Y5768400D02*
X12301200D01*
Y5839400D01*
X12438400D01*
Y5768400D01*
D02*
G37*
G36*
Y5641400D02*
X12301200D01*
Y5712400D01*
X12438400D01*
Y5641400D01*
D02*
G37*
G36*
Y5514400D02*
X12301200D01*
Y5585400D01*
X12438400D01*
Y5514400D01*
D02*
G37*
G36*
Y5387400D02*
X12301200D01*
Y5458400D01*
X12438400D01*
Y5387400D01*
D02*
G37*
G36*
X12201320Y5387400D02*
X11816320D01*
Y5387400D01*
X11747200D01*
Y5458400D01*
X11816320D01*
Y5514400D01*
X11747200D01*
Y5585400D01*
X11816320D01*
Y5641400D01*
X11747200D01*
Y5712400D01*
X11816320D01*
Y5768400D01*
X11747200D01*
Y5839400D01*
X12201320D01*
Y5387400D01*
D02*
G37*
G36*
X12159000Y6505000D02*
X12021800D01*
Y6576000D01*
X12159000D01*
Y6505000D01*
D02*
G37*
G36*
Y6378000D02*
X12021800D01*
Y6449000D01*
X12159000D01*
Y6378000D01*
D02*
G37*
G36*
Y6251000D02*
X12021800D01*
Y6322000D01*
X12159000D01*
Y6251000D01*
D02*
G37*
G36*
X12713000Y6505000D02*
X12643880D01*
Y6449000D01*
X12713000D01*
Y6378000D01*
X12643880D01*
Y6322000D01*
X12713000D01*
Y6251000D01*
X12643880D01*
Y6195000D01*
X12713000D01*
Y6124000D01*
X12258880D01*
Y6576000D01*
X12713000D01*
Y6505000D01*
D02*
G37*
G36*
X12159000Y6124000D02*
X12021800D01*
Y6195000D01*
X12159000D01*
Y6124000D01*
D02*
G37*
G36*
X12161400Y7140000D02*
X12024200D01*
Y7211000D01*
X12161400D01*
Y7140000D01*
D02*
G37*
G36*
Y7013000D02*
X12024200D01*
Y7084000D01*
X12161400D01*
Y7013000D01*
D02*
G37*
G36*
Y6886000D02*
X12024200D01*
Y6957000D01*
X12161400D01*
Y6886000D01*
D02*
G37*
G36*
X12715400Y7140000D02*
X12646280D01*
Y7084000D01*
X12715400D01*
Y7013000D01*
X12646280D01*
Y6957000D01*
X12715400D01*
Y6886000D01*
X12646280D01*
Y6830000D01*
X12715400D01*
Y6759000D01*
X12261280D01*
Y7211000D01*
X12715400D01*
Y7140000D01*
D02*
G37*
G36*
X12161400Y6759000D02*
X12024200D01*
Y6830000D01*
X12161400D01*
Y6759000D01*
D02*
G37*
G36*
X12163220Y7521000D02*
X11709100D01*
Y7592000D01*
X11778220D01*
Y7648000D01*
X11709100D01*
Y7719000D01*
X11778220D01*
Y7775000D01*
X11709100D01*
Y7846000D01*
X11778220D01*
Y7902000D01*
X11709100D01*
Y7973000D01*
X11778220D01*
Y7973000D01*
X12163220D01*
Y7521000D01*
D02*
G37*
G36*
X12263100D02*
X12400300D01*
Y7592000D01*
X12263100D01*
Y7521000D01*
D02*
G37*
G36*
Y7648000D02*
X12400300D01*
Y7719000D01*
X12263100D01*
Y7648000D01*
D02*
G37*
G36*
Y7775000D02*
X12400300D01*
Y7846000D01*
X12263100D01*
Y7775000D01*
D02*
G37*
G36*
Y7902000D02*
X12400300D01*
Y7973000D01*
X12263100D01*
Y7902000D01*
D02*
G37*
D17*
X12204700Y8107300D02*
D03*
Y8377300D02*
D03*
D18*
X11815700Y5232400D02*
D03*
X12085700D02*
D03*
X11069700Y7124700D02*
D03*
X10799700D02*
D03*
X10320400Y7048500D02*
D03*
X10050400D02*
D03*
X10799700Y7366000D02*
D03*
X11069700D02*
D03*
X10320400Y6807200D02*
D03*
X10050400D02*
D03*
D20*
X10646200Y7137400D02*
D03*
X10461200D02*
D03*
D21*
X11252200Y7293400D02*
D03*
Y7108400D02*
D03*
D49*
X9200000Y5300000D02*
G03*
X9200000Y5300000I-100000J0D01*
G01*
X13700000D02*
G03*
X13700000Y5300000I-100000J0D01*
G01*
Y9300000D02*
G03*
X13700000Y9300000I-100000J0D01*
G01*
D50*
X10703800Y6733700D02*
D03*
D51*
X10828800Y6538200D02*
D03*
X10778800D02*
D03*
X10728800D02*
D03*
X10678800D02*
D03*
X10628800D02*
D03*
X10578800D02*
D03*
Y6929200D02*
D03*
X10678800D02*
D03*
X10728800D02*
D03*
X10778800D02*
D03*
X10828800D02*
D03*
D52*
X10628800D02*
D03*
D53*
X10899300Y6858700D02*
D03*
Y6808700D02*
D03*
Y6758700D02*
D03*
Y6708700D02*
D03*
Y6658700D02*
D03*
Y6608700D02*
D03*
X10508300D02*
D03*
Y6658700D02*
D03*
Y6708700D02*
D03*
Y6758700D02*
D03*
Y6808700D02*
D03*
Y6858700D02*
D03*
D54*
X10337900Y6096000D02*
D03*
X10032900D02*
D03*
X10337900Y6388100D02*
D03*
X10032900D02*
D03*
D55*
X9715500Y6400900D02*
D03*
Y6095900D02*
D03*
Y6667400D02*
D03*
Y6972400D02*
D03*
D56*
X13233400Y7573600D02*
D03*
X9461500Y8962300D02*
D03*
D57*
X13233400Y6853600D02*
D03*
X9461500Y8242300D02*
D03*
D58*
X9194800Y6985000D02*
D03*
Y6477000D02*
D03*
Y6731000D02*
D03*
Y7239001D02*
D03*
Y7493000D02*
D03*
D59*
Y6223000D02*
D03*
D60*
X11709400Y8775700D02*
D03*
X10452100Y8449500D02*
D03*
D61*
X11355846Y8422146D02*
D03*
D62*
X10452100Y8949500D02*
D03*
%TF.MD5,54d939f2dc7e6f454d1a22aa6b939e79*%
M02*
