%TF.GenerationSoftware,Altium Limited,Altium Designer,23.11.1 (41)*%
G04 Layer_Color=128*
%FSLAX45Y45*%
%MOMM*%
%TF.SameCoordinates,178855CC-FEA8-4967-A87F-AED42C0F3613*%
%TF.FilePolarity,Positive*%
%TF.FileFunction,Drillmap*%
%TF.Part,Single*%
G01*
G75*
%TA.AperFunction,NonConductor*%
%ADD50C,0.12700*%
D50*
X3295000Y250000D02*
X3605000D01*
X3450000Y95000D02*
Y405000D01*
X4895000Y4250000D02*
X5205000D01*
X5050000Y4095000D02*
Y4405000D01*
X3872861Y3544361D02*
X3977861D01*
X3925361Y3491861D02*
Y3596861D01*
X4226415Y3897915D02*
X4331415D01*
X4278915Y3845415D02*
Y3950415D01*
X2957438Y3941738D02*
X3062438D01*
X3009938Y3889238D02*
Y3994238D01*
X2957438Y3441738D02*
X3062438D01*
X3009938Y3389238D02*
Y3494238D01*
X5815138Y2019338D02*
X5945138D01*
X5880138Y1954338D02*
Y2084338D01*
X5815138Y2527338D02*
X5945138D01*
X5880138Y2462338D02*
Y2592338D01*
X242138Y939838D02*
X342138D01*
X292138Y889838D02*
Y989838D01*
X242138Y1189838D02*
X342138D01*
X292138Y1139838D02*
Y1239838D01*
X242138Y1689838D02*
X342138D01*
X292138Y1639838D02*
Y1739838D01*
X242138Y1439838D02*
X342138D01*
X292138Y1389838D02*
Y1489838D01*
X204038Y3632238D02*
X304038D01*
X254038Y3582238D02*
Y3682238D01*
X458038Y3632238D02*
X558038D01*
X508038Y3582238D02*
Y3682238D01*
X1420538Y2971838D02*
X1500538D01*
X1460538Y2931838D02*
Y3011838D01*
X1420538Y2844838D02*
X1500538D01*
X1460538Y2804838D02*
Y2884838D01*
X1420538Y2717838D02*
X1500538D01*
X1460538Y2677838D02*
Y2757838D01*
X1420538Y2197139D02*
X1500538D01*
X1460538Y2157139D02*
Y2237139D01*
X1420538Y2324138D02*
X1500538D01*
X1460538Y2284138D02*
Y2364138D01*
X1420538Y2451138D02*
X1500538D01*
X1460538Y2411138D02*
Y2491138D01*
X1992438Y3810038D02*
X2122438D01*
X2057438Y3745038D02*
Y3875038D01*
X1484438Y3810038D02*
X1614438D01*
X1549438Y3745038D02*
Y3875038D01*
X95000Y4250000D02*
X405000D01*
X250000Y4095000D02*
Y4405000D01*
X204038Y2362238D02*
X304038D01*
X254038Y2312238D02*
Y2412238D01*
X458038Y2362238D02*
X558038D01*
X508038Y2312238D02*
Y2412238D01*
X204038Y2997238D02*
X304038D01*
X254038Y2947238D02*
Y3047238D01*
X458038Y2997238D02*
X558038D01*
X508038Y2947238D02*
Y3047238D01*
X3157738Y1831538D02*
X3187738D01*
X3172738Y1816538D02*
Y1846538D01*
X3056138Y1729938D02*
X3086138D01*
X3071138Y1714938D02*
Y1744938D01*
X3157738Y1628338D02*
X3187738D01*
X3172738Y1613338D02*
Y1643338D01*
X3259338Y1729938D02*
X3289338D01*
X3274338Y1714938D02*
Y1744938D01*
X3157738Y1729938D02*
X3187738D01*
X3172738Y1714938D02*
Y1744938D01*
X95000Y250000D02*
X405000D01*
X250000Y95000D02*
Y405000D01*
X6095000Y250000D02*
X6405000D01*
X6250000Y95000D02*
Y405000D01*
X6095000Y4250000D02*
X6405000D01*
X6250000Y4095000D02*
Y4405000D01*
X4760238Y1790738D02*
X4790238D01*
X4775238Y1775738D02*
Y1805738D01*
X4722138Y1536738D02*
X4752138D01*
X4737138Y1521738D02*
Y1551738D01*
X4836438Y1282738D02*
X4866438D01*
X4851438Y1267738D02*
Y1297738D01*
X4836438Y1155738D02*
X4866438D01*
X4851438Y1140738D02*
Y1170738D01*
X4722138Y1282738D02*
X4752138D01*
X4737138Y1267738D02*
Y1297738D01*
X4950738Y1155738D02*
X4980738D01*
X4965738Y1140738D02*
Y1170738D01*
X4836438Y1536738D02*
X4866438D01*
X4851438Y1521738D02*
Y1551738D01*
X4950738Y1409738D02*
X4980738D01*
X4965738Y1394738D02*
Y1424738D01*
X4722138Y1155738D02*
X4752138D01*
X4737138Y1140738D02*
Y1170738D01*
X4836438Y1409738D02*
X4866438D01*
X4851438Y1394738D02*
Y1424738D01*
X4950738Y1536738D02*
X4980738D01*
X4965738Y1521738D02*
Y1551738D01*
X4950738Y1282738D02*
X4980738D01*
X4965738Y1267738D02*
Y1297738D01*
X4722138Y1409738D02*
X4752138D01*
X4737138Y1394738D02*
Y1424738D01*
X4988838Y2171738D02*
X5018838D01*
X5003838Y2156738D02*
Y2186738D01*
X4874538Y2171738D02*
X4904538D01*
X4889538Y2156738D02*
Y2186738D01*
X4760238Y2171738D02*
X4790238D01*
X4775238Y2156738D02*
Y2186738D01*
X4760238Y2044738D02*
X4790238D01*
X4775238Y2029738D02*
Y2059738D01*
X4874538Y2044738D02*
X4904538D01*
X4889538Y2029738D02*
Y2059738D01*
X4988838Y2044738D02*
X5018838D01*
X5003838Y2029738D02*
Y2059738D01*
X4988838Y1790738D02*
X5018838D01*
X5003838Y1775738D02*
Y1805738D01*
X4874538Y1790738D02*
X4904538D01*
X4889538Y1775738D02*
Y1805738D01*
X4760238Y1917738D02*
X4790238D01*
X4775238Y1902738D02*
Y1932738D01*
X4874538Y1917738D02*
X4904538D01*
X4889538Y1902738D02*
Y1932738D01*
X4988838Y1917738D02*
X5018838D01*
X5003838Y1902738D02*
Y1932738D01*
X4557038Y2921038D02*
X4587038D01*
X4572038Y2906038D02*
Y2936038D01*
X4442738Y2921038D02*
X4472738D01*
X4457738Y2906038D02*
Y2936038D01*
X4328438Y2921038D02*
X4358438D01*
X4343438Y2906038D02*
Y2936038D01*
X4328438Y2794038D02*
X4358438D01*
X4343438Y2779038D02*
Y2809038D01*
X4442738Y2794038D02*
X4472738D01*
X4457738Y2779038D02*
Y2809038D01*
X4557038Y2794038D02*
X4587038D01*
X4572038Y2779038D02*
Y2809038D01*
X4557038Y2540038D02*
X4587038D01*
X4572038Y2525038D02*
Y2555038D01*
X4442738Y2540038D02*
X4472738D01*
X4457738Y2525038D02*
Y2555038D01*
X4328438Y2540038D02*
X4358438D01*
X4343438Y2525038D02*
Y2555038D01*
X4328438Y2667038D02*
X4358438D01*
X4343438Y2652038D02*
Y2682038D01*
X4442738Y2667038D02*
X4472738D01*
X4457738Y2652038D02*
Y2682038D01*
X4557038Y2667038D02*
X4587038D01*
X4572038Y2652038D02*
Y2682038D01*
X4595138Y533438D02*
X4625138D01*
X4610138Y518438D02*
Y548438D01*
X4480838Y533438D02*
X4510838D01*
X4495838Y518438D02*
Y548438D01*
X4366538Y533438D02*
X4396538D01*
X4381538Y518438D02*
Y548438D01*
X4366538Y406438D02*
X4396538D01*
X4381538Y391438D02*
Y421438D01*
X4480838Y406438D02*
X4510838D01*
X4495838Y391438D02*
Y421438D01*
X4595138Y406438D02*
X4625138D01*
X4610138Y391438D02*
Y421438D01*
X4595138Y660438D02*
X4625138D01*
X4610138Y645438D02*
Y675438D01*
X4480838Y660438D02*
X4510838D01*
X4495838Y645438D02*
Y675438D01*
X4366538Y660438D02*
X4396538D01*
X4381538Y645438D02*
Y675438D01*
X4366538Y787438D02*
X4396538D01*
X4381538Y772438D02*
Y802438D01*
X4480838Y787438D02*
X4510838D01*
X4495838Y772438D02*
Y802438D01*
X4595138Y787438D02*
X4625138D01*
X4610138Y772438D02*
Y802438D01*
X4671338Y165138D02*
X4701338D01*
X4686338Y150138D02*
Y180138D01*
X4671338Y266738D02*
X4701338D01*
X4686338Y251738D02*
Y281738D01*
X3947438Y787438D02*
X3977438D01*
X3962438Y772438D02*
Y802438D01*
X3820438Y787438D02*
X3850438D01*
X3835438Y772438D02*
Y802438D01*
X4061738Y787438D02*
X4091738D01*
X4076738Y772438D02*
Y802438D01*
X4176038Y787438D02*
X4206038D01*
X4191038Y772438D02*
Y802438D01*
X4303038Y1663738D02*
X4333038D01*
X4318038Y1648738D02*
Y1678738D01*
X4303038Y1549438D02*
X4333038D01*
X4318038Y1534438D02*
Y1564438D01*
X4391938Y1346238D02*
X4421938D01*
X4406938Y1331238D02*
Y1361238D01*
X4391938Y1473238D02*
X4421938D01*
X4406938Y1458238D02*
Y1488238D01*
X4391938Y1955838D02*
X4421938D01*
X4406938Y1940838D02*
Y1970838D01*
X239038Y1981238D02*
X269038D01*
X254038Y1966238D02*
Y1996238D01*
X2880638Y508038D02*
X2910638D01*
X2895638Y493038D02*
Y523038D01*
X950238Y2705138D02*
X980238D01*
X965238Y2690138D02*
Y2720138D01*
X1102638Y2349538D02*
X1132638D01*
X1117638Y2334538D02*
Y2364538D01*
X1280438Y2717838D02*
X1310438D01*
X1295438Y2702838D02*
Y2732838D01*
X658138Y2743238D02*
X688138D01*
X673138Y2728238D02*
Y2758238D01*
X848638Y2768638D02*
X878638D01*
X863638Y2753638D02*
Y2783638D01*
X772438Y2616238D02*
X802438D01*
X787438Y2601238D02*
Y2631238D01*
X2359938Y1435138D02*
X2389938D01*
X2374938Y1420138D02*
Y1450138D01*
X3668038Y1993938D02*
X3698038D01*
X3683038Y1978938D02*
Y2008938D01*
X3782338Y482638D02*
X3812338D01*
X3797338Y467638D02*
Y497638D01*
X3769638Y685838D02*
X3799638D01*
X3784638Y670838D02*
Y700838D01*
X3769638Y2806738D02*
X3799638D01*
X3784638Y2791738D02*
Y2821738D01*
X3769638Y2590838D02*
X3799638D01*
X3784638Y2575838D02*
Y2605838D01*
X3947438Y381038D02*
X3977438D01*
X3962438Y366038D02*
Y396038D01*
X4061738Y381038D02*
X4091738D01*
X4076738Y366038D02*
Y396038D01*
X4176038Y381038D02*
X4206038D01*
X4191038Y366038D02*
Y396038D01*
X4176038Y584238D02*
X4206038D01*
X4191038Y569238D02*
Y599238D01*
X2994938Y622338D02*
X3024938D01*
X3009938Y607338D02*
Y637338D01*
X3147338Y762038D02*
X3177338D01*
X3162338Y747038D02*
Y777038D01*
X3248938Y1219238D02*
X3278938D01*
X3263938Y1204238D02*
Y1234238D01*
X2359938Y977938D02*
X2389938D01*
X2374938Y962938D02*
Y992938D01*
X2359938Y622338D02*
X2389938D01*
X2374938Y607338D02*
Y637338D01*
X3121938Y2362238D02*
X3151938D01*
X3136938Y2347238D02*
Y2377238D01*
X2359938Y2057438D02*
X2389938D01*
X2374938Y2042438D02*
Y2072438D01*
X2359938Y2362238D02*
X2389938D01*
X2374938Y2347238D02*
Y2377238D01*
X2359938Y1778038D02*
X2389938D01*
X2374938Y1763038D02*
Y1793038D01*
X3833138Y381038D02*
X3863138D01*
X3848138Y366038D02*
Y396038D01*
X3820438Y584238D02*
X3850438D01*
X3835438Y569238D02*
Y599238D01*
X3883938Y685838D02*
X3913938D01*
X3898938Y670838D02*
Y700838D01*
X4061738Y584238D02*
X4091738D01*
X4076738Y569238D02*
Y599238D01*
X3947438Y584238D02*
X3977438D01*
X3962438Y569238D02*
Y599238D01*
X4112538Y685838D02*
X4142538D01*
X4127538Y670838D02*
Y700838D01*
X3998238Y685838D02*
X4028238D01*
X4013238Y670838D02*
Y700838D01*
X4010938Y482638D02*
X4040938D01*
X4025938Y467638D02*
Y497638D01*
X4125238Y482638D02*
X4155238D01*
X4140238Y467638D02*
Y497638D01*
X3896638Y482638D02*
X3926638D01*
X3911638Y467638D02*
Y497638D01*
X3845838Y2489238D02*
X3875838D01*
X3860838Y2474238D02*
Y2504238D01*
X3909338Y2590838D02*
X3939338D01*
X3924338Y2575838D02*
Y2605838D01*
X4137938Y2590838D02*
X4167938D01*
X4152938Y2575838D02*
Y2605838D01*
X4023638Y2590838D02*
X4053638D01*
X4038638Y2575838D02*
Y2605838D01*
X2639338Y2362238D02*
X2669338D01*
X2654338Y2347238D02*
Y2377238D01*
X4582438Y1663738D02*
X4612438D01*
X4597438Y1648738D02*
Y1678738D01*
X4455438Y1663738D02*
X4485438D01*
X4470438Y1648738D02*
Y1678738D01*
X4506238Y1473238D02*
X4536238D01*
X4521238Y1458238D02*
Y1488238D01*
X4506238Y1346238D02*
X4536238D01*
X4521238Y1331238D02*
Y1361238D01*
X4506238Y1981238D02*
X4536238D01*
X4521238Y1966238D02*
Y1996238D01*
X4506238Y2108238D02*
X4536238D01*
X4521238Y2093238D02*
Y2123238D01*
X3972838Y228638D02*
X4002838D01*
X3987838Y213638D02*
Y243638D01*
X5268238Y215938D02*
X5298238D01*
X5283238Y200938D02*
Y230938D01*
X5509538Y457238D02*
X5539538D01*
X5524538Y442238D02*
Y472238D01*
X5750838Y698538D02*
X5780838D01*
X5765838Y683538D02*
Y713538D01*
X5979438Y927138D02*
X6009438D01*
X5994438Y912138D02*
Y942138D01*
X6208038Y1168438D02*
X6238038D01*
X6223038Y1153438D02*
Y1183438D01*
X6385838Y1371638D02*
X6415838D01*
X6400838Y1356638D02*
Y1386638D01*
X6398538Y1879638D02*
X6428538D01*
X6413538Y1864638D02*
Y1894638D01*
X6398538Y2286038D02*
X6428538D01*
X6413538Y2271038D02*
Y2301038D01*
X6385838Y3048038D02*
X6415838D01*
X6400838Y3033038D02*
Y3063038D01*
X5611138Y3060738D02*
X5641138D01*
X5626138Y3045738D02*
Y3075738D01*
X5090438Y3060738D02*
X5120438D01*
X5105438Y3045738D02*
Y3075738D01*
X4518938Y3276638D02*
X4548938D01*
X4533938Y3261638D02*
Y3291638D01*
X4861838Y3276638D02*
X4891838D01*
X4876838Y3261638D02*
Y3291638D01*
X3287038Y2692438D02*
X3317038D01*
X3302038Y2677438D02*
Y2707438D01*
X4036338Y3975138D02*
X4066338D01*
X4051338Y3960138D02*
Y3990138D01*
X4252238Y3276638D02*
X4282238D01*
X4267238Y3261638D02*
Y3291638D01*
X3744238Y4267238D02*
X3774238D01*
X3759238Y4252238D02*
Y4282238D01*
X4303038Y2019338D02*
X4333038D01*
X4318038Y2004338D02*
Y2034338D01*
X4391938Y2082838D02*
X4421938D01*
X4406938Y2067838D02*
Y2097838D01*
X4303038Y1879638D02*
X4333038D01*
X4318038Y1864638D02*
Y1894638D01*
X4391938Y1231938D02*
X4421938D01*
X4406938Y1216938D02*
Y1246938D01*
X4303038Y1409738D02*
X4333038D01*
X4318038Y1394738D02*
Y1424738D01*
X3769600Y228600D02*
X3799600D01*
X3784600Y213600D02*
Y243600D01*
X3604538Y482638D02*
X3634538D01*
X3619538Y467638D02*
Y497638D01*
X3604538Y749338D02*
X3634538D01*
X3619538Y734338D02*
Y764338D01*
X3477538Y889038D02*
X3507538D01*
X3492538Y874038D02*
Y904038D01*
X3274338Y889038D02*
X3304338D01*
X3289338Y874038D02*
Y904038D01*
X2893338Y2362238D02*
X2923338D01*
X2908338Y2347238D02*
Y2377238D01*
X3287038Y3022638D02*
X3317038D01*
X3302038Y3007638D02*
Y3037638D01*
X2626638Y3429038D02*
X2656638D01*
X2641638Y3414038D02*
Y3444038D01*
X2131338Y3429038D02*
X2161338D01*
X2146338Y3414038D02*
Y3444038D01*
X4023638Y2806738D02*
X4053638D01*
X4038638Y2791738D02*
Y2821738D01*
X4137938Y2806738D02*
X4167938D01*
X4152938Y2791738D02*
Y2821738D01*
X3972838Y2705138D02*
X4002838D01*
X3987838Y2690138D02*
Y2720138D01*
X4087138Y2908338D02*
X4117138D01*
X4102138Y2893338D02*
Y2923338D01*
X3972838Y2908338D02*
X4002838D01*
X3987838Y2893338D02*
Y2923338D01*
X4087138Y2705138D02*
X4117138D01*
X4102138Y2690138D02*
Y2720138D01*
X3845838Y2908338D02*
X3875838D01*
X3860838Y2893338D02*
Y2923338D01*
X3909338Y2806738D02*
X3939338D01*
X3924338Y2791738D02*
Y2821738D01*
X3845838Y2705138D02*
X3875838D01*
X3860838Y2690138D02*
Y2720138D01*
%TF.MD5,07a66e8b5b30fb78aa2a52ef656d6753*%
M02*
