%TF.GenerationSoftware,Altium Limited,Altium Designer,23.11.1 (41)*%
G04 Layer_Color=16711935*
%FSLAX45Y45*%
%MOMM*%
%TF.SameCoordinates,178855CC-FEA8-4967-A87F-AED42C0F3613*%
%TF.FilePolarity,Positive*%
%TF.FileFunction,Other,Mechanical_1*%
%TF.Part,Single*%
G01*
G75*
%TA.AperFunction,NonConductor*%
%ADD55C,0.25400*%
D55*
X6375438Y12738D02*
G03*
X6477038Y114338I0J101600D01*
G01*
Y4394238D02*
G03*
X6350038Y4521238I-127000J0D01*
G01*
X12738Y139738D02*
G03*
X139738Y12738I127000J0D01*
G01*
X139738Y4521238D02*
G03*
X12738Y4394238I0J-127000D01*
G01*
X1003338Y4521238D02*
X1206538D01*
X139738D02*
X1003338D01*
X6477038Y114338D02*
Y177838D01*
X6108738Y12738D02*
X6375438D01*
X6477038Y4381538D02*
Y4394238D01*
X6096038Y4521238D02*
X6350038D01*
X5791238Y12738D02*
X6108738D01*
X5753138Y4521238D02*
X6096038D01*
X12738Y139738D02*
Y412788D01*
X139738Y12738D02*
X1003338D01*
X12738Y4343438D02*
Y4394238D01*
X4533938Y4521238D02*
X5384838D01*
X1206538D02*
X4533938D01*
X12738Y4343438D02*
X12738Y412788D01*
X5422938Y12738D02*
X5791238D01*
X5384838Y4521238D02*
X5753138D01*
X4572038Y12738D02*
X5422938D01*
X1003338D02*
X4572038D01*
X6477038Y177838D02*
Y4394238D01*
%TF.MD5,133bc02928ecf771b103cafe73e42455*%
M02*
