%TF.GenerationSoftware,Altium Limited,Altium Designer,23.11.1 (41)*%
G04 Layer_Color=8388736*
%FSLAX45Y45*%
%MOMM*%
%TF.SameCoordinates,178855CC-FEA8-4967-A87F-AED42C0F3613*%
%TF.FilePolarity,Negative*%
%TF.FileFunction,Soldermask,Top*%
%TF.Part,Single*%
G01*
G75*
%TA.AperFunction,SMDPad,CuDef*%
%ADD13R,1.40000X0.95000*%
%ADD15R,0.95000X1.40000*%
%ADD21R,1.40000X0.90000*%
%ADD22R,0.90000X1.40000*%
%TA.AperFunction,NonConductor*%
%ADD56C,2.00000*%
%TA.AperFunction,SMDPad,CuDef*%
%ADD57R,2.05320X1.55320*%
%ADD58R,1.55320X2.05320*%
%ADD59R,1.35320X1.35320*%
G04:AMPARAMS|DCode=60|XSize=0.8016mm|YSize=0.3616mm|CornerRadius=0.0833mm|HoleSize=0mm|Usage=FLASHONLY|Rotation=270.000|XOffset=0mm|YOffset=0mm|HoleType=Round|Shape=RoundedRectangle|*
%AMROUNDEDRECTD60*
21,1,0.80160,0.19500,0,0,270.0*
21,1,0.63500,0.36160,0,0,270.0*
1,1,0.16660,-0.09750,-0.31750*
1,1,0.16660,-0.09750,0.31750*
1,1,0.16660,0.09750,0.31750*
1,1,0.16660,0.09750,-0.31750*
%
%ADD60ROUNDEDRECTD60*%
G04:AMPARAMS|DCode=61|XSize=0.8016mm|YSize=0.3616mm|CornerRadius=0.0833mm|HoleSize=0mm|Usage=FLASHONLY|Rotation=0.000|XOffset=0mm|YOffset=0mm|HoleType=Round|Shape=RoundedRectangle|*
%AMROUNDEDRECTD61*
21,1,0.80160,0.19500,0,0,0.0*
21,1,0.63500,0.36160,0,0,0.0*
1,1,0.16660,0.31750,-0.09750*
1,1,0.16660,-0.31750,-0.09750*
1,1,0.16660,-0.31750,0.09750*
1,1,0.16660,0.31750,0.09750*
%
%ADD61ROUNDEDRECTD61*%
%ADD62R,2.90160X2.90160*%
G04:AMPARAMS|DCode=63|XSize=0.9116mm|YSize=0.3616mm|CornerRadius=0.0833mm|HoleSize=0mm|Usage=FLASHONLY|Rotation=270.000|XOffset=0mm|YOffset=0mm|HoleType=Round|Shape=RoundedRectangle|*
%AMROUNDEDRECTD63*
21,1,0.91160,0.19500,0,0,270.0*
21,1,0.74500,0.36160,0,0,270.0*
1,1,0.16660,-0.09750,-0.37250*
1,1,0.16660,-0.09750,0.37250*
1,1,0.16660,0.09750,0.37250*
1,1,0.16660,0.09750,-0.37250*
%
%ADD63ROUNDEDRECTD63*%
%TA.AperFunction,ComponentPad*%
%ADD64P,2.26727X4X90.0*%
%ADD65C,1.60320*%
%ADD66R,1.60320X1.60320*%
%ADD67C,2.15320*%
%ADD68R,2.15320X2.15320*%
%ADD69R,1.71120X1.71120*%
%ADD70C,1.71120*%
%ADD71R,1.71120X1.71120*%
%ADD72R,1.15000X1.15000*%
%ADD73C,1.15000*%
%ADD74R,2.15320X2.15320*%
G36*
X8407400Y9321800D02*
X8397962Y9320808D01*
X8400242Y9318755D01*
X8407399Y9309099D01*
X8407400Y9287836D01*
X8399103Y9246124D01*
X8382828Y9206833D01*
X8359200Y9171472D01*
X8329128Y9141399D01*
X8293767Y9117772D01*
X8254475Y9101497D01*
X8212764Y9093200D01*
X8191500Y9093200D01*
X7975600D01*
Y9410700D01*
X7975600Y9410700D01*
X7975865Y9423291D01*
X7979992Y9444040D01*
X7988608Y9464841D01*
X8001117Y9483562D01*
X8017038Y9499482D01*
X8035758Y9511991D01*
X8056560Y9520607D01*
X8078642Y9525000D01*
X8089900Y9524999D01*
X8407400Y9525000D01*
Y9321800D01*
D02*
G37*
G36*
X14310100Y9524999D02*
X14321358Y9525000D01*
X14343440Y9520607D01*
X14364243Y9511991D01*
X14382962Y9499482D01*
X14398883Y9483562D01*
X14411392Y9464841D01*
X14420007Y9444040D01*
X14424135Y9423290D01*
X14424400Y9410700D01*
X14424400Y9410700D01*
X14424400Y9410699D01*
Y9093200D01*
X14208501D01*
X14187236Y9093200D01*
X14145525Y9101497D01*
X14106233Y9117772D01*
X14070872Y9141399D01*
X14040800Y9171472D01*
X14017172Y9206833D01*
X14000897Y9246124D01*
X13992599Y9287836D01*
X13992599Y9309099D01*
X13999818Y9318810D01*
X14002039Y9320808D01*
X13992599Y9321800D01*
Y9525000D01*
X14310100Y9524999D01*
D02*
G37*
G36*
X14414500Y5505347D02*
Y5143500D01*
X14414497Y5143499D01*
X14415749Y5134743D01*
X14414787Y5117080D01*
X14410397Y5099944D01*
X14402748Y5083994D01*
X14392134Y5069842D01*
X14378964Y5058033D01*
X14363744Y5049021D01*
X14347057Y5043151D01*
X14338300Y5041900D01*
X13992599D01*
Y5278200D01*
X14002039Y5279192D01*
X13992601Y5287690D01*
X13992599Y5290970D01*
X13992599Y5312164D01*
X14000896Y5353876D01*
X14017171Y5393168D01*
X14040797Y5428530D01*
X14070869Y5458602D01*
X14106232Y5482230D01*
X14145523Y5498505D01*
X14187236Y5506801D01*
X14208501Y5506800D01*
X14405353Y5514158D01*
X14414500Y5505347D01*
D02*
G37*
G36*
X8191500Y5506800D02*
X8212764Y5506800D01*
X8254475Y5498503D01*
X8293767Y5482228D01*
X8329128Y5458601D01*
X8359201Y5428528D01*
X8382828Y5393167D01*
X8399103Y5353875D01*
X8407400Y5312164D01*
X8407399Y5290900D01*
X8400080Y5281099D01*
X8397962Y5279192D01*
X8407400Y5278200D01*
Y5041900D01*
X8089900D01*
X8078642Y5041900D01*
X8056559Y5046292D01*
X8035758Y5054908D01*
X8017037Y5067417D01*
X8001117Y5083337D01*
X7988608Y5102058D01*
X7979992Y5122859D01*
X7975600Y5144942D01*
X7975600Y5156199D01*
Y5506800D01*
X8191500Y5506800D01*
D02*
G37*
G36*
X4869238Y2898238D02*
X4732038D01*
Y2969238D01*
X4869238D01*
Y2898238D01*
D02*
G37*
G36*
Y2771238D02*
X4732038D01*
Y2842238D01*
X4869238D01*
Y2771238D01*
D02*
G37*
G36*
Y2644238D02*
X4732038D01*
Y2715238D01*
X4869238D01*
Y2644238D01*
D02*
G37*
G36*
Y2517238D02*
X4732038D01*
Y2588238D01*
X4869238D01*
Y2517238D01*
D02*
G37*
G36*
X4632158D02*
X4178038D01*
Y2588238D01*
X4247158D01*
Y2644238D01*
X4178038D01*
Y2715238D01*
X4247158D01*
Y2771238D01*
X4178038D01*
Y2842238D01*
X4247158D01*
Y2898238D01*
X4178038D01*
Y2969238D01*
X4247158D01*
Y2969238D01*
X4632158D01*
Y2517238D01*
D02*
G37*
G36*
X4630338Y2136238D02*
X4493138D01*
Y2207238D01*
X4630338D01*
Y2136238D01*
D02*
G37*
G36*
Y2009238D02*
X4493138D01*
Y2080238D01*
X4630338D01*
Y2009238D01*
D02*
G37*
G36*
Y1882238D02*
X4493138D01*
Y1953238D01*
X4630338D01*
Y1882238D01*
D02*
G37*
G36*
X5184338Y2136238D02*
X5115218D01*
Y2080238D01*
X5184338D01*
Y2009238D01*
X5115218D01*
Y1953238D01*
X5184338D01*
Y1882238D01*
X5115218D01*
Y1826238D01*
X5184338D01*
Y1755238D01*
X4730218D01*
Y2207238D01*
X5184338D01*
Y2136238D01*
D02*
G37*
G36*
X4630338Y1755238D02*
X4493138D01*
Y1826238D01*
X4630338D01*
Y1755238D01*
D02*
G37*
G36*
X4627938Y1501238D02*
X4490738D01*
Y1572238D01*
X4627938D01*
Y1501238D01*
D02*
G37*
G36*
Y1374238D02*
X4490738D01*
Y1445238D01*
X4627938D01*
Y1374238D01*
D02*
G37*
G36*
Y1247238D02*
X4490738D01*
Y1318238D01*
X4627938D01*
Y1247238D01*
D02*
G37*
G36*
X5181938Y1501238D02*
X5112818D01*
Y1445238D01*
X5181938D01*
Y1374238D01*
X5112818D01*
Y1318238D01*
X5181938D01*
Y1247238D01*
X5112818D01*
Y1191238D01*
X5181938D01*
Y1120238D01*
X4727818D01*
Y1572238D01*
X5181938D01*
Y1501238D01*
D02*
G37*
G36*
X4627938Y1120238D02*
X4490738D01*
Y1191238D01*
X4627938D01*
Y1120238D01*
D02*
G37*
G36*
X4907338Y764638D02*
X4770138D01*
Y835638D01*
X4907338D01*
Y764638D01*
D02*
G37*
G36*
Y637638D02*
X4770138D01*
Y708638D01*
X4907338D01*
Y637638D01*
D02*
G37*
G36*
Y510638D02*
X4770138D01*
Y581638D01*
X4907338D01*
Y510638D01*
D02*
G37*
G36*
Y383638D02*
X4770138D01*
Y454638D01*
X4907338D01*
Y383638D01*
D02*
G37*
G36*
X4670258Y383638D02*
X4285258D01*
Y383638D01*
X4216138D01*
Y454638D01*
X4285258D01*
Y510638D01*
X4216138D01*
Y581638D01*
X4285258D01*
Y637638D01*
X4216138D01*
Y708638D01*
X4285258D01*
Y764638D01*
X4216138D01*
Y835638D01*
X4670258D01*
Y383638D01*
D02*
G37*
D13*
X3721138Y2104638D02*
D03*
Y2289638D02*
D03*
D15*
X2561838Y927138D02*
D03*
X2746838D02*
D03*
X2930138Y2133638D02*
D03*
X3115138D02*
D03*
D21*
X4673638Y3103538D02*
D03*
Y3373538D02*
D03*
D22*
X4284638Y228638D02*
D03*
X4554638D02*
D03*
X3538638Y2120938D02*
D03*
X3268638D02*
D03*
X2789338Y2044738D02*
D03*
X2519338D02*
D03*
X3268638Y2362238D02*
D03*
X3538638D02*
D03*
X2789338Y1803438D02*
D03*
X2519338D02*
D03*
D56*
X350000Y4250000D02*
G03*
X350000Y4250000I-100000J0D01*
G01*
Y250000D02*
G03*
X350000Y250000I-100000J0D01*
G01*
X6350000D02*
G03*
X6350000Y250000I-100000J0D01*
G01*
Y4250000D02*
G03*
X6350000Y4250000I-100000J0D01*
G01*
D57*
X1117638Y2514738D02*
D03*
Y2209738D02*
D03*
Y3124438D02*
D03*
Y2819438D02*
D03*
X1943138Y1270138D02*
D03*
X2184438D02*
D03*
Y965138D02*
D03*
X1943138D02*
D03*
D58*
X2501838Y1435138D02*
D03*
X2806838D02*
D03*
Y1219238D02*
D03*
X2501838D02*
D03*
D59*
X863638Y2879738D02*
D03*
Y3114738D02*
D03*
X838238Y3476638D02*
D03*
Y3711638D02*
D03*
X863638Y2232038D02*
D03*
Y2467038D02*
D03*
D60*
X3147738Y1925438D02*
D03*
X3297738Y1534438D02*
D03*
X3247738D02*
D03*
X3197738D02*
D03*
X3147738D02*
D03*
X3097738D02*
D03*
X3047738D02*
D03*
Y1925438D02*
D03*
X3197738D02*
D03*
X3247738D02*
D03*
X3297738D02*
D03*
D61*
X2977238Y1754938D02*
D03*
X3368238Y1854938D02*
D03*
Y1804938D02*
D03*
Y1754938D02*
D03*
Y1704938D02*
D03*
Y1654938D02*
D03*
Y1604938D02*
D03*
X2977238D02*
D03*
Y1654938D02*
D03*
Y1704938D02*
D03*
Y1804938D02*
D03*
Y1854938D02*
D03*
D62*
X3172738Y1729938D02*
D03*
D63*
X3097738Y1925438D02*
D03*
D64*
X3925361Y3544361D02*
D03*
D65*
X4278915Y3897915D02*
D03*
X3009938Y3441738D02*
D03*
D66*
Y3941738D02*
D03*
D67*
X5880138Y2019338D02*
D03*
X1549438Y3810038D02*
D03*
D68*
X5880138Y2527338D02*
D03*
D69*
X292138Y939838D02*
D03*
D70*
Y1189838D02*
D03*
Y1689838D02*
D03*
Y1439838D02*
D03*
X254038Y3632238D02*
D03*
Y2362238D02*
D03*
Y2997238D02*
D03*
D71*
X508038Y3632238D02*
D03*
Y2362238D02*
D03*
X508038Y2997238D02*
D03*
D72*
X1460538Y2971838D02*
D03*
Y2451138D02*
D03*
D73*
Y2844838D02*
D03*
Y2717838D02*
D03*
Y2197139D02*
D03*
Y2324138D02*
D03*
D74*
X2057438Y3810038D02*
D03*
%TF.MD5,7ba5bbf3b954b79f59c442295ccff66a*%
M02*
