%TF.GenerationSoftware,Altium Limited,Altium Designer,23.11.1 (41)*%
G04 Layer_Color=8421504*
%FSLAX45Y45*%
%MOMM*%
%TF.SameCoordinates,9589A492-6763-4EC8-AB1B-249D9BE17554*%
%TF.FilePolarity,Positive*%
%TF.FileFunction,Paste,Top*%
%TF.Part,Single*%
G01*
G75*
%TA.AperFunction,SMDPad,CuDef*%
%ADD17R,1.40000X0.90000*%
%ADD18R,0.90000X1.40000*%
%ADD20R,0.95000X1.40000*%
%ADD21R,1.40000X0.95000*%
G04:AMPARAMS|DCode=64|XSize=0.8mm|YSize=0.36mm|CornerRadius=0.0825mm|HoleSize=0mm|Usage=FLASHONLY|Rotation=270.000|XOffset=0mm|YOffset=0mm|HoleType=Round|Shape=RoundedRectangle|*
%AMROUNDEDRECTD64*
21,1,0.80000,0.19500,0,0,270.0*
21,1,0.63500,0.36000,0,0,270.0*
1,1,0.16500,-0.09750,-0.31750*
1,1,0.16500,-0.09750,0.31750*
1,1,0.16500,0.09750,0.31750*
1,1,0.16500,0.09750,-0.31750*
%
%ADD64ROUNDEDRECTD64*%
G04:AMPARAMS|DCode=65|XSize=0.91mm|YSize=0.36mm|CornerRadius=0.0825mm|HoleSize=0mm|Usage=FLASHONLY|Rotation=270.000|XOffset=0mm|YOffset=0mm|HoleType=Round|Shape=RoundedRectangle|*
%AMROUNDEDRECTD65*
21,1,0.91000,0.19500,0,0,270.0*
21,1,0.74500,0.36000,0,0,270.0*
1,1,0.16500,-0.09750,-0.37250*
1,1,0.16500,-0.09750,0.37250*
1,1,0.16500,0.09750,0.37250*
1,1,0.16500,0.09750,-0.37250*
%
%ADD65ROUNDEDRECTD65*%
G04:AMPARAMS|DCode=66|XSize=0.70095mm|YSize=0.26095mm|CornerRadius=0.03297mm|HoleSize=0mm|Usage=FLASHONLY|Rotation=270.000|XOffset=0mm|YOffset=0mm|HoleType=Round|Shape=RoundedRectangle|*
%AMROUNDEDRECTD66*
21,1,0.70095,0.19500,0,0,270.0*
21,1,0.63500,0.26095,0,0,270.0*
1,1,0.06595,-0.09750,-0.31750*
1,1,0.06595,-0.09750,0.31750*
1,1,0.06595,0.09750,0.31750*
1,1,0.06595,0.09750,-0.31750*
%
%ADD66ROUNDEDRECTD66*%
G04:AMPARAMS|DCode=67|XSize=0.8mm|YSize=0.36mm|CornerRadius=0.0825mm|HoleSize=0mm|Usage=FLASHONLY|Rotation=0.000|XOffset=0mm|YOffset=0mm|HoleType=Round|Shape=RoundedRectangle|*
%AMROUNDEDRECTD67*
21,1,0.80000,0.19500,0,0,0.0*
21,1,0.63500,0.36000,0,0,0.0*
1,1,0.16500,0.31750,-0.09750*
1,1,0.16500,-0.31750,-0.09750*
1,1,0.16500,-0.31750,0.09750*
1,1,0.16500,0.31750,0.09750*
%
%ADD67ROUNDEDRECTD67*%
%ADD68R,1.45000X1.95000*%
%ADD69R,1.95000X1.45000*%
G36*
X10836800Y6600700D02*
X10713800D01*
Y6723700D01*
X10836800D01*
Y6600700D01*
D02*
G37*
G36*
X10693800D02*
X10570800D01*
Y6723700D01*
X10693800D01*
Y6600700D01*
D02*
G37*
G36*
X12702900Y6515100D02*
X12585900D01*
Y6565900D01*
X12702900D01*
Y6515100D01*
D02*
G37*
G36*
X12148900D02*
X12031900D01*
Y6565900D01*
X12148900D01*
Y6515100D01*
D02*
G37*
G36*
X12557300Y6469599D02*
X12427900D01*
Y6544199D01*
X12557300D01*
Y6469599D01*
D02*
G37*
G36*
X12392900D02*
X12263501D01*
X12263500Y6544199D01*
X12392900D01*
Y6469599D01*
D02*
G37*
G36*
X12702900Y6388100D02*
X12585900D01*
Y6438900D01*
X12702900D01*
Y6388100D01*
D02*
G37*
G36*
X12148900D02*
X12031900D01*
Y6438900D01*
X12148900D01*
Y6388100D01*
D02*
G37*
G36*
X12557300Y6365000D02*
X12427900D01*
Y6439599D01*
X12557300D01*
Y6365000D01*
D02*
G37*
G36*
X12392900D02*
X12263501D01*
Y6439599D01*
X12392900D01*
Y6365000D01*
D02*
G37*
G36*
X12702900Y6261100D02*
X12585900D01*
Y6311900D01*
X12702900D01*
Y6261100D01*
D02*
G37*
G36*
X12148900D02*
X12031900D01*
Y6311900D01*
X12148900D01*
Y6261100D01*
D02*
G37*
G36*
X12557300Y6260401D02*
X12427900D01*
Y6335000D01*
X12557300D01*
Y6260401D01*
D02*
G37*
G36*
X12392900D02*
X12263501D01*
Y6335000D01*
X12392900D01*
Y6260401D01*
D02*
G37*
G36*
X12557300Y6155801D02*
X12427900D01*
Y6230401D01*
X12557300D01*
Y6155801D01*
D02*
G37*
G36*
X12392900D02*
X12263500D01*
X12263501Y6230401D01*
X12392900D01*
Y6155801D01*
D02*
G37*
G36*
X12702900Y6134100D02*
X12585900D01*
Y6184900D01*
X12702900D01*
Y6134100D01*
D02*
G37*
G36*
X12148900D02*
X12031900D01*
Y6184900D01*
X12148900D01*
Y6134100D01*
D02*
G37*
G36*
X12428300Y5778499D02*
X12311300D01*
Y5829300D01*
X12428300D01*
Y5778499D01*
D02*
G37*
G36*
X11874300D02*
X11757300D01*
Y5829300D01*
X11874300D01*
Y5778499D01*
D02*
G37*
G36*
X12032300Y5732999D02*
X11902900Y5732999D01*
X11902900Y5807598D01*
X12032300D01*
Y5732999D01*
D02*
G37*
G36*
X12196699D02*
X12067300Y5732998D01*
Y5807598D01*
X12196700D01*
X12196699Y5732999D01*
D02*
G37*
G36*
X12428300Y5651500D02*
X12311300D01*
Y5702299D01*
X12428300D01*
Y5651500D01*
D02*
G37*
G36*
X11874300D02*
X11757300D01*
Y5702299D01*
X11874300D01*
Y5651500D01*
D02*
G37*
G36*
X12032300Y5628400D02*
X11902900D01*
Y5702999D01*
X12032300Y5702999D01*
Y5628400D01*
D02*
G37*
G36*
X12196699Y5628399D02*
X12067300Y5628400D01*
Y5702999D01*
X12196699Y5702999D01*
X12196699Y5628399D01*
D02*
G37*
G36*
X12428300Y5524500D02*
X12311300D01*
Y5575300D01*
X12428300D01*
Y5524500D01*
D02*
G37*
G36*
X11874300D02*
X11757300D01*
Y5575300D01*
X11874300D01*
Y5524500D01*
D02*
G37*
G36*
X12196699Y5598400D02*
Y5523801D01*
X12067300Y5523800D01*
X12067300Y5598400D01*
X12196699Y5598400D01*
D02*
G37*
G36*
X12032300Y5523801D02*
X11902900Y5523800D01*
X11902900Y5598400D01*
X12032300D01*
Y5523801D01*
D02*
G37*
G36*
X12196700Y5419201D02*
X12067300D01*
Y5493801D01*
X12196699Y5493801D01*
X12196700Y5419201D01*
D02*
G37*
G36*
X12032300D02*
X11902900D01*
Y5493801D01*
X12032300Y5493801D01*
Y5419201D01*
D02*
G37*
G36*
X12428300Y5397500D02*
X12311300D01*
Y5448300D01*
X12428300D01*
Y5397500D01*
D02*
G37*
G36*
X11874300D02*
X11757300D01*
Y5448300D01*
X11874300D01*
Y5397500D01*
D02*
G37*
G36*
X12390200Y7912100D02*
X12273200D01*
Y7962900D01*
X12390200D01*
Y7912100D01*
D02*
G37*
G36*
X11836200D02*
X11719200D01*
Y7962900D01*
X11836200D01*
Y7912100D01*
D02*
G37*
G36*
X12158599Y7866599D02*
X12029200Y7866599D01*
Y7941199D01*
X12158600D01*
X12158599Y7866599D01*
D02*
G37*
G36*
X11994200D02*
X11864800Y7866599D01*
Y7941199D01*
X11994200D01*
Y7866599D01*
D02*
G37*
G36*
X12390200Y7785100D02*
X12273200D01*
Y7835900D01*
X12390200D01*
Y7785100D01*
D02*
G37*
G36*
X11836200D02*
X11719200D01*
Y7835900D01*
X11836200D01*
Y7785100D01*
D02*
G37*
G36*
X12158599Y7836599D02*
Y7762000D01*
X12029200Y7762000D01*
X12029200Y7836599D01*
X12158599Y7836599D01*
D02*
G37*
G36*
X11994200D02*
Y7762000D01*
X11864800D01*
X11864800Y7836599D01*
X11994200Y7836599D01*
D02*
G37*
G36*
X12390200Y7658100D02*
X12273200D01*
Y7708900D01*
X12390200D01*
Y7658100D01*
D02*
G37*
G36*
X11836200D02*
X11719200D01*
Y7708900D01*
X11836200D01*
Y7658100D01*
D02*
G37*
G36*
X12158599Y7657401D02*
X12029200Y7657401D01*
Y7732000D01*
X12158599Y7732000D01*
X12158599Y7657401D01*
D02*
G37*
G36*
X11994200D02*
X11864800Y7657401D01*
Y7732000D01*
X11994200D01*
Y7657401D01*
D02*
G37*
G36*
X12158599Y7627401D02*
X12158600Y7552801D01*
X12029200D01*
Y7627401D01*
X12158599Y7627401D01*
D02*
G37*
G36*
X11994200Y7552801D02*
X11864800D01*
X11864800Y7627401D01*
X11994200Y7627401D01*
Y7552801D01*
D02*
G37*
G36*
X12390200Y7531100D02*
X12273200D01*
Y7581900D01*
X12390200D01*
Y7531100D01*
D02*
G37*
G36*
X11836200D02*
X11719200D01*
Y7581900D01*
X11836200D01*
Y7531100D01*
D02*
G37*
G36*
X12705300Y7150100D02*
X12588300D01*
Y7200900D01*
X12705300D01*
Y7150100D01*
D02*
G37*
G36*
X12151300D02*
X12034300D01*
Y7200900D01*
X12151300D01*
Y7150100D01*
D02*
G37*
G36*
X12559700Y7104599D02*
X12430300D01*
Y7179199D01*
X12559700D01*
Y7104599D01*
D02*
G37*
G36*
X12395300D02*
X12265901D01*
X12265901Y7179199D01*
X12395300D01*
Y7104599D01*
D02*
G37*
G36*
X12705300Y7023100D02*
X12588300D01*
Y7073900D01*
X12705300D01*
Y7023100D01*
D02*
G37*
G36*
X12151300D02*
X12034300D01*
Y7073900D01*
X12151300D01*
Y7023100D01*
D02*
G37*
G36*
X12559700Y7000000D02*
X12430300D01*
Y7074599D01*
X12559700D01*
Y7000000D01*
D02*
G37*
G36*
X12395300D02*
X12265901D01*
Y7074599D01*
X12395300D01*
Y7000000D01*
D02*
G37*
G36*
X12705300Y6896100D02*
X12588300D01*
Y6946900D01*
X12705300D01*
Y6896100D01*
D02*
G37*
G36*
X12151300D02*
X12034300D01*
Y6946900D01*
X12151300D01*
Y6896100D01*
D02*
G37*
G36*
X12559700Y6895401D02*
X12430300D01*
Y6970000D01*
X12559700D01*
Y6895401D01*
D02*
G37*
G36*
X12395300D02*
X12265901D01*
Y6970000D01*
X12395300D01*
Y6895401D01*
D02*
G37*
G36*
X12559700Y6790801D02*
X12430300D01*
Y6865401D01*
X12559700D01*
Y6790801D01*
D02*
G37*
G36*
X12395300D02*
X12265901D01*
X12265901Y6865401D01*
X12395300D01*
Y6790801D01*
D02*
G37*
G36*
X12705300Y6769100D02*
X12588300D01*
Y6819900D01*
X12705300D01*
Y6769100D01*
D02*
G37*
G36*
X12151300D02*
X12034300D01*
Y6819900D01*
X12151300D01*
Y6769100D01*
D02*
G37*
G36*
X10836800Y6743700D02*
X10713800D01*
Y6866700D01*
X10836800D01*
Y6743700D01*
D02*
G37*
G36*
X10693800D02*
X10570800D01*
Y6866700D01*
X10693800D01*
Y6743700D01*
D02*
G37*
D17*
X12204700Y8107300D02*
D03*
Y8377300D02*
D03*
D18*
X11815700Y5232400D02*
D03*
X12085700D02*
D03*
X11069700Y7124700D02*
D03*
X10799700D02*
D03*
X10320400Y7048500D02*
D03*
X10050400D02*
D03*
X10799700Y7366000D02*
D03*
X11069700D02*
D03*
X10320400Y6807200D02*
D03*
X10050400D02*
D03*
D20*
X10646200Y7137400D02*
D03*
X10461200D02*
D03*
D21*
X11252200Y7293400D02*
D03*
Y7108400D02*
D03*
D64*
X10828800Y6538200D02*
D03*
X10778800D02*
D03*
X10728800D02*
D03*
X10678800D02*
D03*
X10628800D02*
D03*
X10578800D02*
D03*
Y6929200D02*
D03*
X10678800D02*
D03*
X10728800D02*
D03*
X10778800D02*
D03*
D65*
X10628800D02*
D03*
D66*
X10828800D02*
D03*
D67*
X10899300Y6858700D02*
D03*
Y6808700D02*
D03*
Y6758700D02*
D03*
Y6708700D02*
D03*
Y6658700D02*
D03*
Y6608700D02*
D03*
X10508300D02*
D03*
Y6658700D02*
D03*
Y6708700D02*
D03*
Y6758700D02*
D03*
Y6808700D02*
D03*
Y6858700D02*
D03*
D68*
X10337900Y6096000D02*
D03*
X10032900D02*
D03*
X10337900Y6388100D02*
D03*
X10032900D02*
D03*
D69*
X9715500Y6400900D02*
D03*
Y6095900D02*
D03*
Y6667400D02*
D03*
Y6972400D02*
D03*
%TF.MD5,fd5dd672978638d44b1dc162cc656bcf*%
M02*
