%TF.GenerationSoftware,Altium Limited,Altium Designer,23.11.1 (41)*%
G04 Layer_Color=255*
%FSLAX45Y45*%
%MOMM*%
%TF.SameCoordinates,9589A492-6763-4EC8-AB1B-249D9BE17554*%
%TF.FilePolarity,Positive*%
%TF.FileFunction,Pads,Top*%
%TF.Part,Single*%
G01*
G75*
%TA.AperFunction,SMDPad,CuDef*%
%ADD11R,2.80000X2.80000*%
G04:AMPARAMS|DCode=12|XSize=0.7mm|YSize=0.26mm|CornerRadius=0.0325mm|HoleSize=0mm|Usage=FLASHONLY|Rotation=270.000|XOffset=0mm|YOffset=0mm|HoleType=Round|Shape=RoundedRectangle|*
%AMROUNDEDRECTD12*
21,1,0.70000,0.19500,0,0,270.0*
21,1,0.63500,0.26000,0,0,270.0*
1,1,0.06500,-0.09750,-0.31750*
1,1,0.06500,-0.09750,0.31750*
1,1,0.06500,0.09750,0.31750*
1,1,0.06500,0.09750,-0.31750*
%
%ADD12ROUNDEDRECTD12*%
G04:AMPARAMS|DCode=13|XSize=0.81mm|YSize=0.26mm|CornerRadius=0.0325mm|HoleSize=0mm|Usage=FLASHONLY|Rotation=270.000|XOffset=0mm|YOffset=0mm|HoleType=Round|Shape=RoundedRectangle|*
%AMROUNDEDRECTD13*
21,1,0.81000,0.19500,0,0,270.0*
21,1,0.74500,0.26000,0,0,270.0*
1,1,0.06500,-0.09750,-0.37250*
1,1,0.06500,-0.09750,0.37250*
1,1,0.06500,0.09750,0.37250*
1,1,0.06500,0.09750,-0.37250*
%
%ADD13ROUNDEDRECTD13*%
G04:AMPARAMS|DCode=14|XSize=0.7mm|YSize=0.26mm|CornerRadius=0.0325mm|HoleSize=0mm|Usage=FLASHONLY|Rotation=0.000|XOffset=0mm|YOffset=0mm|HoleType=Round|Shape=RoundedRectangle|*
%AMROUNDEDRECTD14*
21,1,0.70000,0.19500,0,0,0.0*
21,1,0.63500,0.26000,0,0,0.0*
1,1,0.06500,0.31750,-0.09750*
1,1,0.06500,-0.31750,-0.09750*
1,1,0.06500,-0.31750,0.09750*
1,1,0.06500,0.31750,0.09750*
%
%ADD14ROUNDEDRECTD14*%
%TA.AperFunction,SMDPad,SMDef*%
%ADD15R,1.37200X0.71000*%
%TA.AperFunction,SMDPad,CuDef*%
%ADD16R,1.35000X1.85000*%
%ADD17R,1.40000X0.90000*%
%ADD18R,0.90000X1.40000*%
%ADD19R,1.85000X1.35000*%
%ADD20R,0.95000X1.40000*%
%ADD21R,1.40000X0.95000*%
%TA.AperFunction,ComponentPad*%
%ADD35R,6.00000X6.00000*%
%ADD36C,6.00000*%
%ADD37C,0.45000*%
%ADD38C,1.55000*%
%ADD39R,1.55000X1.55000*%
%TA.AperFunction,ViaPad*%
%ADD40C,4.00000*%
%TA.AperFunction,ComponentPad*%
%ADD41C,1.40000*%
%ADD42P,1.97990X4X90.0*%
%ADD43R,1.40000X1.40000*%
D11*
X10703800Y6733700D02*
D03*
D12*
X10828800Y6538200D02*
D03*
X10778800D02*
D03*
X10728800D02*
D03*
X10678800D02*
D03*
X10628800D02*
D03*
X10578800D02*
D03*
Y6929200D02*
D03*
X10678800D02*
D03*
X10728800D02*
D03*
X10778800D02*
D03*
X10828800D02*
D03*
D13*
X10628800D02*
D03*
D14*
X10899300Y6858700D02*
D03*
Y6808700D02*
D03*
Y6758700D02*
D03*
Y6708700D02*
D03*
Y6658700D02*
D03*
Y6608700D02*
D03*
X10508300D02*
D03*
Y6658700D02*
D03*
Y6708700D02*
D03*
Y6758700D02*
D03*
Y6808700D02*
D03*
Y6858700D02*
D03*
D15*
X12090400Y6540500D02*
D03*
Y6413500D02*
D03*
Y6286500D02*
D03*
Y6159500D02*
D03*
X12644400D02*
D03*
Y6286500D02*
D03*
Y6413500D02*
D03*
Y6540500D02*
D03*
X12646800Y7175500D02*
D03*
Y7048500D02*
D03*
Y6921500D02*
D03*
Y6794500D02*
D03*
X12092800D02*
D03*
Y6921500D02*
D03*
Y7048500D02*
D03*
Y7175500D02*
D03*
X12331700Y7556500D02*
D03*
Y7683500D02*
D03*
Y7810500D02*
D03*
Y7937500D02*
D03*
X11777700D02*
D03*
Y7810500D02*
D03*
Y7683500D02*
D03*
Y7556500D02*
D03*
X11815800Y5422900D02*
D03*
Y5549900D02*
D03*
Y5676899D02*
D03*
Y5803900D02*
D03*
X12369800D02*
D03*
Y5676899D02*
D03*
Y5549900D02*
D03*
Y5422900D02*
D03*
D16*
X10337900Y6096000D02*
D03*
X10032900D02*
D03*
X10337900Y6388100D02*
D03*
X10032900D02*
D03*
D17*
X12204700Y8107300D02*
D03*
Y8377300D02*
D03*
D18*
X11815700Y5232400D02*
D03*
X12085700D02*
D03*
X11069700Y7124700D02*
D03*
X10799700D02*
D03*
X10320400Y7048500D02*
D03*
X10050400D02*
D03*
X10799700Y7366000D02*
D03*
X11069700D02*
D03*
X10320400Y6807200D02*
D03*
X10050400D02*
D03*
D19*
X9715500Y6400900D02*
D03*
Y6095900D02*
D03*
Y6667400D02*
D03*
Y6972400D02*
D03*
D20*
X10646200Y7137400D02*
D03*
X10461200D02*
D03*
D21*
X11252200Y7293400D02*
D03*
Y7108400D02*
D03*
D35*
X13233400Y7573600D02*
D03*
X9461500Y8962300D02*
D03*
D36*
X13233400Y6853600D02*
D03*
X9461500Y8242300D02*
D03*
D37*
X10703800Y6835300D02*
D03*
X10602200Y6733700D02*
D03*
X10703800Y6632100D02*
D03*
X10805400Y6733700D02*
D03*
X10703800D02*
D03*
D38*
X9194800Y6985000D02*
D03*
Y6477000D02*
D03*
Y6731000D02*
D03*
Y7239001D02*
D03*
Y7493000D02*
D03*
D39*
Y6223000D02*
D03*
D40*
X9100000Y5300000D02*
D03*
X13600000D02*
D03*
Y9300000D02*
D03*
D41*
X11709400Y8775700D02*
D03*
X10452100Y8449500D02*
D03*
D42*
X11355846Y8422146D02*
D03*
D43*
X10452100Y8949500D02*
D03*
%TF.MD5,bc81bf01590489a244dcf434a984fa5c*%
M02*
