%TF.GenerationSoftware,Altium Limited,Altium Designer,23.11.1 (41)*%
G04 Layer_Color=32896*
%FSLAX45Y45*%
%MOMM*%
%TF.SameCoordinates,A6B11647-BF3E-408F-97BC-6FD3C0C44D07*%
%TF.FilePolarity,Positive*%
%TF.FileFunction,Legend,Bot*%
%TF.Part,Single*%
G01*
G75*
%TA.AperFunction,NonConductor*%
%ADD43C,0.20000*%
G36*
X10426700Y5188291D02*
X10187455D01*
Y5276509D01*
X10426700D01*
Y5188291D01*
D02*
G37*
G36*
X10619179Y5367537D02*
X10611274D01*
Y5374541D01*
X10619179D01*
Y5367537D01*
D02*
G37*
G36*
X10655653Y5362683D02*
X10657734Y5362337D01*
X10658704Y5362059D01*
X10659536Y5361782D01*
X10660369Y5361505D01*
X10661062Y5361227D01*
X10661686Y5360881D01*
X10662310Y5360603D01*
X10662796Y5360326D01*
X10663142Y5360048D01*
X10663489Y5359840D01*
X10663697Y5359702D01*
X10663836Y5359632D01*
X10663905Y5359563D01*
X10664460Y5359078D01*
X10664876Y5358662D01*
X10665639Y5357621D01*
X10666124Y5356651D01*
X10666540Y5355749D01*
X10666748Y5354917D01*
X10666817Y5354293D01*
X10666887Y5353808D01*
Y5353738D01*
Y5353669D01*
X10666748Y5352421D01*
X10666471Y5351311D01*
X10666055Y5350271D01*
X10665569Y5349439D01*
X10665084Y5348746D01*
X10664668Y5348260D01*
X10664390Y5347983D01*
X10664252Y5347844D01*
X10663697Y5347428D01*
X10663004Y5347012D01*
X10662310Y5346665D01*
X10661478Y5346388D01*
X10659744Y5345833D01*
X10657942Y5345348D01*
X10657109Y5345209D01*
X10656277Y5345071D01*
X10655584Y5344932D01*
X10654960Y5344793D01*
X10654405Y5344724D01*
X10653989D01*
X10653712Y5344655D01*
X10653642D01*
X10652672Y5344516D01*
X10651770Y5344447D01*
X10651007Y5344308D01*
X10650314Y5344169D01*
X10649621Y5344030D01*
X10649066Y5343892D01*
X10648095Y5343684D01*
X10647402Y5343476D01*
X10646916Y5343337D01*
X10646639Y5343268D01*
X10646570Y5343198D01*
X10646015Y5342852D01*
X10645599Y5342505D01*
X10645252Y5342158D01*
X10645044Y5341812D01*
X10644905Y5341534D01*
X10644836Y5341257D01*
Y5341118D01*
Y5341049D01*
X10644905Y5340771D01*
X10645044Y5340494D01*
X10645460Y5340009D01*
X10645876Y5339731D01*
X10646015Y5339593D01*
X10646084D01*
X10647124Y5339107D01*
X10648234Y5338760D01*
X10649413Y5338552D01*
X10650522Y5338414D01*
X10651562Y5338275D01*
X10652325Y5338206D01*
X10654128D01*
X10655029Y5338275D01*
X10655861Y5338414D01*
X10656555Y5338552D01*
X10657179Y5338622D01*
X10657595Y5338760D01*
X10657942Y5338830D01*
X10658011D01*
X10658774Y5339107D01*
X10659467Y5339454D01*
X10660091Y5339731D01*
X10660646Y5340078D01*
X10661062Y5340355D01*
X10661339Y5340563D01*
X10661547Y5340702D01*
X10661617Y5340771D01*
X10661825Y5341326D01*
X10662033Y5341812D01*
X10662241Y5342228D01*
X10662449Y5342505D01*
X10662657Y5342782D01*
X10662796Y5342921D01*
X10662865Y5343060D01*
X10662934D01*
X10663558Y5343476D01*
X10664252Y5343684D01*
X10664529Y5343753D01*
X10664945D01*
X10665431Y5343684D01*
X10665916Y5343614D01*
X10666679Y5343268D01*
X10666956Y5343060D01*
X10667164Y5342852D01*
X10667233Y5342782D01*
X10667303Y5342713D01*
X10667580Y5342297D01*
X10667788Y5341742D01*
X10668066Y5340633D01*
X10668135Y5340147D01*
X10668204Y5339731D01*
Y5339454D01*
Y5339315D01*
Y5337027D01*
X10668135Y5336195D01*
X10668066Y5335501D01*
X10667927Y5334947D01*
X10667719Y5334461D01*
X10667580Y5334115D01*
X10667441Y5333837D01*
X10667372Y5333699D01*
X10667303Y5333629D01*
X10666956Y5333282D01*
X10666540Y5333074D01*
X10665777Y5332797D01*
X10665431Y5332728D01*
X10665153Y5332658D01*
X10664876D01*
X10664460Y5332728D01*
X10664044Y5332797D01*
X10663766Y5332866D01*
X10663697D01*
X10663281Y5333074D01*
X10662934Y5333282D01*
X10662726Y5333490D01*
X10662657Y5333560D01*
X10661131Y5332936D01*
X10660369Y5332728D01*
X10659675Y5332520D01*
X10659120Y5332381D01*
X10658635Y5332242D01*
X10658358Y5332173D01*
X10658219D01*
X10656347Y5331826D01*
X10655445Y5331757D01*
X10654613Y5331688D01*
X10653920Y5331618D01*
X10652880D01*
X10651562Y5331688D01*
X10650314Y5331757D01*
X10649135Y5331965D01*
X10648026Y5332173D01*
X10647055Y5332381D01*
X10646084Y5332728D01*
X10645183Y5333005D01*
X10644420Y5333352D01*
X10643726Y5333629D01*
X10643102Y5333976D01*
X10642548Y5334253D01*
X10642132Y5334461D01*
X10641785Y5334739D01*
X10641508Y5334877D01*
X10641369Y5334947D01*
X10641300Y5335016D01*
X10640745Y5335501D01*
X10640259Y5335987D01*
X10639427Y5336958D01*
X10638873Y5337998D01*
X10638526Y5338899D01*
X10638248Y5339731D01*
X10638179Y5340425D01*
X10638110Y5340841D01*
Y5340910D01*
Y5340979D01*
X10638179Y5341950D01*
X10638387Y5342852D01*
X10638734Y5343684D01*
X10639011Y5344447D01*
X10639358Y5345071D01*
X10639705Y5345487D01*
X10639913Y5345833D01*
X10639982Y5345903D01*
X10640745Y5346735D01*
X10641577Y5347498D01*
X10642478Y5348052D01*
X10643310Y5348607D01*
X10644073Y5349023D01*
X10644697Y5349300D01*
X10645113Y5349439D01*
X10645183Y5349508D01*
X10645252D01*
X10645807Y5349647D01*
X10646361Y5349855D01*
X10647748Y5350202D01*
X10649274Y5350479D01*
X10650799Y5350757D01*
X10652186Y5350965D01*
X10652810Y5351103D01*
X10653365Y5351173D01*
X10653781Y5351242D01*
X10654128D01*
X10654336Y5351311D01*
X10654405D01*
X10655584Y5351519D01*
X10656624Y5351658D01*
X10657387Y5351866D01*
X10658011Y5352005D01*
X10658496Y5352074D01*
X10658774Y5352213D01*
X10658912Y5352282D01*
X10658982D01*
X10659398Y5352560D01*
X10659744Y5352837D01*
X10659953Y5353045D01*
X10660161Y5353253D01*
X10660299Y5353600D01*
Y5353738D01*
X10660230Y5353946D01*
X10660161Y5354154D01*
X10659814Y5354570D01*
X10659467Y5354848D01*
X10659398Y5354917D01*
X10659328D01*
X10658427Y5355333D01*
X10657456Y5355680D01*
X10656416Y5355888D01*
X10655445Y5356096D01*
X10654544Y5356165D01*
X10653850Y5356235D01*
X10653226D01*
X10651840Y5356165D01*
X10651215Y5356096D01*
X10650661Y5355957D01*
X10650175Y5355888D01*
X10649829Y5355749D01*
X10649621Y5355680D01*
X10649551D01*
X10648234Y5355264D01*
X10647679Y5354986D01*
X10647194Y5354778D01*
X10646778Y5354570D01*
X10646431Y5354362D01*
X10646223Y5354293D01*
X10646153Y5354224D01*
X10645876Y5353392D01*
X10645460Y5352768D01*
X10645113Y5352352D01*
X10645044Y5352282D01*
X10644975Y5352213D01*
X10644281Y5351797D01*
X10643588Y5351589D01*
X10643310D01*
X10643102Y5351519D01*
X10642894D01*
X10642270Y5351589D01*
X10641716Y5351727D01*
X10641230Y5352005D01*
X10640814Y5352282D01*
X10640467Y5352490D01*
X10640259Y5352768D01*
X10640121Y5352906D01*
X10640051Y5352976D01*
X10639843Y5353322D01*
X10639705Y5353738D01*
X10639566Y5354709D01*
X10639497Y5355195D01*
Y5355541D01*
Y5355819D01*
Y5355888D01*
Y5357552D01*
X10639566Y5358384D01*
X10639635Y5359078D01*
X10639774Y5359632D01*
X10639982Y5360118D01*
X10640190Y5360465D01*
X10640329Y5360742D01*
X10640398Y5360881D01*
X10640467Y5360950D01*
X10640814Y5361297D01*
X10641161Y5361574D01*
X10641577Y5361713D01*
X10641924Y5361851D01*
X10642201Y5361921D01*
X10642478Y5361990D01*
X10642686D01*
X10643033Y5361921D01*
X10643380Y5361851D01*
X10643657Y5361782D01*
X10643726Y5361713D01*
X10644073Y5361505D01*
X10644489Y5361297D01*
X10644697Y5361089D01*
X10644836Y5361019D01*
X10646292Y5361574D01*
X10646986Y5361851D01*
X10647610Y5361990D01*
X10648164Y5362129D01*
X10648580Y5362267D01*
X10648858Y5362337D01*
X10648927D01*
X10650453Y5362614D01*
X10651215Y5362683D01*
X10651909Y5362753D01*
X10652464Y5362822D01*
X10654474D01*
X10655653Y5362683D01*
D02*
G37*
G36*
X10577089Y5362822D02*
X10578268Y5362683D01*
X10579377Y5362475D01*
X10580417Y5362198D01*
X10581457Y5361851D01*
X10582359Y5361435D01*
X10583260Y5361089D01*
X10584023Y5360673D01*
X10584716Y5360187D01*
X10585341Y5359840D01*
X10585895Y5359424D01*
X10586311Y5359078D01*
X10586658Y5358800D01*
X10586935Y5358592D01*
X10587074Y5358454D01*
X10587143Y5358384D01*
X10587906Y5357552D01*
X10588600Y5356581D01*
X10589224Y5355680D01*
X10589778Y5354709D01*
X10590194Y5353808D01*
X10590541Y5352906D01*
X10591096Y5351103D01*
X10591304Y5350341D01*
X10591443Y5349578D01*
X10591512Y5348884D01*
X10591581Y5348330D01*
X10591651Y5347844D01*
Y5347498D01*
Y5347290D01*
Y5347220D01*
X10591581Y5345972D01*
X10591443Y5344863D01*
X10591235Y5343753D01*
X10590957Y5342644D01*
X10590611Y5341673D01*
X10590194Y5340771D01*
X10589848Y5339939D01*
X10589362Y5339177D01*
X10588946Y5338483D01*
X10588600Y5337859D01*
X10588184Y5337304D01*
X10587837Y5336888D01*
X10587559Y5336542D01*
X10587351Y5336264D01*
X10587213Y5336125D01*
X10587143Y5336056D01*
X10586242Y5335293D01*
X10585341Y5334600D01*
X10584370Y5333976D01*
X10583468Y5333490D01*
X10582498Y5333074D01*
X10581527Y5332728D01*
X10579793Y5332173D01*
X10578961Y5331965D01*
X10578198Y5331826D01*
X10577505Y5331757D01*
X10576950Y5331688D01*
X10576465Y5331618D01*
X10575841D01*
X10574107Y5331757D01*
X10573344Y5331826D01*
X10572651Y5331965D01*
X10572027Y5332104D01*
X10571611Y5332173D01*
X10571264Y5332312D01*
X10571195D01*
X10569531Y5332936D01*
X10568768Y5333282D01*
X10568074Y5333629D01*
X10567520Y5333907D01*
X10567034Y5334184D01*
X10566757Y5334323D01*
X10566688Y5334392D01*
Y5331272D01*
X10566757Y5330370D01*
X10566965Y5329538D01*
X10567242Y5328845D01*
X10567520Y5328290D01*
X10567797Y5327804D01*
X10568074Y5327388D01*
X10568282Y5327180D01*
X10568352Y5327111D01*
X10569045Y5326556D01*
X10569808Y5326140D01*
X10570571Y5325863D01*
X10571333Y5325655D01*
X10572027Y5325516D01*
X10572582Y5325447D01*
X10580417D01*
X10581249Y5325377D01*
X10581943Y5325308D01*
X10582498Y5325169D01*
X10582983Y5325031D01*
X10583330Y5324823D01*
X10583607Y5324684D01*
X10583746Y5324615D01*
X10583815Y5324545D01*
X10584162Y5324199D01*
X10584370Y5323783D01*
X10584647Y5323020D01*
X10584716Y5322673D01*
X10584786Y5322465D01*
Y5322257D01*
Y5322188D01*
X10584716Y5321702D01*
X10584647Y5321217D01*
X10584300Y5320454D01*
X10584092Y5320177D01*
X10583954Y5319969D01*
X10583884Y5319899D01*
X10583815Y5319830D01*
X10583399Y5319483D01*
X10582844Y5319275D01*
X10581735Y5318998D01*
X10581249Y5318929D01*
X10580833Y5318859D01*
X10572928D01*
X10571541Y5318929D01*
X10570224Y5319137D01*
X10569114Y5319483D01*
X10568074Y5319830D01*
X10567242Y5320177D01*
X10566688Y5320524D01*
X10566271Y5320732D01*
X10566133Y5320801D01*
X10565093Y5321564D01*
X10564122Y5322326D01*
X10563359Y5323020D01*
X10562735Y5323783D01*
X10562250Y5324407D01*
X10561903Y5324892D01*
X10561695Y5325169D01*
X10561626Y5325308D01*
X10561140Y5326279D01*
X10560724Y5327319D01*
X10560447Y5328359D01*
X10560308Y5329261D01*
X10560169Y5330093D01*
X10560100Y5330786D01*
Y5331202D01*
Y5331272D01*
Y5331341D01*
Y5355403D01*
X10558991D01*
X10558158Y5355472D01*
X10557396Y5355541D01*
X10556841Y5355680D01*
X10556356Y5355888D01*
X10556009Y5356027D01*
X10555731Y5356165D01*
X10555593Y5356235D01*
X10555523Y5356304D01*
X10555177Y5356651D01*
X10554899Y5357067D01*
X10554761Y5357483D01*
X10554622Y5357830D01*
X10554553Y5358176D01*
X10554483Y5358454D01*
Y5358592D01*
Y5358662D01*
X10554553Y5359216D01*
X10554622Y5359632D01*
X10554969Y5360395D01*
X10555177Y5360673D01*
X10555385Y5360881D01*
X10555454Y5360950D01*
X10555523Y5361019D01*
X10555940Y5361366D01*
X10556494Y5361574D01*
X10557673Y5361851D01*
X10558158Y5361921D01*
X10558575Y5361990D01*
X10566688D01*
Y5360048D01*
X10568213Y5360950D01*
X10568976Y5361297D01*
X10569669Y5361643D01*
X10570224Y5361851D01*
X10570640Y5361990D01*
X10570917Y5362129D01*
X10571056D01*
X10571888Y5362406D01*
X10572790Y5362545D01*
X10573552Y5362683D01*
X10574315Y5362822D01*
X10574939D01*
X10575425Y5362891D01*
X10575841D01*
X10577089Y5362822D01*
D02*
G37*
G36*
X10392570Y5374472D02*
X10393333Y5374402D01*
X10393957Y5374264D01*
X10394442Y5374056D01*
X10394789Y5373848D01*
X10395066Y5373709D01*
X10395205Y5373639D01*
X10395274Y5373570D01*
X10395621Y5373223D01*
X10395829Y5372807D01*
X10396106Y5372045D01*
X10396176Y5371698D01*
X10396245Y5371490D01*
Y5371282D01*
Y5371213D01*
X10396176Y5370727D01*
X10396106Y5370242D01*
X10395759Y5369479D01*
X10395551Y5369202D01*
X10395413Y5368994D01*
X10395343Y5368924D01*
X10395274Y5368855D01*
X10394789Y5368578D01*
X10394303Y5368370D01*
X10393125Y5368092D01*
X10392570Y5368023D01*
X10392154Y5367953D01*
X10390628D01*
Y5339246D01*
X10391738D01*
X10392570Y5339177D01*
X10393333Y5339107D01*
X10393957Y5338968D01*
X10394442Y5338760D01*
X10394789Y5338552D01*
X10395066Y5338414D01*
X10395205Y5338344D01*
X10395274Y5338275D01*
X10395621Y5337928D01*
X10395829Y5337512D01*
X10396106Y5336750D01*
X10396176Y5336403D01*
X10396245Y5336195D01*
Y5335987D01*
Y5335917D01*
X10396176Y5335432D01*
X10396106Y5334947D01*
X10395759Y5334184D01*
X10395551Y5333907D01*
X10395413Y5333699D01*
X10395343Y5333629D01*
X10395274Y5333560D01*
X10394789Y5333282D01*
X10394303Y5333074D01*
X10393125Y5332797D01*
X10392570Y5332728D01*
X10392154Y5332658D01*
X10384041D01*
Y5334253D01*
X10382307Y5333421D01*
X10381544Y5333074D01*
X10380851Y5332797D01*
X10380227Y5332589D01*
X10379741Y5332450D01*
X10379464Y5332312D01*
X10379325D01*
X10377523Y5331896D01*
X10376621Y5331757D01*
X10375858Y5331688D01*
X10375165D01*
X10374680Y5331618D01*
X10374194D01*
X10372807Y5331688D01*
X10371559Y5331826D01*
X10370311Y5332034D01*
X10369202Y5332312D01*
X10368092Y5332589D01*
X10367121Y5333005D01*
X10366220Y5333352D01*
X10365388Y5333768D01*
X10364694Y5334184D01*
X10364001Y5334531D01*
X10363515Y5334947D01*
X10363030Y5335224D01*
X10362683Y5335501D01*
X10362406Y5335709D01*
X10362267Y5335848D01*
X10362198Y5335917D01*
X10361366Y5336750D01*
X10360672Y5337582D01*
X10360048Y5338483D01*
X10359563Y5339385D01*
X10359078Y5340286D01*
X10358731Y5341187D01*
X10358176Y5342852D01*
X10357968Y5343614D01*
X10357829Y5344377D01*
X10357760Y5345001D01*
X10357691Y5345556D01*
X10357621Y5345972D01*
Y5346319D01*
Y5346527D01*
Y5346596D01*
X10357691Y5347844D01*
X10357829Y5349023D01*
X10358037Y5350133D01*
X10358384Y5351242D01*
X10358731Y5352213D01*
X10359147Y5353184D01*
X10359563Y5354016D01*
X10359979Y5354848D01*
X10360464Y5355541D01*
X10360880Y5356165D01*
X10361297Y5356720D01*
X10361643Y5357205D01*
X10361990Y5357552D01*
X10362198Y5357830D01*
X10362337Y5357968D01*
X10362406Y5358038D01*
X10363307Y5358870D01*
X10364278Y5359632D01*
X10365249Y5360256D01*
X10366220Y5360811D01*
X10367260Y5361297D01*
X10368231Y5361643D01*
X10369132Y5361990D01*
X10370034Y5362198D01*
X10370935Y5362406D01*
X10371698Y5362545D01*
X10372391Y5362683D01*
X10372946Y5362753D01*
X10373431Y5362822D01*
X10375026D01*
X10375997Y5362683D01*
X10376829Y5362545D01*
X10377592Y5362406D01*
X10378216Y5362267D01*
X10378771Y5362129D01*
X10379048Y5362059D01*
X10379187Y5361990D01*
X10380088Y5361643D01*
X10380990Y5361297D01*
X10381822Y5360881D01*
X10382515Y5360534D01*
X10383139Y5360187D01*
X10383625Y5359910D01*
X10383902Y5359702D01*
X10384041Y5359632D01*
Y5374541D01*
X10391738D01*
X10392570Y5374472D01*
D02*
G37*
G36*
X10352074Y5361921D02*
X10352837Y5361851D01*
X10353392Y5361713D01*
X10353877Y5361505D01*
X10354224Y5361297D01*
X10354501Y5361158D01*
X10354640Y5361089D01*
X10354709Y5361019D01*
X10355056Y5360673D01*
X10355264Y5360256D01*
X10355541Y5359494D01*
X10355610Y5359147D01*
X10355680Y5358939D01*
Y5358731D01*
Y5358662D01*
X10355610Y5358176D01*
X10355541Y5357691D01*
X10355194Y5356928D01*
X10354986Y5356651D01*
X10354848Y5356443D01*
X10354778Y5356373D01*
X10354709Y5356304D01*
X10354293Y5356027D01*
X10353738Y5355819D01*
X10352559Y5355541D01*
X10352074Y5355472D01*
X10351658Y5355403D01*
X10351242D01*
X10339731Y5332797D01*
X10343476Y5325447D01*
X10350063D01*
X10350895Y5325377D01*
X10351658Y5325308D01*
X10352282Y5325169D01*
X10352767Y5325031D01*
X10353114Y5324823D01*
X10353392Y5324684D01*
X10353530Y5324615D01*
X10353600Y5324545D01*
X10353946Y5324199D01*
X10354154Y5323783D01*
X10354432Y5323020D01*
X10354501Y5322673D01*
X10354570Y5322465D01*
Y5322257D01*
Y5322188D01*
X10354501Y5321702D01*
X10354432Y5321217D01*
X10354085Y5320454D01*
X10353877Y5320177D01*
X10353738Y5319969D01*
X10353669Y5319899D01*
X10353600Y5319830D01*
X10353114Y5319483D01*
X10352629Y5319275D01*
X10351450Y5318998D01*
X10350895Y5318929D01*
X10350479Y5318859D01*
X10333629D01*
X10332728Y5318929D01*
X10332034Y5318998D01*
X10331410Y5319137D01*
X10330925Y5319345D01*
X10330578Y5319553D01*
X10330301Y5319691D01*
X10330162Y5319761D01*
X10330093Y5319830D01*
X10329746Y5320177D01*
X10329469Y5320593D01*
X10329330Y5321009D01*
X10329191Y5321356D01*
X10329122Y5321702D01*
X10329052Y5321980D01*
Y5322118D01*
Y5322188D01*
X10329122Y5322742D01*
X10329399Y5323297D01*
X10329677Y5323852D01*
X10330093Y5324337D01*
X10330439Y5324823D01*
X10330786Y5325169D01*
X10331063Y5325377D01*
X10331133Y5325447D01*
X10336125D01*
X10320870Y5355403D01*
X10320038Y5355472D01*
X10319275Y5355541D01*
X10318721Y5355680D01*
X10318235Y5355888D01*
X10317888Y5356027D01*
X10317611Y5356165D01*
X10317472Y5356235D01*
X10317403Y5356304D01*
X10317056Y5356651D01*
X10316779Y5357067D01*
X10316640Y5357483D01*
X10316502Y5357830D01*
X10316432Y5358176D01*
X10316363Y5358454D01*
Y5358592D01*
Y5358662D01*
X10316432Y5359216D01*
X10316502Y5359632D01*
X10316848Y5360395D01*
X10317056Y5360673D01*
X10317264Y5360881D01*
X10317334Y5360950D01*
X10317403Y5361019D01*
X10317819Y5361366D01*
X10318374Y5361574D01*
X10319553Y5361851D01*
X10320038Y5361921D01*
X10320454Y5361990D01*
X10328290D01*
X10329122Y5361921D01*
X10329885Y5361851D01*
X10330439Y5361713D01*
X10330925Y5361505D01*
X10331271Y5361297D01*
X10331549Y5361158D01*
X10331687Y5361089D01*
X10331757Y5361019D01*
X10332104Y5360673D01*
X10332312Y5360256D01*
X10332589Y5359494D01*
X10332658Y5359147D01*
X10332728Y5358939D01*
Y5358731D01*
Y5358662D01*
X10332658Y5358176D01*
X10332589Y5357691D01*
X10332242Y5356928D01*
X10332034Y5356651D01*
X10331896Y5356443D01*
X10331826Y5356373D01*
X10331757Y5356304D01*
X10331341Y5356027D01*
X10330786Y5355819D01*
X10329607Y5355541D01*
X10329122Y5355472D01*
X10328706Y5355403D01*
X10328290D01*
X10336056Y5340078D01*
X10343822Y5355403D01*
X10342990Y5355472D01*
X10342227Y5355541D01*
X10341673Y5355680D01*
X10341187Y5355888D01*
X10340841Y5356027D01*
X10340563Y5356165D01*
X10340425Y5356235D01*
X10340355Y5356304D01*
X10340009Y5356651D01*
X10339731Y5357067D01*
X10339592Y5357483D01*
X10339454Y5357830D01*
X10339384Y5358176D01*
X10339315Y5358454D01*
Y5358592D01*
Y5358662D01*
X10339384Y5359216D01*
X10339454Y5359632D01*
X10339801Y5360395D01*
X10340009Y5360673D01*
X10340217Y5360881D01*
X10340286Y5360950D01*
X10340355Y5361019D01*
X10340771Y5361366D01*
X10341326Y5361574D01*
X10342505Y5361851D01*
X10342990Y5361921D01*
X10343406Y5361990D01*
X10351242D01*
X10352074Y5361921D01*
D02*
G37*
G36*
X10694901Y5362753D02*
X10696080Y5362614D01*
X10697259Y5362406D01*
X10698368Y5362129D01*
X10700379Y5361435D01*
X10701280Y5361019D01*
X10702112Y5360673D01*
X10702875Y5360256D01*
X10703499Y5359840D01*
X10704123Y5359494D01*
X10704609Y5359147D01*
X10705025Y5358870D01*
X10705302Y5358662D01*
X10705441Y5358523D01*
X10705510Y5358454D01*
X10706412Y5357621D01*
X10707174Y5356720D01*
X10707868Y5355819D01*
X10708492Y5354848D01*
X10708977Y5353877D01*
X10709393Y5352906D01*
X10709740Y5352005D01*
X10710017Y5351103D01*
X10710225Y5350271D01*
X10710364Y5349508D01*
X10710503Y5348815D01*
X10710572Y5348260D01*
Y5347775D01*
X10710642Y5347359D01*
Y5347151D01*
Y5347082D01*
X10710572Y5345903D01*
X10710433Y5344724D01*
X10710225Y5343614D01*
X10709879Y5342644D01*
X10709116Y5340702D01*
X10708700Y5339870D01*
X10708284Y5339107D01*
X10707868Y5338414D01*
X10707382Y5337859D01*
X10707036Y5337304D01*
X10706689Y5336888D01*
X10706342Y5336542D01*
X10706134Y5336264D01*
X10705996Y5336125D01*
X10705926Y5336056D01*
X10705025Y5335293D01*
X10703985Y5334600D01*
X10702945Y5333976D01*
X10701904Y5333490D01*
X10700864Y5333074D01*
X10699824Y5332728D01*
X10697813Y5332173D01*
X10696842Y5331965D01*
X10696010Y5331826D01*
X10695248Y5331757D01*
X10694554Y5331688D01*
X10693999Y5331618D01*
X10693237D01*
X10691503Y5331688D01*
X10689770Y5331757D01*
X10688175Y5331965D01*
X10686649Y5332173D01*
X10686025Y5332242D01*
X10685401Y5332312D01*
X10684916Y5332450D01*
X10684430Y5332520D01*
X10684084Y5332589D01*
X10683806D01*
X10683667Y5332658D01*
X10683598D01*
X10682697Y5332866D01*
X10681865Y5333074D01*
X10681171Y5333282D01*
X10680478Y5333490D01*
X10679923Y5333699D01*
X10679438Y5333907D01*
X10678536Y5334253D01*
X10677981Y5334531D01*
X10677565Y5334739D01*
X10677357Y5334877D01*
X10677288Y5334947D01*
X10676941Y5335293D01*
X10676733Y5335640D01*
X10676456Y5336333D01*
X10676387Y5336680D01*
X10676317Y5336888D01*
Y5337027D01*
Y5337096D01*
X10676387Y5337651D01*
X10676456Y5338067D01*
X10676803Y5338830D01*
X10677011Y5339107D01*
X10677149Y5339315D01*
X10677219Y5339385D01*
X10677288Y5339454D01*
X10677635Y5339801D01*
X10677981Y5340009D01*
X10678744Y5340286D01*
X10679022Y5340355D01*
X10679299Y5340425D01*
X10679923D01*
X10680478Y5340286D01*
X10681587Y5340078D01*
X10682142Y5339939D01*
X10682558Y5339870D01*
X10682835Y5339731D01*
X10682974D01*
X10685124Y5339246D01*
X10687065Y5338830D01*
X10688729Y5338552D01*
X10689492Y5338483D01*
X10690116Y5338414D01*
X10690740Y5338344D01*
X10691295Y5338275D01*
X10691711D01*
X10692058Y5338206D01*
X10692751D01*
X10694346Y5338275D01*
X10695733Y5338414D01*
X10696981Y5338691D01*
X10698021Y5338968D01*
X10698853Y5339246D01*
X10699408Y5339523D01*
X10699755Y5339662D01*
X10699894Y5339731D01*
X10700795Y5340355D01*
X10701558Y5341049D01*
X10702182Y5341742D01*
X10702667Y5342436D01*
X10703083Y5343060D01*
X10703291Y5343545D01*
X10703430Y5343822D01*
X10703499Y5343961D01*
X10676317D01*
X10676387Y5346735D01*
X10676456Y5347914D01*
X10676525Y5348954D01*
X10676733Y5349925D01*
X10676872Y5350757D01*
X10677080Y5351450D01*
X10677288Y5352005D01*
X10677357Y5352282D01*
X10677427Y5352421D01*
X10678051Y5353669D01*
X10678675Y5354778D01*
X10679299Y5355819D01*
X10679923Y5356651D01*
X10680408Y5357344D01*
X10680824Y5357899D01*
X10681171Y5358176D01*
X10681241Y5358315D01*
X10681934Y5358939D01*
X10682697Y5359494D01*
X10683598Y5360048D01*
X10684361Y5360465D01*
X10685124Y5360811D01*
X10685748Y5361158D01*
X10686164Y5361297D01*
X10686233Y5361366D01*
X10686302D01*
X10687551Y5361851D01*
X10688868Y5362198D01*
X10690116Y5362475D01*
X10691226Y5362614D01*
X10692197Y5362753D01*
X10692959Y5362822D01*
X10693653D01*
X10694901Y5362753D01*
D02*
G37*
G36*
X10496583D02*
X10497762Y5362614D01*
X10498940Y5362406D01*
X10500050Y5362129D01*
X10502061Y5361435D01*
X10502962Y5361019D01*
X10503794Y5360673D01*
X10504557Y5360256D01*
X10505181Y5359840D01*
X10505805Y5359494D01*
X10506291Y5359147D01*
X10506707Y5358870D01*
X10506984Y5358662D01*
X10507123Y5358523D01*
X10507192Y5358454D01*
X10508094Y5357621D01*
X10508856Y5356720D01*
X10509550Y5355819D01*
X10510174Y5354848D01*
X10510659Y5353877D01*
X10511075Y5352906D01*
X10511422Y5352005D01*
X10511699Y5351103D01*
X10511907Y5350271D01*
X10512046Y5349508D01*
X10512185Y5348815D01*
X10512254Y5348260D01*
Y5347775D01*
X10512323Y5347359D01*
Y5347151D01*
Y5347082D01*
X10512254Y5345903D01*
X10512115Y5344724D01*
X10511907Y5343614D01*
X10511561Y5342644D01*
X10510798Y5340702D01*
X10510382Y5339870D01*
X10509966Y5339107D01*
X10509550Y5338414D01*
X10509064Y5337859D01*
X10508718Y5337304D01*
X10508371Y5336888D01*
X10508024Y5336542D01*
X10507816Y5336264D01*
X10507677Y5336125D01*
X10507608Y5336056D01*
X10506707Y5335293D01*
X10505667Y5334600D01*
X10504626Y5333976D01*
X10503586Y5333490D01*
X10502546Y5333074D01*
X10501506Y5332728D01*
X10499495Y5332173D01*
X10498524Y5331965D01*
X10497692Y5331826D01*
X10496929Y5331757D01*
X10496236Y5331688D01*
X10495681Y5331618D01*
X10494919D01*
X10493185Y5331688D01*
X10491451Y5331757D01*
X10489857Y5331965D01*
X10488331Y5332173D01*
X10487707Y5332242D01*
X10487083Y5332312D01*
X10486598Y5332450D01*
X10486112Y5332520D01*
X10485765Y5332589D01*
X10485488D01*
X10485349Y5332658D01*
X10485280D01*
X10484379Y5332866D01*
X10483546Y5333074D01*
X10482853Y5333282D01*
X10482160Y5333490D01*
X10481605Y5333699D01*
X10481119Y5333907D01*
X10480218Y5334253D01*
X10479663Y5334531D01*
X10479247Y5334739D01*
X10479039Y5334877D01*
X10478970Y5334947D01*
X10478623Y5335293D01*
X10478415Y5335640D01*
X10478138Y5336333D01*
X10478068Y5336680D01*
X10477999Y5336888D01*
Y5337027D01*
Y5337096D01*
X10478068Y5337651D01*
X10478138Y5338067D01*
X10478485Y5338830D01*
X10478693Y5339107D01*
X10478831Y5339315D01*
X10478901Y5339385D01*
X10478970Y5339454D01*
X10479317Y5339801D01*
X10479663Y5340009D01*
X10480426Y5340286D01*
X10480703Y5340355D01*
X10480981Y5340425D01*
X10481605D01*
X10482160Y5340286D01*
X10483269Y5340078D01*
X10483824Y5339939D01*
X10484240Y5339870D01*
X10484517Y5339731D01*
X10484656D01*
X10486806Y5339246D01*
X10488747Y5338830D01*
X10490411Y5338552D01*
X10491174Y5338483D01*
X10491798Y5338414D01*
X10492422Y5338344D01*
X10492977Y5338275D01*
X10493393D01*
X10493740Y5338206D01*
X10494433D01*
X10496028Y5338275D01*
X10497415Y5338414D01*
X10498663Y5338691D01*
X10499703Y5338968D01*
X10500535Y5339246D01*
X10501090Y5339523D01*
X10501437Y5339662D01*
X10501575Y5339731D01*
X10502477Y5340355D01*
X10503240Y5341049D01*
X10503864Y5341742D01*
X10504349Y5342436D01*
X10504765Y5343060D01*
X10504973Y5343545D01*
X10505112Y5343822D01*
X10505181Y5343961D01*
X10477999D01*
X10478068Y5346735D01*
X10478138Y5347914D01*
X10478207Y5348954D01*
X10478415Y5349925D01*
X10478554Y5350757D01*
X10478762Y5351450D01*
X10478970Y5352005D01*
X10479039Y5352282D01*
X10479109Y5352421D01*
X10479733Y5353669D01*
X10480357Y5354778D01*
X10480981Y5355819D01*
X10481605Y5356651D01*
X10482090Y5357344D01*
X10482506Y5357899D01*
X10482853Y5358176D01*
X10482922Y5358315D01*
X10483616Y5358939D01*
X10484379Y5359494D01*
X10485280Y5360048D01*
X10486043Y5360465D01*
X10486806Y5360811D01*
X10487430Y5361158D01*
X10487846Y5361297D01*
X10487915Y5361366D01*
X10487984D01*
X10489233Y5361851D01*
X10490550Y5362198D01*
X10491798Y5362475D01*
X10492908Y5362614D01*
X10493878Y5362753D01*
X10494641Y5362822D01*
X10495335D01*
X10496583Y5362753D01*
D02*
G37*
G36*
X10748225Y5371698D02*
X10748988Y5371629D01*
X10749612Y5371490D01*
X10750097Y5371282D01*
X10750444Y5371074D01*
X10750721Y5370935D01*
X10750860Y5370866D01*
X10750929Y5370796D01*
X10751276Y5370450D01*
X10751484Y5370034D01*
X10751761Y5369271D01*
X10751831Y5368924D01*
X10751900Y5368716D01*
Y5368508D01*
Y5368439D01*
X10751831Y5367953D01*
X10751761Y5367468D01*
X10751415Y5366705D01*
X10751207Y5366428D01*
X10751068Y5366220D01*
X10750999Y5366151D01*
X10750929Y5366081D01*
X10750444Y5365804D01*
X10749958Y5365596D01*
X10748780Y5365318D01*
X10748225Y5365249D01*
X10747809Y5365180D01*
X10747393D01*
Y5339246D01*
X10748225Y5339177D01*
X10748988Y5339107D01*
X10749612Y5338968D01*
X10750097Y5338760D01*
X10750444Y5338552D01*
X10750721Y5338414D01*
X10750860Y5338344D01*
X10750929Y5338275D01*
X10751276Y5337928D01*
X10751484Y5337512D01*
X10751761Y5336750D01*
X10751831Y5336403D01*
X10751900Y5336195D01*
Y5335987D01*
Y5335917D01*
X10751831Y5335432D01*
X10751761Y5334947D01*
X10751415Y5334184D01*
X10751207Y5333907D01*
X10751068Y5333699D01*
X10750999Y5333629D01*
X10750929Y5333560D01*
X10750444Y5333282D01*
X10749958Y5333074D01*
X10748780Y5332797D01*
X10748225Y5332728D01*
X10747809Y5332658D01*
X10734010D01*
X10732138Y5332728D01*
X10730473Y5332866D01*
X10729086Y5333144D01*
X10727838Y5333421D01*
X10726868Y5333629D01*
X10726174Y5333907D01*
X10725966Y5333976D01*
X10725758Y5334045D01*
X10725689Y5334115D01*
X10725619D01*
X10724857Y5334531D01*
X10724025Y5335016D01*
X10723331Y5335501D01*
X10722638Y5335987D01*
X10722083Y5336403D01*
X10721667Y5336750D01*
X10721320Y5337027D01*
X10721251Y5337096D01*
X10720419Y5337928D01*
X10719656Y5338830D01*
X10719032Y5339731D01*
X10718477Y5340563D01*
X10717992Y5341326D01*
X10717714Y5341881D01*
X10717506Y5342297D01*
X10717437Y5342366D01*
Y5342436D01*
X10716952Y5343684D01*
X10716605Y5345001D01*
X10716328Y5346249D01*
X10716189Y5347359D01*
X10716050Y5348399D01*
X10715981Y5349162D01*
Y5349439D01*
Y5349647D01*
Y5349786D01*
Y5349855D01*
Y5353045D01*
Y5354293D01*
X10716120Y5355403D01*
X10716258Y5356443D01*
X10716397Y5357275D01*
X10716536Y5357968D01*
X10716674Y5358454D01*
X10716744Y5358731D01*
X10716813Y5358870D01*
X10717160Y5359771D01*
X10717506Y5360603D01*
X10717922Y5361435D01*
X10718269Y5362129D01*
X10718616Y5362753D01*
X10718893Y5363238D01*
X10719101Y5363516D01*
X10719171Y5363654D01*
X10719725Y5364486D01*
X10720280Y5365249D01*
X10720765Y5365943D01*
X10721182Y5366497D01*
X10721528Y5366913D01*
X10721806Y5367191D01*
X10722014Y5367399D01*
X10722083Y5367468D01*
X10722846Y5368161D01*
X10723678Y5368716D01*
X10724510Y5369271D01*
X10725342Y5369687D01*
X10726035Y5370034D01*
X10726590Y5370311D01*
X10727006Y5370450D01*
X10727076Y5370519D01*
X10727145D01*
X10728324Y5370935D01*
X10729433Y5371213D01*
X10730473Y5371421D01*
X10731444Y5371559D01*
X10732276Y5371629D01*
X10732900Y5371698D01*
X10733455D01*
X10747393Y5371767D01*
X10748225Y5371698D01*
D02*
G37*
G36*
X10623132Y5361921D02*
X10623895Y5361851D01*
X10624519Y5361713D01*
X10625004Y5361505D01*
X10625351Y5361297D01*
X10625628Y5361158D01*
X10625767Y5361089D01*
X10625836Y5361019D01*
X10626183Y5360673D01*
X10626391Y5360256D01*
X10626668Y5359494D01*
X10626738Y5359147D01*
X10626807Y5358939D01*
Y5358731D01*
Y5358662D01*
X10626738Y5358176D01*
X10626668Y5357691D01*
X10626322Y5356928D01*
X10626114Y5356651D01*
X10625975Y5356443D01*
X10625906Y5356373D01*
X10625836Y5356304D01*
X10625351Y5356027D01*
X10624865Y5355819D01*
X10623687Y5355541D01*
X10623132Y5355472D01*
X10622716Y5355403D01*
X10616960D01*
Y5339246D01*
X10624865D01*
X10625698Y5339177D01*
X10626460Y5339107D01*
X10627084Y5338968D01*
X10627570Y5338760D01*
X10627917Y5338552D01*
X10628194Y5338414D01*
X10628333Y5338344D01*
X10628402Y5338275D01*
X10628749Y5337928D01*
X10628957Y5337512D01*
X10629234Y5336750D01*
X10629303Y5336403D01*
X10629373Y5336195D01*
Y5335987D01*
Y5335917D01*
X10629303Y5335432D01*
X10629234Y5334947D01*
X10628887Y5334184D01*
X10628679Y5333907D01*
X10628541Y5333699D01*
X10628471Y5333629D01*
X10628402Y5333560D01*
X10627917Y5333282D01*
X10627431Y5333074D01*
X10626252Y5332797D01*
X10625698Y5332728D01*
X10625282Y5332658D01*
X10602468D01*
X10601636Y5332728D01*
X10600873Y5332797D01*
X10600318Y5332936D01*
X10599833Y5333144D01*
X10599486Y5333282D01*
X10599209Y5333421D01*
X10599070Y5333490D01*
X10599001Y5333560D01*
X10598654Y5333907D01*
X10598377Y5334323D01*
X10598238Y5334739D01*
X10598099Y5335085D01*
X10598030Y5335432D01*
X10597961Y5335709D01*
Y5335848D01*
Y5335917D01*
X10598030Y5336472D01*
X10598099Y5336888D01*
X10598446Y5337651D01*
X10598654Y5337928D01*
X10598862Y5338136D01*
X10598932Y5338206D01*
X10599001Y5338275D01*
X10599417Y5338622D01*
X10599972Y5338830D01*
X10601151Y5339107D01*
X10601636Y5339177D01*
X10602052Y5339246D01*
X10610373D01*
Y5361990D01*
X10622300D01*
X10623132Y5361921D01*
D02*
G37*
G36*
X10534166Y5362683D02*
X10534998Y5362545D01*
X10535692Y5362406D01*
X10536246Y5362267D01*
X10536732Y5362129D01*
X10537009Y5362059D01*
X10537078Y5361990D01*
X10537841Y5361643D01*
X10538604Y5361297D01*
X10539297Y5360950D01*
X10539852Y5360534D01*
X10540338Y5360256D01*
X10540684Y5359979D01*
X10540962Y5359771D01*
X10541031Y5359702D01*
Y5361990D01*
X10547618D01*
X10548451Y5361921D01*
X10549213Y5361851D01*
X10549837Y5361713D01*
X10550323Y5361505D01*
X10550670Y5361297D01*
X10550947Y5361158D01*
X10551086Y5361089D01*
X10551155Y5361019D01*
X10551502Y5360673D01*
X10551710Y5360256D01*
X10551987Y5359494D01*
X10552056Y5359147D01*
X10552126Y5358939D01*
Y5358731D01*
Y5358662D01*
X10552056Y5358176D01*
X10551987Y5357691D01*
X10551640Y5356928D01*
X10551432Y5356651D01*
X10551294Y5356443D01*
X10551224Y5356373D01*
X10551155Y5356304D01*
X10550670Y5356027D01*
X10550184Y5355819D01*
X10549005Y5355541D01*
X10548451Y5355472D01*
X10548035Y5355403D01*
X10547618D01*
Y5339246D01*
X10548451D01*
X10549144Y5339177D01*
X10549699Y5339038D01*
X10550115Y5338968D01*
X10550461Y5338830D01*
X10550670Y5338691D01*
X10550739Y5338622D01*
X10550808D01*
X10551224Y5338136D01*
X10551571Y5337651D01*
X10551779Y5337235D01*
X10551987Y5336819D01*
X10552056Y5336472D01*
X10552126Y5336195D01*
Y5335987D01*
Y5335917D01*
X10552056Y5335432D01*
X10551987Y5334947D01*
X10551640Y5334184D01*
X10551432Y5333907D01*
X10551294Y5333699D01*
X10551224Y5333629D01*
X10551155Y5333560D01*
X10550670Y5333282D01*
X10550184Y5333074D01*
X10549005Y5332797D01*
X10548451Y5332728D01*
X10548035Y5332658D01*
X10541031D01*
X10540199Y5332728D01*
X10539436Y5332797D01*
X10538881Y5332936D01*
X10538396Y5333144D01*
X10538049Y5333282D01*
X10537772Y5333421D01*
X10537633Y5333490D01*
X10537564Y5333560D01*
X10537217Y5333907D01*
X10536940Y5334323D01*
X10536801Y5334739D01*
X10536662Y5335085D01*
X10536593Y5335432D01*
X10536524Y5335709D01*
Y5335848D01*
Y5335917D01*
X10536593Y5336472D01*
X10536732Y5336958D01*
X10537217Y5337790D01*
X10537495Y5338136D01*
X10537703Y5338414D01*
X10537841Y5338552D01*
X10537911Y5338622D01*
X10538257Y5338830D01*
X10538673Y5338968D01*
X10539713Y5339177D01*
X10540199Y5339246D01*
X10541031D01*
Y5351519D01*
X10540060Y5352490D01*
X10539228Y5353322D01*
X10538465Y5354016D01*
X10537841Y5354501D01*
X10537356Y5354917D01*
X10536940Y5355125D01*
X10536732Y5355264D01*
X10536662Y5355333D01*
X10535969Y5355611D01*
X10535276Y5355888D01*
X10534652Y5356027D01*
X10534027Y5356096D01*
X10533473Y5356165D01*
X10533057Y5356235D01*
X10532641D01*
X10531531Y5356165D01*
X10530630Y5356027D01*
X10529867Y5355819D01*
X10529174Y5355611D01*
X10528688Y5355333D01*
X10528341Y5355125D01*
X10528133Y5354986D01*
X10528064Y5354917D01*
X10527648Y5354501D01*
X10527371Y5354016D01*
X10527163Y5353461D01*
X10527024Y5352906D01*
X10526955Y5352490D01*
X10526885Y5352074D01*
Y5351797D01*
Y5351727D01*
Y5339246D01*
X10527717Y5339177D01*
X10528480Y5339107D01*
X10529104Y5338968D01*
X10529590Y5338760D01*
X10529936Y5338552D01*
X10530214Y5338414D01*
X10530352Y5338344D01*
X10530422Y5338275D01*
X10530768Y5337928D01*
X10530976Y5337512D01*
X10531254Y5336750D01*
X10531323Y5336403D01*
X10531392Y5336195D01*
Y5335987D01*
Y5335917D01*
X10531323Y5335432D01*
X10531254Y5334947D01*
X10530907Y5334184D01*
X10530699Y5333907D01*
X10530560Y5333699D01*
X10530491Y5333629D01*
X10530422Y5333560D01*
X10529936Y5333282D01*
X10529451Y5333074D01*
X10528272Y5332797D01*
X10527717Y5332728D01*
X10527301Y5332658D01*
X10520298D01*
X10519466Y5332728D01*
X10518703Y5332797D01*
X10518148Y5332936D01*
X10517663Y5333144D01*
X10517316Y5333282D01*
X10517039Y5333421D01*
X10516900Y5333490D01*
X10516831Y5333560D01*
X10516484Y5333907D01*
X10516207Y5334323D01*
X10516068Y5334739D01*
X10515929Y5335085D01*
X10515860Y5335432D01*
X10515790Y5335709D01*
Y5335848D01*
Y5335917D01*
X10515860Y5336472D01*
X10515929Y5336888D01*
X10516276Y5337651D01*
X10516484Y5337928D01*
X10516692Y5338136D01*
X10516761Y5338206D01*
X10516831Y5338275D01*
X10517247Y5338622D01*
X10517801Y5338830D01*
X10518980Y5339107D01*
X10519466Y5339177D01*
X10519882Y5339246D01*
X10520298D01*
Y5351519D01*
X10520436Y5353184D01*
X10520714Y5354709D01*
X10521199Y5356027D01*
X10521685Y5357136D01*
X10522170Y5357968D01*
X10522655Y5358592D01*
X10522933Y5359008D01*
X10523071Y5359147D01*
X10523765Y5359771D01*
X10524458Y5360395D01*
X10525221Y5360881D01*
X10525984Y5361297D01*
X10527509Y5361921D01*
X10528965Y5362337D01*
X10530283Y5362614D01*
X10530907Y5362683D01*
X10531392Y5362753D01*
X10531809Y5362822D01*
X10533334D01*
X10534166Y5362683D01*
D02*
G37*
G36*
X10448321Y5374472D02*
X10449083Y5374402D01*
X10449708Y5374264D01*
X10450193Y5374056D01*
X10450540Y5373848D01*
X10450817Y5373709D01*
X10450956Y5373639D01*
X10451025Y5373570D01*
X10451372Y5373223D01*
X10451580Y5372807D01*
X10451857Y5372045D01*
X10451927Y5371698D01*
X10451996Y5371490D01*
Y5371282D01*
Y5371213D01*
X10451927Y5370727D01*
X10451857Y5370242D01*
X10451510Y5369479D01*
X10451302Y5369202D01*
X10451164Y5368994D01*
X10451094Y5368924D01*
X10451025Y5368855D01*
X10450540Y5368578D01*
X10450054Y5368370D01*
X10448875Y5368092D01*
X10448321Y5368023D01*
X10447905Y5367953D01*
X10446379D01*
Y5359632D01*
X10447281Y5360187D01*
X10448182Y5360673D01*
X10449014Y5361089D01*
X10449777Y5361435D01*
X10450401Y5361643D01*
X10450886Y5361851D01*
X10451164Y5361990D01*
X10451302D01*
X10452204Y5362267D01*
X10453175Y5362475D01*
X10454007Y5362614D01*
X10454770Y5362753D01*
X10455394D01*
X10455948Y5362822D01*
X10456364D01*
X10457613Y5362753D01*
X10458861Y5362614D01*
X10460040Y5362406D01*
X10461149Y5362059D01*
X10462120Y5361713D01*
X10463091Y5361297D01*
X10463992Y5360881D01*
X10464824Y5360465D01*
X10465587Y5359979D01*
X10466211Y5359563D01*
X10466766Y5359147D01*
X10467251Y5358800D01*
X10467598Y5358454D01*
X10467875Y5358246D01*
X10468014Y5358107D01*
X10468083Y5358038D01*
X10468915Y5357136D01*
X10469609Y5356165D01*
X10470233Y5355264D01*
X10470788Y5354293D01*
X10471273Y5353322D01*
X10471620Y5352352D01*
X10472174Y5350549D01*
X10472382Y5349717D01*
X10472521Y5348954D01*
X10472660Y5348330D01*
X10472729Y5347706D01*
X10472798Y5347220D01*
Y5346873D01*
Y5346665D01*
Y5346596D01*
X10472729Y5345417D01*
X10472590Y5344308D01*
X10472382Y5343268D01*
X10472105Y5342228D01*
X10471342Y5340425D01*
X10470996Y5339593D01*
X10470510Y5338899D01*
X10470094Y5338206D01*
X10469747Y5337651D01*
X10469331Y5337096D01*
X10468985Y5336680D01*
X10468707Y5336333D01*
X10468499Y5336125D01*
X10468361Y5335987D01*
X10468291Y5335917D01*
X10467390Y5335155D01*
X10466488Y5334531D01*
X10465448Y5333907D01*
X10464477Y5333421D01*
X10463507Y5333005D01*
X10462467Y5332658D01*
X10460594Y5332173D01*
X10459693Y5331965D01*
X10458861Y5331826D01*
X10458167Y5331757D01*
X10457543Y5331688D01*
X10456988Y5331618D01*
X10455324D01*
X10454353Y5331757D01*
X10453452Y5331826D01*
X10452689Y5331965D01*
X10452065Y5332104D01*
X10451580Y5332173D01*
X10451302Y5332312D01*
X10451164D01*
X10449361Y5332866D01*
X10448529Y5333213D01*
X10447835Y5333490D01*
X10447211Y5333837D01*
X10446795Y5334045D01*
X10446448Y5334184D01*
X10446379Y5334253D01*
Y5332658D01*
X10438682D01*
X10437850Y5332728D01*
X10437087Y5332797D01*
X10436533Y5332936D01*
X10436047Y5333144D01*
X10435700Y5333282D01*
X10435423Y5333421D01*
X10435284Y5333490D01*
X10435215Y5333560D01*
X10434868Y5333907D01*
X10434591Y5334323D01*
X10434452Y5334739D01*
X10434314Y5335085D01*
X10434244Y5335432D01*
X10434175Y5335709D01*
Y5335848D01*
Y5335917D01*
X10434244Y5336472D01*
X10434314Y5336888D01*
X10434660Y5337651D01*
X10434868Y5337928D01*
X10435076Y5338136D01*
X10435146Y5338206D01*
X10435215Y5338275D01*
X10435631Y5338622D01*
X10436186Y5338830D01*
X10437365Y5339107D01*
X10437850Y5339177D01*
X10438266Y5339246D01*
X10439792D01*
Y5374541D01*
X10447489D01*
X10448321Y5374472D01*
D02*
G37*
%LPC*%
G36*
X10421700Y5271509D02*
X10353190D01*
Y5245020D01*
X10353329Y5244188D01*
X10353467Y5243079D01*
X10354022Y5240721D01*
X10354438Y5239750D01*
X10355132Y5238779D01*
X10355270Y5238641D01*
X10355409Y5238502D01*
X10355825Y5238225D01*
X10356380Y5237809D01*
X10357905Y5237115D01*
X10358737Y5236977D01*
X10359847Y5236838D01*
X10360263D01*
X10360818Y5236977D01*
X10361511Y5237115D01*
X10363037Y5237670D01*
X10363869Y5238086D01*
X10364562Y5238779D01*
X10364701Y5238918D01*
X10364840Y5239196D01*
X10365117Y5239750D01*
X10365394Y5240444D01*
X10365810Y5241414D01*
X10366088Y5242663D01*
X10366226Y5244188D01*
X10366365Y5245852D01*
Y5258334D01*
X10380927D01*
Y5206466D01*
X10371219D01*
X10370387Y5206327D01*
X10369416Y5206189D01*
X10367059Y5205634D01*
X10365949Y5205218D01*
X10365117Y5204525D01*
X10364978Y5204386D01*
X10364840Y5204247D01*
X10364424Y5203831D01*
X10364007Y5203276D01*
X10363314Y5201751D01*
X10363175Y5200919D01*
X10363037Y5199809D01*
Y5199671D01*
Y5199393D01*
X10363175Y5198838D01*
X10363314Y5198145D01*
X10363591Y5197452D01*
X10363869Y5196620D01*
X10364424Y5195787D01*
X10365117Y5195094D01*
X10365256Y5194955D01*
X10365533Y5194817D01*
X10366088Y5194539D01*
X10366781Y5194262D01*
X10367752Y5193846D01*
X10368861Y5193568D01*
X10370387Y5193430D01*
X10372051Y5193291D01*
X10403810D01*
X10404642Y5193430D01*
X10405751Y5193568D01*
X10408109Y5194123D01*
X10409080Y5194539D01*
X10410051Y5195094D01*
X10410189Y5195233D01*
X10410328Y5195371D01*
X10410605Y5195787D01*
X10411021Y5196342D01*
X10411715Y5197868D01*
X10411853Y5198838D01*
X10411992Y5199809D01*
Y5199948D01*
Y5200364D01*
X10411853Y5200780D01*
X10411715Y5201473D01*
X10411160Y5202999D01*
X10410744Y5203831D01*
X10410051Y5204525D01*
X10409912Y5204663D01*
X10409635Y5204802D01*
X10409080Y5205079D01*
X10408386Y5205495D01*
X10407416Y5205911D01*
X10406167Y5206189D01*
X10404642Y5206327D01*
X10402978Y5206466D01*
X10394102D01*
Y5258334D01*
X10408525D01*
Y5245852D01*
Y5245575D01*
Y5245020D01*
X10408664Y5244188D01*
X10408802Y5243079D01*
X10409357Y5240721D01*
X10409773Y5239750D01*
X10410467Y5238779D01*
X10410605Y5238641D01*
X10410744Y5238502D01*
X10411160Y5238225D01*
X10411715Y5237809D01*
X10413240Y5237115D01*
X10414072Y5236977D01*
X10415182Y5236838D01*
X10415598D01*
X10416153Y5236977D01*
X10416846Y5237115D01*
X10418372Y5237670D01*
X10419204Y5238086D01*
X10419897Y5238779D01*
X10420036Y5238918D01*
X10420174Y5239196D01*
X10420452Y5239750D01*
X10420729Y5240444D01*
X10421145Y5241414D01*
X10421423Y5242663D01*
X10421561Y5244188D01*
X10421700Y5245852D01*
Y5271509D01*
D02*
G37*
G36*
X10329198D02*
X10300906D01*
X10274418Y5206466D01*
X10272753D01*
X10271783Y5206327D01*
X10269702Y5205911D01*
X10268870Y5205634D01*
X10268177Y5205218D01*
X10268038Y5205079D01*
X10267761Y5204802D01*
X10267345Y5204247D01*
X10266790Y5203554D01*
X10266153Y5202462D01*
X10265958Y5202999D01*
X10265542Y5203831D01*
X10265403Y5203970D01*
X10264848Y5204525D01*
X10264710Y5204663D01*
X10264432Y5204802D01*
X10263878Y5205079D01*
X10263184Y5205495D01*
X10262213Y5205911D01*
X10260965Y5206189D01*
X10259440Y5206327D01*
X10257776Y5206466D01*
X10255695D01*
Y5258334D01*
X10258608D01*
X10259440Y5258473D01*
X10260549Y5258611D01*
X10262907Y5259166D01*
X10263878Y5259582D01*
X10264848Y5260137D01*
X10264987Y5260275D01*
X10265126Y5260414D01*
X10265403Y5260830D01*
X10265819Y5261385D01*
X10266513Y5262910D01*
X10266651Y5263881D01*
X10266790Y5264852D01*
Y5264991D01*
Y5265407D01*
X10266651Y5265823D01*
X10266513Y5266516D01*
X10265958Y5268042D01*
X10265542Y5268874D01*
X10265403Y5269013D01*
X10264848Y5269567D01*
X10264710Y5269706D01*
X10264432Y5269845D01*
X10263878Y5270122D01*
X10263184Y5270538D01*
X10262213Y5270954D01*
X10260965Y5271232D01*
X10259440Y5271370D01*
X10257776Y5271509D01*
X10223521D01*
X10222688Y5271370D01*
X10221579D01*
X10220470Y5271232D01*
X10217696Y5270677D01*
X10214645Y5269845D01*
X10211455Y5268735D01*
X10208404Y5267071D01*
X10206878Y5265962D01*
X10205492Y5264852D01*
X10205353Y5264713D01*
X10205214Y5264575D01*
X10204798Y5264159D01*
X10204382Y5263743D01*
X10203134Y5262217D01*
X10201747Y5260414D01*
X10200499Y5258057D01*
X10199251Y5255422D01*
X10198419Y5252370D01*
X10198280Y5250706D01*
X10198141Y5249042D01*
Y5248903D01*
Y5248349D01*
X10198280Y5247517D01*
X10198419Y5246407D01*
X10198557Y5245159D01*
X10198835Y5243772D01*
X10199390Y5242385D01*
X10199944Y5240860D01*
X10200083Y5240721D01*
X10200222Y5240166D01*
X10200638Y5239473D01*
X10201192Y5238641D01*
X10201886Y5237531D01*
X10202718Y5236422D01*
X10203827Y5235174D01*
X10204937Y5233926D01*
X10204798D01*
X10204660Y5233787D01*
X10203966Y5233232D01*
X10202857Y5232539D01*
X10201470Y5231429D01*
X10199944Y5230181D01*
X10198419Y5228656D01*
X10196893Y5226991D01*
X10195645Y5225188D01*
X10195506Y5224911D01*
X10195090Y5224356D01*
X10194674Y5223247D01*
X10193981Y5221860D01*
X10193426Y5220196D01*
X10193010Y5218254D01*
X10192594Y5216174D01*
X10192455Y5213816D01*
Y5212984D01*
X10192594Y5212013D01*
X10192733Y5210765D01*
X10193010Y5209378D01*
X10193426Y5207853D01*
X10193981Y5206189D01*
X10194813Y5204525D01*
X10194952Y5204386D01*
X10195090Y5203970D01*
X10195506Y5203415D01*
X10195922Y5202722D01*
X10197309Y5201057D01*
X10198974Y5199393D01*
X10199112Y5199255D01*
X10199528Y5198977D01*
X10200222Y5198422D01*
X10201192Y5197868D01*
X10202302Y5197036D01*
X10203689Y5196342D01*
X10205214Y5195649D01*
X10207017Y5194955D01*
X10207295D01*
X10207849Y5194678D01*
X10208820Y5194401D01*
X10210207Y5194123D01*
X10212010Y5193846D01*
X10214090Y5193568D01*
X10216309Y5193430D01*
X10218944Y5193291D01*
X10258608D01*
X10259440Y5193430D01*
X10260549Y5193568D01*
X10262907Y5194123D01*
X10263878Y5194539D01*
X10264848Y5195094D01*
X10264987Y5195233D01*
X10265126Y5195371D01*
X10265403Y5195787D01*
X10265819Y5196342D01*
X10266113Y5196988D01*
X10266235Y5196620D01*
X10266790Y5195787D01*
X10267483Y5195094D01*
X10267622Y5194955D01*
X10267899Y5194817D01*
X10268454Y5194539D01*
X10269148Y5194262D01*
X10270118Y5193846D01*
X10271228Y5193568D01*
X10272753Y5193430D01*
X10274418Y5193291D01*
X10292724D01*
X10293556Y5193430D01*
X10294527Y5193568D01*
X10296884Y5194123D01*
X10297994Y5194539D01*
X10298826Y5195094D01*
X10298965Y5195233D01*
X10299103Y5195371D01*
X10299381Y5195787D01*
X10299797Y5196342D01*
X10300490Y5197868D01*
X10300629Y5198838D01*
X10300768Y5199809D01*
Y5199948D01*
Y5200364D01*
X10300629Y5200780D01*
X10300490Y5201473D01*
X10299935Y5202999D01*
X10299519Y5203831D01*
X10298826Y5204525D01*
X10298687Y5204663D01*
X10298410Y5204802D01*
X10297855Y5205079D01*
X10297162Y5205495D01*
X10296191Y5205911D01*
X10295082Y5206189D01*
X10293556Y5206327D01*
X10291892Y5206466D01*
X10288702D01*
X10292030Y5214648D01*
X10323928D01*
X10327256Y5206466D01*
X10323234D01*
X10322402Y5206327D01*
X10321431Y5206189D01*
X10319074Y5205634D01*
X10317964Y5205218D01*
X10317132Y5204525D01*
X10316994Y5204386D01*
X10316855Y5204247D01*
X10316439Y5203831D01*
X10316023Y5203276D01*
X10315329Y5201751D01*
X10315191Y5200919D01*
X10315052Y5199809D01*
Y5199671D01*
Y5199393D01*
X10315191Y5198838D01*
X10315329Y5198145D01*
X10315607Y5197452D01*
X10315884Y5196620D01*
X10316439Y5195787D01*
X10317132Y5195094D01*
X10317271Y5194955D01*
X10317548Y5194817D01*
X10318103Y5194539D01*
X10318796Y5194262D01*
X10319767Y5193846D01*
X10320877Y5193568D01*
X10322402Y5193430D01*
X10324066Y5193291D01*
X10342373D01*
X10343205Y5193430D01*
X10344176Y5193568D01*
X10346395Y5194123D01*
X10347504Y5194539D01*
X10348336Y5195094D01*
X10348475Y5195233D01*
X10348614Y5195371D01*
X10349030Y5195787D01*
X10349307Y5196342D01*
X10350139Y5197868D01*
X10350278Y5198838D01*
X10350416Y5199809D01*
Y5200364D01*
X10350278Y5200780D01*
X10350139Y5201473D01*
X10349862Y5202306D01*
X10349584Y5202999D01*
X10349030Y5203831D01*
X10348336Y5204525D01*
X10348197Y5204663D01*
X10347920Y5204802D01*
X10347504Y5205079D01*
X10346811Y5205495D01*
X10345840Y5205911D01*
X10344592Y5206189D01*
X10343205Y5206327D01*
X10341541Y5206466D01*
X10320599Y5258334D01*
X10330030D01*
X10330862Y5258473D01*
X10331833Y5258611D01*
X10334190Y5259166D01*
X10335300Y5259582D01*
X10336132Y5260137D01*
X10336271Y5260275D01*
X10336409Y5260414D01*
X10336687Y5260830D01*
X10337103Y5261385D01*
X10337796Y5262910D01*
X10337935Y5263881D01*
X10338074Y5264852D01*
Y5264991D01*
Y5265407D01*
X10337935Y5265823D01*
X10337796Y5266516D01*
X10337241Y5268042D01*
X10336825Y5268874D01*
X10336132Y5269567D01*
X10335993Y5269706D01*
X10335716Y5269845D01*
X10335161Y5270122D01*
X10334468Y5270538D01*
X10333497Y5270954D01*
X10332388Y5271232D01*
X10330862Y5271370D01*
X10329198Y5271509D01*
D02*
G37*
%LPD*%
G36*
X10242520Y5238918D02*
X10226572D01*
X10225185Y5239196D01*
X10223382Y5239473D01*
X10221302Y5239889D01*
X10219083Y5240582D01*
X10217002Y5241553D01*
X10214922Y5242801D01*
X10214783Y5242940D01*
X10214367Y5243217D01*
X10213813Y5243911D01*
X10213119Y5244604D01*
X10212426Y5245575D01*
X10211871Y5246684D01*
X10211455Y5248071D01*
X10211316Y5249458D01*
Y5249597D01*
Y5250013D01*
X10211455Y5250706D01*
X10211732Y5251538D01*
X10212148Y5252509D01*
X10212703Y5253480D01*
X10213535Y5254589D01*
X10214645Y5255560D01*
X10214783Y5255699D01*
X10215338Y5255976D01*
X10216032Y5256392D01*
X10217141Y5256947D01*
X10218667Y5257502D01*
X10220470Y5257918D01*
X10222688Y5258195D01*
X10225185Y5258334D01*
X10242520D01*
Y5238918D01*
D02*
G37*
G36*
X10318658Y5227823D02*
X10297300D01*
X10307979Y5254035D01*
X10318658Y5227823D01*
D02*
G37*
G36*
X10242520Y5206466D02*
X10218389D01*
X10216864Y5206605D01*
X10215200Y5206743D01*
X10213258Y5207021D01*
X10211455Y5207437D01*
X10209652Y5207992D01*
X10208265Y5208824D01*
X10208127Y5208962D01*
X10207849Y5209101D01*
X10207433Y5209517D01*
X10206878Y5210211D01*
X10206462Y5210904D01*
X10206046Y5211736D01*
X10205769Y5212846D01*
X10205630Y5213955D01*
Y5214094D01*
X10205769Y5214648D01*
X10205908Y5215481D01*
X10206185Y5216451D01*
X10206878Y5217699D01*
X10207711Y5218948D01*
X10208959Y5220473D01*
X10210623Y5221860D01*
X10210900Y5221999D01*
X10211594Y5222415D01*
X10212703Y5223108D01*
X10214229Y5223802D01*
X10216309Y5224495D01*
X10218805Y5225188D01*
X10221718Y5225604D01*
X10225046Y5225743D01*
X10242520D01*
Y5206466D01*
D02*
G37*
%LPC*%
G36*
X10576257Y5356304D02*
X10575910D01*
X10574523Y5356165D01*
X10573275Y5355888D01*
X10572166Y5355472D01*
X10571195Y5354986D01*
X10570432Y5354432D01*
X10569877Y5354016D01*
X10569531Y5353738D01*
X10569392Y5353600D01*
X10568490Y5352560D01*
X10567797Y5351450D01*
X10567312Y5350410D01*
X10567034Y5349370D01*
X10566826Y5348538D01*
X10566757Y5347844D01*
X10566688Y5347567D01*
Y5347359D01*
Y5347290D01*
Y5347220D01*
X10566826Y5345903D01*
X10567104Y5344655D01*
X10567520Y5343614D01*
X10568005Y5342644D01*
X10568560Y5341881D01*
X10568976Y5341326D01*
X10569253Y5340979D01*
X10569392Y5340841D01*
X10570432Y5339939D01*
X10571541Y5339315D01*
X10572651Y5338830D01*
X10573691Y5338552D01*
X10574593Y5338344D01*
X10575286Y5338275D01*
X10575563Y5338206D01*
X10575910D01*
X10577297Y5338344D01*
X10578545Y5338622D01*
X10579654Y5339038D01*
X10580625Y5339523D01*
X10581388Y5340009D01*
X10581943Y5340425D01*
X10582289Y5340702D01*
X10582428Y5340841D01*
X10583330Y5341881D01*
X10583954Y5342990D01*
X10584439Y5344030D01*
X10584716Y5345071D01*
X10584924Y5345903D01*
X10584994Y5346596D01*
X10585063Y5346873D01*
Y5347082D01*
Y5347151D01*
Y5347220D01*
X10584924Y5348538D01*
X10584647Y5349786D01*
X10584231Y5350826D01*
X10583746Y5351797D01*
X10583260Y5352560D01*
X10582844Y5353114D01*
X10582567Y5353461D01*
X10582428Y5353600D01*
X10581388Y5354501D01*
X10580279Y5355195D01*
X10579169Y5355680D01*
X10578129Y5355957D01*
X10577228Y5356165D01*
X10576534Y5356235D01*
X10576257Y5356304D01*
D02*
G37*
G36*
X10374610Y5356235D02*
X10374194D01*
X10372669Y5356096D01*
X10371351Y5355819D01*
X10370103Y5355333D01*
X10369063Y5354848D01*
X10368231Y5354293D01*
X10367607Y5353808D01*
X10367260Y5353530D01*
X10367121Y5353392D01*
X10366150Y5352282D01*
X10365457Y5351103D01*
X10364902Y5349925D01*
X10364556Y5348815D01*
X10364348Y5347844D01*
X10364278Y5347082D01*
X10364209Y5346804D01*
Y5346596D01*
Y5346457D01*
Y5346388D01*
X10364348Y5345140D01*
X10364625Y5343961D01*
X10365041Y5342990D01*
X10365526Y5342089D01*
X10366012Y5341395D01*
X10366428Y5340910D01*
X10366705Y5340633D01*
X10366844Y5340494D01*
X10367884Y5339731D01*
X10369132Y5339177D01*
X10370311Y5338760D01*
X10371490Y5338483D01*
X10372530Y5338344D01*
X10373015Y5338275D01*
X10373431D01*
X10373709Y5338206D01*
X10374194D01*
X10375858Y5338275D01*
X10377315Y5338552D01*
X10378563Y5338899D01*
X10379603Y5339385D01*
X10380435Y5339801D01*
X10380990Y5340147D01*
X10381336Y5340425D01*
X10381475Y5340494D01*
X10382307Y5341465D01*
X10382931Y5342436D01*
X10383417Y5343476D01*
X10383694Y5344377D01*
X10383902Y5345209D01*
X10383971Y5345903D01*
X10384041Y5346180D01*
Y5346388D01*
Y5346457D01*
Y5346527D01*
X10383902Y5347983D01*
X10383625Y5349300D01*
X10383139Y5350479D01*
X10382585Y5351450D01*
X10382099Y5352282D01*
X10381614Y5352906D01*
X10381336Y5353253D01*
X10381198Y5353392D01*
X10380088Y5354362D01*
X10378840Y5355056D01*
X10377731Y5355541D01*
X10376621Y5355888D01*
X10375650Y5356096D01*
X10374888Y5356165D01*
X10374610Y5356235D01*
D02*
G37*
G36*
X10694069D02*
X10693514D01*
X10692266Y5356165D01*
X10691156Y5356027D01*
X10690186Y5355749D01*
X10689354Y5355541D01*
X10688660Y5355264D01*
X10688105Y5354986D01*
X10687828Y5354848D01*
X10687689Y5354778D01*
X10686788Y5354224D01*
X10686025Y5353530D01*
X10685332Y5352837D01*
X10684708Y5352143D01*
X10684292Y5351519D01*
X10683945Y5351034D01*
X10683737Y5350687D01*
X10683667Y5350549D01*
X10703291D01*
X10702667Y5351519D01*
X10702043Y5352421D01*
X10701350Y5353114D01*
X10700726Y5353738D01*
X10700171Y5354224D01*
X10699755Y5354501D01*
X10699477Y5354709D01*
X10699339Y5354778D01*
X10698368Y5355264D01*
X10697397Y5355611D01*
X10696426Y5355888D01*
X10695456Y5356027D01*
X10694693Y5356165D01*
X10694069Y5356235D01*
D02*
G37*
G36*
X10495751D02*
X10495196D01*
X10493948Y5356165D01*
X10492838Y5356027D01*
X10491868Y5355749D01*
X10491035Y5355541D01*
X10490342Y5355264D01*
X10489787Y5354986D01*
X10489510Y5354848D01*
X10489371Y5354778D01*
X10488470Y5354224D01*
X10487707Y5353530D01*
X10487014Y5352837D01*
X10486389Y5352143D01*
X10485973Y5351519D01*
X10485627Y5351034D01*
X10485419Y5350687D01*
X10485349Y5350549D01*
X10504973D01*
X10504349Y5351519D01*
X10503725Y5352421D01*
X10503032Y5353114D01*
X10502407Y5353738D01*
X10501853Y5354224D01*
X10501437Y5354501D01*
X10501159Y5354709D01*
X10501021Y5354778D01*
X10500050Y5355264D01*
X10499079Y5355611D01*
X10498108Y5355888D01*
X10497138Y5356027D01*
X10496375Y5356165D01*
X10495751Y5356235D01*
D02*
G37*
G36*
X10740805Y5365180D02*
X10733871D01*
X10732623Y5365110D01*
X10731444Y5364972D01*
X10730473Y5364764D01*
X10729641Y5364486D01*
X10728948Y5364209D01*
X10728462Y5364001D01*
X10728116Y5363862D01*
X10728046Y5363793D01*
X10727214Y5363169D01*
X10726382Y5362406D01*
X10725689Y5361574D01*
X10725065Y5360742D01*
X10724510Y5359979D01*
X10724163Y5359355D01*
X10723886Y5358870D01*
X10723816Y5358800D01*
Y5358731D01*
X10723400Y5357830D01*
X10723123Y5356859D01*
X10722846Y5355957D01*
X10722707Y5355056D01*
X10722638Y5354293D01*
X10722568Y5353738D01*
Y5353322D01*
Y5353253D01*
Y5353184D01*
Y5350063D01*
X10722638Y5348746D01*
X10722776Y5347636D01*
X10722984Y5346596D01*
X10723262Y5345764D01*
X10723539Y5345071D01*
X10723747Y5344516D01*
X10723886Y5344238D01*
X10723955Y5344100D01*
X10724510Y5343268D01*
X10725134Y5342574D01*
X10725758Y5341881D01*
X10726382Y5341395D01*
X10726937Y5340910D01*
X10727422Y5340633D01*
X10727700Y5340425D01*
X10727838Y5340355D01*
X10728670Y5340009D01*
X10729641Y5339731D01*
X10730612Y5339523D01*
X10731583Y5339385D01*
X10732415Y5339315D01*
X10733178Y5339246D01*
X10740805D01*
Y5365180D01*
D02*
G37*
G36*
X10456780Y5356235D02*
X10456364D01*
X10454839Y5356096D01*
X10453521Y5355819D01*
X10452273Y5355333D01*
X10451233Y5354848D01*
X10450401Y5354293D01*
X10449777Y5353808D01*
X10449430Y5353530D01*
X10449292Y5353392D01*
X10448321Y5352282D01*
X10447627Y5351103D01*
X10447073Y5349925D01*
X10446726Y5348815D01*
X10446518Y5347844D01*
X10446448Y5347082D01*
X10446379Y5346804D01*
Y5346596D01*
Y5346457D01*
Y5346388D01*
X10446518Y5345140D01*
X10446795Y5343961D01*
X10447211Y5342990D01*
X10447697Y5342089D01*
X10448182Y5341395D01*
X10448598Y5340910D01*
X10448875Y5340633D01*
X10449014Y5340494D01*
X10450054Y5339731D01*
X10451302Y5339177D01*
X10452481Y5338760D01*
X10453660Y5338483D01*
X10454700Y5338344D01*
X10455186Y5338275D01*
X10455602D01*
X10455879Y5338206D01*
X10456364D01*
X10458029Y5338275D01*
X10459485Y5338552D01*
X10460733Y5338899D01*
X10461773Y5339385D01*
X10462605Y5339801D01*
X10463160Y5340147D01*
X10463507Y5340425D01*
X10463645Y5340494D01*
X10464477Y5341465D01*
X10465101Y5342436D01*
X10465587Y5343476D01*
X10465864Y5344377D01*
X10466072Y5345209D01*
X10466142Y5345903D01*
X10466211Y5346180D01*
Y5346388D01*
Y5346457D01*
Y5346527D01*
X10466072Y5347983D01*
X10465795Y5349300D01*
X10465310Y5350479D01*
X10464755Y5351450D01*
X10464269Y5352282D01*
X10463784Y5352906D01*
X10463507Y5353253D01*
X10463368Y5353392D01*
X10462258Y5354362D01*
X10461010Y5355056D01*
X10459901Y5355541D01*
X10458791Y5355888D01*
X10457821Y5356096D01*
X10457058Y5356165D01*
X10456780Y5356235D01*
D02*
G37*
%LPD*%
D43*
X9067800Y7639000D02*
X9321800D01*
X9067800Y6077000D02*
Y7639000D01*
Y6077000D02*
X9321800D01*
Y7639000D01*
%TF.MD5,1ea658daea0a60c3365e2e495eee0363*%
M02*
