%TF.GenerationSoftware,Altium Limited,Altium Designer,23.11.1 (41)*%
G04 Layer_Color=16711935*
%FSLAX45Y45*%
%MOMM*%
%TF.SameCoordinates,373CF29D-5C1F-4E46-B166-7562B9940524*%
%TF.FilePolarity,Negative*%
%TF.FileFunction,Soldermask,Bot*%
%TF.Part,Single*%
G01*
G75*
%TA.AperFunction,NonConductor*%
%ADD56C,2.00000*%
%TA.AperFunction,ComponentPad*%
%ADD64R,1.71120X1.71120*%
%ADD65C,1.71120*%
%ADD66P,2.26727X4X90.0*%
%ADD67C,1.60320*%
%ADD68R,1.60320X1.60320*%
%ADD69C,2.15320*%
%ADD70R,2.15320X2.15320*%
%ADD71R,1.71120X1.71120*%
%ADD72R,1.15000X1.15000*%
%ADD73C,1.15000*%
%ADD74R,2.15320X2.15320*%
%TA.AperFunction,ViaPad*%
%ADD75C,0.80320*%
G36*
X5270538Y2908338D02*
Y469938D01*
X5130838Y330238D01*
X3733838D01*
Y2844838D01*
X3860838Y2971838D01*
X5207038D01*
X5270538Y2908338D01*
D02*
G37*
D56*
X350000Y4250000D02*
G03*
X350000Y4250000I-100000J0D01*
G01*
Y250000D02*
G03*
X350000Y250000I-100000J0D01*
G01*
X6350000D02*
G03*
X6350000Y250000I-100000J0D01*
G01*
Y4250000D02*
G03*
X6350000Y4250000I-100000J0D01*
G01*
D64*
X508038Y3632238D02*
D03*
Y2362238D02*
D03*
X508038Y2997238D02*
D03*
D65*
X254038Y3632238D02*
D03*
X292138Y1189838D02*
D03*
Y1689838D02*
D03*
Y1439838D02*
D03*
X254038Y2362238D02*
D03*
Y2997238D02*
D03*
D66*
X3925361Y3544361D02*
D03*
D67*
X4278915Y3897915D02*
D03*
X3009938Y3441738D02*
D03*
D68*
Y3941738D02*
D03*
D69*
X5880138Y2019338D02*
D03*
X1549438Y3810038D02*
D03*
D70*
X5880138Y2527338D02*
D03*
D71*
X292138Y939838D02*
D03*
D72*
X1460538Y2971838D02*
D03*
Y2451138D02*
D03*
D73*
Y2844838D02*
D03*
Y2717838D02*
D03*
Y2197139D02*
D03*
Y2324138D02*
D03*
D74*
X2057438Y3810038D02*
D03*
D75*
X4356100Y673100D02*
D03*
X4584700D02*
D03*
X4470400D02*
D03*
X4356100Y431800D02*
D03*
X4584700D02*
D03*
X4470400D02*
D03*
Y787400D02*
D03*
X4584700Y533400D02*
D03*
Y787400D02*
D03*
X4470400Y533400D02*
D03*
X4356100Y787400D02*
D03*
Y533400D02*
D03*
X4800600Y1524000D02*
D03*
X5029200D02*
D03*
X4914900D02*
D03*
X5029200Y1168400D02*
D03*
X4800600D02*
D03*
X4914900D02*
D03*
Y1282700D02*
D03*
X4800600Y1409700D02*
D03*
Y1282700D02*
D03*
X5029200D02*
D03*
Y1409700D02*
D03*
X4914900D02*
D03*
Y1816100D02*
D03*
X5029200D02*
D03*
X4914900Y1930400D02*
D03*
X4800600Y2159000D02*
D03*
X5029200Y1930400D02*
D03*
X4914900Y2159000D02*
D03*
X5029200D02*
D03*
X4800600Y1816100D02*
D03*
X5029238Y2044738D02*
D03*
X4800638D02*
D03*
X4914938D02*
D03*
X4800600Y1930400D02*
D03*
X4572000Y2565400D02*
D03*
X4343400D02*
D03*
X4457700D02*
D03*
X4343400Y2806700D02*
D03*
X4572000D02*
D03*
X4457700D02*
D03*
X4343400Y2679700D02*
D03*
X4572000D02*
D03*
X4457700D02*
D03*
X2578100Y863600D02*
D03*
X457200Y800100D02*
D03*
X876300Y685800D02*
D03*
X622300D02*
D03*
X1104900D02*
D03*
X1117600Y292100D02*
D03*
X863600D02*
D03*
X584200D02*
D03*
X1346200D02*
D03*
X1892300Y685800D02*
D03*
X1638300D02*
D03*
X1358900D02*
D03*
X2120900D02*
D03*
X2146300Y292100D02*
D03*
X1892300D02*
D03*
X1612900D02*
D03*
X2374900D02*
D03*
X4572038Y2921038D02*
D03*
X4457738D02*
D03*
X4343438D02*
D03*
X4686338Y165138D02*
D03*
Y266738D02*
D03*
X3962438Y787438D02*
D03*
X3835438D02*
D03*
X4076738D02*
D03*
X4191038D02*
D03*
X4318038Y1663738D02*
D03*
Y1549438D02*
D03*
X4406938Y1346238D02*
D03*
Y1473238D02*
D03*
Y1955838D02*
D03*
X254038Y1981238D02*
D03*
X2641600Y292100D02*
D03*
X965238Y2705138D02*
D03*
X1117638Y2349538D02*
D03*
X1295438Y2717838D02*
D03*
X673138Y2743238D02*
D03*
X863638Y2768638D02*
D03*
X787438Y2616238D02*
D03*
X2374938Y1435138D02*
D03*
X3683038Y1993938D02*
D03*
X3797338Y482638D02*
D03*
X3784638Y685838D02*
D03*
Y2806738D02*
D03*
Y2590838D02*
D03*
X3962438Y381038D02*
D03*
X4076738D02*
D03*
X4191038D02*
D03*
Y584238D02*
D03*
X2857500Y457200D02*
D03*
X3048000Y660400D02*
D03*
X3263938Y1219238D02*
D03*
X2374938Y977938D02*
D03*
X2362200Y685800D02*
D03*
X3136938Y2362238D02*
D03*
X2374938Y2057438D02*
D03*
Y2362238D02*
D03*
Y1778038D02*
D03*
X3848138Y381038D02*
D03*
X3835438Y584238D02*
D03*
X3898938Y685838D02*
D03*
X4076738Y584238D02*
D03*
X3962438D02*
D03*
X4127538Y685838D02*
D03*
X4013238D02*
D03*
X4025938Y482638D02*
D03*
X4140238D02*
D03*
X3911638D02*
D03*
X3860838Y2489238D02*
D03*
X3924338Y2590838D02*
D03*
X4152938D02*
D03*
X4038638D02*
D03*
X2654338Y2362238D02*
D03*
X4597438Y1663738D02*
D03*
X4470438D02*
D03*
X3987838Y228638D02*
D03*
X5207000Y152400D02*
D03*
X5537200Y393700D02*
D03*
X5791200Y647700D02*
D03*
X6019800Y876300D02*
D03*
X6235700Y1092200D02*
D03*
X6400800Y1308100D02*
D03*
X6413500Y2006600D02*
D03*
Y2514600D02*
D03*
X6400838Y3048038D02*
D03*
X5626138Y3060738D02*
D03*
X5105438D02*
D03*
X4533938Y3276638D02*
D03*
X4876838D02*
D03*
X3302038Y2692438D02*
D03*
X4051338Y3975138D02*
D03*
X4267238Y3276638D02*
D03*
X3759238Y4267238D02*
D03*
X4318038Y2019338D02*
D03*
X4406938Y2082838D02*
D03*
X4318038Y1879638D02*
D03*
X4406938Y1231938D02*
D03*
X4318038Y1409738D02*
D03*
X3784600Y228600D02*
D03*
X3619538Y482638D02*
D03*
Y749338D02*
D03*
X3492538Y889038D02*
D03*
X3238500Y838200D02*
D03*
X2908338Y2362238D02*
D03*
X3302038Y3022638D02*
D03*
X2641638Y3429038D02*
D03*
X2146338D02*
D03*
X4038638Y2806738D02*
D03*
X4152938D02*
D03*
X3987838Y2705138D02*
D03*
X4102138Y2908338D02*
D03*
X3987838D02*
D03*
X4102138Y2705138D02*
D03*
X3860838Y2908338D02*
D03*
X3924338Y2806738D02*
D03*
X3860838Y2705138D02*
D03*
%TF.MD5,10f252e8bdccd5905d76833e6b69e3e8*%
M02*
